<svg xmlns="http://www.w3.org/2000/svg" width="1200" height="760" viewBox="0 0 1200 760">
<style>text{font-family:Arial,sans-serif;fill:#111} .part{fill:#e8edf2;stroke:#111;stroke-width:2} .dim{stroke:#1769aa;stroke-width:2;marker-start:url(#a);marker-end:url(#a)} .note{font-size:18px}</style>
<defs><marker id="a" markerWidth="8" markerHeight="8" refX="4" refY="4" orient="auto"><path d="M8,0 L0,4 L8,8" fill="none" stroke="#1769aa"/></marker></defs>
<text x="40" y="45" font-size="28" font-weight="bold">Workbench-1 General Arrangement - mm - REV B</text>
<rect class="part" x="90" y="120" width="420.0" height="495.0" rx="27"/>
<rect x="187" y="450" width="225" height="108" fill="#20252b" stroke="#111" stroke-width="2"/>
<line class="dim" x1="90" y1="90" x2="510" y2="90"/><text x="280" y="80" class="note">280</text>
<line class="dim" x1="55" y1="120" x2="55" y2="615"/><text x="12" y="375" class="note" transform="rotate(-90 12 375)">330</text>
<text x="120" y="650" class="note">Front: separate 8 deg head; recessed display 150 x 72; nominal wall 2.5</text>
<rect class="part" x="660" y="170" width="420.0" height="360.0" rx="27"/>
<line class="dim" x1="660" y1="140" x2="1080" y2="140"/><text x="850" y="130" class="note">280</text>
<line class="dim" x1="1120" y1="170" x2="1120" y2="530"/><text x="1140" y="370" class="note" transform="rotate(-90 1140 370)">240</text>
<rect x="675" y="185" width="390" height="330" fill="none" stroke="#2f7770" stroke-width="12" rx="24"/>
<text x="700" y="565" class="note">Four TPU corner pads; 8 skin over 24 effective compliant stroke</text>
<text x="660" y="625" class="note">CG Z=101.9; static tip angle=45.9 deg</text>
<text x="660" y="660" class="note">ISO 2768-m unless noted; prototype only until physical validation</text>
</svg>