%TF.GenerationSoftware,KiCad,Pcbnew,10.0.5*%
%TF.CreationDate,2026-08-07T18:21:46+08:00*%
%TF.ProjectId,controller,636f6e74-726f-46c6-9c65-722e6b696361,rev?*%
%TF.SameCoordinates,Original*%
%TF.FileFunction,Legend,Top*%
%TF.FilePolarity,Positive*%
%FSLAX46Y46*%
G04 Gerber Fmt 4.6, Leading zero omitted, Abs format (unit mm)*
G04 Created by KiCad (PCBNEW 10.0.5) date 2026-08-07 18:21:46*
%MOMM*%
%LPD*%
G01*
G04 APERTURE LIST*
%ADD10C,0.250000*%
%ADD11C,0.200000*%
G04 APERTURE END LIST*
D10*
X85000000Y-28000000D02*
X85000000Y-142000000D01*
X93000000Y-28000000D02*
X93000000Y-32000000D01*
X93000000Y-38000000D02*
X93000000Y-142000000D01*
X130000000Y-73000000D02*
X176000000Y-73000000D01*
X130000000Y-81000000D02*
X176000000Y-81000000D01*
D11*
X95238095Y-68356980D02*
X95190476Y-68404600D01*
X95190476Y-68404600D02*
X95047619Y-68452219D01*
X95047619Y-68452219D02*
X94952381Y-68452219D01*
X94952381Y-68452219D02*
X94809524Y-68404600D01*
X94809524Y-68404600D02*
X94714286Y-68309361D01*
X94714286Y-68309361D02*
X94666667Y-68214123D01*
X94666667Y-68214123D02*
X94619048Y-68023647D01*
X94619048Y-68023647D02*
X94619048Y-67880790D01*
X94619048Y-67880790D02*
X94666667Y-67690314D01*
X94666667Y-67690314D02*
X94714286Y-67595076D01*
X94714286Y-67595076D02*
X94809524Y-67499838D01*
X94809524Y-67499838D02*
X94952381Y-67452219D01*
X94952381Y-67452219D02*
X95047619Y-67452219D01*
X95047619Y-67452219D02*
X95190476Y-67499838D01*
X95190476Y-67499838D02*
X95238095Y-67547457D01*
X95619048Y-68166504D02*
X96095238Y-68166504D01*
X95523810Y-68452219D02*
X95857143Y-67452219D01*
X95857143Y-67452219D02*
X96190476Y-68452219D01*
X96523810Y-68452219D02*
X96523810Y-67452219D01*
X96523810Y-67452219D02*
X97095238Y-68452219D01*
X97095238Y-68452219D02*
X97095238Y-67452219D01*
X98333334Y-68452219D02*
X98333334Y-67452219D01*
X98761905Y-68404600D02*
X98904762Y-68452219D01*
X98904762Y-68452219D02*
X99142857Y-68452219D01*
X99142857Y-68452219D02*
X99238095Y-68404600D01*
X99238095Y-68404600D02*
X99285714Y-68356980D01*
X99285714Y-68356980D02*
X99333333Y-68261742D01*
X99333333Y-68261742D02*
X99333333Y-68166504D01*
X99333333Y-68166504D02*
X99285714Y-68071266D01*
X99285714Y-68071266D02*
X99238095Y-68023647D01*
X99238095Y-68023647D02*
X99142857Y-67976028D01*
X99142857Y-67976028D02*
X98952381Y-67928409D01*
X98952381Y-67928409D02*
X98857143Y-67880790D01*
X98857143Y-67880790D02*
X98809524Y-67833171D01*
X98809524Y-67833171D02*
X98761905Y-67737933D01*
X98761905Y-67737933D02*
X98761905Y-67642695D01*
X98761905Y-67642695D02*
X98809524Y-67547457D01*
X98809524Y-67547457D02*
X98857143Y-67499838D01*
X98857143Y-67499838D02*
X98952381Y-67452219D01*
X98952381Y-67452219D02*
X99190476Y-67452219D01*
X99190476Y-67452219D02*
X99333333Y-67499838D01*
X99952381Y-67452219D02*
X100142857Y-67452219D01*
X100142857Y-67452219D02*
X100238095Y-67499838D01*
X100238095Y-67499838D02*
X100333333Y-67595076D01*
X100333333Y-67595076D02*
X100380952Y-67785552D01*
X100380952Y-67785552D02*
X100380952Y-68118885D01*
X100380952Y-68118885D02*
X100333333Y-68309361D01*
X100333333Y-68309361D02*
X100238095Y-68404600D01*
X100238095Y-68404600D02*
X100142857Y-68452219D01*
X100142857Y-68452219D02*
X99952381Y-68452219D01*
X99952381Y-68452219D02*
X99857143Y-68404600D01*
X99857143Y-68404600D02*
X99761905Y-68309361D01*
X99761905Y-68309361D02*
X99714286Y-68118885D01*
X99714286Y-68118885D02*
X99714286Y-67785552D01*
X99714286Y-67785552D02*
X99761905Y-67595076D01*
X99761905Y-67595076D02*
X99857143Y-67499838D01*
X99857143Y-67499838D02*
X99952381Y-67452219D01*
X101285714Y-68452219D02*
X100809524Y-68452219D01*
X100809524Y-68452219D02*
X100809524Y-67452219D01*
X101571429Y-68166504D02*
X102047619Y-68166504D01*
X101476191Y-68452219D02*
X101809524Y-67452219D01*
X101809524Y-67452219D02*
X102142857Y-68452219D01*
X102333334Y-67452219D02*
X102904762Y-67452219D01*
X102619048Y-68452219D02*
X102619048Y-67452219D01*
X103238096Y-68452219D02*
X103238096Y-67452219D01*
X103904762Y-67452219D02*
X104095238Y-67452219D01*
X104095238Y-67452219D02*
X104190476Y-67499838D01*
X104190476Y-67499838D02*
X104285714Y-67595076D01*
X104285714Y-67595076D02*
X104333333Y-67785552D01*
X104333333Y-67785552D02*
X104333333Y-68118885D01*
X104333333Y-68118885D02*
X104285714Y-68309361D01*
X104285714Y-68309361D02*
X104190476Y-68404600D01*
X104190476Y-68404600D02*
X104095238Y-68452219D01*
X104095238Y-68452219D02*
X103904762Y-68452219D01*
X103904762Y-68452219D02*
X103809524Y-68404600D01*
X103809524Y-68404600D02*
X103714286Y-68309361D01*
X103714286Y-68309361D02*
X103666667Y-68118885D01*
X103666667Y-68118885D02*
X103666667Y-67785552D01*
X103666667Y-67785552D02*
X103714286Y-67595076D01*
X103714286Y-67595076D02*
X103809524Y-67499838D01*
X103809524Y-67499838D02*
X103904762Y-67452219D01*
X104761905Y-68452219D02*
X104761905Y-67452219D01*
X104761905Y-67452219D02*
X105333333Y-68452219D01*
X105333333Y-68452219D02*
X105333333Y-67452219D01*
X51428571Y-146544742D02*
X51428571Y-145344742D01*
X51428571Y-145344742D02*
X51885714Y-145344742D01*
X51885714Y-145344742D02*
X51999999Y-145401885D01*
X51999999Y-145401885D02*
X52057142Y-145459028D01*
X52057142Y-145459028D02*
X52114285Y-145573314D01*
X52114285Y-145573314D02*
X52114285Y-145744742D01*
X52114285Y-145744742D02*
X52057142Y-145859028D01*
X52057142Y-145859028D02*
X51999999Y-145916171D01*
X51999999Y-145916171D02*
X51885714Y-145973314D01*
X51885714Y-145973314D02*
X51428571Y-145973314D01*
X52857142Y-145344742D02*
X53085714Y-145344742D01*
X53085714Y-145344742D02*
X53199999Y-145401885D01*
X53199999Y-145401885D02*
X53314285Y-145516171D01*
X53314285Y-145516171D02*
X53371428Y-145744742D01*
X53371428Y-145744742D02*
X53371428Y-146144742D01*
X53371428Y-146144742D02*
X53314285Y-146373314D01*
X53314285Y-146373314D02*
X53199999Y-146487600D01*
X53199999Y-146487600D02*
X53085714Y-146544742D01*
X53085714Y-146544742D02*
X52857142Y-146544742D01*
X52857142Y-146544742D02*
X52742857Y-146487600D01*
X52742857Y-146487600D02*
X52628571Y-146373314D01*
X52628571Y-146373314D02*
X52571428Y-146144742D01*
X52571428Y-146144742D02*
X52571428Y-145744742D01*
X52571428Y-145744742D02*
X52628571Y-145516171D01*
X52628571Y-145516171D02*
X52742857Y-145401885D01*
X52742857Y-145401885D02*
X52857142Y-145344742D01*
X53771428Y-145344742D02*
X54057142Y-146544742D01*
X54057142Y-146544742D02*
X54285714Y-145687600D01*
X54285714Y-145687600D02*
X54514285Y-146544742D01*
X54514285Y-146544742D02*
X54800000Y-145344742D01*
X55257143Y-145916171D02*
X55657143Y-145916171D01*
X55828571Y-146544742D02*
X55257143Y-146544742D01*
X55257143Y-146544742D02*
X55257143Y-145344742D01*
X55257143Y-145344742D02*
X55828571Y-145344742D01*
X57028571Y-146544742D02*
X56628571Y-145973314D01*
X56342857Y-146544742D02*
X56342857Y-145344742D01*
X56342857Y-145344742D02*
X56800000Y-145344742D01*
X56800000Y-145344742D02*
X56914285Y-145401885D01*
X56914285Y-145401885D02*
X56971428Y-145459028D01*
X56971428Y-145459028D02*
X57028571Y-145573314D01*
X57028571Y-145573314D02*
X57028571Y-145744742D01*
X57028571Y-145744742D02*
X56971428Y-145859028D01*
X56971428Y-145859028D02*
X56914285Y-145916171D01*
X56914285Y-145916171D02*
X56800000Y-145973314D01*
X56800000Y-145973314D02*
X56342857Y-145973314D01*
X58457143Y-146544742D02*
X58457143Y-145344742D01*
X58457143Y-145344742D02*
X58742857Y-145344742D01*
X58742857Y-145344742D02*
X58914286Y-145401885D01*
X58914286Y-145401885D02*
X59028571Y-145516171D01*
X59028571Y-145516171D02*
X59085714Y-145630457D01*
X59085714Y-145630457D02*
X59142857Y-145859028D01*
X59142857Y-145859028D02*
X59142857Y-146030457D01*
X59142857Y-146030457D02*
X59085714Y-146259028D01*
X59085714Y-146259028D02*
X59028571Y-146373314D01*
X59028571Y-146373314D02*
X58914286Y-146487600D01*
X58914286Y-146487600D02*
X58742857Y-146544742D01*
X58742857Y-146544742D02*
X58457143Y-146544742D01*
X59885714Y-145344742D02*
X60114286Y-145344742D01*
X60114286Y-145344742D02*
X60228571Y-145401885D01*
X60228571Y-145401885D02*
X60342857Y-145516171D01*
X60342857Y-145516171D02*
X60400000Y-145744742D01*
X60400000Y-145744742D02*
X60400000Y-146144742D01*
X60400000Y-146144742D02*
X60342857Y-146373314D01*
X60342857Y-146373314D02*
X60228571Y-146487600D01*
X60228571Y-146487600D02*
X60114286Y-146544742D01*
X60114286Y-146544742D02*
X59885714Y-146544742D01*
X59885714Y-146544742D02*
X59771429Y-146487600D01*
X59771429Y-146487600D02*
X59657143Y-146373314D01*
X59657143Y-146373314D02*
X59600000Y-146144742D01*
X59600000Y-146144742D02*
X59600000Y-145744742D01*
X59600000Y-145744742D02*
X59657143Y-145516171D01*
X59657143Y-145516171D02*
X59771429Y-145401885D01*
X59771429Y-145401885D02*
X59885714Y-145344742D01*
X60914286Y-146544742D02*
X60914286Y-145344742D01*
X60914286Y-145344742D02*
X61314286Y-146201885D01*
X61314286Y-146201885D02*
X61714286Y-145344742D01*
X61714286Y-145344742D02*
X61714286Y-146544742D01*
X62228572Y-146201885D02*
X62800001Y-146201885D01*
X62114286Y-146544742D02*
X62514286Y-145344742D01*
X62514286Y-145344742D02*
X62914286Y-146544742D01*
X63314286Y-146544742D02*
X63314286Y-145344742D01*
X63885715Y-146544742D02*
X63885715Y-145344742D01*
X63885715Y-145344742D02*
X64571429Y-146544742D01*
X64571429Y-146544742D02*
X64571429Y-145344742D01*
X58685713Y-69859028D02*
X58571428Y-69801885D01*
X58571428Y-69801885D02*
X58514285Y-69744742D01*
X58514285Y-69744742D02*
X58457142Y-69630457D01*
X58457142Y-69630457D02*
X58457142Y-69573314D01*
X58457142Y-69573314D02*
X58514285Y-69459028D01*
X58514285Y-69459028D02*
X58571428Y-69401885D01*
X58571428Y-69401885D02*
X58685713Y-69344742D01*
X58685713Y-69344742D02*
X58914285Y-69344742D01*
X58914285Y-69344742D02*
X59028571Y-69401885D01*
X59028571Y-69401885D02*
X59085713Y-69459028D01*
X59085713Y-69459028D02*
X59142856Y-69573314D01*
X59142856Y-69573314D02*
X59142856Y-69630457D01*
X59142856Y-69630457D02*
X59085713Y-69744742D01*
X59085713Y-69744742D02*
X59028571Y-69801885D01*
X59028571Y-69801885D02*
X58914285Y-69859028D01*
X58914285Y-69859028D02*
X58685713Y-69859028D01*
X58685713Y-69859028D02*
X58571428Y-69916171D01*
X58571428Y-69916171D02*
X58514285Y-69973314D01*
X58514285Y-69973314D02*
X58457142Y-70087600D01*
X58457142Y-70087600D02*
X58457142Y-70316171D01*
X58457142Y-70316171D02*
X58514285Y-70430457D01*
X58514285Y-70430457D02*
X58571428Y-70487600D01*
X58571428Y-70487600D02*
X58685713Y-70544742D01*
X58685713Y-70544742D02*
X58914285Y-70544742D01*
X58914285Y-70544742D02*
X59028571Y-70487600D01*
X59028571Y-70487600D02*
X59085713Y-70430457D01*
X59085713Y-70430457D02*
X59142856Y-70316171D01*
X59142856Y-70316171D02*
X59142856Y-70087600D01*
X59142856Y-70087600D02*
X59085713Y-69973314D01*
X59085713Y-69973314D02*
X59028571Y-69916171D01*
X59028571Y-69916171D02*
X58914285Y-69859028D01*
X60571428Y-70544742D02*
X60571428Y-69744742D01*
X60571428Y-69859028D02*
X60628571Y-69801885D01*
X60628571Y-69801885D02*
X60742856Y-69744742D01*
X60742856Y-69744742D02*
X60914285Y-69744742D01*
X60914285Y-69744742D02*
X61028571Y-69801885D01*
X61028571Y-69801885D02*
X61085714Y-69916171D01*
X61085714Y-69916171D02*
X61085714Y-70544742D01*
X61085714Y-69916171D02*
X61142856Y-69801885D01*
X61142856Y-69801885D02*
X61257142Y-69744742D01*
X61257142Y-69744742D02*
X61428571Y-69744742D01*
X61428571Y-69744742D02*
X61542856Y-69801885D01*
X61542856Y-69801885D02*
X61599999Y-69916171D01*
X61599999Y-69916171D02*
X61599999Y-70544742D01*
X62171428Y-70544742D02*
X62171428Y-69744742D01*
X62171428Y-69859028D02*
X62228571Y-69801885D01*
X62228571Y-69801885D02*
X62342856Y-69744742D01*
X62342856Y-69744742D02*
X62514285Y-69744742D01*
X62514285Y-69744742D02*
X62628571Y-69801885D01*
X62628571Y-69801885D02*
X62685714Y-69916171D01*
X62685714Y-69916171D02*
X62685714Y-70544742D01*
X62685714Y-69916171D02*
X62742856Y-69801885D01*
X62742856Y-69801885D02*
X62857142Y-69744742D01*
X62857142Y-69744742D02*
X63028571Y-69744742D01*
X63028571Y-69744742D02*
X63142856Y-69801885D01*
X63142856Y-69801885D02*
X63199999Y-69916171D01*
X63199999Y-69916171D02*
X63199999Y-70544742D01*
X64685714Y-70544742D02*
X64685714Y-69344742D01*
X65200000Y-70487600D02*
X65371429Y-70544742D01*
X65371429Y-70544742D02*
X65657143Y-70544742D01*
X65657143Y-70544742D02*
X65771429Y-70487600D01*
X65771429Y-70487600D02*
X65828571Y-70430457D01*
X65828571Y-70430457D02*
X65885714Y-70316171D01*
X65885714Y-70316171D02*
X65885714Y-70201885D01*
X65885714Y-70201885D02*
X65828571Y-70087600D01*
X65828571Y-70087600D02*
X65771429Y-70030457D01*
X65771429Y-70030457D02*
X65657143Y-69973314D01*
X65657143Y-69973314D02*
X65428571Y-69916171D01*
X65428571Y-69916171D02*
X65314286Y-69859028D01*
X65314286Y-69859028D02*
X65257143Y-69801885D01*
X65257143Y-69801885D02*
X65200000Y-69687600D01*
X65200000Y-69687600D02*
X65200000Y-69573314D01*
X65200000Y-69573314D02*
X65257143Y-69459028D01*
X65257143Y-69459028D02*
X65314286Y-69401885D01*
X65314286Y-69401885D02*
X65428571Y-69344742D01*
X65428571Y-69344742D02*
X65714286Y-69344742D01*
X65714286Y-69344742D02*
X65885714Y-69401885D01*
X66628571Y-69344742D02*
X66857143Y-69344742D01*
X66857143Y-69344742D02*
X66971428Y-69401885D01*
X66971428Y-69401885D02*
X67085714Y-69516171D01*
X67085714Y-69516171D02*
X67142857Y-69744742D01*
X67142857Y-69744742D02*
X67142857Y-70144742D01*
X67142857Y-70144742D02*
X67085714Y-70373314D01*
X67085714Y-70373314D02*
X66971428Y-70487600D01*
X66971428Y-70487600D02*
X66857143Y-70544742D01*
X66857143Y-70544742D02*
X66628571Y-70544742D01*
X66628571Y-70544742D02*
X66514286Y-70487600D01*
X66514286Y-70487600D02*
X66400000Y-70373314D01*
X66400000Y-70373314D02*
X66342857Y-70144742D01*
X66342857Y-70144742D02*
X66342857Y-69744742D01*
X66342857Y-69744742D02*
X66400000Y-69516171D01*
X66400000Y-69516171D02*
X66514286Y-69401885D01*
X66514286Y-69401885D02*
X66628571Y-69344742D01*
X68228571Y-70544742D02*
X67657143Y-70544742D01*
X67657143Y-70544742D02*
X67657143Y-69344742D01*
X68571429Y-70201885D02*
X69142858Y-70201885D01*
X68457143Y-70544742D02*
X68857143Y-69344742D01*
X68857143Y-69344742D02*
X69257143Y-70544742D01*
X69485714Y-69344742D02*
X70171429Y-69344742D01*
X69828571Y-70544742D02*
X69828571Y-69344742D01*
X70571429Y-70544742D02*
X70571429Y-69344742D01*
X71371429Y-69344742D02*
X71600001Y-69344742D01*
X71600001Y-69344742D02*
X71714286Y-69401885D01*
X71714286Y-69401885D02*
X71828572Y-69516171D01*
X71828572Y-69516171D02*
X71885715Y-69744742D01*
X71885715Y-69744742D02*
X71885715Y-70144742D01*
X71885715Y-70144742D02*
X71828572Y-70373314D01*
X71828572Y-70373314D02*
X71714286Y-70487600D01*
X71714286Y-70487600D02*
X71600001Y-70544742D01*
X71600001Y-70544742D02*
X71371429Y-70544742D01*
X71371429Y-70544742D02*
X71257144Y-70487600D01*
X71257144Y-70487600D02*
X71142858Y-70373314D01*
X71142858Y-70373314D02*
X71085715Y-70144742D01*
X71085715Y-70144742D02*
X71085715Y-69744742D01*
X71085715Y-69744742D02*
X71142858Y-69516171D01*
X71142858Y-69516171D02*
X71257144Y-69401885D01*
X71257144Y-69401885D02*
X71371429Y-69344742D01*
X72400001Y-70544742D02*
X72400001Y-69344742D01*
X72400001Y-69344742D02*
X73085715Y-70544742D01*
X73085715Y-70544742D02*
X73085715Y-69344742D01*
X74971430Y-69916171D02*
X75142858Y-69973314D01*
X75142858Y-69973314D02*
X75200001Y-70030457D01*
X75200001Y-70030457D02*
X75257144Y-70144742D01*
X75257144Y-70144742D02*
X75257144Y-70316171D01*
X75257144Y-70316171D02*
X75200001Y-70430457D01*
X75200001Y-70430457D02*
X75142858Y-70487600D01*
X75142858Y-70487600D02*
X75028573Y-70544742D01*
X75028573Y-70544742D02*
X74571430Y-70544742D01*
X74571430Y-70544742D02*
X74571430Y-69344742D01*
X74571430Y-69344742D02*
X74971430Y-69344742D01*
X74971430Y-69344742D02*
X75085716Y-69401885D01*
X75085716Y-69401885D02*
X75142858Y-69459028D01*
X75142858Y-69459028D02*
X75200001Y-69573314D01*
X75200001Y-69573314D02*
X75200001Y-69687600D01*
X75200001Y-69687600D02*
X75142858Y-69801885D01*
X75142858Y-69801885D02*
X75085716Y-69859028D01*
X75085716Y-69859028D02*
X74971430Y-69916171D01*
X74971430Y-69916171D02*
X74571430Y-69916171D01*
X75714287Y-70201885D02*
X76285716Y-70201885D01*
X75600001Y-70544742D02*
X76000001Y-69344742D01*
X76000001Y-69344742D02*
X76400001Y-70544742D01*
X77485715Y-70544742D02*
X77085715Y-69973314D01*
X76800001Y-70544742D02*
X76800001Y-69344742D01*
X76800001Y-69344742D02*
X77257144Y-69344742D01*
X77257144Y-69344742D02*
X77371429Y-69401885D01*
X77371429Y-69401885D02*
X77428572Y-69459028D01*
X77428572Y-69459028D02*
X77485715Y-69573314D01*
X77485715Y-69573314D02*
X77485715Y-69744742D01*
X77485715Y-69744742D02*
X77428572Y-69859028D01*
X77428572Y-69859028D02*
X77371429Y-69916171D01*
X77371429Y-69916171D02*
X77257144Y-69973314D01*
X77257144Y-69973314D02*
X76800001Y-69973314D01*
X78685715Y-70544742D02*
X78285715Y-69973314D01*
X78000001Y-70544742D02*
X78000001Y-69344742D01*
X78000001Y-69344742D02*
X78457144Y-69344742D01*
X78457144Y-69344742D02*
X78571429Y-69401885D01*
X78571429Y-69401885D02*
X78628572Y-69459028D01*
X78628572Y-69459028D02*
X78685715Y-69573314D01*
X78685715Y-69573314D02*
X78685715Y-69744742D01*
X78685715Y-69744742D02*
X78628572Y-69859028D01*
X78628572Y-69859028D02*
X78571429Y-69916171D01*
X78571429Y-69916171D02*
X78457144Y-69973314D01*
X78457144Y-69973314D02*
X78000001Y-69973314D01*
X79200001Y-70544742D02*
X79200001Y-69344742D01*
X79771430Y-69916171D02*
X80171430Y-69916171D01*
X80342858Y-70544742D02*
X79771430Y-70544742D01*
X79771430Y-70544742D02*
X79771430Y-69344742D01*
X79771430Y-69344742D02*
X80342858Y-69344742D01*
X81542858Y-70544742D02*
X81142858Y-69973314D01*
X80857144Y-70544742D02*
X80857144Y-69344742D01*
X80857144Y-69344742D02*
X81314287Y-69344742D01*
X81314287Y-69344742D02*
X81428572Y-69401885D01*
X81428572Y-69401885D02*
X81485715Y-69459028D01*
X81485715Y-69459028D02*
X81542858Y-69573314D01*
X81542858Y-69573314D02*
X81542858Y-69744742D01*
X81542858Y-69744742D02*
X81485715Y-69859028D01*
X81485715Y-69859028D02*
X81428572Y-69916171D01*
X81428572Y-69916171D02*
X81314287Y-69973314D01*
X81314287Y-69973314D02*
X80857144Y-69973314D01*
X133457142Y-146544742D02*
X132885714Y-146544742D01*
X132885714Y-146544742D02*
X132885714Y-145344742D01*
X134085714Y-145344742D02*
X134314286Y-145344742D01*
X134314286Y-145344742D02*
X134428571Y-145401885D01*
X134428571Y-145401885D02*
X134542857Y-145516171D01*
X134542857Y-145516171D02*
X134600000Y-145744742D01*
X134600000Y-145744742D02*
X134600000Y-146144742D01*
X134600000Y-146144742D02*
X134542857Y-146373314D01*
X134542857Y-146373314D02*
X134428571Y-146487600D01*
X134428571Y-146487600D02*
X134314286Y-146544742D01*
X134314286Y-146544742D02*
X134085714Y-146544742D01*
X134085714Y-146544742D02*
X133971429Y-146487600D01*
X133971429Y-146487600D02*
X133857143Y-146373314D01*
X133857143Y-146373314D02*
X133800000Y-146144742D01*
X133800000Y-146144742D02*
X133800000Y-145744742D01*
X133800000Y-145744742D02*
X133857143Y-145516171D01*
X133857143Y-145516171D02*
X133971429Y-145401885D01*
X133971429Y-145401885D02*
X134085714Y-145344742D01*
X135742857Y-145401885D02*
X135628572Y-145344742D01*
X135628572Y-145344742D02*
X135457143Y-145344742D01*
X135457143Y-145344742D02*
X135285714Y-145401885D01*
X135285714Y-145401885D02*
X135171429Y-145516171D01*
X135171429Y-145516171D02*
X135114286Y-145630457D01*
X135114286Y-145630457D02*
X135057143Y-145859028D01*
X135057143Y-145859028D02*
X135057143Y-146030457D01*
X135057143Y-146030457D02*
X135114286Y-146259028D01*
X135114286Y-146259028D02*
X135171429Y-146373314D01*
X135171429Y-146373314D02*
X135285714Y-146487600D01*
X135285714Y-146487600D02*
X135457143Y-146544742D01*
X135457143Y-146544742D02*
X135571429Y-146544742D01*
X135571429Y-146544742D02*
X135742857Y-146487600D01*
X135742857Y-146487600D02*
X135800000Y-146430457D01*
X135800000Y-146430457D02*
X135800000Y-146030457D01*
X135800000Y-146030457D02*
X135571429Y-146030457D01*
X136314286Y-146544742D02*
X136314286Y-145344742D01*
X137571429Y-146430457D02*
X137514286Y-146487600D01*
X137514286Y-146487600D02*
X137342858Y-146544742D01*
X137342858Y-146544742D02*
X137228572Y-146544742D01*
X137228572Y-146544742D02*
X137057143Y-146487600D01*
X137057143Y-146487600D02*
X136942858Y-146373314D01*
X136942858Y-146373314D02*
X136885715Y-146259028D01*
X136885715Y-146259028D02*
X136828572Y-146030457D01*
X136828572Y-146030457D02*
X136828572Y-145859028D01*
X136828572Y-145859028D02*
X136885715Y-145630457D01*
X136885715Y-145630457D02*
X136942858Y-145516171D01*
X136942858Y-145516171D02*
X137057143Y-145401885D01*
X137057143Y-145401885D02*
X137228572Y-145344742D01*
X137228572Y-145344742D02*
X137342858Y-145344742D01*
X137342858Y-145344742D02*
X137514286Y-145401885D01*
X137514286Y-145401885D02*
X137571429Y-145459028D01*
X139857144Y-145287600D02*
X138828572Y-146830457D01*
X141171430Y-146544742D02*
X141171430Y-145344742D01*
X141742859Y-146544742D02*
X141742859Y-145344742D01*
X141742859Y-145344742D02*
X142428573Y-146544742D01*
X142428573Y-146544742D02*
X142428573Y-145344742D01*
X142828573Y-145344742D02*
X143514288Y-145344742D01*
X143171430Y-146544742D02*
X143171430Y-145344742D01*
X143914288Y-145916171D02*
X144314288Y-145916171D01*
X144485716Y-146544742D02*
X143914288Y-146544742D01*
X143914288Y-146544742D02*
X143914288Y-145344742D01*
X143914288Y-145344742D02*
X144485716Y-145344742D01*
X145685716Y-146544742D02*
X145285716Y-145973314D01*
X145000002Y-146544742D02*
X145000002Y-145344742D01*
X145000002Y-145344742D02*
X145457145Y-145344742D01*
X145457145Y-145344742D02*
X145571430Y-145401885D01*
X145571430Y-145401885D02*
X145628573Y-145459028D01*
X145628573Y-145459028D02*
X145685716Y-145573314D01*
X145685716Y-145573314D02*
X145685716Y-145744742D01*
X145685716Y-145744742D02*
X145628573Y-145859028D01*
X145628573Y-145859028D02*
X145571430Y-145916171D01*
X145571430Y-145916171D02*
X145457145Y-145973314D01*
X145457145Y-145973314D02*
X145000002Y-145973314D01*
X146600002Y-145916171D02*
X146200002Y-145916171D01*
X146200002Y-146544742D02*
X146200002Y-145344742D01*
X146200002Y-145344742D02*
X146771430Y-145344742D01*
X147171430Y-146201885D02*
X147742859Y-146201885D01*
X147057144Y-146544742D02*
X147457144Y-145344742D01*
X147457144Y-145344742D02*
X147857144Y-146544742D01*
X148942858Y-146430457D02*
X148885715Y-146487600D01*
X148885715Y-146487600D02*
X148714287Y-146544742D01*
X148714287Y-146544742D02*
X148600001Y-146544742D01*
X148600001Y-146544742D02*
X148428572Y-146487600D01*
X148428572Y-146487600D02*
X148314287Y-146373314D01*
X148314287Y-146373314D02*
X148257144Y-146259028D01*
X148257144Y-146259028D02*
X148200001Y-146030457D01*
X148200001Y-146030457D02*
X148200001Y-145859028D01*
X148200001Y-145859028D02*
X148257144Y-145630457D01*
X148257144Y-145630457D02*
X148314287Y-145516171D01*
X148314287Y-145516171D02*
X148428572Y-145401885D01*
X148428572Y-145401885D02*
X148600001Y-145344742D01*
X148600001Y-145344742D02*
X148714287Y-145344742D01*
X148714287Y-145344742D02*
X148885715Y-145401885D01*
X148885715Y-145401885D02*
X148942858Y-145459028D01*
X149457144Y-145916171D02*
X149857144Y-145916171D01*
X150028572Y-146544742D02*
X149457144Y-146544742D01*
X149457144Y-146544742D02*
X149457144Y-145344742D01*
X149457144Y-145344742D02*
X150028572Y-145344742D01*
X150485715Y-146487600D02*
X150657144Y-146544742D01*
X150657144Y-146544742D02*
X150942858Y-146544742D01*
X150942858Y-146544742D02*
X151057144Y-146487600D01*
X151057144Y-146487600D02*
X151114286Y-146430457D01*
X151114286Y-146430457D02*
X151171429Y-146316171D01*
X151171429Y-146316171D02*
X151171429Y-146201885D01*
X151171429Y-146201885D02*
X151114286Y-146087600D01*
X151114286Y-146087600D02*
X151057144Y-146030457D01*
X151057144Y-146030457D02*
X150942858Y-145973314D01*
X150942858Y-145973314D02*
X150714286Y-145916171D01*
X150714286Y-145916171D02*
X150600001Y-145859028D01*
X150600001Y-145859028D02*
X150542858Y-145801885D01*
X150542858Y-145801885D02*
X150485715Y-145687600D01*
X150485715Y-145687600D02*
X150485715Y-145573314D01*
X150485715Y-145573314D02*
X150542858Y-145459028D01*
X150542858Y-145459028D02*
X150600001Y-145401885D01*
X150600001Y-145401885D02*
X150714286Y-145344742D01*
X150714286Y-145344742D02*
X151000001Y-145344742D01*
X151000001Y-145344742D02*
X151171429Y-145401885D01*
X80178570Y-22183528D02*
X80535713Y-23683528D01*
X80535713Y-23683528D02*
X80821427Y-22612100D01*
X80821427Y-22612100D02*
X81107142Y-23683528D01*
X81107142Y-23683528D02*
X81464285Y-22183528D01*
X82321428Y-22183528D02*
X82607142Y-22183528D01*
X82607142Y-22183528D02*
X82749999Y-22254957D01*
X82749999Y-22254957D02*
X82892856Y-22397814D01*
X82892856Y-22397814D02*
X82964285Y-22683528D01*
X82964285Y-22683528D02*
X82964285Y-23183528D01*
X82964285Y-23183528D02*
X82892856Y-23469242D01*
X82892856Y-23469242D02*
X82749999Y-23612100D01*
X82749999Y-23612100D02*
X82607142Y-23683528D01*
X82607142Y-23683528D02*
X82321428Y-23683528D01*
X82321428Y-23683528D02*
X82178571Y-23612100D01*
X82178571Y-23612100D02*
X82035713Y-23469242D01*
X82035713Y-23469242D02*
X81964285Y-23183528D01*
X81964285Y-23183528D02*
X81964285Y-22683528D01*
X81964285Y-22683528D02*
X82035713Y-22397814D01*
X82035713Y-22397814D02*
X82178571Y-22254957D01*
X82178571Y-22254957D02*
X82321428Y-22183528D01*
X84464285Y-23683528D02*
X83964285Y-22969242D01*
X83607142Y-23683528D02*
X83607142Y-22183528D01*
X83607142Y-22183528D02*
X84178571Y-22183528D01*
X84178571Y-22183528D02*
X84321428Y-22254957D01*
X84321428Y-22254957D02*
X84392857Y-22326385D01*
X84392857Y-22326385D02*
X84464285Y-22469242D01*
X84464285Y-22469242D02*
X84464285Y-22683528D01*
X84464285Y-22683528D02*
X84392857Y-22826385D01*
X84392857Y-22826385D02*
X84321428Y-22897814D01*
X84321428Y-22897814D02*
X84178571Y-22969242D01*
X84178571Y-22969242D02*
X83607142Y-22969242D01*
X85107142Y-23683528D02*
X85107142Y-22183528D01*
X85964285Y-23683528D02*
X85321428Y-22826385D01*
X85964285Y-22183528D02*
X85107142Y-23040671D01*
X87107142Y-22897814D02*
X87321428Y-22969242D01*
X87321428Y-22969242D02*
X87392857Y-23040671D01*
X87392857Y-23040671D02*
X87464285Y-23183528D01*
X87464285Y-23183528D02*
X87464285Y-23397814D01*
X87464285Y-23397814D02*
X87392857Y-23540671D01*
X87392857Y-23540671D02*
X87321428Y-23612100D01*
X87321428Y-23612100D02*
X87178571Y-23683528D01*
X87178571Y-23683528D02*
X86607142Y-23683528D01*
X86607142Y-23683528D02*
X86607142Y-22183528D01*
X86607142Y-22183528D02*
X87107142Y-22183528D01*
X87107142Y-22183528D02*
X87250000Y-22254957D01*
X87250000Y-22254957D02*
X87321428Y-22326385D01*
X87321428Y-22326385D02*
X87392857Y-22469242D01*
X87392857Y-22469242D02*
X87392857Y-22612100D01*
X87392857Y-22612100D02*
X87321428Y-22754957D01*
X87321428Y-22754957D02*
X87250000Y-22826385D01*
X87250000Y-22826385D02*
X87107142Y-22897814D01*
X87107142Y-22897814D02*
X86607142Y-22897814D01*
X88107142Y-22897814D02*
X88607142Y-22897814D01*
X88821428Y-23683528D02*
X88107142Y-23683528D01*
X88107142Y-23683528D02*
X88107142Y-22183528D01*
X88107142Y-22183528D02*
X88821428Y-22183528D01*
X89464285Y-23683528D02*
X89464285Y-22183528D01*
X89464285Y-22183528D02*
X90321428Y-23683528D01*
X90321428Y-23683528D02*
X90321428Y-22183528D01*
X91892857Y-23540671D02*
X91821429Y-23612100D01*
X91821429Y-23612100D02*
X91607143Y-23683528D01*
X91607143Y-23683528D02*
X91464286Y-23683528D01*
X91464286Y-23683528D02*
X91250000Y-23612100D01*
X91250000Y-23612100D02*
X91107143Y-23469242D01*
X91107143Y-23469242D02*
X91035714Y-23326385D01*
X91035714Y-23326385D02*
X90964286Y-23040671D01*
X90964286Y-23040671D02*
X90964286Y-22826385D01*
X90964286Y-22826385D02*
X91035714Y-22540671D01*
X91035714Y-22540671D02*
X91107143Y-22397814D01*
X91107143Y-22397814D02*
X91250000Y-22254957D01*
X91250000Y-22254957D02*
X91464286Y-22183528D01*
X91464286Y-22183528D02*
X91607143Y-22183528D01*
X91607143Y-22183528D02*
X91821429Y-22254957D01*
X91821429Y-22254957D02*
X91892857Y-22326385D01*
X92535714Y-23683528D02*
X92535714Y-22183528D01*
X92535714Y-22897814D02*
X93392857Y-22897814D01*
X93392857Y-23683528D02*
X93392857Y-22183528D01*
X94107143Y-23112100D02*
X95250001Y-23112100D01*
X96750001Y-23683528D02*
X95892858Y-23683528D01*
X96321429Y-23683528D02*
X96321429Y-22183528D01*
X96321429Y-22183528D02*
X96178572Y-22397814D01*
X96178572Y-22397814D02*
X96035715Y-22540671D01*
X96035715Y-22540671D02*
X95892858Y-22612100D01*
X99392857Y-23540671D02*
X99321429Y-23612100D01*
X99321429Y-23612100D02*
X99107143Y-23683528D01*
X99107143Y-23683528D02*
X98964286Y-23683528D01*
X98964286Y-23683528D02*
X98750000Y-23612100D01*
X98750000Y-23612100D02*
X98607143Y-23469242D01*
X98607143Y-23469242D02*
X98535714Y-23326385D01*
X98535714Y-23326385D02*
X98464286Y-23040671D01*
X98464286Y-23040671D02*
X98464286Y-22826385D01*
X98464286Y-22826385D02*
X98535714Y-22540671D01*
X98535714Y-22540671D02*
X98607143Y-22397814D01*
X98607143Y-22397814D02*
X98750000Y-22254957D01*
X98750000Y-22254957D02*
X98964286Y-22183528D01*
X98964286Y-22183528D02*
X99107143Y-22183528D01*
X99107143Y-22183528D02*
X99321429Y-22254957D01*
X99321429Y-22254957D02*
X99392857Y-22326385D01*
X100321429Y-22183528D02*
X100607143Y-22183528D01*
X100607143Y-22183528D02*
X100750000Y-22254957D01*
X100750000Y-22254957D02*
X100892857Y-22397814D01*
X100892857Y-22397814D02*
X100964286Y-22683528D01*
X100964286Y-22683528D02*
X100964286Y-23183528D01*
X100964286Y-23183528D02*
X100892857Y-23469242D01*
X100892857Y-23469242D02*
X100750000Y-23612100D01*
X100750000Y-23612100D02*
X100607143Y-23683528D01*
X100607143Y-23683528D02*
X100321429Y-23683528D01*
X100321429Y-23683528D02*
X100178572Y-23612100D01*
X100178572Y-23612100D02*
X100035714Y-23469242D01*
X100035714Y-23469242D02*
X99964286Y-23183528D01*
X99964286Y-23183528D02*
X99964286Y-22683528D01*
X99964286Y-22683528D02*
X100035714Y-22397814D01*
X100035714Y-22397814D02*
X100178572Y-22254957D01*
X100178572Y-22254957D02*
X100321429Y-22183528D01*
X101607143Y-23683528D02*
X101607143Y-22183528D01*
X101607143Y-22183528D02*
X102464286Y-23683528D01*
X102464286Y-23683528D02*
X102464286Y-22183528D01*
X102964287Y-22183528D02*
X103821430Y-22183528D01*
X103392858Y-23683528D02*
X103392858Y-22183528D01*
X105178572Y-23683528D02*
X104678572Y-22969242D01*
X104321429Y-23683528D02*
X104321429Y-22183528D01*
X104321429Y-22183528D02*
X104892858Y-22183528D01*
X104892858Y-22183528D02*
X105035715Y-22254957D01*
X105035715Y-22254957D02*
X105107144Y-22326385D01*
X105107144Y-22326385D02*
X105178572Y-22469242D01*
X105178572Y-22469242D02*
X105178572Y-22683528D01*
X105178572Y-22683528D02*
X105107144Y-22826385D01*
X105107144Y-22826385D02*
X105035715Y-22897814D01*
X105035715Y-22897814D02*
X104892858Y-22969242D01*
X104892858Y-22969242D02*
X104321429Y-22969242D01*
X106107144Y-22183528D02*
X106392858Y-22183528D01*
X106392858Y-22183528D02*
X106535715Y-22254957D01*
X106535715Y-22254957D02*
X106678572Y-22397814D01*
X106678572Y-22397814D02*
X106750001Y-22683528D01*
X106750001Y-22683528D02*
X106750001Y-23183528D01*
X106750001Y-23183528D02*
X106678572Y-23469242D01*
X106678572Y-23469242D02*
X106535715Y-23612100D01*
X106535715Y-23612100D02*
X106392858Y-23683528D01*
X106392858Y-23683528D02*
X106107144Y-23683528D01*
X106107144Y-23683528D02*
X105964287Y-23612100D01*
X105964287Y-23612100D02*
X105821429Y-23469242D01*
X105821429Y-23469242D02*
X105750001Y-23183528D01*
X105750001Y-23183528D02*
X105750001Y-22683528D01*
X105750001Y-22683528D02*
X105821429Y-22397814D01*
X105821429Y-22397814D02*
X105964287Y-22254957D01*
X105964287Y-22254957D02*
X106107144Y-22183528D01*
X108107144Y-23683528D02*
X107392858Y-23683528D01*
X107392858Y-23683528D02*
X107392858Y-22183528D01*
X109321430Y-23683528D02*
X108607144Y-23683528D01*
X108607144Y-23683528D02*
X108607144Y-22183528D01*
X109821430Y-22897814D02*
X110321430Y-22897814D01*
X110535716Y-23683528D02*
X109821430Y-23683528D01*
X109821430Y-23683528D02*
X109821430Y-22183528D01*
X109821430Y-22183528D02*
X110535716Y-22183528D01*
X112035716Y-23683528D02*
X111535716Y-22969242D01*
X111178573Y-23683528D02*
X111178573Y-22183528D01*
X111178573Y-22183528D02*
X111750002Y-22183528D01*
X111750002Y-22183528D02*
X111892859Y-22254957D01*
X111892859Y-22254957D02*
X111964288Y-22326385D01*
X111964288Y-22326385D02*
X112035716Y-22469242D01*
X112035716Y-22469242D02*
X112035716Y-22683528D01*
X112035716Y-22683528D02*
X111964288Y-22826385D01*
X111964288Y-22826385D02*
X111892859Y-22897814D01*
X111892859Y-22897814D02*
X111750002Y-22969242D01*
X111750002Y-22969242D02*
X111178573Y-22969242D01*
X114678573Y-23683528D02*
X114178573Y-22969242D01*
X113821430Y-23683528D02*
X113821430Y-22183528D01*
X113821430Y-22183528D02*
X114392859Y-22183528D01*
X114392859Y-22183528D02*
X114535716Y-22254957D01*
X114535716Y-22254957D02*
X114607145Y-22326385D01*
X114607145Y-22326385D02*
X114678573Y-22469242D01*
X114678573Y-22469242D02*
X114678573Y-22683528D01*
X114678573Y-22683528D02*
X114607145Y-22826385D01*
X114607145Y-22826385D02*
X114535716Y-22897814D01*
X114535716Y-22897814D02*
X114392859Y-22969242D01*
X114392859Y-22969242D02*
X113821430Y-22969242D01*
X115321430Y-22897814D02*
X115821430Y-22897814D01*
X116035716Y-23683528D02*
X115321430Y-23683528D01*
X115321430Y-23683528D02*
X115321430Y-22183528D01*
X115321430Y-22183528D02*
X116035716Y-22183528D01*
X116464288Y-22183528D02*
X116964288Y-23683528D01*
X116964288Y-23683528D02*
X117464288Y-22183528D01*
X119035716Y-23254957D02*
X119750002Y-23254957D01*
X118892859Y-23683528D02*
X119392859Y-22183528D01*
X119392859Y-22183528D02*
X119892859Y-23683528D01*
X144600000Y-50344742D02*
X144600000Y-51201885D01*
X144600000Y-51201885D02*
X144542857Y-51373314D01*
X144542857Y-51373314D02*
X144428571Y-51487600D01*
X144428571Y-51487600D02*
X144257143Y-51544742D01*
X144257143Y-51544742D02*
X144142857Y-51544742D01*
X145742857Y-50344742D02*
X145171429Y-50344742D01*
X145171429Y-50344742D02*
X145114286Y-50916171D01*
X145114286Y-50916171D02*
X145171429Y-50859028D01*
X145171429Y-50859028D02*
X145285715Y-50801885D01*
X145285715Y-50801885D02*
X145571429Y-50801885D01*
X145571429Y-50801885D02*
X145685715Y-50859028D01*
X145685715Y-50859028D02*
X145742857Y-50916171D01*
X145742857Y-50916171D02*
X145800000Y-51030457D01*
X145800000Y-51030457D02*
X145800000Y-51316171D01*
X145800000Y-51316171D02*
X145742857Y-51430457D01*
X145742857Y-51430457D02*
X145685715Y-51487600D01*
X145685715Y-51487600D02*
X145571429Y-51544742D01*
X145571429Y-51544742D02*
X145285715Y-51544742D01*
X145285715Y-51544742D02*
X145171429Y-51487600D01*
X145171429Y-51487600D02*
X145114286Y-51430457D01*
X124600000Y-37344742D02*
X124600000Y-38201885D01*
X124600000Y-38201885D02*
X124542857Y-38373314D01*
X124542857Y-38373314D02*
X124428571Y-38487600D01*
X124428571Y-38487600D02*
X124257143Y-38544742D01*
X124257143Y-38544742D02*
X124142857Y-38544742D01*
X125057143Y-37344742D02*
X125800000Y-37344742D01*
X125800000Y-37344742D02*
X125400000Y-37801885D01*
X125400000Y-37801885D02*
X125571429Y-37801885D01*
X125571429Y-37801885D02*
X125685715Y-37859028D01*
X125685715Y-37859028D02*
X125742857Y-37916171D01*
X125742857Y-37916171D02*
X125800000Y-38030457D01*
X125800000Y-38030457D02*
X125800000Y-38316171D01*
X125800000Y-38316171D02*
X125742857Y-38430457D01*
X125742857Y-38430457D02*
X125685715Y-38487600D01*
X125685715Y-38487600D02*
X125571429Y-38544742D01*
X125571429Y-38544742D02*
X125228572Y-38544742D01*
X125228572Y-38544742D02*
X125114286Y-38487600D01*
X125114286Y-38487600D02*
X125057143Y-38430457D01*
X137085714Y-76344742D02*
X137085714Y-77316171D01*
X137085714Y-77316171D02*
X137142857Y-77430457D01*
X137142857Y-77430457D02*
X137200000Y-77487600D01*
X137200000Y-77487600D02*
X137314285Y-77544742D01*
X137314285Y-77544742D02*
X137542857Y-77544742D01*
X137542857Y-77544742D02*
X137657142Y-77487600D01*
X137657142Y-77487600D02*
X137714285Y-77430457D01*
X137714285Y-77430457D02*
X137771428Y-77316171D01*
X137771428Y-77316171D02*
X137771428Y-76344742D01*
X138857143Y-76344742D02*
X138628571Y-76344742D01*
X138628571Y-76344742D02*
X138514285Y-76401885D01*
X138514285Y-76401885D02*
X138457143Y-76459028D01*
X138457143Y-76459028D02*
X138342857Y-76630457D01*
X138342857Y-76630457D02*
X138285714Y-76859028D01*
X138285714Y-76859028D02*
X138285714Y-77316171D01*
X138285714Y-77316171D02*
X138342857Y-77430457D01*
X138342857Y-77430457D02*
X138400000Y-77487600D01*
X138400000Y-77487600D02*
X138514285Y-77544742D01*
X138514285Y-77544742D02*
X138742857Y-77544742D01*
X138742857Y-77544742D02*
X138857143Y-77487600D01*
X138857143Y-77487600D02*
X138914285Y-77430457D01*
X138914285Y-77430457D02*
X138971428Y-77316171D01*
X138971428Y-77316171D02*
X138971428Y-77030457D01*
X138971428Y-77030457D02*
X138914285Y-76916171D01*
X138914285Y-76916171D02*
X138857143Y-76859028D01*
X138857143Y-76859028D02*
X138742857Y-76801885D01*
X138742857Y-76801885D02*
X138514285Y-76801885D01*
X138514285Y-76801885D02*
X138400000Y-76859028D01*
X138400000Y-76859028D02*
X138342857Y-76916171D01*
X138342857Y-76916171D02*
X138285714Y-77030457D01*
X99985714Y-84344742D02*
X100671429Y-84344742D01*
X100328571Y-85544742D02*
X100328571Y-84344742D01*
X101071429Y-85544742D02*
X101071429Y-84344742D01*
X101071429Y-84344742D02*
X101528572Y-84344742D01*
X101528572Y-84344742D02*
X101642857Y-84401885D01*
X101642857Y-84401885D02*
X101700000Y-84459028D01*
X101700000Y-84459028D02*
X101757143Y-84573314D01*
X101757143Y-84573314D02*
X101757143Y-84744742D01*
X101757143Y-84744742D02*
X101700000Y-84859028D01*
X101700000Y-84859028D02*
X101642857Y-84916171D01*
X101642857Y-84916171D02*
X101528572Y-84973314D01*
X101528572Y-84973314D02*
X101071429Y-84973314D01*
X102214286Y-84459028D02*
X102271429Y-84401885D01*
X102271429Y-84401885D02*
X102385715Y-84344742D01*
X102385715Y-84344742D02*
X102671429Y-84344742D01*
X102671429Y-84344742D02*
X102785715Y-84401885D01*
X102785715Y-84401885D02*
X102842857Y-84459028D01*
X102842857Y-84459028D02*
X102900000Y-84573314D01*
X102900000Y-84573314D02*
X102900000Y-84687600D01*
X102900000Y-84687600D02*
X102842857Y-84859028D01*
X102842857Y-84859028D02*
X102157143Y-85544742D01*
X102157143Y-85544742D02*
X102900000Y-85544742D01*
X164600000Y-50344742D02*
X164600000Y-51201885D01*
X164600000Y-51201885D02*
X164542857Y-51373314D01*
X164542857Y-51373314D02*
X164428571Y-51487600D01*
X164428571Y-51487600D02*
X164257143Y-51544742D01*
X164257143Y-51544742D02*
X164142857Y-51544742D01*
X165685715Y-50344742D02*
X165457143Y-50344742D01*
X165457143Y-50344742D02*
X165342857Y-50401885D01*
X165342857Y-50401885D02*
X165285715Y-50459028D01*
X165285715Y-50459028D02*
X165171429Y-50630457D01*
X165171429Y-50630457D02*
X165114286Y-50859028D01*
X165114286Y-50859028D02*
X165114286Y-51316171D01*
X165114286Y-51316171D02*
X165171429Y-51430457D01*
X165171429Y-51430457D02*
X165228572Y-51487600D01*
X165228572Y-51487600D02*
X165342857Y-51544742D01*
X165342857Y-51544742D02*
X165571429Y-51544742D01*
X165571429Y-51544742D02*
X165685715Y-51487600D01*
X165685715Y-51487600D02*
X165742857Y-51430457D01*
X165742857Y-51430457D02*
X165800000Y-51316171D01*
X165800000Y-51316171D02*
X165800000Y-51030457D01*
X165800000Y-51030457D02*
X165742857Y-50916171D01*
X165742857Y-50916171D02*
X165685715Y-50859028D01*
X165685715Y-50859028D02*
X165571429Y-50801885D01*
X165571429Y-50801885D02*
X165342857Y-50801885D01*
X165342857Y-50801885D02*
X165228572Y-50859028D01*
X165228572Y-50859028D02*
X165171429Y-50916171D01*
X165171429Y-50916171D02*
X165114286Y-51030457D01*
X105600000Y-77344742D02*
X105600000Y-78201885D01*
X105600000Y-78201885D02*
X105542857Y-78373314D01*
X105542857Y-78373314D02*
X105428571Y-78487600D01*
X105428571Y-78487600D02*
X105257143Y-78544742D01*
X105257143Y-78544742D02*
X105142857Y-78544742D01*
X106114286Y-77459028D02*
X106171429Y-77401885D01*
X106171429Y-77401885D02*
X106285715Y-77344742D01*
X106285715Y-77344742D02*
X106571429Y-77344742D01*
X106571429Y-77344742D02*
X106685715Y-77401885D01*
X106685715Y-77401885D02*
X106742857Y-77459028D01*
X106742857Y-77459028D02*
X106800000Y-77573314D01*
X106800000Y-77573314D02*
X106800000Y-77687600D01*
X106800000Y-77687600D02*
X106742857Y-77859028D01*
X106742857Y-77859028D02*
X106057143Y-78544742D01*
X106057143Y-78544742D02*
X106800000Y-78544742D01*
X47600000Y-30916171D02*
X47200000Y-30916171D01*
X47200000Y-31544742D02*
X47200000Y-30344742D01*
X47200000Y-30344742D02*
X47771428Y-30344742D01*
X48857142Y-31544742D02*
X48171428Y-31544742D01*
X48514285Y-31544742D02*
X48514285Y-30344742D01*
X48514285Y-30344742D02*
X48399999Y-30516171D01*
X48399999Y-30516171D02*
X48285714Y-30630457D01*
X48285714Y-30630457D02*
X48171428Y-30687600D01*
X67985714Y-38344742D02*
X68671429Y-38344742D01*
X68328571Y-39544742D02*
X68328571Y-38344742D01*
X69071429Y-39544742D02*
X69071429Y-38344742D01*
X69071429Y-38344742D02*
X69528572Y-38344742D01*
X69528572Y-38344742D02*
X69642857Y-38401885D01*
X69642857Y-38401885D02*
X69700000Y-38459028D01*
X69700000Y-38459028D02*
X69757143Y-38573314D01*
X69757143Y-38573314D02*
X69757143Y-38744742D01*
X69757143Y-38744742D02*
X69700000Y-38859028D01*
X69700000Y-38859028D02*
X69642857Y-38916171D01*
X69642857Y-38916171D02*
X69528572Y-38973314D01*
X69528572Y-38973314D02*
X69071429Y-38973314D01*
X70900000Y-39544742D02*
X70214286Y-39544742D01*
X70557143Y-39544742D02*
X70557143Y-38344742D01*
X70557143Y-38344742D02*
X70442857Y-38516171D01*
X70442857Y-38516171D02*
X70328572Y-38630457D01*
X70328572Y-38630457D02*
X70214286Y-38687600D01*
X144085714Y-105344742D02*
X144085714Y-106316171D01*
X144085714Y-106316171D02*
X144142857Y-106430457D01*
X144142857Y-106430457D02*
X144200000Y-106487600D01*
X144200000Y-106487600D02*
X144314285Y-106544742D01*
X144314285Y-106544742D02*
X144542857Y-106544742D01*
X144542857Y-106544742D02*
X144657142Y-106487600D01*
X144657142Y-106487600D02*
X144714285Y-106430457D01*
X144714285Y-106430457D02*
X144771428Y-106316171D01*
X144771428Y-106316171D02*
X144771428Y-105344742D01*
X145914285Y-105344742D02*
X145342857Y-105344742D01*
X145342857Y-105344742D02*
X145285714Y-105916171D01*
X145285714Y-105916171D02*
X145342857Y-105859028D01*
X145342857Y-105859028D02*
X145457143Y-105801885D01*
X145457143Y-105801885D02*
X145742857Y-105801885D01*
X145742857Y-105801885D02*
X145857143Y-105859028D01*
X145857143Y-105859028D02*
X145914285Y-105916171D01*
X145914285Y-105916171D02*
X145971428Y-106030457D01*
X145971428Y-106030457D02*
X145971428Y-106316171D01*
X145971428Y-106316171D02*
X145914285Y-106430457D01*
X145914285Y-106430457D02*
X145857143Y-106487600D01*
X145857143Y-106487600D02*
X145742857Y-106544742D01*
X145742857Y-106544742D02*
X145457143Y-106544742D01*
X145457143Y-106544742D02*
X145342857Y-106487600D01*
X145342857Y-106487600D02*
X145285714Y-106430457D01*
X144600000Y-135344742D02*
X144600000Y-136201885D01*
X144600000Y-136201885D02*
X144542857Y-136373314D01*
X144542857Y-136373314D02*
X144428571Y-136487600D01*
X144428571Y-136487600D02*
X144257143Y-136544742D01*
X144257143Y-136544742D02*
X144142857Y-136544742D01*
X145685715Y-135744742D02*
X145685715Y-136544742D01*
X145400000Y-135287600D02*
X145114286Y-136144742D01*
X145114286Y-136144742D02*
X145857143Y-136144742D01*
X118985714Y-44344742D02*
X119671429Y-44344742D01*
X119328571Y-45544742D02*
X119328571Y-44344742D01*
X120071429Y-45544742D02*
X120071429Y-44344742D01*
X120071429Y-44344742D02*
X120528572Y-44344742D01*
X120528572Y-44344742D02*
X120642857Y-44401885D01*
X120642857Y-44401885D02*
X120700000Y-44459028D01*
X120700000Y-44459028D02*
X120757143Y-44573314D01*
X120757143Y-44573314D02*
X120757143Y-44744742D01*
X120757143Y-44744742D02*
X120700000Y-44859028D01*
X120700000Y-44859028D02*
X120642857Y-44916171D01*
X120642857Y-44916171D02*
X120528572Y-44973314D01*
X120528572Y-44973314D02*
X120071429Y-44973314D01*
X121157143Y-44344742D02*
X121900000Y-44344742D01*
X121900000Y-44344742D02*
X121500000Y-44801885D01*
X121500000Y-44801885D02*
X121671429Y-44801885D01*
X121671429Y-44801885D02*
X121785715Y-44859028D01*
X121785715Y-44859028D02*
X121842857Y-44916171D01*
X121842857Y-44916171D02*
X121900000Y-45030457D01*
X121900000Y-45030457D02*
X121900000Y-45316171D01*
X121900000Y-45316171D02*
X121842857Y-45430457D01*
X121842857Y-45430457D02*
X121785715Y-45487600D01*
X121785715Y-45487600D02*
X121671429Y-45544742D01*
X121671429Y-45544742D02*
X121328572Y-45544742D01*
X121328572Y-45544742D02*
X121214286Y-45487600D01*
X121214286Y-45487600D02*
X121157143Y-45430457D01*
X107028571Y-135344742D02*
X107028571Y-136201885D01*
X107028571Y-136201885D02*
X106971428Y-136373314D01*
X106971428Y-136373314D02*
X106857142Y-136487600D01*
X106857142Y-136487600D02*
X106685714Y-136544742D01*
X106685714Y-136544742D02*
X106571428Y-136544742D01*
X108228571Y-136544742D02*
X107542857Y-136544742D01*
X107885714Y-136544742D02*
X107885714Y-135344742D01*
X107885714Y-135344742D02*
X107771428Y-135516171D01*
X107771428Y-135516171D02*
X107657143Y-135630457D01*
X107657143Y-135630457D02*
X107542857Y-135687600D01*
X108971428Y-135344742D02*
X109085714Y-135344742D01*
X109085714Y-135344742D02*
X109200000Y-135401885D01*
X109200000Y-135401885D02*
X109257143Y-135459028D01*
X109257143Y-135459028D02*
X109314285Y-135573314D01*
X109314285Y-135573314D02*
X109371428Y-135801885D01*
X109371428Y-135801885D02*
X109371428Y-136087600D01*
X109371428Y-136087600D02*
X109314285Y-136316171D01*
X109314285Y-136316171D02*
X109257143Y-136430457D01*
X109257143Y-136430457D02*
X109200000Y-136487600D01*
X109200000Y-136487600D02*
X109085714Y-136544742D01*
X109085714Y-136544742D02*
X108971428Y-136544742D01*
X108971428Y-136544742D02*
X108857143Y-136487600D01*
X108857143Y-136487600D02*
X108800000Y-136430457D01*
X108800000Y-136430457D02*
X108742857Y-136316171D01*
X108742857Y-136316171D02*
X108685714Y-136087600D01*
X108685714Y-136087600D02*
X108685714Y-135801885D01*
X108685714Y-135801885D02*
X108742857Y-135573314D01*
X108742857Y-135573314D02*
X108800000Y-135459028D01*
X108800000Y-135459028D02*
X108857143Y-135401885D01*
X108857143Y-135401885D02*
X108971428Y-135344742D01*
X134028571Y-87344742D02*
X134028571Y-88201885D01*
X134028571Y-88201885D02*
X133971428Y-88373314D01*
X133971428Y-88373314D02*
X133857142Y-88487600D01*
X133857142Y-88487600D02*
X133685714Y-88544742D01*
X133685714Y-88544742D02*
X133571428Y-88544742D01*
X135228571Y-88544742D02*
X134542857Y-88544742D01*
X134885714Y-88544742D02*
X134885714Y-87344742D01*
X134885714Y-87344742D02*
X134771428Y-87516171D01*
X134771428Y-87516171D02*
X134657143Y-87630457D01*
X134657143Y-87630457D02*
X134542857Y-87687600D01*
X136371428Y-88544742D02*
X135685714Y-88544742D01*
X136028571Y-88544742D02*
X136028571Y-87344742D01*
X136028571Y-87344742D02*
X135914285Y-87516171D01*
X135914285Y-87516171D02*
X135800000Y-87630457D01*
X135800000Y-87630457D02*
X135685714Y-87687600D01*
X111085714Y-59344742D02*
X111085714Y-60316171D01*
X111085714Y-60316171D02*
X111142857Y-60430457D01*
X111142857Y-60430457D02*
X111200000Y-60487600D01*
X111200000Y-60487600D02*
X111314285Y-60544742D01*
X111314285Y-60544742D02*
X111542857Y-60544742D01*
X111542857Y-60544742D02*
X111657142Y-60487600D01*
X111657142Y-60487600D02*
X111714285Y-60430457D01*
X111714285Y-60430457D02*
X111771428Y-60316171D01*
X111771428Y-60316171D02*
X111771428Y-59344742D01*
X112857143Y-59744742D02*
X112857143Y-60544742D01*
X112571428Y-59287600D02*
X112285714Y-60144742D01*
X112285714Y-60144742D02*
X113028571Y-60144742D01*
X67085714Y-30344742D02*
X67085714Y-31316171D01*
X67085714Y-31316171D02*
X67142857Y-31430457D01*
X67142857Y-31430457D02*
X67200000Y-31487600D01*
X67200000Y-31487600D02*
X67314285Y-31544742D01*
X67314285Y-31544742D02*
X67542857Y-31544742D01*
X67542857Y-31544742D02*
X67657142Y-31487600D01*
X67657142Y-31487600D02*
X67714285Y-31430457D01*
X67714285Y-31430457D02*
X67771428Y-31316171D01*
X67771428Y-31316171D02*
X67771428Y-30344742D01*
X68971428Y-31544742D02*
X68285714Y-31544742D01*
X68628571Y-31544742D02*
X68628571Y-30344742D01*
X68628571Y-30344742D02*
X68514285Y-30516171D01*
X68514285Y-30516171D02*
X68400000Y-30630457D01*
X68400000Y-30630457D02*
X68285714Y-30687600D01*
X117485714Y-73344742D02*
X118171429Y-73344742D01*
X117828571Y-74544742D02*
X117828571Y-73344742D01*
X118571429Y-74544742D02*
X118571429Y-73344742D01*
X118571429Y-73344742D02*
X119028572Y-73344742D01*
X119028572Y-73344742D02*
X119142857Y-73401885D01*
X119142857Y-73401885D02*
X119200000Y-73459028D01*
X119200000Y-73459028D02*
X119257143Y-73573314D01*
X119257143Y-73573314D02*
X119257143Y-73744742D01*
X119257143Y-73744742D02*
X119200000Y-73859028D01*
X119200000Y-73859028D02*
X119142857Y-73916171D01*
X119142857Y-73916171D02*
X119028572Y-73973314D01*
X119028572Y-73973314D02*
X118571429Y-73973314D01*
X120342857Y-73344742D02*
X119771429Y-73344742D01*
X119771429Y-73344742D02*
X119714286Y-73916171D01*
X119714286Y-73916171D02*
X119771429Y-73859028D01*
X119771429Y-73859028D02*
X119885715Y-73801885D01*
X119885715Y-73801885D02*
X120171429Y-73801885D01*
X120171429Y-73801885D02*
X120285715Y-73859028D01*
X120285715Y-73859028D02*
X120342857Y-73916171D01*
X120342857Y-73916171D02*
X120400000Y-74030457D01*
X120400000Y-74030457D02*
X120400000Y-74316171D01*
X120400000Y-74316171D02*
X120342857Y-74430457D01*
X120342857Y-74430457D02*
X120285715Y-74487600D01*
X120285715Y-74487600D02*
X120171429Y-74544742D01*
X120171429Y-74544742D02*
X119885715Y-74544742D01*
X119885715Y-74544742D02*
X119771429Y-74487600D01*
X119771429Y-74487600D02*
X119714286Y-74430457D01*
X143985714Y-44344742D02*
X144671429Y-44344742D01*
X144328571Y-45544742D02*
X144328571Y-44344742D01*
X145071429Y-45544742D02*
X145071429Y-44344742D01*
X145071429Y-44344742D02*
X145528572Y-44344742D01*
X145528572Y-44344742D02*
X145642857Y-44401885D01*
X145642857Y-44401885D02*
X145700000Y-44459028D01*
X145700000Y-44459028D02*
X145757143Y-44573314D01*
X145757143Y-44573314D02*
X145757143Y-44744742D01*
X145757143Y-44744742D02*
X145700000Y-44859028D01*
X145700000Y-44859028D02*
X145642857Y-44916171D01*
X145642857Y-44916171D02*
X145528572Y-44973314D01*
X145528572Y-44973314D02*
X145071429Y-44973314D01*
X146157143Y-44344742D02*
X146957143Y-44344742D01*
X146957143Y-44344742D02*
X146442857Y-45544742D01*
X136985714Y-44344742D02*
X137671429Y-44344742D01*
X137328571Y-45544742D02*
X137328571Y-44344742D01*
X138071429Y-45544742D02*
X138071429Y-44344742D01*
X138071429Y-44344742D02*
X138528572Y-44344742D01*
X138528572Y-44344742D02*
X138642857Y-44401885D01*
X138642857Y-44401885D02*
X138700000Y-44459028D01*
X138700000Y-44459028D02*
X138757143Y-44573314D01*
X138757143Y-44573314D02*
X138757143Y-44744742D01*
X138757143Y-44744742D02*
X138700000Y-44859028D01*
X138700000Y-44859028D02*
X138642857Y-44916171D01*
X138642857Y-44916171D02*
X138528572Y-44973314D01*
X138528572Y-44973314D02*
X138071429Y-44973314D01*
X139785715Y-44344742D02*
X139557143Y-44344742D01*
X139557143Y-44344742D02*
X139442857Y-44401885D01*
X139442857Y-44401885D02*
X139385715Y-44459028D01*
X139385715Y-44459028D02*
X139271429Y-44630457D01*
X139271429Y-44630457D02*
X139214286Y-44859028D01*
X139214286Y-44859028D02*
X139214286Y-45316171D01*
X139214286Y-45316171D02*
X139271429Y-45430457D01*
X139271429Y-45430457D02*
X139328572Y-45487600D01*
X139328572Y-45487600D02*
X139442857Y-45544742D01*
X139442857Y-45544742D02*
X139671429Y-45544742D01*
X139671429Y-45544742D02*
X139785715Y-45487600D01*
X139785715Y-45487600D02*
X139842857Y-45430457D01*
X139842857Y-45430457D02*
X139900000Y-45316171D01*
X139900000Y-45316171D02*
X139900000Y-45030457D01*
X139900000Y-45030457D02*
X139842857Y-44916171D01*
X139842857Y-44916171D02*
X139785715Y-44859028D01*
X139785715Y-44859028D02*
X139671429Y-44801885D01*
X139671429Y-44801885D02*
X139442857Y-44801885D01*
X139442857Y-44801885D02*
X139328572Y-44859028D01*
X139328572Y-44859028D02*
X139271429Y-44916171D01*
X139271429Y-44916171D02*
X139214286Y-45030457D01*
X166860714Y-99344742D02*
X167546429Y-99344742D01*
X167203571Y-100544742D02*
X167203571Y-99344742D01*
X167946429Y-100544742D02*
X167946429Y-99344742D01*
X167946429Y-99344742D02*
X168403572Y-99344742D01*
X168403572Y-99344742D02*
X168517857Y-99401885D01*
X168517857Y-99401885D02*
X168575000Y-99459028D01*
X168575000Y-99459028D02*
X168632143Y-99573314D01*
X168632143Y-99573314D02*
X168632143Y-99744742D01*
X168632143Y-99744742D02*
X168575000Y-99859028D01*
X168575000Y-99859028D02*
X168517857Y-99916171D01*
X168517857Y-99916171D02*
X168403572Y-99973314D01*
X168403572Y-99973314D02*
X167946429Y-99973314D01*
X169317857Y-99859028D02*
X169203572Y-99801885D01*
X169203572Y-99801885D02*
X169146429Y-99744742D01*
X169146429Y-99744742D02*
X169089286Y-99630457D01*
X169089286Y-99630457D02*
X169089286Y-99573314D01*
X169089286Y-99573314D02*
X169146429Y-99459028D01*
X169146429Y-99459028D02*
X169203572Y-99401885D01*
X169203572Y-99401885D02*
X169317857Y-99344742D01*
X169317857Y-99344742D02*
X169546429Y-99344742D01*
X169546429Y-99344742D02*
X169660715Y-99401885D01*
X169660715Y-99401885D02*
X169717857Y-99459028D01*
X169717857Y-99459028D02*
X169775000Y-99573314D01*
X169775000Y-99573314D02*
X169775000Y-99630457D01*
X169775000Y-99630457D02*
X169717857Y-99744742D01*
X169717857Y-99744742D02*
X169660715Y-99801885D01*
X169660715Y-99801885D02*
X169546429Y-99859028D01*
X169546429Y-99859028D02*
X169317857Y-99859028D01*
X169317857Y-99859028D02*
X169203572Y-99916171D01*
X169203572Y-99916171D02*
X169146429Y-99973314D01*
X169146429Y-99973314D02*
X169089286Y-100087600D01*
X169089286Y-100087600D02*
X169089286Y-100316171D01*
X169089286Y-100316171D02*
X169146429Y-100430457D01*
X169146429Y-100430457D02*
X169203572Y-100487600D01*
X169203572Y-100487600D02*
X169317857Y-100544742D01*
X169317857Y-100544742D02*
X169546429Y-100544742D01*
X169546429Y-100544742D02*
X169660715Y-100487600D01*
X169660715Y-100487600D02*
X169717857Y-100430457D01*
X169717857Y-100430457D02*
X169775000Y-100316171D01*
X169775000Y-100316171D02*
X169775000Y-100087600D01*
X169775000Y-100087600D02*
X169717857Y-99973314D01*
X169717857Y-99973314D02*
X169660715Y-99916171D01*
X169660715Y-99916171D02*
X169546429Y-99859028D01*
X157085714Y-76344742D02*
X157085714Y-77316171D01*
X157085714Y-77316171D02*
X157142857Y-77430457D01*
X157142857Y-77430457D02*
X157200000Y-77487600D01*
X157200000Y-77487600D02*
X157314285Y-77544742D01*
X157314285Y-77544742D02*
X157542857Y-77544742D01*
X157542857Y-77544742D02*
X157657142Y-77487600D01*
X157657142Y-77487600D02*
X157714285Y-77430457D01*
X157714285Y-77430457D02*
X157771428Y-77316171D01*
X157771428Y-77316171D02*
X157771428Y-76344742D01*
X158228571Y-76344742D02*
X159028571Y-76344742D01*
X159028571Y-76344742D02*
X158514285Y-77544742D01*
X87085714Y-30344742D02*
X87085714Y-31316171D01*
X87085714Y-31316171D02*
X87142857Y-31430457D01*
X87142857Y-31430457D02*
X87200000Y-31487600D01*
X87200000Y-31487600D02*
X87314285Y-31544742D01*
X87314285Y-31544742D02*
X87542857Y-31544742D01*
X87542857Y-31544742D02*
X87657142Y-31487600D01*
X87657142Y-31487600D02*
X87714285Y-31430457D01*
X87714285Y-31430457D02*
X87771428Y-31316171D01*
X87771428Y-31316171D02*
X87771428Y-30344742D01*
X88285714Y-30459028D02*
X88342857Y-30401885D01*
X88342857Y-30401885D02*
X88457143Y-30344742D01*
X88457143Y-30344742D02*
X88742857Y-30344742D01*
X88742857Y-30344742D02*
X88857143Y-30401885D01*
X88857143Y-30401885D02*
X88914285Y-30459028D01*
X88914285Y-30459028D02*
X88971428Y-30573314D01*
X88971428Y-30573314D02*
X88971428Y-30687600D01*
X88971428Y-30687600D02*
X88914285Y-30859028D01*
X88914285Y-30859028D02*
X88228571Y-31544742D01*
X88228571Y-31544742D02*
X88971428Y-31544742D01*
X111085714Y-37344742D02*
X111085714Y-38316171D01*
X111085714Y-38316171D02*
X111142857Y-38430457D01*
X111142857Y-38430457D02*
X111200000Y-38487600D01*
X111200000Y-38487600D02*
X111314285Y-38544742D01*
X111314285Y-38544742D02*
X111542857Y-38544742D01*
X111542857Y-38544742D02*
X111657142Y-38487600D01*
X111657142Y-38487600D02*
X111714285Y-38430457D01*
X111714285Y-38430457D02*
X111771428Y-38316171D01*
X111771428Y-38316171D02*
X111771428Y-37344742D01*
X112228571Y-37344742D02*
X112971428Y-37344742D01*
X112971428Y-37344742D02*
X112571428Y-37801885D01*
X112571428Y-37801885D02*
X112742857Y-37801885D01*
X112742857Y-37801885D02*
X112857143Y-37859028D01*
X112857143Y-37859028D02*
X112914285Y-37916171D01*
X112914285Y-37916171D02*
X112971428Y-38030457D01*
X112971428Y-38030457D02*
X112971428Y-38316171D01*
X112971428Y-38316171D02*
X112914285Y-38430457D01*
X112914285Y-38430457D02*
X112857143Y-38487600D01*
X112857143Y-38487600D02*
X112742857Y-38544742D01*
X112742857Y-38544742D02*
X112400000Y-38544742D01*
X112400000Y-38544742D02*
X112285714Y-38487600D01*
X112285714Y-38487600D02*
X112228571Y-38430457D01*
X109085714Y-120344742D02*
X109085714Y-121316171D01*
X109085714Y-121316171D02*
X109142857Y-121430457D01*
X109142857Y-121430457D02*
X109200000Y-121487600D01*
X109200000Y-121487600D02*
X109314285Y-121544742D01*
X109314285Y-121544742D02*
X109542857Y-121544742D01*
X109542857Y-121544742D02*
X109657142Y-121487600D01*
X109657142Y-121487600D02*
X109714285Y-121430457D01*
X109714285Y-121430457D02*
X109771428Y-121316171D01*
X109771428Y-121316171D02*
X109771428Y-120344742D01*
X110514285Y-120859028D02*
X110400000Y-120801885D01*
X110400000Y-120801885D02*
X110342857Y-120744742D01*
X110342857Y-120744742D02*
X110285714Y-120630457D01*
X110285714Y-120630457D02*
X110285714Y-120573314D01*
X110285714Y-120573314D02*
X110342857Y-120459028D01*
X110342857Y-120459028D02*
X110400000Y-120401885D01*
X110400000Y-120401885D02*
X110514285Y-120344742D01*
X110514285Y-120344742D02*
X110742857Y-120344742D01*
X110742857Y-120344742D02*
X110857143Y-120401885D01*
X110857143Y-120401885D02*
X110914285Y-120459028D01*
X110914285Y-120459028D02*
X110971428Y-120573314D01*
X110971428Y-120573314D02*
X110971428Y-120630457D01*
X110971428Y-120630457D02*
X110914285Y-120744742D01*
X110914285Y-120744742D02*
X110857143Y-120801885D01*
X110857143Y-120801885D02*
X110742857Y-120859028D01*
X110742857Y-120859028D02*
X110514285Y-120859028D01*
X110514285Y-120859028D02*
X110400000Y-120916171D01*
X110400000Y-120916171D02*
X110342857Y-120973314D01*
X110342857Y-120973314D02*
X110285714Y-121087600D01*
X110285714Y-121087600D02*
X110285714Y-121316171D01*
X110285714Y-121316171D02*
X110342857Y-121430457D01*
X110342857Y-121430457D02*
X110400000Y-121487600D01*
X110400000Y-121487600D02*
X110514285Y-121544742D01*
X110514285Y-121544742D02*
X110742857Y-121544742D01*
X110742857Y-121544742D02*
X110857143Y-121487600D01*
X110857143Y-121487600D02*
X110914285Y-121430457D01*
X110914285Y-121430457D02*
X110971428Y-121316171D01*
X110971428Y-121316171D02*
X110971428Y-121087600D01*
X110971428Y-121087600D02*
X110914285Y-120973314D01*
X110914285Y-120973314D02*
X110857143Y-120916171D01*
X110857143Y-120916171D02*
X110742857Y-120859028D01*
X109485714Y-73344742D02*
X110171429Y-73344742D01*
X109828571Y-74544742D02*
X109828571Y-73344742D01*
X110571429Y-74544742D02*
X110571429Y-73344742D01*
X110571429Y-73344742D02*
X111028572Y-73344742D01*
X111028572Y-73344742D02*
X111142857Y-73401885D01*
X111142857Y-73401885D02*
X111200000Y-73459028D01*
X111200000Y-73459028D02*
X111257143Y-73573314D01*
X111257143Y-73573314D02*
X111257143Y-73744742D01*
X111257143Y-73744742D02*
X111200000Y-73859028D01*
X111200000Y-73859028D02*
X111142857Y-73916171D01*
X111142857Y-73916171D02*
X111028572Y-73973314D01*
X111028572Y-73973314D02*
X110571429Y-73973314D01*
X112285715Y-73744742D02*
X112285715Y-74544742D01*
X112000000Y-73287600D02*
X111714286Y-74144742D01*
X111714286Y-74144742D02*
X112457143Y-74144742D01*
X29600000Y-30344742D02*
X29600000Y-31201885D01*
X29600000Y-31201885D02*
X29542857Y-31373314D01*
X29542857Y-31373314D02*
X29428571Y-31487600D01*
X29428571Y-31487600D02*
X29257143Y-31544742D01*
X29257143Y-31544742D02*
X29142857Y-31544742D01*
X30800000Y-31544742D02*
X30114286Y-31544742D01*
X30457143Y-31544742D02*
X30457143Y-30344742D01*
X30457143Y-30344742D02*
X30342857Y-30516171D01*
X30342857Y-30516171D02*
X30228572Y-30630457D01*
X30228572Y-30630457D02*
X30114286Y-30687600D01*
M02*
