%TF.GenerationSoftware,KiCad,Pcbnew,10.0.5*%
%TF.CreationDate,2026-08-07T15:50:59+08:00*%
%TF.ProjectId,controller,636f6e74-726f-46c6-9c65-722e6b696361,rev?*%
%TF.SameCoordinates,Original*%
%TF.FileFunction,Legend,Top*%
%TF.FilePolarity,Positive*%
%FSLAX46Y46*%
G04 Gerber Fmt 4.6, Leading zero omitted, Abs format (unit mm)*
G04 Created by KiCad (PCBNEW 10.0.5) date 2026-08-07 15:50:59*
%MOMM*%
%LPD*%
G01*
G04 APERTURE LIST*
%ADD10C,0.250000*%
%ADD11C,0.200000*%
G04 APERTURE END LIST*
D10*
X85000000Y-28000000D02*
X85000000Y-112000000D01*
X93000000Y-28000000D02*
X93000000Y-32000000D01*
X93000000Y-38000000D02*
X93000000Y-112000000D01*
D11*
X51428571Y-115544742D02*
X51428571Y-114344742D01*
X51428571Y-114344742D02*
X51885714Y-114344742D01*
X51885714Y-114344742D02*
X51999999Y-114401885D01*
X51999999Y-114401885D02*
X52057142Y-114459028D01*
X52057142Y-114459028D02*
X52114285Y-114573314D01*
X52114285Y-114573314D02*
X52114285Y-114744742D01*
X52114285Y-114744742D02*
X52057142Y-114859028D01*
X52057142Y-114859028D02*
X51999999Y-114916171D01*
X51999999Y-114916171D02*
X51885714Y-114973314D01*
X51885714Y-114973314D02*
X51428571Y-114973314D01*
X52857142Y-114344742D02*
X53085714Y-114344742D01*
X53085714Y-114344742D02*
X53199999Y-114401885D01*
X53199999Y-114401885D02*
X53314285Y-114516171D01*
X53314285Y-114516171D02*
X53371428Y-114744742D01*
X53371428Y-114744742D02*
X53371428Y-115144742D01*
X53371428Y-115144742D02*
X53314285Y-115373314D01*
X53314285Y-115373314D02*
X53199999Y-115487600D01*
X53199999Y-115487600D02*
X53085714Y-115544742D01*
X53085714Y-115544742D02*
X52857142Y-115544742D01*
X52857142Y-115544742D02*
X52742857Y-115487600D01*
X52742857Y-115487600D02*
X52628571Y-115373314D01*
X52628571Y-115373314D02*
X52571428Y-115144742D01*
X52571428Y-115144742D02*
X52571428Y-114744742D01*
X52571428Y-114744742D02*
X52628571Y-114516171D01*
X52628571Y-114516171D02*
X52742857Y-114401885D01*
X52742857Y-114401885D02*
X52857142Y-114344742D01*
X53771428Y-114344742D02*
X54057142Y-115544742D01*
X54057142Y-115544742D02*
X54285714Y-114687600D01*
X54285714Y-114687600D02*
X54514285Y-115544742D01*
X54514285Y-115544742D02*
X54800000Y-114344742D01*
X55257143Y-114916171D02*
X55657143Y-114916171D01*
X55828571Y-115544742D02*
X55257143Y-115544742D01*
X55257143Y-115544742D02*
X55257143Y-114344742D01*
X55257143Y-114344742D02*
X55828571Y-114344742D01*
X57028571Y-115544742D02*
X56628571Y-114973314D01*
X56342857Y-115544742D02*
X56342857Y-114344742D01*
X56342857Y-114344742D02*
X56800000Y-114344742D01*
X56800000Y-114344742D02*
X56914285Y-114401885D01*
X56914285Y-114401885D02*
X56971428Y-114459028D01*
X56971428Y-114459028D02*
X57028571Y-114573314D01*
X57028571Y-114573314D02*
X57028571Y-114744742D01*
X57028571Y-114744742D02*
X56971428Y-114859028D01*
X56971428Y-114859028D02*
X56914285Y-114916171D01*
X56914285Y-114916171D02*
X56800000Y-114973314D01*
X56800000Y-114973314D02*
X56342857Y-114973314D01*
X58457143Y-115544742D02*
X58457143Y-114344742D01*
X58457143Y-114344742D02*
X58742857Y-114344742D01*
X58742857Y-114344742D02*
X58914286Y-114401885D01*
X58914286Y-114401885D02*
X59028571Y-114516171D01*
X59028571Y-114516171D02*
X59085714Y-114630457D01*
X59085714Y-114630457D02*
X59142857Y-114859028D01*
X59142857Y-114859028D02*
X59142857Y-115030457D01*
X59142857Y-115030457D02*
X59085714Y-115259028D01*
X59085714Y-115259028D02*
X59028571Y-115373314D01*
X59028571Y-115373314D02*
X58914286Y-115487600D01*
X58914286Y-115487600D02*
X58742857Y-115544742D01*
X58742857Y-115544742D02*
X58457143Y-115544742D01*
X59885714Y-114344742D02*
X60114286Y-114344742D01*
X60114286Y-114344742D02*
X60228571Y-114401885D01*
X60228571Y-114401885D02*
X60342857Y-114516171D01*
X60342857Y-114516171D02*
X60400000Y-114744742D01*
X60400000Y-114744742D02*
X60400000Y-115144742D01*
X60400000Y-115144742D02*
X60342857Y-115373314D01*
X60342857Y-115373314D02*
X60228571Y-115487600D01*
X60228571Y-115487600D02*
X60114286Y-115544742D01*
X60114286Y-115544742D02*
X59885714Y-115544742D01*
X59885714Y-115544742D02*
X59771429Y-115487600D01*
X59771429Y-115487600D02*
X59657143Y-115373314D01*
X59657143Y-115373314D02*
X59600000Y-115144742D01*
X59600000Y-115144742D02*
X59600000Y-114744742D01*
X59600000Y-114744742D02*
X59657143Y-114516171D01*
X59657143Y-114516171D02*
X59771429Y-114401885D01*
X59771429Y-114401885D02*
X59885714Y-114344742D01*
X60914286Y-115544742D02*
X60914286Y-114344742D01*
X60914286Y-114344742D02*
X61314286Y-115201885D01*
X61314286Y-115201885D02*
X61714286Y-114344742D01*
X61714286Y-114344742D02*
X61714286Y-115544742D01*
X62228572Y-115201885D02*
X62800001Y-115201885D01*
X62114286Y-115544742D02*
X62514286Y-114344742D01*
X62514286Y-114344742D02*
X62914286Y-115544742D01*
X63314286Y-115544742D02*
X63314286Y-114344742D01*
X63885715Y-115544742D02*
X63885715Y-114344742D01*
X63885715Y-114344742D02*
X64571429Y-115544742D01*
X64571429Y-115544742D02*
X64571429Y-114344742D01*
X58685713Y-69859028D02*
X58571428Y-69801885D01*
X58571428Y-69801885D02*
X58514285Y-69744742D01*
X58514285Y-69744742D02*
X58457142Y-69630457D01*
X58457142Y-69630457D02*
X58457142Y-69573314D01*
X58457142Y-69573314D02*
X58514285Y-69459028D01*
X58514285Y-69459028D02*
X58571428Y-69401885D01*
X58571428Y-69401885D02*
X58685713Y-69344742D01*
X58685713Y-69344742D02*
X58914285Y-69344742D01*
X58914285Y-69344742D02*
X59028571Y-69401885D01*
X59028571Y-69401885D02*
X59085713Y-69459028D01*
X59085713Y-69459028D02*
X59142856Y-69573314D01*
X59142856Y-69573314D02*
X59142856Y-69630457D01*
X59142856Y-69630457D02*
X59085713Y-69744742D01*
X59085713Y-69744742D02*
X59028571Y-69801885D01*
X59028571Y-69801885D02*
X58914285Y-69859028D01*
X58914285Y-69859028D02*
X58685713Y-69859028D01*
X58685713Y-69859028D02*
X58571428Y-69916171D01*
X58571428Y-69916171D02*
X58514285Y-69973314D01*
X58514285Y-69973314D02*
X58457142Y-70087600D01*
X58457142Y-70087600D02*
X58457142Y-70316171D01*
X58457142Y-70316171D02*
X58514285Y-70430457D01*
X58514285Y-70430457D02*
X58571428Y-70487600D01*
X58571428Y-70487600D02*
X58685713Y-70544742D01*
X58685713Y-70544742D02*
X58914285Y-70544742D01*
X58914285Y-70544742D02*
X59028571Y-70487600D01*
X59028571Y-70487600D02*
X59085713Y-70430457D01*
X59085713Y-70430457D02*
X59142856Y-70316171D01*
X59142856Y-70316171D02*
X59142856Y-70087600D01*
X59142856Y-70087600D02*
X59085713Y-69973314D01*
X59085713Y-69973314D02*
X59028571Y-69916171D01*
X59028571Y-69916171D02*
X58914285Y-69859028D01*
X60571428Y-70544742D02*
X60571428Y-69744742D01*
X60571428Y-69859028D02*
X60628571Y-69801885D01*
X60628571Y-69801885D02*
X60742856Y-69744742D01*
X60742856Y-69744742D02*
X60914285Y-69744742D01*
X60914285Y-69744742D02*
X61028571Y-69801885D01*
X61028571Y-69801885D02*
X61085714Y-69916171D01*
X61085714Y-69916171D02*
X61085714Y-70544742D01*
X61085714Y-69916171D02*
X61142856Y-69801885D01*
X61142856Y-69801885D02*
X61257142Y-69744742D01*
X61257142Y-69744742D02*
X61428571Y-69744742D01*
X61428571Y-69744742D02*
X61542856Y-69801885D01*
X61542856Y-69801885D02*
X61599999Y-69916171D01*
X61599999Y-69916171D02*
X61599999Y-70544742D01*
X62171428Y-70544742D02*
X62171428Y-69744742D01*
X62171428Y-69859028D02*
X62228571Y-69801885D01*
X62228571Y-69801885D02*
X62342856Y-69744742D01*
X62342856Y-69744742D02*
X62514285Y-69744742D01*
X62514285Y-69744742D02*
X62628571Y-69801885D01*
X62628571Y-69801885D02*
X62685714Y-69916171D01*
X62685714Y-69916171D02*
X62685714Y-70544742D01*
X62685714Y-69916171D02*
X62742856Y-69801885D01*
X62742856Y-69801885D02*
X62857142Y-69744742D01*
X62857142Y-69744742D02*
X63028571Y-69744742D01*
X63028571Y-69744742D02*
X63142856Y-69801885D01*
X63142856Y-69801885D02*
X63199999Y-69916171D01*
X63199999Y-69916171D02*
X63199999Y-70544742D01*
X64685714Y-70544742D02*
X64685714Y-69344742D01*
X65200000Y-70487600D02*
X65371429Y-70544742D01*
X65371429Y-70544742D02*
X65657143Y-70544742D01*
X65657143Y-70544742D02*
X65771429Y-70487600D01*
X65771429Y-70487600D02*
X65828571Y-70430457D01*
X65828571Y-70430457D02*
X65885714Y-70316171D01*
X65885714Y-70316171D02*
X65885714Y-70201885D01*
X65885714Y-70201885D02*
X65828571Y-70087600D01*
X65828571Y-70087600D02*
X65771429Y-70030457D01*
X65771429Y-70030457D02*
X65657143Y-69973314D01*
X65657143Y-69973314D02*
X65428571Y-69916171D01*
X65428571Y-69916171D02*
X65314286Y-69859028D01*
X65314286Y-69859028D02*
X65257143Y-69801885D01*
X65257143Y-69801885D02*
X65200000Y-69687600D01*
X65200000Y-69687600D02*
X65200000Y-69573314D01*
X65200000Y-69573314D02*
X65257143Y-69459028D01*
X65257143Y-69459028D02*
X65314286Y-69401885D01*
X65314286Y-69401885D02*
X65428571Y-69344742D01*
X65428571Y-69344742D02*
X65714286Y-69344742D01*
X65714286Y-69344742D02*
X65885714Y-69401885D01*
X66628571Y-69344742D02*
X66857143Y-69344742D01*
X66857143Y-69344742D02*
X66971428Y-69401885D01*
X66971428Y-69401885D02*
X67085714Y-69516171D01*
X67085714Y-69516171D02*
X67142857Y-69744742D01*
X67142857Y-69744742D02*
X67142857Y-70144742D01*
X67142857Y-70144742D02*
X67085714Y-70373314D01*
X67085714Y-70373314D02*
X66971428Y-70487600D01*
X66971428Y-70487600D02*
X66857143Y-70544742D01*
X66857143Y-70544742D02*
X66628571Y-70544742D01*
X66628571Y-70544742D02*
X66514286Y-70487600D01*
X66514286Y-70487600D02*
X66400000Y-70373314D01*
X66400000Y-70373314D02*
X66342857Y-70144742D01*
X66342857Y-70144742D02*
X66342857Y-69744742D01*
X66342857Y-69744742D02*
X66400000Y-69516171D01*
X66400000Y-69516171D02*
X66514286Y-69401885D01*
X66514286Y-69401885D02*
X66628571Y-69344742D01*
X68228571Y-70544742D02*
X67657143Y-70544742D01*
X67657143Y-70544742D02*
X67657143Y-69344742D01*
X68571429Y-70201885D02*
X69142858Y-70201885D01*
X68457143Y-70544742D02*
X68857143Y-69344742D01*
X68857143Y-69344742D02*
X69257143Y-70544742D01*
X69485714Y-69344742D02*
X70171429Y-69344742D01*
X69828571Y-70544742D02*
X69828571Y-69344742D01*
X70571429Y-70544742D02*
X70571429Y-69344742D01*
X71371429Y-69344742D02*
X71600001Y-69344742D01*
X71600001Y-69344742D02*
X71714286Y-69401885D01*
X71714286Y-69401885D02*
X71828572Y-69516171D01*
X71828572Y-69516171D02*
X71885715Y-69744742D01*
X71885715Y-69744742D02*
X71885715Y-70144742D01*
X71885715Y-70144742D02*
X71828572Y-70373314D01*
X71828572Y-70373314D02*
X71714286Y-70487600D01*
X71714286Y-70487600D02*
X71600001Y-70544742D01*
X71600001Y-70544742D02*
X71371429Y-70544742D01*
X71371429Y-70544742D02*
X71257144Y-70487600D01*
X71257144Y-70487600D02*
X71142858Y-70373314D01*
X71142858Y-70373314D02*
X71085715Y-70144742D01*
X71085715Y-70144742D02*
X71085715Y-69744742D01*
X71085715Y-69744742D02*
X71142858Y-69516171D01*
X71142858Y-69516171D02*
X71257144Y-69401885D01*
X71257144Y-69401885D02*
X71371429Y-69344742D01*
X72400001Y-70544742D02*
X72400001Y-69344742D01*
X72400001Y-69344742D02*
X73085715Y-70544742D01*
X73085715Y-70544742D02*
X73085715Y-69344742D01*
X74971430Y-69916171D02*
X75142858Y-69973314D01*
X75142858Y-69973314D02*
X75200001Y-70030457D01*
X75200001Y-70030457D02*
X75257144Y-70144742D01*
X75257144Y-70144742D02*
X75257144Y-70316171D01*
X75257144Y-70316171D02*
X75200001Y-70430457D01*
X75200001Y-70430457D02*
X75142858Y-70487600D01*
X75142858Y-70487600D02*
X75028573Y-70544742D01*
X75028573Y-70544742D02*
X74571430Y-70544742D01*
X74571430Y-70544742D02*
X74571430Y-69344742D01*
X74571430Y-69344742D02*
X74971430Y-69344742D01*
X74971430Y-69344742D02*
X75085716Y-69401885D01*
X75085716Y-69401885D02*
X75142858Y-69459028D01*
X75142858Y-69459028D02*
X75200001Y-69573314D01*
X75200001Y-69573314D02*
X75200001Y-69687600D01*
X75200001Y-69687600D02*
X75142858Y-69801885D01*
X75142858Y-69801885D02*
X75085716Y-69859028D01*
X75085716Y-69859028D02*
X74971430Y-69916171D01*
X74971430Y-69916171D02*
X74571430Y-69916171D01*
X75714287Y-70201885D02*
X76285716Y-70201885D01*
X75600001Y-70544742D02*
X76000001Y-69344742D01*
X76000001Y-69344742D02*
X76400001Y-70544742D01*
X77485715Y-70544742D02*
X77085715Y-69973314D01*
X76800001Y-70544742D02*
X76800001Y-69344742D01*
X76800001Y-69344742D02*
X77257144Y-69344742D01*
X77257144Y-69344742D02*
X77371429Y-69401885D01*
X77371429Y-69401885D02*
X77428572Y-69459028D01*
X77428572Y-69459028D02*
X77485715Y-69573314D01*
X77485715Y-69573314D02*
X77485715Y-69744742D01*
X77485715Y-69744742D02*
X77428572Y-69859028D01*
X77428572Y-69859028D02*
X77371429Y-69916171D01*
X77371429Y-69916171D02*
X77257144Y-69973314D01*
X77257144Y-69973314D02*
X76800001Y-69973314D01*
X78685715Y-70544742D02*
X78285715Y-69973314D01*
X78000001Y-70544742D02*
X78000001Y-69344742D01*
X78000001Y-69344742D02*
X78457144Y-69344742D01*
X78457144Y-69344742D02*
X78571429Y-69401885D01*
X78571429Y-69401885D02*
X78628572Y-69459028D01*
X78628572Y-69459028D02*
X78685715Y-69573314D01*
X78685715Y-69573314D02*
X78685715Y-69744742D01*
X78685715Y-69744742D02*
X78628572Y-69859028D01*
X78628572Y-69859028D02*
X78571429Y-69916171D01*
X78571429Y-69916171D02*
X78457144Y-69973314D01*
X78457144Y-69973314D02*
X78000001Y-69973314D01*
X79200001Y-70544742D02*
X79200001Y-69344742D01*
X79771430Y-69916171D02*
X80171430Y-69916171D01*
X80342858Y-70544742D02*
X79771430Y-70544742D01*
X79771430Y-70544742D02*
X79771430Y-69344742D01*
X79771430Y-69344742D02*
X80342858Y-69344742D01*
X81542858Y-70544742D02*
X81142858Y-69973314D01*
X80857144Y-70544742D02*
X80857144Y-69344742D01*
X80857144Y-69344742D02*
X81314287Y-69344742D01*
X81314287Y-69344742D02*
X81428572Y-69401885D01*
X81428572Y-69401885D02*
X81485715Y-69459028D01*
X81485715Y-69459028D02*
X81542858Y-69573314D01*
X81542858Y-69573314D02*
X81542858Y-69744742D01*
X81542858Y-69744742D02*
X81485715Y-69859028D01*
X81485715Y-69859028D02*
X81428572Y-69916171D01*
X81428572Y-69916171D02*
X81314287Y-69973314D01*
X81314287Y-69973314D02*
X80857144Y-69973314D01*
X133457142Y-115544742D02*
X132885714Y-115544742D01*
X132885714Y-115544742D02*
X132885714Y-114344742D01*
X134085714Y-114344742D02*
X134314286Y-114344742D01*
X134314286Y-114344742D02*
X134428571Y-114401885D01*
X134428571Y-114401885D02*
X134542857Y-114516171D01*
X134542857Y-114516171D02*
X134600000Y-114744742D01*
X134600000Y-114744742D02*
X134600000Y-115144742D01*
X134600000Y-115144742D02*
X134542857Y-115373314D01*
X134542857Y-115373314D02*
X134428571Y-115487600D01*
X134428571Y-115487600D02*
X134314286Y-115544742D01*
X134314286Y-115544742D02*
X134085714Y-115544742D01*
X134085714Y-115544742D02*
X133971429Y-115487600D01*
X133971429Y-115487600D02*
X133857143Y-115373314D01*
X133857143Y-115373314D02*
X133800000Y-115144742D01*
X133800000Y-115144742D02*
X133800000Y-114744742D01*
X133800000Y-114744742D02*
X133857143Y-114516171D01*
X133857143Y-114516171D02*
X133971429Y-114401885D01*
X133971429Y-114401885D02*
X134085714Y-114344742D01*
X135742857Y-114401885D02*
X135628572Y-114344742D01*
X135628572Y-114344742D02*
X135457143Y-114344742D01*
X135457143Y-114344742D02*
X135285714Y-114401885D01*
X135285714Y-114401885D02*
X135171429Y-114516171D01*
X135171429Y-114516171D02*
X135114286Y-114630457D01*
X135114286Y-114630457D02*
X135057143Y-114859028D01*
X135057143Y-114859028D02*
X135057143Y-115030457D01*
X135057143Y-115030457D02*
X135114286Y-115259028D01*
X135114286Y-115259028D02*
X135171429Y-115373314D01*
X135171429Y-115373314D02*
X135285714Y-115487600D01*
X135285714Y-115487600D02*
X135457143Y-115544742D01*
X135457143Y-115544742D02*
X135571429Y-115544742D01*
X135571429Y-115544742D02*
X135742857Y-115487600D01*
X135742857Y-115487600D02*
X135800000Y-115430457D01*
X135800000Y-115430457D02*
X135800000Y-115030457D01*
X135800000Y-115030457D02*
X135571429Y-115030457D01*
X136314286Y-115544742D02*
X136314286Y-114344742D01*
X137571429Y-115430457D02*
X137514286Y-115487600D01*
X137514286Y-115487600D02*
X137342858Y-115544742D01*
X137342858Y-115544742D02*
X137228572Y-115544742D01*
X137228572Y-115544742D02*
X137057143Y-115487600D01*
X137057143Y-115487600D02*
X136942858Y-115373314D01*
X136942858Y-115373314D02*
X136885715Y-115259028D01*
X136885715Y-115259028D02*
X136828572Y-115030457D01*
X136828572Y-115030457D02*
X136828572Y-114859028D01*
X136828572Y-114859028D02*
X136885715Y-114630457D01*
X136885715Y-114630457D02*
X136942858Y-114516171D01*
X136942858Y-114516171D02*
X137057143Y-114401885D01*
X137057143Y-114401885D02*
X137228572Y-114344742D01*
X137228572Y-114344742D02*
X137342858Y-114344742D01*
X137342858Y-114344742D02*
X137514286Y-114401885D01*
X137514286Y-114401885D02*
X137571429Y-114459028D01*
X139857144Y-114287600D02*
X138828572Y-115830457D01*
X141171430Y-115544742D02*
X141171430Y-114344742D01*
X141742859Y-115544742D02*
X141742859Y-114344742D01*
X141742859Y-114344742D02*
X142428573Y-115544742D01*
X142428573Y-115544742D02*
X142428573Y-114344742D01*
X142828573Y-114344742D02*
X143514288Y-114344742D01*
X143171430Y-115544742D02*
X143171430Y-114344742D01*
X143914288Y-114916171D02*
X144314288Y-114916171D01*
X144485716Y-115544742D02*
X143914288Y-115544742D01*
X143914288Y-115544742D02*
X143914288Y-114344742D01*
X143914288Y-114344742D02*
X144485716Y-114344742D01*
X145685716Y-115544742D02*
X145285716Y-114973314D01*
X145000002Y-115544742D02*
X145000002Y-114344742D01*
X145000002Y-114344742D02*
X145457145Y-114344742D01*
X145457145Y-114344742D02*
X145571430Y-114401885D01*
X145571430Y-114401885D02*
X145628573Y-114459028D01*
X145628573Y-114459028D02*
X145685716Y-114573314D01*
X145685716Y-114573314D02*
X145685716Y-114744742D01*
X145685716Y-114744742D02*
X145628573Y-114859028D01*
X145628573Y-114859028D02*
X145571430Y-114916171D01*
X145571430Y-114916171D02*
X145457145Y-114973314D01*
X145457145Y-114973314D02*
X145000002Y-114973314D01*
X146600002Y-114916171D02*
X146200002Y-114916171D01*
X146200002Y-115544742D02*
X146200002Y-114344742D01*
X146200002Y-114344742D02*
X146771430Y-114344742D01*
X147171430Y-115201885D02*
X147742859Y-115201885D01*
X147057144Y-115544742D02*
X147457144Y-114344742D01*
X147457144Y-114344742D02*
X147857144Y-115544742D01*
X148942858Y-115430457D02*
X148885715Y-115487600D01*
X148885715Y-115487600D02*
X148714287Y-115544742D01*
X148714287Y-115544742D02*
X148600001Y-115544742D01*
X148600001Y-115544742D02*
X148428572Y-115487600D01*
X148428572Y-115487600D02*
X148314287Y-115373314D01*
X148314287Y-115373314D02*
X148257144Y-115259028D01*
X148257144Y-115259028D02*
X148200001Y-115030457D01*
X148200001Y-115030457D02*
X148200001Y-114859028D01*
X148200001Y-114859028D02*
X148257144Y-114630457D01*
X148257144Y-114630457D02*
X148314287Y-114516171D01*
X148314287Y-114516171D02*
X148428572Y-114401885D01*
X148428572Y-114401885D02*
X148600001Y-114344742D01*
X148600001Y-114344742D02*
X148714287Y-114344742D01*
X148714287Y-114344742D02*
X148885715Y-114401885D01*
X148885715Y-114401885D02*
X148942858Y-114459028D01*
X149457144Y-114916171D02*
X149857144Y-114916171D01*
X150028572Y-115544742D02*
X149457144Y-115544742D01*
X149457144Y-115544742D02*
X149457144Y-114344742D01*
X149457144Y-114344742D02*
X150028572Y-114344742D01*
X150485715Y-115487600D02*
X150657144Y-115544742D01*
X150657144Y-115544742D02*
X150942858Y-115544742D01*
X150942858Y-115544742D02*
X151057144Y-115487600D01*
X151057144Y-115487600D02*
X151114286Y-115430457D01*
X151114286Y-115430457D02*
X151171429Y-115316171D01*
X151171429Y-115316171D02*
X151171429Y-115201885D01*
X151171429Y-115201885D02*
X151114286Y-115087600D01*
X151114286Y-115087600D02*
X151057144Y-115030457D01*
X151057144Y-115030457D02*
X150942858Y-114973314D01*
X150942858Y-114973314D02*
X150714286Y-114916171D01*
X150714286Y-114916171D02*
X150600001Y-114859028D01*
X150600001Y-114859028D02*
X150542858Y-114801885D01*
X150542858Y-114801885D02*
X150485715Y-114687600D01*
X150485715Y-114687600D02*
X150485715Y-114573314D01*
X150485715Y-114573314D02*
X150542858Y-114459028D01*
X150542858Y-114459028D02*
X150600001Y-114401885D01*
X150600001Y-114401885D02*
X150714286Y-114344742D01*
X150714286Y-114344742D02*
X151000001Y-114344742D01*
X151000001Y-114344742D02*
X151171429Y-114401885D01*
X80178570Y-22183528D02*
X80535713Y-23683528D01*
X80535713Y-23683528D02*
X80821427Y-22612100D01*
X80821427Y-22612100D02*
X81107142Y-23683528D01*
X81107142Y-23683528D02*
X81464285Y-22183528D01*
X82321428Y-22183528D02*
X82607142Y-22183528D01*
X82607142Y-22183528D02*
X82749999Y-22254957D01*
X82749999Y-22254957D02*
X82892856Y-22397814D01*
X82892856Y-22397814D02*
X82964285Y-22683528D01*
X82964285Y-22683528D02*
X82964285Y-23183528D01*
X82964285Y-23183528D02*
X82892856Y-23469242D01*
X82892856Y-23469242D02*
X82749999Y-23612100D01*
X82749999Y-23612100D02*
X82607142Y-23683528D01*
X82607142Y-23683528D02*
X82321428Y-23683528D01*
X82321428Y-23683528D02*
X82178571Y-23612100D01*
X82178571Y-23612100D02*
X82035713Y-23469242D01*
X82035713Y-23469242D02*
X81964285Y-23183528D01*
X81964285Y-23183528D02*
X81964285Y-22683528D01*
X81964285Y-22683528D02*
X82035713Y-22397814D01*
X82035713Y-22397814D02*
X82178571Y-22254957D01*
X82178571Y-22254957D02*
X82321428Y-22183528D01*
X84464285Y-23683528D02*
X83964285Y-22969242D01*
X83607142Y-23683528D02*
X83607142Y-22183528D01*
X83607142Y-22183528D02*
X84178571Y-22183528D01*
X84178571Y-22183528D02*
X84321428Y-22254957D01*
X84321428Y-22254957D02*
X84392857Y-22326385D01*
X84392857Y-22326385D02*
X84464285Y-22469242D01*
X84464285Y-22469242D02*
X84464285Y-22683528D01*
X84464285Y-22683528D02*
X84392857Y-22826385D01*
X84392857Y-22826385D02*
X84321428Y-22897814D01*
X84321428Y-22897814D02*
X84178571Y-22969242D01*
X84178571Y-22969242D02*
X83607142Y-22969242D01*
X85107142Y-23683528D02*
X85107142Y-22183528D01*
X85964285Y-23683528D02*
X85321428Y-22826385D01*
X85964285Y-22183528D02*
X85107142Y-23040671D01*
X87107142Y-22897814D02*
X87321428Y-22969242D01*
X87321428Y-22969242D02*
X87392857Y-23040671D01*
X87392857Y-23040671D02*
X87464285Y-23183528D01*
X87464285Y-23183528D02*
X87464285Y-23397814D01*
X87464285Y-23397814D02*
X87392857Y-23540671D01*
X87392857Y-23540671D02*
X87321428Y-23612100D01*
X87321428Y-23612100D02*
X87178571Y-23683528D01*
X87178571Y-23683528D02*
X86607142Y-23683528D01*
X86607142Y-23683528D02*
X86607142Y-22183528D01*
X86607142Y-22183528D02*
X87107142Y-22183528D01*
X87107142Y-22183528D02*
X87250000Y-22254957D01*
X87250000Y-22254957D02*
X87321428Y-22326385D01*
X87321428Y-22326385D02*
X87392857Y-22469242D01*
X87392857Y-22469242D02*
X87392857Y-22612100D01*
X87392857Y-22612100D02*
X87321428Y-22754957D01*
X87321428Y-22754957D02*
X87250000Y-22826385D01*
X87250000Y-22826385D02*
X87107142Y-22897814D01*
X87107142Y-22897814D02*
X86607142Y-22897814D01*
X88107142Y-22897814D02*
X88607142Y-22897814D01*
X88821428Y-23683528D02*
X88107142Y-23683528D01*
X88107142Y-23683528D02*
X88107142Y-22183528D01*
X88107142Y-22183528D02*
X88821428Y-22183528D01*
X89464285Y-23683528D02*
X89464285Y-22183528D01*
X89464285Y-22183528D02*
X90321428Y-23683528D01*
X90321428Y-23683528D02*
X90321428Y-22183528D01*
X91892857Y-23540671D02*
X91821429Y-23612100D01*
X91821429Y-23612100D02*
X91607143Y-23683528D01*
X91607143Y-23683528D02*
X91464286Y-23683528D01*
X91464286Y-23683528D02*
X91250000Y-23612100D01*
X91250000Y-23612100D02*
X91107143Y-23469242D01*
X91107143Y-23469242D02*
X91035714Y-23326385D01*
X91035714Y-23326385D02*
X90964286Y-23040671D01*
X90964286Y-23040671D02*
X90964286Y-22826385D01*
X90964286Y-22826385D02*
X91035714Y-22540671D01*
X91035714Y-22540671D02*
X91107143Y-22397814D01*
X91107143Y-22397814D02*
X91250000Y-22254957D01*
X91250000Y-22254957D02*
X91464286Y-22183528D01*
X91464286Y-22183528D02*
X91607143Y-22183528D01*
X91607143Y-22183528D02*
X91821429Y-22254957D01*
X91821429Y-22254957D02*
X91892857Y-22326385D01*
X92535714Y-23683528D02*
X92535714Y-22183528D01*
X92535714Y-22897814D02*
X93392857Y-22897814D01*
X93392857Y-23683528D02*
X93392857Y-22183528D01*
X94107143Y-23112100D02*
X95250001Y-23112100D01*
X96750001Y-23683528D02*
X95892858Y-23683528D01*
X96321429Y-23683528D02*
X96321429Y-22183528D01*
X96321429Y-22183528D02*
X96178572Y-22397814D01*
X96178572Y-22397814D02*
X96035715Y-22540671D01*
X96035715Y-22540671D02*
X95892858Y-22612100D01*
X99392857Y-23540671D02*
X99321429Y-23612100D01*
X99321429Y-23612100D02*
X99107143Y-23683528D01*
X99107143Y-23683528D02*
X98964286Y-23683528D01*
X98964286Y-23683528D02*
X98750000Y-23612100D01*
X98750000Y-23612100D02*
X98607143Y-23469242D01*
X98607143Y-23469242D02*
X98535714Y-23326385D01*
X98535714Y-23326385D02*
X98464286Y-23040671D01*
X98464286Y-23040671D02*
X98464286Y-22826385D01*
X98464286Y-22826385D02*
X98535714Y-22540671D01*
X98535714Y-22540671D02*
X98607143Y-22397814D01*
X98607143Y-22397814D02*
X98750000Y-22254957D01*
X98750000Y-22254957D02*
X98964286Y-22183528D01*
X98964286Y-22183528D02*
X99107143Y-22183528D01*
X99107143Y-22183528D02*
X99321429Y-22254957D01*
X99321429Y-22254957D02*
X99392857Y-22326385D01*
X100321429Y-22183528D02*
X100607143Y-22183528D01*
X100607143Y-22183528D02*
X100750000Y-22254957D01*
X100750000Y-22254957D02*
X100892857Y-22397814D01*
X100892857Y-22397814D02*
X100964286Y-22683528D01*
X100964286Y-22683528D02*
X100964286Y-23183528D01*
X100964286Y-23183528D02*
X100892857Y-23469242D01*
X100892857Y-23469242D02*
X100750000Y-23612100D01*
X100750000Y-23612100D02*
X100607143Y-23683528D01*
X100607143Y-23683528D02*
X100321429Y-23683528D01*
X100321429Y-23683528D02*
X100178572Y-23612100D01*
X100178572Y-23612100D02*
X100035714Y-23469242D01*
X100035714Y-23469242D02*
X99964286Y-23183528D01*
X99964286Y-23183528D02*
X99964286Y-22683528D01*
X99964286Y-22683528D02*
X100035714Y-22397814D01*
X100035714Y-22397814D02*
X100178572Y-22254957D01*
X100178572Y-22254957D02*
X100321429Y-22183528D01*
X101607143Y-23683528D02*
X101607143Y-22183528D01*
X101607143Y-22183528D02*
X102464286Y-23683528D01*
X102464286Y-23683528D02*
X102464286Y-22183528D01*
X102964287Y-22183528D02*
X103821430Y-22183528D01*
X103392858Y-23683528D02*
X103392858Y-22183528D01*
X105178572Y-23683528D02*
X104678572Y-22969242D01*
X104321429Y-23683528D02*
X104321429Y-22183528D01*
X104321429Y-22183528D02*
X104892858Y-22183528D01*
X104892858Y-22183528D02*
X105035715Y-22254957D01*
X105035715Y-22254957D02*
X105107144Y-22326385D01*
X105107144Y-22326385D02*
X105178572Y-22469242D01*
X105178572Y-22469242D02*
X105178572Y-22683528D01*
X105178572Y-22683528D02*
X105107144Y-22826385D01*
X105107144Y-22826385D02*
X105035715Y-22897814D01*
X105035715Y-22897814D02*
X104892858Y-22969242D01*
X104892858Y-22969242D02*
X104321429Y-22969242D01*
X106107144Y-22183528D02*
X106392858Y-22183528D01*
X106392858Y-22183528D02*
X106535715Y-22254957D01*
X106535715Y-22254957D02*
X106678572Y-22397814D01*
X106678572Y-22397814D02*
X106750001Y-22683528D01*
X106750001Y-22683528D02*
X106750001Y-23183528D01*
X106750001Y-23183528D02*
X106678572Y-23469242D01*
X106678572Y-23469242D02*
X106535715Y-23612100D01*
X106535715Y-23612100D02*
X106392858Y-23683528D01*
X106392858Y-23683528D02*
X106107144Y-23683528D01*
X106107144Y-23683528D02*
X105964287Y-23612100D01*
X105964287Y-23612100D02*
X105821429Y-23469242D01*
X105821429Y-23469242D02*
X105750001Y-23183528D01*
X105750001Y-23183528D02*
X105750001Y-22683528D01*
X105750001Y-22683528D02*
X105821429Y-22397814D01*
X105821429Y-22397814D02*
X105964287Y-22254957D01*
X105964287Y-22254957D02*
X106107144Y-22183528D01*
X108107144Y-23683528D02*
X107392858Y-23683528D01*
X107392858Y-23683528D02*
X107392858Y-22183528D01*
X109321430Y-23683528D02*
X108607144Y-23683528D01*
X108607144Y-23683528D02*
X108607144Y-22183528D01*
X109821430Y-22897814D02*
X110321430Y-22897814D01*
X110535716Y-23683528D02*
X109821430Y-23683528D01*
X109821430Y-23683528D02*
X109821430Y-22183528D01*
X109821430Y-22183528D02*
X110535716Y-22183528D01*
X112035716Y-23683528D02*
X111535716Y-22969242D01*
X111178573Y-23683528D02*
X111178573Y-22183528D01*
X111178573Y-22183528D02*
X111750002Y-22183528D01*
X111750002Y-22183528D02*
X111892859Y-22254957D01*
X111892859Y-22254957D02*
X111964288Y-22326385D01*
X111964288Y-22326385D02*
X112035716Y-22469242D01*
X112035716Y-22469242D02*
X112035716Y-22683528D01*
X112035716Y-22683528D02*
X111964288Y-22826385D01*
X111964288Y-22826385D02*
X111892859Y-22897814D01*
X111892859Y-22897814D02*
X111750002Y-22969242D01*
X111750002Y-22969242D02*
X111178573Y-22969242D01*
X114678573Y-23683528D02*
X114178573Y-22969242D01*
X113821430Y-23683528D02*
X113821430Y-22183528D01*
X113821430Y-22183528D02*
X114392859Y-22183528D01*
X114392859Y-22183528D02*
X114535716Y-22254957D01*
X114535716Y-22254957D02*
X114607145Y-22326385D01*
X114607145Y-22326385D02*
X114678573Y-22469242D01*
X114678573Y-22469242D02*
X114678573Y-22683528D01*
X114678573Y-22683528D02*
X114607145Y-22826385D01*
X114607145Y-22826385D02*
X114535716Y-22897814D01*
X114535716Y-22897814D02*
X114392859Y-22969242D01*
X114392859Y-22969242D02*
X113821430Y-22969242D01*
X115321430Y-22897814D02*
X115821430Y-22897814D01*
X116035716Y-23683528D02*
X115321430Y-23683528D01*
X115321430Y-23683528D02*
X115321430Y-22183528D01*
X115321430Y-22183528D02*
X116035716Y-22183528D01*
X116464288Y-22183528D02*
X116964288Y-23683528D01*
X116964288Y-23683528D02*
X117464288Y-22183528D01*
X119035716Y-23254957D02*
X119750002Y-23254957D01*
X118892859Y-23683528D02*
X119392859Y-22183528D01*
X119392859Y-22183528D02*
X119892859Y-23683528D01*
X149028571Y-105344742D02*
X149028571Y-106201885D01*
X149028571Y-106201885D02*
X148971428Y-106373314D01*
X148971428Y-106373314D02*
X148857142Y-106487600D01*
X148857142Y-106487600D02*
X148685714Y-106544742D01*
X148685714Y-106544742D02*
X148571428Y-106544742D01*
X150228571Y-106544742D02*
X149542857Y-106544742D01*
X149885714Y-106544742D02*
X149885714Y-105344742D01*
X149885714Y-105344742D02*
X149771428Y-105516171D01*
X149771428Y-105516171D02*
X149657143Y-105630457D01*
X149657143Y-105630457D02*
X149542857Y-105687600D01*
X150971428Y-105344742D02*
X151085714Y-105344742D01*
X151085714Y-105344742D02*
X151200000Y-105401885D01*
X151200000Y-105401885D02*
X151257143Y-105459028D01*
X151257143Y-105459028D02*
X151314285Y-105573314D01*
X151314285Y-105573314D02*
X151371428Y-105801885D01*
X151371428Y-105801885D02*
X151371428Y-106087600D01*
X151371428Y-106087600D02*
X151314285Y-106316171D01*
X151314285Y-106316171D02*
X151257143Y-106430457D01*
X151257143Y-106430457D02*
X151200000Y-106487600D01*
X151200000Y-106487600D02*
X151085714Y-106544742D01*
X151085714Y-106544742D02*
X150971428Y-106544742D01*
X150971428Y-106544742D02*
X150857143Y-106487600D01*
X150857143Y-106487600D02*
X150800000Y-106430457D01*
X150800000Y-106430457D02*
X150742857Y-106316171D01*
X150742857Y-106316171D02*
X150685714Y-106087600D01*
X150685714Y-106087600D02*
X150685714Y-105801885D01*
X150685714Y-105801885D02*
X150742857Y-105573314D01*
X150742857Y-105573314D02*
X150800000Y-105459028D01*
X150800000Y-105459028D02*
X150857143Y-105401885D01*
X150857143Y-105401885D02*
X150971428Y-105344742D01*
X111085714Y-37344742D02*
X111085714Y-38316171D01*
X111085714Y-38316171D02*
X111142857Y-38430457D01*
X111142857Y-38430457D02*
X111200000Y-38487600D01*
X111200000Y-38487600D02*
X111314285Y-38544742D01*
X111314285Y-38544742D02*
X111542857Y-38544742D01*
X111542857Y-38544742D02*
X111657142Y-38487600D01*
X111657142Y-38487600D02*
X111714285Y-38430457D01*
X111714285Y-38430457D02*
X111771428Y-38316171D01*
X111771428Y-38316171D02*
X111771428Y-37344742D01*
X112228571Y-37344742D02*
X112971428Y-37344742D01*
X112971428Y-37344742D02*
X112571428Y-37801885D01*
X112571428Y-37801885D02*
X112742857Y-37801885D01*
X112742857Y-37801885D02*
X112857143Y-37859028D01*
X112857143Y-37859028D02*
X112914285Y-37916171D01*
X112914285Y-37916171D02*
X112971428Y-38030457D01*
X112971428Y-38030457D02*
X112971428Y-38316171D01*
X112971428Y-38316171D02*
X112914285Y-38430457D01*
X112914285Y-38430457D02*
X112857143Y-38487600D01*
X112857143Y-38487600D02*
X112742857Y-38544742D01*
X112742857Y-38544742D02*
X112400000Y-38544742D01*
X112400000Y-38544742D02*
X112285714Y-38487600D01*
X112285714Y-38487600D02*
X112228571Y-38430457D01*
X167600000Y-91344742D02*
X167600000Y-92201885D01*
X167600000Y-92201885D02*
X167542857Y-92373314D01*
X167542857Y-92373314D02*
X167428571Y-92487600D01*
X167428571Y-92487600D02*
X167257143Y-92544742D01*
X167257143Y-92544742D02*
X167142857Y-92544742D01*
X168685715Y-91344742D02*
X168457143Y-91344742D01*
X168457143Y-91344742D02*
X168342857Y-91401885D01*
X168342857Y-91401885D02*
X168285715Y-91459028D01*
X168285715Y-91459028D02*
X168171429Y-91630457D01*
X168171429Y-91630457D02*
X168114286Y-91859028D01*
X168114286Y-91859028D02*
X168114286Y-92316171D01*
X168114286Y-92316171D02*
X168171429Y-92430457D01*
X168171429Y-92430457D02*
X168228572Y-92487600D01*
X168228572Y-92487600D02*
X168342857Y-92544742D01*
X168342857Y-92544742D02*
X168571429Y-92544742D01*
X168571429Y-92544742D02*
X168685715Y-92487600D01*
X168685715Y-92487600D02*
X168742857Y-92430457D01*
X168742857Y-92430457D02*
X168800000Y-92316171D01*
X168800000Y-92316171D02*
X168800000Y-92030457D01*
X168800000Y-92030457D02*
X168742857Y-91916171D01*
X168742857Y-91916171D02*
X168685715Y-91859028D01*
X168685715Y-91859028D02*
X168571429Y-91801885D01*
X168571429Y-91801885D02*
X168342857Y-91801885D01*
X168342857Y-91801885D02*
X168228572Y-91859028D01*
X168228572Y-91859028D02*
X168171429Y-91916171D01*
X168171429Y-91916171D02*
X168114286Y-92030457D01*
X144085714Y-59344742D02*
X144085714Y-60316171D01*
X144085714Y-60316171D02*
X144142857Y-60430457D01*
X144142857Y-60430457D02*
X144200000Y-60487600D01*
X144200000Y-60487600D02*
X144314285Y-60544742D01*
X144314285Y-60544742D02*
X144542857Y-60544742D01*
X144542857Y-60544742D02*
X144657142Y-60487600D01*
X144657142Y-60487600D02*
X144714285Y-60430457D01*
X144714285Y-60430457D02*
X144771428Y-60316171D01*
X144771428Y-60316171D02*
X144771428Y-59344742D01*
X145914285Y-59344742D02*
X145342857Y-59344742D01*
X145342857Y-59344742D02*
X145285714Y-59916171D01*
X145285714Y-59916171D02*
X145342857Y-59859028D01*
X145342857Y-59859028D02*
X145457143Y-59801885D01*
X145457143Y-59801885D02*
X145742857Y-59801885D01*
X145742857Y-59801885D02*
X145857143Y-59859028D01*
X145857143Y-59859028D02*
X145914285Y-59916171D01*
X145914285Y-59916171D02*
X145971428Y-60030457D01*
X145971428Y-60030457D02*
X145971428Y-60316171D01*
X145971428Y-60316171D02*
X145914285Y-60430457D01*
X145914285Y-60430457D02*
X145857143Y-60487600D01*
X145857143Y-60487600D02*
X145742857Y-60544742D01*
X145742857Y-60544742D02*
X145457143Y-60544742D01*
X145457143Y-60544742D02*
X145342857Y-60487600D01*
X145342857Y-60487600D02*
X145285714Y-60430457D01*
X71600000Y-77344742D02*
X71600000Y-78201885D01*
X71600000Y-78201885D02*
X71542857Y-78373314D01*
X71542857Y-78373314D02*
X71428571Y-78487600D01*
X71428571Y-78487600D02*
X71257143Y-78544742D01*
X71257143Y-78544742D02*
X71142857Y-78544742D01*
X72114286Y-77459028D02*
X72171429Y-77401885D01*
X72171429Y-77401885D02*
X72285715Y-77344742D01*
X72285715Y-77344742D02*
X72571429Y-77344742D01*
X72571429Y-77344742D02*
X72685715Y-77401885D01*
X72685715Y-77401885D02*
X72742857Y-77459028D01*
X72742857Y-77459028D02*
X72800000Y-77573314D01*
X72800000Y-77573314D02*
X72800000Y-77687600D01*
X72800000Y-77687600D02*
X72742857Y-77859028D01*
X72742857Y-77859028D02*
X72057143Y-78544742D01*
X72057143Y-78544742D02*
X72800000Y-78544742D01*
X147600000Y-37344742D02*
X147600000Y-38201885D01*
X147600000Y-38201885D02*
X147542857Y-38373314D01*
X147542857Y-38373314D02*
X147428571Y-38487600D01*
X147428571Y-38487600D02*
X147257143Y-38544742D01*
X147257143Y-38544742D02*
X147142857Y-38544742D01*
X148057143Y-37344742D02*
X148800000Y-37344742D01*
X148800000Y-37344742D02*
X148400000Y-37801885D01*
X148400000Y-37801885D02*
X148571429Y-37801885D01*
X148571429Y-37801885D02*
X148685715Y-37859028D01*
X148685715Y-37859028D02*
X148742857Y-37916171D01*
X148742857Y-37916171D02*
X148800000Y-38030457D01*
X148800000Y-38030457D02*
X148800000Y-38316171D01*
X148800000Y-38316171D02*
X148742857Y-38430457D01*
X148742857Y-38430457D02*
X148685715Y-38487600D01*
X148685715Y-38487600D02*
X148571429Y-38544742D01*
X148571429Y-38544742D02*
X148228572Y-38544742D01*
X148228572Y-38544742D02*
X148114286Y-38487600D01*
X148114286Y-38487600D02*
X148057143Y-38430457D01*
X111085714Y-59344742D02*
X111085714Y-60316171D01*
X111085714Y-60316171D02*
X111142857Y-60430457D01*
X111142857Y-60430457D02*
X111200000Y-60487600D01*
X111200000Y-60487600D02*
X111314285Y-60544742D01*
X111314285Y-60544742D02*
X111542857Y-60544742D01*
X111542857Y-60544742D02*
X111657142Y-60487600D01*
X111657142Y-60487600D02*
X111714285Y-60430457D01*
X111714285Y-60430457D02*
X111771428Y-60316171D01*
X111771428Y-60316171D02*
X111771428Y-59344742D01*
X112857143Y-59744742D02*
X112857143Y-60544742D01*
X112571428Y-59287600D02*
X112285714Y-60144742D01*
X112285714Y-60144742D02*
X113028571Y-60144742D01*
X111085714Y-91344742D02*
X111085714Y-92316171D01*
X111085714Y-92316171D02*
X111142857Y-92430457D01*
X111142857Y-92430457D02*
X111200000Y-92487600D01*
X111200000Y-92487600D02*
X111314285Y-92544742D01*
X111314285Y-92544742D02*
X111542857Y-92544742D01*
X111542857Y-92544742D02*
X111657142Y-92487600D01*
X111657142Y-92487600D02*
X111714285Y-92430457D01*
X111714285Y-92430457D02*
X111771428Y-92316171D01*
X111771428Y-92316171D02*
X111771428Y-91344742D01*
X112857143Y-91344742D02*
X112628571Y-91344742D01*
X112628571Y-91344742D02*
X112514285Y-91401885D01*
X112514285Y-91401885D02*
X112457143Y-91459028D01*
X112457143Y-91459028D02*
X112342857Y-91630457D01*
X112342857Y-91630457D02*
X112285714Y-91859028D01*
X112285714Y-91859028D02*
X112285714Y-92316171D01*
X112285714Y-92316171D02*
X112342857Y-92430457D01*
X112342857Y-92430457D02*
X112400000Y-92487600D01*
X112400000Y-92487600D02*
X112514285Y-92544742D01*
X112514285Y-92544742D02*
X112742857Y-92544742D01*
X112742857Y-92544742D02*
X112857143Y-92487600D01*
X112857143Y-92487600D02*
X112914285Y-92430457D01*
X112914285Y-92430457D02*
X112971428Y-92316171D01*
X112971428Y-92316171D02*
X112971428Y-92030457D01*
X112971428Y-92030457D02*
X112914285Y-91916171D01*
X112914285Y-91916171D02*
X112857143Y-91859028D01*
X112857143Y-91859028D02*
X112742857Y-91801885D01*
X112742857Y-91801885D02*
X112514285Y-91801885D01*
X112514285Y-91801885D02*
X112400000Y-91859028D01*
X112400000Y-91859028D02*
X112342857Y-91916171D01*
X112342857Y-91916171D02*
X112285714Y-92030457D01*
X149600000Y-91344742D02*
X149600000Y-92201885D01*
X149600000Y-92201885D02*
X149542857Y-92373314D01*
X149542857Y-92373314D02*
X149428571Y-92487600D01*
X149428571Y-92487600D02*
X149257143Y-92544742D01*
X149257143Y-92544742D02*
X149142857Y-92544742D01*
X150742857Y-91344742D02*
X150171429Y-91344742D01*
X150171429Y-91344742D02*
X150114286Y-91916171D01*
X150114286Y-91916171D02*
X150171429Y-91859028D01*
X150171429Y-91859028D02*
X150285715Y-91801885D01*
X150285715Y-91801885D02*
X150571429Y-91801885D01*
X150571429Y-91801885D02*
X150685715Y-91859028D01*
X150685715Y-91859028D02*
X150742857Y-91916171D01*
X150742857Y-91916171D02*
X150800000Y-92030457D01*
X150800000Y-92030457D02*
X150800000Y-92316171D01*
X150800000Y-92316171D02*
X150742857Y-92430457D01*
X150742857Y-92430457D02*
X150685715Y-92487600D01*
X150685715Y-92487600D02*
X150571429Y-92544742D01*
X150571429Y-92544742D02*
X150285715Y-92544742D01*
X150285715Y-92544742D02*
X150171429Y-92487600D01*
X150171429Y-92487600D02*
X150114286Y-92430457D01*
X87085714Y-30344742D02*
X87085714Y-31316171D01*
X87085714Y-31316171D02*
X87142857Y-31430457D01*
X87142857Y-31430457D02*
X87200000Y-31487600D01*
X87200000Y-31487600D02*
X87314285Y-31544742D01*
X87314285Y-31544742D02*
X87542857Y-31544742D01*
X87542857Y-31544742D02*
X87657142Y-31487600D01*
X87657142Y-31487600D02*
X87714285Y-31430457D01*
X87714285Y-31430457D02*
X87771428Y-31316171D01*
X87771428Y-31316171D02*
X87771428Y-30344742D01*
X88285714Y-30459028D02*
X88342857Y-30401885D01*
X88342857Y-30401885D02*
X88457143Y-30344742D01*
X88457143Y-30344742D02*
X88742857Y-30344742D01*
X88742857Y-30344742D02*
X88857143Y-30401885D01*
X88857143Y-30401885D02*
X88914285Y-30459028D01*
X88914285Y-30459028D02*
X88971428Y-30573314D01*
X88971428Y-30573314D02*
X88971428Y-30687600D01*
X88971428Y-30687600D02*
X88914285Y-30859028D01*
X88914285Y-30859028D02*
X88228571Y-31544742D01*
X88228571Y-31544742D02*
X88971428Y-31544742D01*
X29600000Y-30344742D02*
X29600000Y-31201885D01*
X29600000Y-31201885D02*
X29542857Y-31373314D01*
X29542857Y-31373314D02*
X29428571Y-31487600D01*
X29428571Y-31487600D02*
X29257143Y-31544742D01*
X29257143Y-31544742D02*
X29142857Y-31544742D01*
X30800000Y-31544742D02*
X30114286Y-31544742D01*
X30457143Y-31544742D02*
X30457143Y-30344742D01*
X30457143Y-30344742D02*
X30342857Y-30516171D01*
X30342857Y-30516171D02*
X30228572Y-30630457D01*
X30228572Y-30630457D02*
X30114286Y-30687600D01*
X67085714Y-30344742D02*
X67085714Y-31316171D01*
X67085714Y-31316171D02*
X67142857Y-31430457D01*
X67142857Y-31430457D02*
X67200000Y-31487600D01*
X67200000Y-31487600D02*
X67314285Y-31544742D01*
X67314285Y-31544742D02*
X67542857Y-31544742D01*
X67542857Y-31544742D02*
X67657142Y-31487600D01*
X67657142Y-31487600D02*
X67714285Y-31430457D01*
X67714285Y-31430457D02*
X67771428Y-31316171D01*
X67771428Y-31316171D02*
X67771428Y-30344742D01*
X68971428Y-31544742D02*
X68285714Y-31544742D01*
X68628571Y-31544742D02*
X68628571Y-30344742D01*
X68628571Y-30344742D02*
X68514285Y-30516171D01*
X68514285Y-30516171D02*
X68400000Y-30630457D01*
X68400000Y-30630457D02*
X68285714Y-30687600D01*
X47600000Y-30916171D02*
X47200000Y-30916171D01*
X47200000Y-31544742D02*
X47200000Y-30344742D01*
X47200000Y-30344742D02*
X47771428Y-30344742D01*
X48857142Y-31544742D02*
X48171428Y-31544742D01*
X48514285Y-31544742D02*
X48514285Y-30344742D01*
X48514285Y-30344742D02*
X48399999Y-30516171D01*
X48399999Y-30516171D02*
X48285714Y-30630457D01*
X48285714Y-30630457D02*
X48171428Y-30687600D01*
M02*
