%TF.GenerationSoftware,KiCad,Pcbnew,10.0.5*%
%TF.CreationDate,2026-08-07T15:50:59+08:00*%
%TF.ProjectId,controller,636f6e74-726f-46c6-9c65-722e6b696361,rev?*%
%TF.SameCoordinates,Original*%
%TF.FileFunction,Copper,L3,Inr*%
%TF.FilePolarity,Positive*%
%FSLAX46Y46*%
G04 Gerber Fmt 4.6, Leading zero omitted, Abs format (unit mm)*
G04 Created by KiCad (PCBNEW 10.0.5) date 2026-08-07 15:50:59*
%MOMM*%
%LPD*%
G01*
G04 APERTURE LIST*
%TA.AperFunction,ComponentPad*%
%ADD10C,2.400000*%
%TD*%
%TA.AperFunction,Conductor*%
%ADD11C,2.000000*%
%TD*%
G04 APERTURE END LIST*
D10*
%TO.N,N/C*%
%TO.C,J10*%
X145500000Y-110000000D03*
X148500000Y-110000000D03*
X151500000Y-110000000D03*
X154500000Y-110000000D03*
%TD*%
%TO.N,12V_ISO*%
%TO.C,U3*%
X107500000Y-42000000D03*
%TO.N,GND*%
X110500000Y-42000000D03*
%TO.N,5V_JETSON*%
X113500000Y-42000000D03*
%TO.N,GND*%
X116500000Y-42000000D03*
%TD*%
%TO.N,CANH*%
%TO.C,J6*%
X163500000Y-96000000D03*
%TO.N,CANL*%
X166500000Y-96000000D03*
%TO.N,GND*%
X169500000Y-96000000D03*
%TO.N,N/C*%
X172500000Y-96000000D03*
%TD*%
%TO.N,3V3_LOGIC*%
%TO.C,U5*%
X134500000Y-64000000D03*
X137500000Y-64000000D03*
X140500000Y-64000000D03*
X143500000Y-64000000D03*
%TO.N,GND*%
X146500000Y-64000000D03*
X149500000Y-64000000D03*
X152500000Y-64000000D03*
X155500000Y-64000000D03*
%TD*%
%TO.N,12V_ISO*%
%TO.C,J2*%
X67500000Y-82000000D03*
X70500000Y-82000000D03*
%TO.N,GND*%
X73500000Y-82000000D03*
X76500000Y-82000000D03*
%TD*%
%TO.N,5V_JETSON*%
%TO.C,J3*%
X143500000Y-42000000D03*
X146500000Y-42000000D03*
%TO.N,GND*%
X149500000Y-42000000D03*
X152500000Y-42000000D03*
%TD*%
%TO.N,12V_ISO*%
%TO.C,U4*%
X107500000Y-64000000D03*
%TO.N,GND*%
X110500000Y-64000000D03*
%TO.N,3V3_LOGIC*%
X113500000Y-64000000D03*
%TO.N,GND*%
X116500000Y-64000000D03*
%TD*%
%TO.N,3V3_LOGIC*%
%TO.C,U6*%
X101500000Y-96000000D03*
%TO.N,GND*%
X104500000Y-96000000D03*
%TO.N,N/C*%
X107500000Y-96000000D03*
X110500000Y-96000000D03*
%TO.N,CANH*%
X113500000Y-96000000D03*
%TO.N,CANL*%
X116500000Y-96000000D03*
%TO.N,GND*%
X119500000Y-96000000D03*
%TO.N,3V3_LOGIC*%
X122500000Y-96000000D03*
%TD*%
%TO.N,CANH*%
%TO.C,J5*%
X145500000Y-96000000D03*
%TO.N,CANL*%
X148500000Y-96000000D03*
%TO.N,GND*%
X151500000Y-96000000D03*
%TO.N,N/C*%
X154500000Y-96000000D03*
%TD*%
%TO.N,VBAT_FUSED*%
%TO.C,U2*%
X80000000Y-35000000D03*
%TO.N,GND_PWR*%
X83000000Y-35000000D03*
%TO.N,12V_ISO*%
X93000000Y-35000000D03*
%TO.N,GND*%
X96000000Y-35000000D03*
%TD*%
%TO.N,VBAT_FUSED*%
%TO.C,J1*%
X25500000Y-35000000D03*
X28500000Y-35000000D03*
%TO.N,GND_PWR*%
X31500000Y-35000000D03*
X34500000Y-35000000D03*
%TD*%
%TO.N,VBAT_FUSED*%
%TO.C,U1*%
X63500000Y-35000000D03*
%TO.N,GND_PWR*%
X66500000Y-35000000D03*
%TO.N,VBAT_FUSED*%
X69500000Y-35000000D03*
%TO.N,GND_PWR*%
X72500000Y-35000000D03*
%TD*%
%TO.N,VBAT_FUSED*%
%TO.C,F1*%
X46500000Y-35000000D03*
X49500000Y-35000000D03*
%TD*%
%TO.N,12V_ISO*%
D11*
X107500000Y-76000000D02*
X107500000Y-64000000D01*
X70500000Y-76000000D02*
X93000000Y-76000000D01*
X107500000Y-76000000D02*
X107500000Y-42000000D01*
X107500000Y-42000000D02*
X107500000Y-76000000D01*
X93000000Y-35000000D02*
X93000000Y-76000000D01*
X93000000Y-76000000D02*
X93000000Y-35000000D01*
X67500000Y-76000000D02*
X70500000Y-76000000D01*
X93000000Y-76000000D02*
X107500000Y-76000000D01*
X67500000Y-82000000D02*
X67500000Y-76000000D01*
X70500000Y-76000000D02*
X70500000Y-82000000D01*
X70500000Y-82000000D02*
X70500000Y-76000000D01*
%TD*%
M02*
