M48
; DRILL file KiCad 10.0.5 date 2026-08-07T17:01:33
; FORMAT={-:-/ absolute / metric / decimal}
; #@! TF.CreationDate,2026-08-07T17:01:33+08:00
; #@! TF.GenerationSoftware,Kicad,Pcbnew,10.0.5
; #@! TF.FileFunction,Plated,1,6,PTH
FMAT,2
METRIC
; #@! TA.AperFunction,Plated,PTH,ViaDrill
T1C0.400
; #@! TA.AperFunction,Plated,PTH,ComponentDrill
T2C1.100
%
G90
G05
T1
X99.0Y-125.0
X101.0Y-125.0
X103.0Y-125.0
X107.0Y-125.0
X119.0Y-125.0
X121.0Y-130.0
X134.0Y-92.0
X136.0Y-92.0
T2
X25.5Y-35.0
X28.5Y-35.0
X31.5Y-35.0
X34.5Y-35.0
X46.5Y-35.0
X49.5Y-35.0
X63.5Y-35.0
X66.5Y-35.0
X69.5Y-35.0
X72.5Y-35.0
X79.0Y-35.0
X82.0Y-35.0
X94.0Y-35.0
X97.0Y-35.0
X101.5Y-82.0
X103.5Y-140.0
X104.5Y-82.0
X106.5Y-140.0
X107.5Y-42.0
X107.5Y-64.0
X107.5Y-82.0
X109.5Y-140.0
X110.5Y-42.0
X110.5Y-64.0
X110.5Y-82.0
X112.5Y-140.0
X113.5Y-42.0
X113.5Y-64.0
X116.125Y-110.0
X116.5Y-42.0
X116.5Y-64.0
X118.875Y-110.0
X118.875Y-140.0
X120.5Y-42.0
X121.625Y-110.0
X121.625Y-140.0
X123.5Y-42.0
X124.375Y-110.0
X124.375Y-140.0
X126.5Y-42.0
X127.125Y-110.0
X127.125Y-140.0
X129.5Y-42.0
X129.875Y-110.0
X129.875Y-140.0
X132.625Y-110.0
X132.625Y-140.0
X135.375Y-110.0
X135.375Y-140.0
X138.125Y-110.0
X138.125Y-140.0
X140.5Y-55.0
X140.5Y-67.0
X140.5Y-87.0
X140.875Y-110.0
X140.875Y-140.0
X143.5Y-55.0
X143.5Y-67.0
X143.5Y-87.0
X143.625Y-110.0
X143.625Y-140.0
X146.375Y-110.0
X146.375Y-140.0
X146.5Y-55.0
X146.5Y-67.0
X146.5Y-87.0
X149.125Y-110.0
X149.125Y-140.0
X149.5Y-55.0
X149.5Y-67.0
X149.5Y-87.0
X151.875Y-110.0
X151.875Y-140.0
X154.625Y-110.0
X154.625Y-140.0
X157.375Y-110.0
X157.375Y-140.0
X160.125Y-110.0
X160.125Y-140.0
X160.5Y-55.0
X160.5Y-67.0
X160.5Y-87.0
X162.875Y-110.0
X162.875Y-140.0
X163.5Y-55.0
X163.5Y-67.0
X163.5Y-87.0
X165.625Y-110.0
X165.625Y-140.0
X166.5Y-55.0
X166.5Y-67.0
X166.5Y-87.0
X168.375Y-110.0
X168.375Y-140.0
X169.5Y-55.0
X169.5Y-67.0
X169.5Y-87.0
X171.125Y-110.0
X171.125Y-140.0
X173.875Y-110.0
M30
