%TF.GenerationSoftware,KiCad,Pcbnew,10.0.5*%
%TF.CreationDate,2026-08-21T23:31:12+08:00*%
%TF.ProjectId,controller,636f6e74-726f-46c6-9c65-722e6b696361,EVT1*%
%TF.SameCoordinates,Original*%
%TF.FileFunction,Legend,Top*%
%TF.FilePolarity,Positive*%
%FSLAX46Y46*%
G04 Gerber Fmt 4.6, Leading zero omitted, Abs format (unit mm)*
G04 Created by KiCad (PCBNEW 10.0.5) date 2026-08-21 23:31:12*
%MOMM*%
%LPD*%
G01*
G04 APERTURE LIST*
%ADD10C,0.120000*%
%ADD11C,0.150000*%
%ADD12C,0.200000*%
G04 APERTURE END LIST*
D10*
X51363855Y-70799999D02*
X50563855Y-70799999D01*
X50563855Y-70799999D02*
X50563855Y-70495237D01*
X50563855Y-70495237D02*
X50601950Y-70419047D01*
X50601950Y-70419047D02*
X50640045Y-70380952D01*
X50640045Y-70380952D02*
X50716236Y-70342856D01*
X50716236Y-70342856D02*
X50830521Y-70342856D01*
X50830521Y-70342856D02*
X50906712Y-70380952D01*
X50906712Y-70380952D02*
X50944807Y-70419047D01*
X50944807Y-70419047D02*
X50982902Y-70495237D01*
X50982902Y-70495237D02*
X50982902Y-70799999D01*
X51363855Y-69542856D02*
X50982902Y-69809523D01*
X51363855Y-69999999D02*
X50563855Y-69999999D01*
X50563855Y-69999999D02*
X50563855Y-69695237D01*
X50563855Y-69695237D02*
X50601950Y-69619047D01*
X50601950Y-69619047D02*
X50640045Y-69580952D01*
X50640045Y-69580952D02*
X50716236Y-69542856D01*
X50716236Y-69542856D02*
X50830521Y-69542856D01*
X50830521Y-69542856D02*
X50906712Y-69580952D01*
X50906712Y-69580952D02*
X50944807Y-69619047D01*
X50944807Y-69619047D02*
X50982902Y-69695237D01*
X50982902Y-69695237D02*
X50982902Y-69999999D01*
X51363855Y-69199999D02*
X50563855Y-69199999D01*
X51363855Y-68819047D02*
X50563855Y-68819047D01*
X50563855Y-68819047D02*
X51135283Y-68552381D01*
X51135283Y-68552381D02*
X50563855Y-68285714D01*
X50563855Y-68285714D02*
X51363855Y-68285714D01*
X51135283Y-67942857D02*
X51135283Y-67561904D01*
X51363855Y-68019047D02*
X50563855Y-67752380D01*
X50563855Y-67752380D02*
X51363855Y-67485714D01*
X51363855Y-66761904D02*
X50982902Y-67028571D01*
X51363855Y-67219047D02*
X50563855Y-67219047D01*
X50563855Y-67219047D02*
X50563855Y-66914285D01*
X50563855Y-66914285D02*
X50601950Y-66838095D01*
X50601950Y-66838095D02*
X50640045Y-66800000D01*
X50640045Y-66800000D02*
X50716236Y-66761904D01*
X50716236Y-66761904D02*
X50830521Y-66761904D01*
X50830521Y-66761904D02*
X50906712Y-66800000D01*
X50906712Y-66800000D02*
X50944807Y-66838095D01*
X50944807Y-66838095D02*
X50982902Y-66914285D01*
X50982902Y-66914285D02*
X50982902Y-67219047D01*
X50982902Y-66266666D02*
X51363855Y-66266666D01*
X50563855Y-66533333D02*
X50982902Y-66266666D01*
X50982902Y-66266666D02*
X50563855Y-66000000D01*
X51630521Y-64933333D02*
X50487664Y-64933333D01*
X51325760Y-63790476D02*
X51363855Y-63676190D01*
X51363855Y-63676190D02*
X51363855Y-63485714D01*
X51363855Y-63485714D02*
X51325760Y-63409523D01*
X51325760Y-63409523D02*
X51287664Y-63371428D01*
X51287664Y-63371428D02*
X51211474Y-63333333D01*
X51211474Y-63333333D02*
X51135283Y-63333333D01*
X51135283Y-63333333D02*
X51059093Y-63371428D01*
X51059093Y-63371428D02*
X51020998Y-63409523D01*
X51020998Y-63409523D02*
X50982902Y-63485714D01*
X50982902Y-63485714D02*
X50944807Y-63638095D01*
X50944807Y-63638095D02*
X50906712Y-63714285D01*
X50906712Y-63714285D02*
X50868617Y-63752380D01*
X50868617Y-63752380D02*
X50792426Y-63790476D01*
X50792426Y-63790476D02*
X50716236Y-63790476D01*
X50716236Y-63790476D02*
X50640045Y-63752380D01*
X50640045Y-63752380D02*
X50601950Y-63714285D01*
X50601950Y-63714285D02*
X50563855Y-63638095D01*
X50563855Y-63638095D02*
X50563855Y-63447618D01*
X50563855Y-63447618D02*
X50601950Y-63333333D01*
X50944807Y-62990475D02*
X50944807Y-62723809D01*
X51363855Y-62609523D02*
X51363855Y-62990475D01*
X51363855Y-62990475D02*
X50563855Y-62990475D01*
X50563855Y-62990475D02*
X50563855Y-62609523D01*
X51287664Y-61809522D02*
X51325760Y-61847618D01*
X51325760Y-61847618D02*
X51363855Y-61961903D01*
X51363855Y-61961903D02*
X51363855Y-62038094D01*
X51363855Y-62038094D02*
X51325760Y-62152380D01*
X51325760Y-62152380D02*
X51249569Y-62228570D01*
X51249569Y-62228570D02*
X51173379Y-62266665D01*
X51173379Y-62266665D02*
X51020998Y-62304761D01*
X51020998Y-62304761D02*
X50906712Y-62304761D01*
X50906712Y-62304761D02*
X50754331Y-62266665D01*
X50754331Y-62266665D02*
X50678140Y-62228570D01*
X50678140Y-62228570D02*
X50601950Y-62152380D01*
X50601950Y-62152380D02*
X50563855Y-62038094D01*
X50563855Y-62038094D02*
X50563855Y-61961903D01*
X50563855Y-61961903D02*
X50601950Y-61847618D01*
X50601950Y-61847618D02*
X50640045Y-61809522D01*
X50563855Y-61314284D02*
X50563855Y-61161903D01*
X50563855Y-61161903D02*
X50601950Y-61085713D01*
X50601950Y-61085713D02*
X50678140Y-61009522D01*
X50678140Y-61009522D02*
X50830521Y-60971427D01*
X50830521Y-60971427D02*
X51097188Y-60971427D01*
X51097188Y-60971427D02*
X51249569Y-61009522D01*
X51249569Y-61009522D02*
X51325760Y-61085713D01*
X51325760Y-61085713D02*
X51363855Y-61161903D01*
X51363855Y-61161903D02*
X51363855Y-61314284D01*
X51363855Y-61314284D02*
X51325760Y-61390475D01*
X51325760Y-61390475D02*
X51249569Y-61466665D01*
X51249569Y-61466665D02*
X51097188Y-61504761D01*
X51097188Y-61504761D02*
X50830521Y-61504761D01*
X50830521Y-61504761D02*
X50678140Y-61466665D01*
X50678140Y-61466665D02*
X50601950Y-61390475D01*
X50601950Y-61390475D02*
X50563855Y-61314284D01*
X51363855Y-60628570D02*
X50563855Y-60628570D01*
X50563855Y-60628570D02*
X51363855Y-60171427D01*
X51363855Y-60171427D02*
X50563855Y-60171427D01*
X51363855Y-59790475D02*
X50563855Y-59790475D01*
X50563855Y-59790475D02*
X50563855Y-59599999D01*
X50563855Y-59599999D02*
X50601950Y-59485713D01*
X50601950Y-59485713D02*
X50678140Y-59409523D01*
X50678140Y-59409523D02*
X50754331Y-59371428D01*
X50754331Y-59371428D02*
X50906712Y-59333332D01*
X50906712Y-59333332D02*
X51020998Y-59333332D01*
X51020998Y-59333332D02*
X51173379Y-59371428D01*
X51173379Y-59371428D02*
X51249569Y-59409523D01*
X51249569Y-59409523D02*
X51325760Y-59485713D01*
X51325760Y-59485713D02*
X51363855Y-59599999D01*
X51363855Y-59599999D02*
X51363855Y-59790475D01*
X51135283Y-59028571D02*
X51135283Y-58647618D01*
X51363855Y-59104761D02*
X50563855Y-58838094D01*
X50563855Y-58838094D02*
X51363855Y-58571428D01*
X51363855Y-57847618D02*
X50982902Y-58114285D01*
X51363855Y-58304761D02*
X50563855Y-58304761D01*
X50563855Y-58304761D02*
X50563855Y-57999999D01*
X50563855Y-57999999D02*
X50601950Y-57923809D01*
X50601950Y-57923809D02*
X50640045Y-57885714D01*
X50640045Y-57885714D02*
X50716236Y-57847618D01*
X50716236Y-57847618D02*
X50830521Y-57847618D01*
X50830521Y-57847618D02*
X50906712Y-57885714D01*
X50906712Y-57885714D02*
X50944807Y-57923809D01*
X50944807Y-57923809D02*
X50982902Y-57999999D01*
X50982902Y-57999999D02*
X50982902Y-58304761D01*
X50982902Y-57352380D02*
X51363855Y-57352380D01*
X50563855Y-57619047D02*
X50982902Y-57352380D01*
X50982902Y-57352380D02*
X50563855Y-57085714D01*
D11*
X59352381Y-23062295D02*
X59352381Y-23709914D01*
X59352381Y-23709914D02*
X59390476Y-23786104D01*
X59390476Y-23786104D02*
X59428571Y-23824200D01*
X59428571Y-23824200D02*
X59504762Y-23862295D01*
X59504762Y-23862295D02*
X59657143Y-23862295D01*
X59657143Y-23862295D02*
X59733333Y-23824200D01*
X59733333Y-23824200D02*
X59771428Y-23786104D01*
X59771428Y-23786104D02*
X59809524Y-23709914D01*
X59809524Y-23709914D02*
X59809524Y-23062295D01*
X60152380Y-23138485D02*
X60190476Y-23100390D01*
X60190476Y-23100390D02*
X60266666Y-23062295D01*
X60266666Y-23062295D02*
X60457142Y-23062295D01*
X60457142Y-23062295D02*
X60533333Y-23100390D01*
X60533333Y-23100390D02*
X60571428Y-23138485D01*
X60571428Y-23138485D02*
X60609523Y-23214676D01*
X60609523Y-23214676D02*
X60609523Y-23290866D01*
X60609523Y-23290866D02*
X60571428Y-23405152D01*
X60571428Y-23405152D02*
X60114285Y-23862295D01*
X60114285Y-23862295D02*
X60609523Y-23862295D01*
X61942857Y-23862295D02*
X61561905Y-23862295D01*
X61561905Y-23862295D02*
X61561905Y-23062295D01*
X62171428Y-23633723D02*
X62552381Y-23633723D01*
X62095238Y-23862295D02*
X62361905Y-23062295D01*
X62361905Y-23062295D02*
X62628571Y-23862295D01*
X62895238Y-23862295D02*
X62895238Y-23062295D01*
X62895238Y-23062295D02*
X63352381Y-23862295D01*
X63352381Y-23862295D02*
X63352381Y-23062295D01*
X63733333Y-23862295D02*
X63733333Y-23062295D01*
X63733333Y-23062295D02*
X63923809Y-23062295D01*
X63923809Y-23062295D02*
X64038095Y-23100390D01*
X64038095Y-23100390D02*
X64114285Y-23176580D01*
X64114285Y-23176580D02*
X64152380Y-23252771D01*
X64152380Y-23252771D02*
X64190476Y-23405152D01*
X64190476Y-23405152D02*
X64190476Y-23519438D01*
X64190476Y-23519438D02*
X64152380Y-23671819D01*
X64152380Y-23671819D02*
X64114285Y-23748009D01*
X64114285Y-23748009D02*
X64038095Y-23824200D01*
X64038095Y-23824200D02*
X63923809Y-23862295D01*
X63923809Y-23862295D02*
X63733333Y-23862295D01*
X65142857Y-23862295D02*
X65142857Y-23062295D01*
X65142857Y-23062295D02*
X65447619Y-23062295D01*
X65447619Y-23062295D02*
X65523809Y-23100390D01*
X65523809Y-23100390D02*
X65561904Y-23138485D01*
X65561904Y-23138485D02*
X65600000Y-23214676D01*
X65600000Y-23214676D02*
X65600000Y-23328961D01*
X65600000Y-23328961D02*
X65561904Y-23405152D01*
X65561904Y-23405152D02*
X65523809Y-23443247D01*
X65523809Y-23443247D02*
X65447619Y-23481342D01*
X65447619Y-23481342D02*
X65142857Y-23481342D01*
X65904761Y-23633723D02*
X66285714Y-23633723D01*
X65828571Y-23862295D02*
X66095238Y-23062295D01*
X66095238Y-23062295D02*
X66361904Y-23862295D01*
X66514285Y-23062295D02*
X66971428Y-23062295D01*
X66742856Y-23862295D02*
X66742856Y-23062295D01*
X67123809Y-23062295D02*
X67580952Y-23062295D01*
X67352380Y-23862295D02*
X67352380Y-23062295D01*
X67847619Y-23443247D02*
X68114285Y-23443247D01*
X68228571Y-23862295D02*
X67847619Y-23862295D01*
X67847619Y-23862295D02*
X67847619Y-23062295D01*
X67847619Y-23062295D02*
X68228571Y-23062295D01*
X69028572Y-23862295D02*
X68761905Y-23481342D01*
X68571429Y-23862295D02*
X68571429Y-23062295D01*
X68571429Y-23062295D02*
X68876191Y-23062295D01*
X68876191Y-23062295D02*
X68952381Y-23100390D01*
X68952381Y-23100390D02*
X68990476Y-23138485D01*
X68990476Y-23138485D02*
X69028572Y-23214676D01*
X69028572Y-23214676D02*
X69028572Y-23328961D01*
X69028572Y-23328961D02*
X68990476Y-23405152D01*
X68990476Y-23405152D02*
X68952381Y-23443247D01*
X68952381Y-23443247D02*
X68876191Y-23481342D01*
X68876191Y-23481342D02*
X68571429Y-23481342D01*
X69371429Y-23862295D02*
X69371429Y-23062295D01*
X69371429Y-23062295D02*
X69828572Y-23862295D01*
X69828572Y-23862295D02*
X69828572Y-23062295D01*
X70704762Y-23062295D02*
X71161905Y-23062295D01*
X70933333Y-23862295D02*
X70933333Y-23062295D01*
X71695238Y-23443247D02*
X71809524Y-23481342D01*
X71809524Y-23481342D02*
X71847619Y-23519438D01*
X71847619Y-23519438D02*
X71885715Y-23595628D01*
X71885715Y-23595628D02*
X71885715Y-23709914D01*
X71885715Y-23709914D02*
X71847619Y-23786104D01*
X71847619Y-23786104D02*
X71809524Y-23824200D01*
X71809524Y-23824200D02*
X71733334Y-23862295D01*
X71733334Y-23862295D02*
X71428572Y-23862295D01*
X71428572Y-23862295D02*
X71428572Y-23062295D01*
X71428572Y-23062295D02*
X71695238Y-23062295D01*
X71695238Y-23062295D02*
X71771429Y-23100390D01*
X71771429Y-23100390D02*
X71809524Y-23138485D01*
X71809524Y-23138485D02*
X71847619Y-23214676D01*
X71847619Y-23214676D02*
X71847619Y-23290866D01*
X71847619Y-23290866D02*
X71809524Y-23367057D01*
X71809524Y-23367057D02*
X71771429Y-23405152D01*
X71771429Y-23405152D02*
X71695238Y-23443247D01*
X71695238Y-23443247D02*
X71428572Y-23443247D01*
X72228572Y-23862295D02*
X72228572Y-23062295D01*
X72228572Y-23062295D02*
X72419048Y-23062295D01*
X72419048Y-23062295D02*
X72533334Y-23100390D01*
X72533334Y-23100390D02*
X72609524Y-23176580D01*
X72609524Y-23176580D02*
X72647619Y-23252771D01*
X72647619Y-23252771D02*
X72685715Y-23405152D01*
X72685715Y-23405152D02*
X72685715Y-23519438D01*
X72685715Y-23519438D02*
X72647619Y-23671819D01*
X72647619Y-23671819D02*
X72609524Y-23748009D01*
X72609524Y-23748009D02*
X72533334Y-23824200D01*
X72533334Y-23824200D02*
X72419048Y-23862295D01*
X72419048Y-23862295D02*
X72228572Y-23862295D01*
X62780953Y-30862295D02*
X62780953Y-30062295D01*
X62780953Y-30062295D02*
X62971429Y-30062295D01*
X62971429Y-30062295D02*
X63085715Y-30100390D01*
X63085715Y-30100390D02*
X63161905Y-30176580D01*
X63161905Y-30176580D02*
X63200000Y-30252771D01*
X63200000Y-30252771D02*
X63238096Y-30405152D01*
X63238096Y-30405152D02*
X63238096Y-30519438D01*
X63238096Y-30519438D02*
X63200000Y-30671819D01*
X63200000Y-30671819D02*
X63161905Y-30748009D01*
X63161905Y-30748009D02*
X63085715Y-30824200D01*
X63085715Y-30824200D02*
X62971429Y-30862295D01*
X62971429Y-30862295D02*
X62780953Y-30862295D01*
X63733334Y-30062295D02*
X63885715Y-30062295D01*
X63885715Y-30062295D02*
X63961905Y-30100390D01*
X63961905Y-30100390D02*
X64038096Y-30176580D01*
X64038096Y-30176580D02*
X64076191Y-30328961D01*
X64076191Y-30328961D02*
X64076191Y-30595628D01*
X64076191Y-30595628D02*
X64038096Y-30748009D01*
X64038096Y-30748009D02*
X63961905Y-30824200D01*
X63961905Y-30824200D02*
X63885715Y-30862295D01*
X63885715Y-30862295D02*
X63733334Y-30862295D01*
X63733334Y-30862295D02*
X63657143Y-30824200D01*
X63657143Y-30824200D02*
X63580953Y-30748009D01*
X63580953Y-30748009D02*
X63542857Y-30595628D01*
X63542857Y-30595628D02*
X63542857Y-30328961D01*
X63542857Y-30328961D02*
X63580953Y-30176580D01*
X63580953Y-30176580D02*
X63657143Y-30100390D01*
X63657143Y-30100390D02*
X63733334Y-30062295D01*
X65028572Y-30862295D02*
X65028572Y-30062295D01*
X65028572Y-30062295D02*
X65485715Y-30862295D01*
X65485715Y-30862295D02*
X65485715Y-30062295D01*
X66019048Y-30062295D02*
X66171429Y-30062295D01*
X66171429Y-30062295D02*
X66247619Y-30100390D01*
X66247619Y-30100390D02*
X66323810Y-30176580D01*
X66323810Y-30176580D02*
X66361905Y-30328961D01*
X66361905Y-30328961D02*
X66361905Y-30595628D01*
X66361905Y-30595628D02*
X66323810Y-30748009D01*
X66323810Y-30748009D02*
X66247619Y-30824200D01*
X66247619Y-30824200D02*
X66171429Y-30862295D01*
X66171429Y-30862295D02*
X66019048Y-30862295D01*
X66019048Y-30862295D02*
X65942857Y-30824200D01*
X65942857Y-30824200D02*
X65866667Y-30748009D01*
X65866667Y-30748009D02*
X65828571Y-30595628D01*
X65828571Y-30595628D02*
X65828571Y-30328961D01*
X65828571Y-30328961D02*
X65866667Y-30176580D01*
X65866667Y-30176580D02*
X65942857Y-30100390D01*
X65942857Y-30100390D02*
X66019048Y-30062295D01*
X66590476Y-30062295D02*
X67047619Y-30062295D01*
X66819047Y-30862295D02*
X66819047Y-30062295D01*
X68190476Y-30443247D02*
X67923810Y-30443247D01*
X67923810Y-30862295D02*
X67923810Y-30062295D01*
X67923810Y-30062295D02*
X68304762Y-30062295D01*
X68609524Y-30862295D02*
X68609524Y-30062295D01*
X68876190Y-30062295D02*
X69333333Y-30062295D01*
X69104761Y-30862295D02*
X69104761Y-30062295D01*
X66704762Y-127362295D02*
X66704762Y-126562295D01*
X66704762Y-126562295D02*
X66895238Y-126562295D01*
X66895238Y-126562295D02*
X67009524Y-126600390D01*
X67009524Y-126600390D02*
X67085714Y-126676580D01*
X67085714Y-126676580D02*
X67123809Y-126752771D01*
X67123809Y-126752771D02*
X67161905Y-126905152D01*
X67161905Y-126905152D02*
X67161905Y-127019438D01*
X67161905Y-127019438D02*
X67123809Y-127171819D01*
X67123809Y-127171819D02*
X67085714Y-127248009D01*
X67085714Y-127248009D02*
X67009524Y-127324200D01*
X67009524Y-127324200D02*
X66895238Y-127362295D01*
X66895238Y-127362295D02*
X66704762Y-127362295D01*
X67657143Y-126562295D02*
X67809524Y-126562295D01*
X67809524Y-126562295D02*
X67885714Y-126600390D01*
X67885714Y-126600390D02*
X67961905Y-126676580D01*
X67961905Y-126676580D02*
X68000000Y-126828961D01*
X68000000Y-126828961D02*
X68000000Y-127095628D01*
X68000000Y-127095628D02*
X67961905Y-127248009D01*
X67961905Y-127248009D02*
X67885714Y-127324200D01*
X67885714Y-127324200D02*
X67809524Y-127362295D01*
X67809524Y-127362295D02*
X67657143Y-127362295D01*
X67657143Y-127362295D02*
X67580952Y-127324200D01*
X67580952Y-127324200D02*
X67504762Y-127248009D01*
X67504762Y-127248009D02*
X67466666Y-127095628D01*
X67466666Y-127095628D02*
X67466666Y-126828961D01*
X67466666Y-126828961D02*
X67504762Y-126676580D01*
X67504762Y-126676580D02*
X67580952Y-126600390D01*
X67580952Y-126600390D02*
X67657143Y-126562295D01*
X68952381Y-127362295D02*
X68952381Y-126562295D01*
X68952381Y-126562295D02*
X69409524Y-127362295D01*
X69409524Y-127362295D02*
X69409524Y-126562295D01*
X69942857Y-126562295D02*
X70095238Y-126562295D01*
X70095238Y-126562295D02*
X70171428Y-126600390D01*
X70171428Y-126600390D02*
X70247619Y-126676580D01*
X70247619Y-126676580D02*
X70285714Y-126828961D01*
X70285714Y-126828961D02*
X70285714Y-127095628D01*
X70285714Y-127095628D02*
X70247619Y-127248009D01*
X70247619Y-127248009D02*
X70171428Y-127324200D01*
X70171428Y-127324200D02*
X70095238Y-127362295D01*
X70095238Y-127362295D02*
X69942857Y-127362295D01*
X69942857Y-127362295D02*
X69866666Y-127324200D01*
X69866666Y-127324200D02*
X69790476Y-127248009D01*
X69790476Y-127248009D02*
X69752380Y-127095628D01*
X69752380Y-127095628D02*
X69752380Y-126828961D01*
X69752380Y-126828961D02*
X69790476Y-126676580D01*
X69790476Y-126676580D02*
X69866666Y-126600390D01*
X69866666Y-126600390D02*
X69942857Y-126562295D01*
X70514285Y-126562295D02*
X70971428Y-126562295D01*
X70742856Y-127362295D02*
X70742856Y-126562295D01*
X72000000Y-126562295D02*
X72152381Y-126562295D01*
X72152381Y-126562295D02*
X72228571Y-126600390D01*
X72228571Y-126600390D02*
X72304762Y-126676580D01*
X72304762Y-126676580D02*
X72342857Y-126828961D01*
X72342857Y-126828961D02*
X72342857Y-127095628D01*
X72342857Y-127095628D02*
X72304762Y-127248009D01*
X72304762Y-127248009D02*
X72228571Y-127324200D01*
X72228571Y-127324200D02*
X72152381Y-127362295D01*
X72152381Y-127362295D02*
X72000000Y-127362295D01*
X72000000Y-127362295D02*
X71923809Y-127324200D01*
X71923809Y-127324200D02*
X71847619Y-127248009D01*
X71847619Y-127248009D02*
X71809523Y-127095628D01*
X71809523Y-127095628D02*
X71809523Y-126828961D01*
X71809523Y-126828961D02*
X71847619Y-126676580D01*
X71847619Y-126676580D02*
X71923809Y-126600390D01*
X71923809Y-126600390D02*
X72000000Y-126562295D01*
X73142857Y-127362295D02*
X72876190Y-126981342D01*
X72685714Y-127362295D02*
X72685714Y-126562295D01*
X72685714Y-126562295D02*
X72990476Y-126562295D01*
X72990476Y-126562295D02*
X73066666Y-126600390D01*
X73066666Y-126600390D02*
X73104761Y-126638485D01*
X73104761Y-126638485D02*
X73142857Y-126714676D01*
X73142857Y-126714676D02*
X73142857Y-126828961D01*
X73142857Y-126828961D02*
X73104761Y-126905152D01*
X73104761Y-126905152D02*
X73066666Y-126943247D01*
X73066666Y-126943247D02*
X72990476Y-126981342D01*
X72990476Y-126981342D02*
X72685714Y-126981342D01*
X73485714Y-127362295D02*
X73485714Y-126562295D01*
X73485714Y-126562295D02*
X73676190Y-126562295D01*
X73676190Y-126562295D02*
X73790476Y-126600390D01*
X73790476Y-126600390D02*
X73866666Y-126676580D01*
X73866666Y-126676580D02*
X73904761Y-126752771D01*
X73904761Y-126752771D02*
X73942857Y-126905152D01*
X73942857Y-126905152D02*
X73942857Y-127019438D01*
X73942857Y-127019438D02*
X73904761Y-127171819D01*
X73904761Y-127171819D02*
X73866666Y-127248009D01*
X73866666Y-127248009D02*
X73790476Y-127324200D01*
X73790476Y-127324200D02*
X73676190Y-127362295D01*
X73676190Y-127362295D02*
X73485714Y-127362295D01*
X74285714Y-126943247D02*
X74552380Y-126943247D01*
X74666666Y-127362295D02*
X74285714Y-127362295D01*
X74285714Y-127362295D02*
X74285714Y-126562295D01*
X74285714Y-126562295D02*
X74666666Y-126562295D01*
X75466667Y-127362295D02*
X75200000Y-126981342D01*
X75009524Y-127362295D02*
X75009524Y-126562295D01*
X75009524Y-126562295D02*
X75314286Y-126562295D01*
X75314286Y-126562295D02*
X75390476Y-126600390D01*
X75390476Y-126600390D02*
X75428571Y-126638485D01*
X75428571Y-126638485D02*
X75466667Y-126714676D01*
X75466667Y-126714676D02*
X75466667Y-126828961D01*
X75466667Y-126828961D02*
X75428571Y-126905152D01*
X75428571Y-126905152D02*
X75390476Y-126943247D01*
X75390476Y-126943247D02*
X75314286Y-126981342D01*
X75314286Y-126981342D02*
X75009524Y-126981342D01*
X76342857Y-126562295D02*
X76533333Y-127362295D01*
X76533333Y-127362295D02*
X76685714Y-126790866D01*
X76685714Y-126790866D02*
X76838095Y-127362295D01*
X76838095Y-127362295D02*
X77028572Y-126562295D01*
X77333334Y-127362295D02*
X77333334Y-126562295D01*
X77600000Y-126562295D02*
X78057143Y-126562295D01*
X77828571Y-127362295D02*
X77828571Y-126562295D01*
X78323810Y-127362295D02*
X78323810Y-126562295D01*
X78323810Y-126943247D02*
X78780953Y-126943247D01*
X78780953Y-127362295D02*
X78780953Y-126562295D01*
X79314286Y-126562295D02*
X79466667Y-126562295D01*
X79466667Y-126562295D02*
X79542857Y-126600390D01*
X79542857Y-126600390D02*
X79619048Y-126676580D01*
X79619048Y-126676580D02*
X79657143Y-126828961D01*
X79657143Y-126828961D02*
X79657143Y-127095628D01*
X79657143Y-127095628D02*
X79619048Y-127248009D01*
X79619048Y-127248009D02*
X79542857Y-127324200D01*
X79542857Y-127324200D02*
X79466667Y-127362295D01*
X79466667Y-127362295D02*
X79314286Y-127362295D01*
X79314286Y-127362295D02*
X79238095Y-127324200D01*
X79238095Y-127324200D02*
X79161905Y-127248009D01*
X79161905Y-127248009D02*
X79123809Y-127095628D01*
X79123809Y-127095628D02*
X79123809Y-126828961D01*
X79123809Y-126828961D02*
X79161905Y-126676580D01*
X79161905Y-126676580D02*
X79238095Y-126600390D01*
X79238095Y-126600390D02*
X79314286Y-126562295D01*
X80000000Y-126562295D02*
X80000000Y-127209914D01*
X80000000Y-127209914D02*
X80038095Y-127286104D01*
X80038095Y-127286104D02*
X80076190Y-127324200D01*
X80076190Y-127324200D02*
X80152381Y-127362295D01*
X80152381Y-127362295D02*
X80304762Y-127362295D01*
X80304762Y-127362295D02*
X80380952Y-127324200D01*
X80380952Y-127324200D02*
X80419047Y-127286104D01*
X80419047Y-127286104D02*
X80457143Y-127209914D01*
X80457143Y-127209914D02*
X80457143Y-126562295D01*
X80723809Y-126562295D02*
X81180952Y-126562295D01*
X80952380Y-127362295D02*
X80952380Y-126562295D01*
X82514286Y-127362295D02*
X82247619Y-126981342D01*
X82057143Y-127362295D02*
X82057143Y-126562295D01*
X82057143Y-126562295D02*
X82361905Y-126562295D01*
X82361905Y-126562295D02*
X82438095Y-126600390D01*
X82438095Y-126600390D02*
X82476190Y-126638485D01*
X82476190Y-126638485D02*
X82514286Y-126714676D01*
X82514286Y-126714676D02*
X82514286Y-126828961D01*
X82514286Y-126828961D02*
X82476190Y-126905152D01*
X82476190Y-126905152D02*
X82438095Y-126943247D01*
X82438095Y-126943247D02*
X82361905Y-126981342D01*
X82361905Y-126981342D02*
X82057143Y-126981342D01*
X82857143Y-126943247D02*
X83123809Y-126943247D01*
X83238095Y-127362295D02*
X82857143Y-127362295D01*
X82857143Y-127362295D02*
X82857143Y-126562295D01*
X82857143Y-126562295D02*
X83238095Y-126562295D01*
X83961905Y-127362295D02*
X83580953Y-127362295D01*
X83580953Y-127362295D02*
X83580953Y-126562295D01*
X84228572Y-126943247D02*
X84495238Y-126943247D01*
X84609524Y-127362295D02*
X84228572Y-127362295D01*
X84228572Y-127362295D02*
X84228572Y-126562295D01*
X84228572Y-126562295D02*
X84609524Y-126562295D01*
X84914286Y-127133723D02*
X85295239Y-127133723D01*
X84838096Y-127362295D02*
X85104763Y-126562295D01*
X85104763Y-126562295D02*
X85371429Y-127362295D01*
X85600000Y-127324200D02*
X85714286Y-127362295D01*
X85714286Y-127362295D02*
X85904762Y-127362295D01*
X85904762Y-127362295D02*
X85980953Y-127324200D01*
X85980953Y-127324200D02*
X86019048Y-127286104D01*
X86019048Y-127286104D02*
X86057143Y-127209914D01*
X86057143Y-127209914D02*
X86057143Y-127133723D01*
X86057143Y-127133723D02*
X86019048Y-127057533D01*
X86019048Y-127057533D02*
X85980953Y-127019438D01*
X85980953Y-127019438D02*
X85904762Y-126981342D01*
X85904762Y-126981342D02*
X85752381Y-126943247D01*
X85752381Y-126943247D02*
X85676191Y-126905152D01*
X85676191Y-126905152D02*
X85638096Y-126867057D01*
X85638096Y-126867057D02*
X85600000Y-126790866D01*
X85600000Y-126790866D02*
X85600000Y-126714676D01*
X85600000Y-126714676D02*
X85638096Y-126638485D01*
X85638096Y-126638485D02*
X85676191Y-126600390D01*
X85676191Y-126600390D02*
X85752381Y-126562295D01*
X85752381Y-126562295D02*
X85942858Y-126562295D01*
X85942858Y-126562295D02*
X86057143Y-126600390D01*
X86400001Y-126943247D02*
X86666667Y-126943247D01*
X86780953Y-127362295D02*
X86400001Y-127362295D01*
X86400001Y-127362295D02*
X86400001Y-126562295D01*
X86400001Y-126562295D02*
X86780953Y-126562295D01*
X87695239Y-127133723D02*
X88076192Y-127133723D01*
X87619049Y-127362295D02*
X87885716Y-126562295D01*
X87885716Y-126562295D02*
X88152382Y-127362295D01*
X88419049Y-127362295D02*
X88419049Y-126562295D01*
X88419049Y-126562295D02*
X88723811Y-126562295D01*
X88723811Y-126562295D02*
X88800001Y-126600390D01*
X88800001Y-126600390D02*
X88838096Y-126638485D01*
X88838096Y-126638485D02*
X88876192Y-126714676D01*
X88876192Y-126714676D02*
X88876192Y-126828961D01*
X88876192Y-126828961D02*
X88838096Y-126905152D01*
X88838096Y-126905152D02*
X88800001Y-126943247D01*
X88800001Y-126943247D02*
X88723811Y-126981342D01*
X88723811Y-126981342D02*
X88419049Y-126981342D01*
X89219049Y-127362295D02*
X89219049Y-126562295D01*
X89219049Y-126562295D02*
X89523811Y-126562295D01*
X89523811Y-126562295D02*
X89600001Y-126600390D01*
X89600001Y-126600390D02*
X89638096Y-126638485D01*
X89638096Y-126638485D02*
X89676192Y-126714676D01*
X89676192Y-126714676D02*
X89676192Y-126828961D01*
X89676192Y-126828961D02*
X89638096Y-126905152D01*
X89638096Y-126905152D02*
X89600001Y-126943247D01*
X89600001Y-126943247D02*
X89523811Y-126981342D01*
X89523811Y-126981342D02*
X89219049Y-126981342D01*
X90476192Y-127362295D02*
X90209525Y-126981342D01*
X90019049Y-127362295D02*
X90019049Y-126562295D01*
X90019049Y-126562295D02*
X90323811Y-126562295D01*
X90323811Y-126562295D02*
X90400001Y-126600390D01*
X90400001Y-126600390D02*
X90438096Y-126638485D01*
X90438096Y-126638485D02*
X90476192Y-126714676D01*
X90476192Y-126714676D02*
X90476192Y-126828961D01*
X90476192Y-126828961D02*
X90438096Y-126905152D01*
X90438096Y-126905152D02*
X90400001Y-126943247D01*
X90400001Y-126943247D02*
X90323811Y-126981342D01*
X90323811Y-126981342D02*
X90019049Y-126981342D01*
X90971430Y-126562295D02*
X91123811Y-126562295D01*
X91123811Y-126562295D02*
X91200001Y-126600390D01*
X91200001Y-126600390D02*
X91276192Y-126676580D01*
X91276192Y-126676580D02*
X91314287Y-126828961D01*
X91314287Y-126828961D02*
X91314287Y-127095628D01*
X91314287Y-127095628D02*
X91276192Y-127248009D01*
X91276192Y-127248009D02*
X91200001Y-127324200D01*
X91200001Y-127324200D02*
X91123811Y-127362295D01*
X91123811Y-127362295D02*
X90971430Y-127362295D01*
X90971430Y-127362295D02*
X90895239Y-127324200D01*
X90895239Y-127324200D02*
X90819049Y-127248009D01*
X90819049Y-127248009D02*
X90780953Y-127095628D01*
X90780953Y-127095628D02*
X90780953Y-126828961D01*
X90780953Y-126828961D02*
X90819049Y-126676580D01*
X90819049Y-126676580D02*
X90895239Y-126600390D01*
X90895239Y-126600390D02*
X90971430Y-126562295D01*
X91542858Y-126562295D02*
X91809525Y-127362295D01*
X91809525Y-127362295D02*
X92076191Y-126562295D01*
X92304762Y-127133723D02*
X92685715Y-127133723D01*
X92228572Y-127362295D02*
X92495239Y-126562295D01*
X92495239Y-126562295D02*
X92761905Y-127362295D01*
X93409524Y-127362295D02*
X93028572Y-127362295D01*
X93028572Y-127362295D02*
X93028572Y-126562295D01*
X142952381Y-94362295D02*
X142952381Y-93562295D01*
X143295237Y-94324200D02*
X143409523Y-94362295D01*
X143409523Y-94362295D02*
X143599999Y-94362295D01*
X143599999Y-94362295D02*
X143676190Y-94324200D01*
X143676190Y-94324200D02*
X143714285Y-94286104D01*
X143714285Y-94286104D02*
X143752380Y-94209914D01*
X143752380Y-94209914D02*
X143752380Y-94133723D01*
X143752380Y-94133723D02*
X143714285Y-94057533D01*
X143714285Y-94057533D02*
X143676190Y-94019438D01*
X143676190Y-94019438D02*
X143599999Y-93981342D01*
X143599999Y-93981342D02*
X143447618Y-93943247D01*
X143447618Y-93943247D02*
X143371428Y-93905152D01*
X143371428Y-93905152D02*
X143333333Y-93867057D01*
X143333333Y-93867057D02*
X143295237Y-93790866D01*
X143295237Y-93790866D02*
X143295237Y-93714676D01*
X143295237Y-93714676D02*
X143333333Y-93638485D01*
X143333333Y-93638485D02*
X143371428Y-93600390D01*
X143371428Y-93600390D02*
X143447618Y-93562295D01*
X143447618Y-93562295D02*
X143638095Y-93562295D01*
X143638095Y-93562295D02*
X143752380Y-93600390D01*
X144247619Y-93562295D02*
X144400000Y-93562295D01*
X144400000Y-93562295D02*
X144476190Y-93600390D01*
X144476190Y-93600390D02*
X144552381Y-93676580D01*
X144552381Y-93676580D02*
X144590476Y-93828961D01*
X144590476Y-93828961D02*
X144590476Y-94095628D01*
X144590476Y-94095628D02*
X144552381Y-94248009D01*
X144552381Y-94248009D02*
X144476190Y-94324200D01*
X144476190Y-94324200D02*
X144400000Y-94362295D01*
X144400000Y-94362295D02*
X144247619Y-94362295D01*
X144247619Y-94362295D02*
X144171428Y-94324200D01*
X144171428Y-94324200D02*
X144095238Y-94248009D01*
X144095238Y-94248009D02*
X144057142Y-94095628D01*
X144057142Y-94095628D02*
X144057142Y-93828961D01*
X144057142Y-93828961D02*
X144095238Y-93676580D01*
X144095238Y-93676580D02*
X144171428Y-93600390D01*
X144171428Y-93600390D02*
X144247619Y-93562295D01*
X145314285Y-94362295D02*
X144933333Y-94362295D01*
X144933333Y-94362295D02*
X144933333Y-93562295D01*
X145542856Y-94133723D02*
X145923809Y-94133723D01*
X145466666Y-94362295D02*
X145733333Y-93562295D01*
X145733333Y-93562295D02*
X145999999Y-94362295D01*
X146152380Y-93562295D02*
X146609523Y-93562295D01*
X146380951Y-94362295D02*
X146380951Y-93562295D01*
X146876190Y-93943247D02*
X147142856Y-93943247D01*
X147257142Y-94362295D02*
X146876190Y-94362295D01*
X146876190Y-94362295D02*
X146876190Y-93562295D01*
X146876190Y-93562295D02*
X147257142Y-93562295D01*
X147600000Y-94362295D02*
X147600000Y-93562295D01*
X147600000Y-93562295D02*
X147790476Y-93562295D01*
X147790476Y-93562295D02*
X147904762Y-93600390D01*
X147904762Y-93600390D02*
X147980952Y-93676580D01*
X147980952Y-93676580D02*
X148019047Y-93752771D01*
X148019047Y-93752771D02*
X148057143Y-93905152D01*
X148057143Y-93905152D02*
X148057143Y-94019438D01*
X148057143Y-94019438D02*
X148019047Y-94171819D01*
X148019047Y-94171819D02*
X147980952Y-94248009D01*
X147980952Y-94248009D02*
X147904762Y-94324200D01*
X147904762Y-94324200D02*
X147790476Y-94362295D01*
X147790476Y-94362295D02*
X147600000Y-94362295D01*
X149466667Y-94286104D02*
X149428571Y-94324200D01*
X149428571Y-94324200D02*
X149314286Y-94362295D01*
X149314286Y-94362295D02*
X149238095Y-94362295D01*
X149238095Y-94362295D02*
X149123809Y-94324200D01*
X149123809Y-94324200D02*
X149047619Y-94248009D01*
X149047619Y-94248009D02*
X149009524Y-94171819D01*
X149009524Y-94171819D02*
X148971428Y-94019438D01*
X148971428Y-94019438D02*
X148971428Y-93905152D01*
X148971428Y-93905152D02*
X149009524Y-93752771D01*
X149009524Y-93752771D02*
X149047619Y-93676580D01*
X149047619Y-93676580D02*
X149123809Y-93600390D01*
X149123809Y-93600390D02*
X149238095Y-93562295D01*
X149238095Y-93562295D02*
X149314286Y-93562295D01*
X149314286Y-93562295D02*
X149428571Y-93600390D01*
X149428571Y-93600390D02*
X149466667Y-93638485D01*
X149771428Y-94133723D02*
X150152381Y-94133723D01*
X149695238Y-94362295D02*
X149961905Y-93562295D01*
X149961905Y-93562295D02*
X150228571Y-94362295D01*
X150495238Y-94362295D02*
X150495238Y-93562295D01*
X150495238Y-93562295D02*
X150952381Y-94362295D01*
X150952381Y-94362295D02*
X150952381Y-93562295D01*
X152209523Y-93943247D02*
X151942857Y-93943247D01*
X151942857Y-94362295D02*
X151942857Y-93562295D01*
X151942857Y-93562295D02*
X152323809Y-93562295D01*
X152628571Y-94362295D02*
X152628571Y-93562295D01*
X152628571Y-93562295D02*
X152819047Y-93562295D01*
X152819047Y-93562295D02*
X152933333Y-93600390D01*
X152933333Y-93600390D02*
X153009523Y-93676580D01*
X153009523Y-93676580D02*
X153047618Y-93752771D01*
X153047618Y-93752771D02*
X153085714Y-93905152D01*
X153085714Y-93905152D02*
X153085714Y-94019438D01*
X153085714Y-94019438D02*
X153047618Y-94171819D01*
X153047618Y-94171819D02*
X153009523Y-94248009D01*
X153009523Y-94248009D02*
X152933333Y-94324200D01*
X152933333Y-94324200D02*
X152819047Y-94362295D01*
X152819047Y-94362295D02*
X152628571Y-94362295D01*
X20164286Y-77808557D02*
X20164286Y-78408557D01*
X19950000Y-77465700D02*
X19735714Y-78108557D01*
X19735714Y-78108557D02*
X20292857Y-78108557D01*
X20764286Y-77894271D02*
X20678571Y-77851414D01*
X20678571Y-77851414D02*
X20635714Y-77808557D01*
X20635714Y-77808557D02*
X20592857Y-77722842D01*
X20592857Y-77722842D02*
X20592857Y-77679985D01*
X20592857Y-77679985D02*
X20635714Y-77594271D01*
X20635714Y-77594271D02*
X20678571Y-77551414D01*
X20678571Y-77551414D02*
X20764286Y-77508557D01*
X20764286Y-77508557D02*
X20935714Y-77508557D01*
X20935714Y-77508557D02*
X21021429Y-77551414D01*
X21021429Y-77551414D02*
X21064286Y-77594271D01*
X21064286Y-77594271D02*
X21107143Y-77679985D01*
X21107143Y-77679985D02*
X21107143Y-77722842D01*
X21107143Y-77722842D02*
X21064286Y-77808557D01*
X21064286Y-77808557D02*
X21021429Y-77851414D01*
X21021429Y-77851414D02*
X20935714Y-77894271D01*
X20935714Y-77894271D02*
X20764286Y-77894271D01*
X20764286Y-77894271D02*
X20678571Y-77937128D01*
X20678571Y-77937128D02*
X20635714Y-77979985D01*
X20635714Y-77979985D02*
X20592857Y-78065700D01*
X20592857Y-78065700D02*
X20592857Y-78237128D01*
X20592857Y-78237128D02*
X20635714Y-78322842D01*
X20635714Y-78322842D02*
X20678571Y-78365700D01*
X20678571Y-78365700D02*
X20764286Y-78408557D01*
X20764286Y-78408557D02*
X20935714Y-78408557D01*
X20935714Y-78408557D02*
X21021429Y-78365700D01*
X21021429Y-78365700D02*
X21064286Y-78322842D01*
X21064286Y-78322842D02*
X21107143Y-78237128D01*
X21107143Y-78237128D02*
X21107143Y-78065700D01*
X21107143Y-78065700D02*
X21064286Y-77979985D01*
X21064286Y-77979985D02*
X21021429Y-77937128D01*
X21021429Y-77937128D02*
X20935714Y-77894271D01*
X21364286Y-77508557D02*
X21664286Y-78408557D01*
X21664286Y-78408557D02*
X21964286Y-77508557D01*
X22950000Y-78408557D02*
X22950000Y-77508557D01*
X22950000Y-77508557D02*
X23292857Y-77508557D01*
X23292857Y-77508557D02*
X23378572Y-77551414D01*
X23378572Y-77551414D02*
X23421429Y-77594271D01*
X23421429Y-77594271D02*
X23464286Y-77679985D01*
X23464286Y-77679985D02*
X23464286Y-77808557D01*
X23464286Y-77808557D02*
X23421429Y-77894271D01*
X23421429Y-77894271D02*
X23378572Y-77937128D01*
X23378572Y-77937128D02*
X23292857Y-77979985D01*
X23292857Y-77979985D02*
X22950000Y-77979985D01*
X24364286Y-78408557D02*
X24064286Y-77979985D01*
X23850000Y-78408557D02*
X23850000Y-77508557D01*
X23850000Y-77508557D02*
X24192857Y-77508557D01*
X24192857Y-77508557D02*
X24278572Y-77551414D01*
X24278572Y-77551414D02*
X24321429Y-77594271D01*
X24321429Y-77594271D02*
X24364286Y-77679985D01*
X24364286Y-77679985D02*
X24364286Y-77808557D01*
X24364286Y-77808557D02*
X24321429Y-77894271D01*
X24321429Y-77894271D02*
X24278572Y-77937128D01*
X24278572Y-77937128D02*
X24192857Y-77979985D01*
X24192857Y-77979985D02*
X23850000Y-77979985D01*
X24750000Y-78408557D02*
X24750000Y-77508557D01*
X25178571Y-78408557D02*
X25178571Y-77508557D01*
X25178571Y-77508557D02*
X25478571Y-78151414D01*
X25478571Y-78151414D02*
X25778571Y-77508557D01*
X25778571Y-77508557D02*
X25778571Y-78408557D01*
X26164285Y-78151414D02*
X26592857Y-78151414D01*
X26078571Y-78408557D02*
X26378571Y-77508557D01*
X26378571Y-77508557D02*
X26678571Y-78408557D01*
X27492857Y-78408557D02*
X27192857Y-77979985D01*
X26978571Y-78408557D02*
X26978571Y-77508557D01*
X26978571Y-77508557D02*
X27321428Y-77508557D01*
X27321428Y-77508557D02*
X27407143Y-77551414D01*
X27407143Y-77551414D02*
X27450000Y-77594271D01*
X27450000Y-77594271D02*
X27492857Y-77679985D01*
X27492857Y-77679985D02*
X27492857Y-77808557D01*
X27492857Y-77808557D02*
X27450000Y-77894271D01*
X27450000Y-77894271D02*
X27407143Y-77937128D01*
X27407143Y-77937128D02*
X27321428Y-77979985D01*
X27321428Y-77979985D02*
X26978571Y-77979985D01*
X28050000Y-77979985D02*
X28050000Y-78408557D01*
X27750000Y-77508557D02*
X28050000Y-77979985D01*
X28050000Y-77979985D02*
X28350000Y-77508557D01*
X84092857Y-78408557D02*
X83578571Y-78408557D01*
X83835714Y-78408557D02*
X83835714Y-77508557D01*
X83835714Y-77508557D02*
X83750000Y-77637128D01*
X83750000Y-77637128D02*
X83664285Y-77722842D01*
X83664285Y-77722842D02*
X83578571Y-77765700D01*
X84435714Y-77594271D02*
X84478571Y-77551414D01*
X84478571Y-77551414D02*
X84564286Y-77508557D01*
X84564286Y-77508557D02*
X84778571Y-77508557D01*
X84778571Y-77508557D02*
X84864286Y-77551414D01*
X84864286Y-77551414D02*
X84907143Y-77594271D01*
X84907143Y-77594271D02*
X84950000Y-77679985D01*
X84950000Y-77679985D02*
X84950000Y-77765700D01*
X84950000Y-77765700D02*
X84907143Y-77894271D01*
X84907143Y-77894271D02*
X84392857Y-78408557D01*
X84392857Y-78408557D02*
X84950000Y-78408557D01*
X85207143Y-77508557D02*
X85507143Y-78408557D01*
X85507143Y-78408557D02*
X85807143Y-77508557D01*
X87435714Y-77465700D02*
X86664286Y-78622842D01*
X88850000Y-78408557D02*
X88421428Y-78408557D01*
X88421428Y-78408557D02*
X88421428Y-77508557D01*
X89321428Y-77508557D02*
X89492856Y-77508557D01*
X89492856Y-77508557D02*
X89578571Y-77551414D01*
X89578571Y-77551414D02*
X89664285Y-77637128D01*
X89664285Y-77637128D02*
X89707142Y-77808557D01*
X89707142Y-77808557D02*
X89707142Y-78108557D01*
X89707142Y-78108557D02*
X89664285Y-78279985D01*
X89664285Y-78279985D02*
X89578571Y-78365700D01*
X89578571Y-78365700D02*
X89492856Y-78408557D01*
X89492856Y-78408557D02*
X89321428Y-78408557D01*
X89321428Y-78408557D02*
X89235714Y-78365700D01*
X89235714Y-78365700D02*
X89149999Y-78279985D01*
X89149999Y-78279985D02*
X89107142Y-78108557D01*
X89107142Y-78108557D02*
X89107142Y-77808557D01*
X89107142Y-77808557D02*
X89149999Y-77637128D01*
X89149999Y-77637128D02*
X89235714Y-77551414D01*
X89235714Y-77551414D02*
X89321428Y-77508557D01*
X90564285Y-77551414D02*
X90478571Y-77508557D01*
X90478571Y-77508557D02*
X90349999Y-77508557D01*
X90349999Y-77508557D02*
X90221428Y-77551414D01*
X90221428Y-77551414D02*
X90135713Y-77637128D01*
X90135713Y-77637128D02*
X90092856Y-77722842D01*
X90092856Y-77722842D02*
X90049999Y-77894271D01*
X90049999Y-77894271D02*
X90049999Y-78022842D01*
X90049999Y-78022842D02*
X90092856Y-78194271D01*
X90092856Y-78194271D02*
X90135713Y-78279985D01*
X90135713Y-78279985D02*
X90221428Y-78365700D01*
X90221428Y-78365700D02*
X90349999Y-78408557D01*
X90349999Y-78408557D02*
X90435713Y-78408557D01*
X90435713Y-78408557D02*
X90564285Y-78365700D01*
X90564285Y-78365700D02*
X90607142Y-78322842D01*
X90607142Y-78322842D02*
X90607142Y-78022842D01*
X90607142Y-78022842D02*
X90435713Y-78022842D01*
X90992856Y-78408557D02*
X90992856Y-77508557D01*
X91935713Y-78322842D02*
X91892856Y-78365700D01*
X91892856Y-78365700D02*
X91764284Y-78408557D01*
X91764284Y-78408557D02*
X91678570Y-78408557D01*
X91678570Y-78408557D02*
X91549999Y-78365700D01*
X91549999Y-78365700D02*
X91464284Y-78279985D01*
X91464284Y-78279985D02*
X91421427Y-78194271D01*
X91421427Y-78194271D02*
X91378570Y-78022842D01*
X91378570Y-78022842D02*
X91378570Y-77894271D01*
X91378570Y-77894271D02*
X91421427Y-77722842D01*
X91421427Y-77722842D02*
X91464284Y-77637128D01*
X91464284Y-77637128D02*
X91549999Y-77551414D01*
X91549999Y-77551414D02*
X91678570Y-77508557D01*
X91678570Y-77508557D02*
X91764284Y-77508557D01*
X91764284Y-77508557D02*
X91892856Y-77551414D01*
X91892856Y-77551414D02*
X91935713Y-77594271D01*
X92964284Y-78365700D02*
X93092856Y-78408557D01*
X93092856Y-78408557D02*
X93307141Y-78408557D01*
X93307141Y-78408557D02*
X93392856Y-78365700D01*
X93392856Y-78365700D02*
X93435713Y-78322842D01*
X93435713Y-78322842D02*
X93478570Y-78237128D01*
X93478570Y-78237128D02*
X93478570Y-78151414D01*
X93478570Y-78151414D02*
X93435713Y-78065700D01*
X93435713Y-78065700D02*
X93392856Y-78022842D01*
X93392856Y-78022842D02*
X93307141Y-77979985D01*
X93307141Y-77979985D02*
X93135713Y-77937128D01*
X93135713Y-77937128D02*
X93049998Y-77894271D01*
X93049998Y-77894271D02*
X93007141Y-77851414D01*
X93007141Y-77851414D02*
X92964284Y-77765700D01*
X92964284Y-77765700D02*
X92964284Y-77679985D01*
X92964284Y-77679985D02*
X93007141Y-77594271D01*
X93007141Y-77594271D02*
X93049998Y-77551414D01*
X93049998Y-77551414D02*
X93135713Y-77508557D01*
X93135713Y-77508557D02*
X93349998Y-77508557D01*
X93349998Y-77508557D02*
X93478570Y-77551414D01*
X93864284Y-77937128D02*
X94164284Y-77937128D01*
X94292856Y-78408557D02*
X93864284Y-78408557D01*
X93864284Y-78408557D02*
X93864284Y-77508557D01*
X93864284Y-77508557D02*
X94292856Y-77508557D01*
X95192856Y-78322842D02*
X95149999Y-78365700D01*
X95149999Y-78365700D02*
X95021427Y-78408557D01*
X95021427Y-78408557D02*
X94935713Y-78408557D01*
X94935713Y-78408557D02*
X94807142Y-78365700D01*
X94807142Y-78365700D02*
X94721427Y-78279985D01*
X94721427Y-78279985D02*
X94678570Y-78194271D01*
X94678570Y-78194271D02*
X94635713Y-78022842D01*
X94635713Y-78022842D02*
X94635713Y-77894271D01*
X94635713Y-77894271D02*
X94678570Y-77722842D01*
X94678570Y-77722842D02*
X94721427Y-77637128D01*
X94721427Y-77637128D02*
X94807142Y-77551414D01*
X94807142Y-77551414D02*
X94935713Y-77508557D01*
X94935713Y-77508557D02*
X95021427Y-77508557D01*
X95021427Y-77508557D02*
X95149999Y-77551414D01*
X95149999Y-77551414D02*
X95192856Y-77594271D01*
X95749999Y-77508557D02*
X95921427Y-77508557D01*
X95921427Y-77508557D02*
X96007142Y-77551414D01*
X96007142Y-77551414D02*
X96092856Y-77637128D01*
X96092856Y-77637128D02*
X96135713Y-77808557D01*
X96135713Y-77808557D02*
X96135713Y-78108557D01*
X96135713Y-78108557D02*
X96092856Y-78279985D01*
X96092856Y-78279985D02*
X96007142Y-78365700D01*
X96007142Y-78365700D02*
X95921427Y-78408557D01*
X95921427Y-78408557D02*
X95749999Y-78408557D01*
X95749999Y-78408557D02*
X95664285Y-78365700D01*
X95664285Y-78365700D02*
X95578570Y-78279985D01*
X95578570Y-78279985D02*
X95535713Y-78108557D01*
X95535713Y-78108557D02*
X95535713Y-77808557D01*
X95535713Y-77808557D02*
X95578570Y-77637128D01*
X95578570Y-77637128D02*
X95664285Y-77551414D01*
X95664285Y-77551414D02*
X95749999Y-77508557D01*
X96521427Y-78408557D02*
X96521427Y-77508557D01*
X96521427Y-77508557D02*
X97035713Y-78408557D01*
X97035713Y-78408557D02*
X97035713Y-77508557D01*
X97464284Y-78408557D02*
X97464284Y-77508557D01*
X97464284Y-77508557D02*
X97678570Y-77508557D01*
X97678570Y-77508557D02*
X97807141Y-77551414D01*
X97807141Y-77551414D02*
X97892856Y-77637128D01*
X97892856Y-77637128D02*
X97935713Y-77722842D01*
X97935713Y-77722842D02*
X97978570Y-77894271D01*
X97978570Y-77894271D02*
X97978570Y-78022842D01*
X97978570Y-78022842D02*
X97935713Y-78194271D01*
X97935713Y-78194271D02*
X97892856Y-78279985D01*
X97892856Y-78279985D02*
X97807141Y-78365700D01*
X97807141Y-78365700D02*
X97678570Y-78408557D01*
X97678570Y-78408557D02*
X97464284Y-78408557D01*
X98321427Y-78151414D02*
X98749999Y-78151414D01*
X98235713Y-78408557D02*
X98535713Y-77508557D01*
X98535713Y-77508557D02*
X98835713Y-78408557D01*
X99649999Y-78408557D02*
X99349999Y-77979985D01*
X99135713Y-78408557D02*
X99135713Y-77508557D01*
X99135713Y-77508557D02*
X99478570Y-77508557D01*
X99478570Y-77508557D02*
X99564285Y-77551414D01*
X99564285Y-77551414D02*
X99607142Y-77594271D01*
X99607142Y-77594271D02*
X99649999Y-77679985D01*
X99649999Y-77679985D02*
X99649999Y-77808557D01*
X99649999Y-77808557D02*
X99607142Y-77894271D01*
X99607142Y-77894271D02*
X99564285Y-77937128D01*
X99564285Y-77937128D02*
X99478570Y-77979985D01*
X99478570Y-77979985D02*
X99135713Y-77979985D01*
X100207142Y-77979985D02*
X100207142Y-78408557D01*
X99907142Y-77508557D02*
X100207142Y-77979985D01*
X100207142Y-77979985D02*
X100507142Y-77508557D01*
X64685713Y-2347342D02*
X64971427Y-3547342D01*
X64971427Y-3547342D02*
X65199999Y-2690200D01*
X65199999Y-2690200D02*
X65428570Y-3547342D01*
X65428570Y-3547342D02*
X65714285Y-2347342D01*
X66399999Y-2347342D02*
X66628571Y-2347342D01*
X66628571Y-2347342D02*
X66742856Y-2404485D01*
X66742856Y-2404485D02*
X66857142Y-2518771D01*
X66857142Y-2518771D02*
X66914285Y-2747342D01*
X66914285Y-2747342D02*
X66914285Y-3147342D01*
X66914285Y-3147342D02*
X66857142Y-3375914D01*
X66857142Y-3375914D02*
X66742856Y-3490200D01*
X66742856Y-3490200D02*
X66628571Y-3547342D01*
X66628571Y-3547342D02*
X66399999Y-3547342D01*
X66399999Y-3547342D02*
X66285714Y-3490200D01*
X66285714Y-3490200D02*
X66171428Y-3375914D01*
X66171428Y-3375914D02*
X66114285Y-3147342D01*
X66114285Y-3147342D02*
X66114285Y-2747342D01*
X66114285Y-2747342D02*
X66171428Y-2518771D01*
X66171428Y-2518771D02*
X66285714Y-2404485D01*
X66285714Y-2404485D02*
X66399999Y-2347342D01*
X68114285Y-3547342D02*
X67714285Y-2975914D01*
X67428571Y-3547342D02*
X67428571Y-2347342D01*
X67428571Y-2347342D02*
X67885714Y-2347342D01*
X67885714Y-2347342D02*
X67999999Y-2404485D01*
X67999999Y-2404485D02*
X68057142Y-2461628D01*
X68057142Y-2461628D02*
X68114285Y-2575914D01*
X68114285Y-2575914D02*
X68114285Y-2747342D01*
X68114285Y-2747342D02*
X68057142Y-2861628D01*
X68057142Y-2861628D02*
X67999999Y-2918771D01*
X67999999Y-2918771D02*
X67885714Y-2975914D01*
X67885714Y-2975914D02*
X67428571Y-2975914D01*
X68628571Y-3547342D02*
X68628571Y-2347342D01*
X69314285Y-3547342D02*
X68799999Y-2861628D01*
X69314285Y-2347342D02*
X68628571Y-3033057D01*
X70228571Y-2918771D02*
X70399999Y-2975914D01*
X70399999Y-2975914D02*
X70457142Y-3033057D01*
X70457142Y-3033057D02*
X70514285Y-3147342D01*
X70514285Y-3147342D02*
X70514285Y-3318771D01*
X70514285Y-3318771D02*
X70457142Y-3433057D01*
X70457142Y-3433057D02*
X70399999Y-3490200D01*
X70399999Y-3490200D02*
X70285714Y-3547342D01*
X70285714Y-3547342D02*
X69828571Y-3547342D01*
X69828571Y-3547342D02*
X69828571Y-2347342D01*
X69828571Y-2347342D02*
X70228571Y-2347342D01*
X70228571Y-2347342D02*
X70342857Y-2404485D01*
X70342857Y-2404485D02*
X70399999Y-2461628D01*
X70399999Y-2461628D02*
X70457142Y-2575914D01*
X70457142Y-2575914D02*
X70457142Y-2690200D01*
X70457142Y-2690200D02*
X70399999Y-2804485D01*
X70399999Y-2804485D02*
X70342857Y-2861628D01*
X70342857Y-2861628D02*
X70228571Y-2918771D01*
X70228571Y-2918771D02*
X69828571Y-2918771D01*
X71028571Y-2918771D02*
X71428571Y-2918771D01*
X71599999Y-3547342D02*
X71028571Y-3547342D01*
X71028571Y-3547342D02*
X71028571Y-2347342D01*
X71028571Y-2347342D02*
X71599999Y-2347342D01*
X72114285Y-3547342D02*
X72114285Y-2347342D01*
X72114285Y-2347342D02*
X72799999Y-3547342D01*
X72799999Y-3547342D02*
X72799999Y-2347342D01*
X74057142Y-3433057D02*
X73999999Y-3490200D01*
X73999999Y-3490200D02*
X73828571Y-3547342D01*
X73828571Y-3547342D02*
X73714285Y-3547342D01*
X73714285Y-3547342D02*
X73542856Y-3490200D01*
X73542856Y-3490200D02*
X73428571Y-3375914D01*
X73428571Y-3375914D02*
X73371428Y-3261628D01*
X73371428Y-3261628D02*
X73314285Y-3033057D01*
X73314285Y-3033057D02*
X73314285Y-2861628D01*
X73314285Y-2861628D02*
X73371428Y-2633057D01*
X73371428Y-2633057D02*
X73428571Y-2518771D01*
X73428571Y-2518771D02*
X73542856Y-2404485D01*
X73542856Y-2404485D02*
X73714285Y-2347342D01*
X73714285Y-2347342D02*
X73828571Y-2347342D01*
X73828571Y-2347342D02*
X73999999Y-2404485D01*
X73999999Y-2404485D02*
X74057142Y-2461628D01*
X74571428Y-3547342D02*
X74571428Y-2347342D01*
X74571428Y-2918771D02*
X75257142Y-2918771D01*
X75257142Y-3547342D02*
X75257142Y-2347342D01*
X75828571Y-3090200D02*
X76742857Y-3090200D01*
X77942856Y-3547342D02*
X77257142Y-3547342D01*
X77599999Y-3547342D02*
X77599999Y-2347342D01*
X77599999Y-2347342D02*
X77485713Y-2518771D01*
X77485713Y-2518771D02*
X77371428Y-2633057D01*
X77371428Y-2633057D02*
X77257142Y-2690200D01*
X80057142Y-3433057D02*
X79999999Y-3490200D01*
X79999999Y-3490200D02*
X79828571Y-3547342D01*
X79828571Y-3547342D02*
X79714285Y-3547342D01*
X79714285Y-3547342D02*
X79542856Y-3490200D01*
X79542856Y-3490200D02*
X79428571Y-3375914D01*
X79428571Y-3375914D02*
X79371428Y-3261628D01*
X79371428Y-3261628D02*
X79314285Y-3033057D01*
X79314285Y-3033057D02*
X79314285Y-2861628D01*
X79314285Y-2861628D02*
X79371428Y-2633057D01*
X79371428Y-2633057D02*
X79428571Y-2518771D01*
X79428571Y-2518771D02*
X79542856Y-2404485D01*
X79542856Y-2404485D02*
X79714285Y-2347342D01*
X79714285Y-2347342D02*
X79828571Y-2347342D01*
X79828571Y-2347342D02*
X79999999Y-2404485D01*
X79999999Y-2404485D02*
X80057142Y-2461628D01*
X80799999Y-2347342D02*
X81028571Y-2347342D01*
X81028571Y-2347342D02*
X81142856Y-2404485D01*
X81142856Y-2404485D02*
X81257142Y-2518771D01*
X81257142Y-2518771D02*
X81314285Y-2747342D01*
X81314285Y-2747342D02*
X81314285Y-3147342D01*
X81314285Y-3147342D02*
X81257142Y-3375914D01*
X81257142Y-3375914D02*
X81142856Y-3490200D01*
X81142856Y-3490200D02*
X81028571Y-3547342D01*
X81028571Y-3547342D02*
X80799999Y-3547342D01*
X80799999Y-3547342D02*
X80685714Y-3490200D01*
X80685714Y-3490200D02*
X80571428Y-3375914D01*
X80571428Y-3375914D02*
X80514285Y-3147342D01*
X80514285Y-3147342D02*
X80514285Y-2747342D01*
X80514285Y-2747342D02*
X80571428Y-2518771D01*
X80571428Y-2518771D02*
X80685714Y-2404485D01*
X80685714Y-2404485D02*
X80799999Y-2347342D01*
X81828571Y-3547342D02*
X81828571Y-2347342D01*
X81828571Y-2347342D02*
X82514285Y-3547342D01*
X82514285Y-3547342D02*
X82514285Y-2347342D01*
X82914285Y-2347342D02*
X83600000Y-2347342D01*
X83257142Y-3547342D02*
X83257142Y-2347342D01*
X84685714Y-3547342D02*
X84285714Y-2975914D01*
X84000000Y-3547342D02*
X84000000Y-2347342D01*
X84000000Y-2347342D02*
X84457143Y-2347342D01*
X84457143Y-2347342D02*
X84571428Y-2404485D01*
X84571428Y-2404485D02*
X84628571Y-2461628D01*
X84628571Y-2461628D02*
X84685714Y-2575914D01*
X84685714Y-2575914D02*
X84685714Y-2747342D01*
X84685714Y-2747342D02*
X84628571Y-2861628D01*
X84628571Y-2861628D02*
X84571428Y-2918771D01*
X84571428Y-2918771D02*
X84457143Y-2975914D01*
X84457143Y-2975914D02*
X84000000Y-2975914D01*
X85428571Y-2347342D02*
X85657143Y-2347342D01*
X85657143Y-2347342D02*
X85771428Y-2404485D01*
X85771428Y-2404485D02*
X85885714Y-2518771D01*
X85885714Y-2518771D02*
X85942857Y-2747342D01*
X85942857Y-2747342D02*
X85942857Y-3147342D01*
X85942857Y-3147342D02*
X85885714Y-3375914D01*
X85885714Y-3375914D02*
X85771428Y-3490200D01*
X85771428Y-3490200D02*
X85657143Y-3547342D01*
X85657143Y-3547342D02*
X85428571Y-3547342D01*
X85428571Y-3547342D02*
X85314286Y-3490200D01*
X85314286Y-3490200D02*
X85200000Y-3375914D01*
X85200000Y-3375914D02*
X85142857Y-3147342D01*
X85142857Y-3147342D02*
X85142857Y-2747342D01*
X85142857Y-2747342D02*
X85200000Y-2518771D01*
X85200000Y-2518771D02*
X85314286Y-2404485D01*
X85314286Y-2404485D02*
X85428571Y-2347342D01*
X87028571Y-3547342D02*
X86457143Y-3547342D01*
X86457143Y-3547342D02*
X86457143Y-2347342D01*
X88000000Y-3547342D02*
X87428572Y-3547342D01*
X87428572Y-3547342D02*
X87428572Y-2347342D01*
X88400001Y-2918771D02*
X88800001Y-2918771D01*
X88971429Y-3547342D02*
X88400001Y-3547342D01*
X88400001Y-3547342D02*
X88400001Y-2347342D01*
X88400001Y-2347342D02*
X88971429Y-2347342D01*
X90171429Y-3547342D02*
X89771429Y-2975914D01*
X89485715Y-3547342D02*
X89485715Y-2347342D01*
X89485715Y-2347342D02*
X89942858Y-2347342D01*
X89942858Y-2347342D02*
X90057143Y-2404485D01*
X90057143Y-2404485D02*
X90114286Y-2461628D01*
X90114286Y-2461628D02*
X90171429Y-2575914D01*
X90171429Y-2575914D02*
X90171429Y-2747342D01*
X90171429Y-2747342D02*
X90114286Y-2861628D01*
X90114286Y-2861628D02*
X90057143Y-2918771D01*
X90057143Y-2918771D02*
X89942858Y-2975914D01*
X89942858Y-2975914D02*
X89485715Y-2975914D01*
X91600001Y-2918771D02*
X92000001Y-2918771D01*
X92171429Y-3547342D02*
X91600001Y-3547342D01*
X91600001Y-3547342D02*
X91600001Y-2347342D01*
X91600001Y-2347342D02*
X92171429Y-2347342D01*
X92514286Y-2347342D02*
X92914286Y-3547342D01*
X92914286Y-3547342D02*
X93314286Y-2347342D01*
X93542857Y-2347342D02*
X94228572Y-2347342D01*
X93885714Y-3547342D02*
X93885714Y-2347342D01*
X95257143Y-3547342D02*
X94571429Y-3547342D01*
X94914286Y-3547342D02*
X94914286Y-2347342D01*
X94914286Y-2347342D02*
X94800000Y-2518771D01*
X94800000Y-2518771D02*
X94685715Y-2633057D01*
X94685715Y-2633057D02*
X94571429Y-2690200D01*
D10*
X149233333Y-57563855D02*
X149233333Y-58135283D01*
X149233333Y-58135283D02*
X149195238Y-58249569D01*
X149195238Y-58249569D02*
X149119047Y-58325760D01*
X149119047Y-58325760D02*
X149004762Y-58363855D01*
X149004762Y-58363855D02*
X148928571Y-58363855D01*
X149995238Y-57563855D02*
X149614286Y-57563855D01*
X149614286Y-57563855D02*
X149576190Y-57944807D01*
X149576190Y-57944807D02*
X149614286Y-57906712D01*
X149614286Y-57906712D02*
X149690476Y-57868617D01*
X149690476Y-57868617D02*
X149880952Y-57868617D01*
X149880952Y-57868617D02*
X149957143Y-57906712D01*
X149957143Y-57906712D02*
X149995238Y-57944807D01*
X149995238Y-57944807D02*
X150033333Y-58020998D01*
X150033333Y-58020998D02*
X150033333Y-58211474D01*
X150033333Y-58211474D02*
X149995238Y-58287664D01*
X149995238Y-58287664D02*
X149957143Y-58325760D01*
X149957143Y-58325760D02*
X149880952Y-58363855D01*
X149880952Y-58363855D02*
X149690476Y-58363855D01*
X149690476Y-58363855D02*
X149614286Y-58325760D01*
X149614286Y-58325760D02*
X149576190Y-58287664D01*
X102123333Y-4338855D02*
X102123333Y-4910283D01*
X102123333Y-4910283D02*
X102085238Y-5024569D01*
X102085238Y-5024569D02*
X102009047Y-5100760D01*
X102009047Y-5100760D02*
X101894762Y-5138855D01*
X101894762Y-5138855D02*
X101818571Y-5138855D01*
X102428095Y-4338855D02*
X102923333Y-4338855D01*
X102923333Y-4338855D02*
X102656667Y-4643617D01*
X102656667Y-4643617D02*
X102770952Y-4643617D01*
X102770952Y-4643617D02*
X102847143Y-4681712D01*
X102847143Y-4681712D02*
X102885238Y-4719807D01*
X102885238Y-4719807D02*
X102923333Y-4795998D01*
X102923333Y-4795998D02*
X102923333Y-4986474D01*
X102923333Y-4986474D02*
X102885238Y-5062664D01*
X102885238Y-5062664D02*
X102847143Y-5100760D01*
X102847143Y-5100760D02*
X102770952Y-5138855D01*
X102770952Y-5138855D02*
X102542381Y-5138855D01*
X102542381Y-5138855D02*
X102466190Y-5100760D01*
X102466190Y-5100760D02*
X102428095Y-5062664D01*
X21923809Y-25340045D02*
X21847619Y-25301950D01*
X21847619Y-25301950D02*
X21771428Y-25225760D01*
X21771428Y-25225760D02*
X21657142Y-25111474D01*
X21657142Y-25111474D02*
X21580952Y-25073379D01*
X21580952Y-25073379D02*
X21504761Y-25073379D01*
X21542857Y-25263855D02*
X21466666Y-25225760D01*
X21466666Y-25225760D02*
X21390476Y-25149569D01*
X21390476Y-25149569D02*
X21352380Y-24997188D01*
X21352380Y-24997188D02*
X21352380Y-24730521D01*
X21352380Y-24730521D02*
X21390476Y-24578140D01*
X21390476Y-24578140D02*
X21466666Y-24501950D01*
X21466666Y-24501950D02*
X21542857Y-24463855D01*
X21542857Y-24463855D02*
X21695238Y-24463855D01*
X21695238Y-24463855D02*
X21771428Y-24501950D01*
X21771428Y-24501950D02*
X21847619Y-24578140D01*
X21847619Y-24578140D02*
X21885714Y-24730521D01*
X21885714Y-24730521D02*
X21885714Y-24997188D01*
X21885714Y-24997188D02*
X21847619Y-25149569D01*
X21847619Y-25149569D02*
X21771428Y-25225760D01*
X21771428Y-25225760D02*
X21695238Y-25263855D01*
X21695238Y-25263855D02*
X21542857Y-25263855D01*
X22647618Y-25263855D02*
X22190475Y-25263855D01*
X22419047Y-25263855D02*
X22419047Y-24463855D01*
X22419047Y-24463855D02*
X22342856Y-24578140D01*
X22342856Y-24578140D02*
X22266666Y-24654331D01*
X22266666Y-24654331D02*
X22190475Y-24692426D01*
X139990476Y-85915855D02*
X140447619Y-85915855D01*
X140219047Y-86715855D02*
X140219047Y-85915855D01*
X140714286Y-86715855D02*
X140714286Y-85915855D01*
X140714286Y-85915855D02*
X141019048Y-85915855D01*
X141019048Y-85915855D02*
X141095238Y-85953950D01*
X141095238Y-85953950D02*
X141133333Y-85992045D01*
X141133333Y-85992045D02*
X141171429Y-86068236D01*
X141171429Y-86068236D02*
X141171429Y-86182521D01*
X141171429Y-86182521D02*
X141133333Y-86258712D01*
X141133333Y-86258712D02*
X141095238Y-86296807D01*
X141095238Y-86296807D02*
X141019048Y-86334902D01*
X141019048Y-86334902D02*
X140714286Y-86334902D01*
X141857143Y-85915855D02*
X141704762Y-85915855D01*
X141704762Y-85915855D02*
X141628571Y-85953950D01*
X141628571Y-85953950D02*
X141590476Y-85992045D01*
X141590476Y-85992045D02*
X141514286Y-86106331D01*
X141514286Y-86106331D02*
X141476190Y-86258712D01*
X141476190Y-86258712D02*
X141476190Y-86563474D01*
X141476190Y-86563474D02*
X141514286Y-86639664D01*
X141514286Y-86639664D02*
X141552381Y-86677760D01*
X141552381Y-86677760D02*
X141628571Y-86715855D01*
X141628571Y-86715855D02*
X141780952Y-86715855D01*
X141780952Y-86715855D02*
X141857143Y-86677760D01*
X141857143Y-86677760D02*
X141895238Y-86639664D01*
X141895238Y-86639664D02*
X141933333Y-86563474D01*
X141933333Y-86563474D02*
X141933333Y-86372998D01*
X141933333Y-86372998D02*
X141895238Y-86296807D01*
X141895238Y-86296807D02*
X141857143Y-86258712D01*
X141857143Y-86258712D02*
X141780952Y-86220617D01*
X141780952Y-86220617D02*
X141628571Y-86220617D01*
X141628571Y-86220617D02*
X141552381Y-86258712D01*
X141552381Y-86258712D02*
X141514286Y-86296807D01*
X141514286Y-86296807D02*
X141476190Y-86372998D01*
X28409524Y-83863855D02*
X28409524Y-83063855D01*
X28866667Y-83863855D02*
X28523809Y-83406712D01*
X28866667Y-83063855D02*
X28409524Y-83520998D01*
X29628571Y-83863855D02*
X29171428Y-83863855D01*
X29400000Y-83863855D02*
X29400000Y-83063855D01*
X29400000Y-83063855D02*
X29323809Y-83178140D01*
X29323809Y-83178140D02*
X29247619Y-83254331D01*
X29247619Y-83254331D02*
X29171428Y-83292426D01*
X6990476Y-79915855D02*
X7447619Y-79915855D01*
X7219047Y-80715855D02*
X7219047Y-79915855D01*
X7714286Y-80715855D02*
X7714286Y-79915855D01*
X7714286Y-79915855D02*
X8019048Y-79915855D01*
X8019048Y-79915855D02*
X8095238Y-79953950D01*
X8095238Y-79953950D02*
X8133333Y-79992045D01*
X8133333Y-79992045D02*
X8171429Y-80068236D01*
X8171429Y-80068236D02*
X8171429Y-80182521D01*
X8171429Y-80182521D02*
X8133333Y-80258712D01*
X8133333Y-80258712D02*
X8095238Y-80296807D01*
X8095238Y-80296807D02*
X8019048Y-80334902D01*
X8019048Y-80334902D02*
X7714286Y-80334902D01*
X8933333Y-80715855D02*
X8476190Y-80715855D01*
X8704762Y-80715855D02*
X8704762Y-79915855D01*
X8704762Y-79915855D02*
X8628571Y-80030140D01*
X8628571Y-80030140D02*
X8552381Y-80106331D01*
X8552381Y-80106331D02*
X8476190Y-80144426D01*
X60990476Y-79915855D02*
X61447619Y-79915855D01*
X61219047Y-80715855D02*
X61219047Y-79915855D01*
X61714286Y-80715855D02*
X61714286Y-79915855D01*
X61714286Y-79915855D02*
X62019048Y-79915855D01*
X62019048Y-79915855D02*
X62095238Y-79953950D01*
X62095238Y-79953950D02*
X62133333Y-79992045D01*
X62133333Y-79992045D02*
X62171429Y-80068236D01*
X62171429Y-80068236D02*
X62171429Y-80182521D01*
X62171429Y-80182521D02*
X62133333Y-80258712D01*
X62133333Y-80258712D02*
X62095238Y-80296807D01*
X62095238Y-80296807D02*
X62019048Y-80334902D01*
X62019048Y-80334902D02*
X61714286Y-80334902D01*
X62476190Y-79992045D02*
X62514286Y-79953950D01*
X62514286Y-79953950D02*
X62590476Y-79915855D01*
X62590476Y-79915855D02*
X62780952Y-79915855D01*
X62780952Y-79915855D02*
X62857143Y-79953950D01*
X62857143Y-79953950D02*
X62895238Y-79992045D01*
X62895238Y-79992045D02*
X62933333Y-80068236D01*
X62933333Y-80068236D02*
X62933333Y-80144426D01*
X62933333Y-80144426D02*
X62895238Y-80258712D01*
X62895238Y-80258712D02*
X62438095Y-80715855D01*
X62438095Y-80715855D02*
X62933333Y-80715855D01*
X143866666Y-45263855D02*
X143485714Y-45263855D01*
X143485714Y-45263855D02*
X143485714Y-44463855D01*
X144552380Y-45263855D02*
X144095237Y-45263855D01*
X144323809Y-45263855D02*
X144323809Y-44463855D01*
X144323809Y-44463855D02*
X144247618Y-44578140D01*
X144247618Y-44578140D02*
X144171428Y-44654331D01*
X144171428Y-44654331D02*
X144095237Y-44692426D01*
X65390476Y-12563855D02*
X65390476Y-13211474D01*
X65390476Y-13211474D02*
X65428571Y-13287664D01*
X65428571Y-13287664D02*
X65466666Y-13325760D01*
X65466666Y-13325760D02*
X65542857Y-13363855D01*
X65542857Y-13363855D02*
X65695238Y-13363855D01*
X65695238Y-13363855D02*
X65771428Y-13325760D01*
X65771428Y-13325760D02*
X65809523Y-13287664D01*
X65809523Y-13287664D02*
X65847619Y-13211474D01*
X65847619Y-13211474D02*
X65847619Y-12563855D01*
X66190475Y-12640045D02*
X66228571Y-12601950D01*
X66228571Y-12601950D02*
X66304761Y-12563855D01*
X66304761Y-12563855D02*
X66495237Y-12563855D01*
X66495237Y-12563855D02*
X66571428Y-12601950D01*
X66571428Y-12601950D02*
X66609523Y-12640045D01*
X66609523Y-12640045D02*
X66647618Y-12716236D01*
X66647618Y-12716236D02*
X66647618Y-12792426D01*
X66647618Y-12792426D02*
X66609523Y-12906712D01*
X66609523Y-12906712D02*
X66152380Y-13363855D01*
X66152380Y-13363855D02*
X66647618Y-13363855D01*
X70352380Y-84563855D02*
X70352380Y-85135283D01*
X70352380Y-85135283D02*
X70314285Y-85249569D01*
X70314285Y-85249569D02*
X70238094Y-85325760D01*
X70238094Y-85325760D02*
X70123809Y-85363855D01*
X70123809Y-85363855D02*
X70047618Y-85363855D01*
X71152380Y-85363855D02*
X70695237Y-85363855D01*
X70923809Y-85363855D02*
X70923809Y-84563855D01*
X70923809Y-84563855D02*
X70847618Y-84678140D01*
X70847618Y-84678140D02*
X70771428Y-84754331D01*
X70771428Y-84754331D02*
X70695237Y-84792426D01*
X71647619Y-84563855D02*
X71723809Y-84563855D01*
X71723809Y-84563855D02*
X71800000Y-84601950D01*
X71800000Y-84601950D02*
X71838095Y-84640045D01*
X71838095Y-84640045D02*
X71876190Y-84716236D01*
X71876190Y-84716236D02*
X71914285Y-84868617D01*
X71914285Y-84868617D02*
X71914285Y-85059093D01*
X71914285Y-85059093D02*
X71876190Y-85211474D01*
X71876190Y-85211474D02*
X71838095Y-85287664D01*
X71838095Y-85287664D02*
X71800000Y-85325760D01*
X71800000Y-85325760D02*
X71723809Y-85363855D01*
X71723809Y-85363855D02*
X71647619Y-85363855D01*
X71647619Y-85363855D02*
X71571428Y-85325760D01*
X71571428Y-85325760D02*
X71533333Y-85287664D01*
X71533333Y-85287664D02*
X71495238Y-85211474D01*
X71495238Y-85211474D02*
X71457142Y-85059093D01*
X71457142Y-85059093D02*
X71457142Y-84868617D01*
X71457142Y-84868617D02*
X71495238Y-84716236D01*
X71495238Y-84716236D02*
X71533333Y-84640045D01*
X71533333Y-84640045D02*
X71571428Y-84601950D01*
X71571428Y-84601950D02*
X71647619Y-84563855D01*
X133352380Y-112683855D02*
X133352380Y-113255283D01*
X133352380Y-113255283D02*
X133314285Y-113369569D01*
X133314285Y-113369569D02*
X133238094Y-113445760D01*
X133238094Y-113445760D02*
X133123809Y-113483855D01*
X133123809Y-113483855D02*
X133047618Y-113483855D01*
X134152380Y-113483855D02*
X133695237Y-113483855D01*
X133923809Y-113483855D02*
X133923809Y-112683855D01*
X133923809Y-112683855D02*
X133847618Y-112798140D01*
X133847618Y-112798140D02*
X133771428Y-112874331D01*
X133771428Y-112874331D02*
X133695237Y-112912426D01*
X134419047Y-112683855D02*
X134914285Y-112683855D01*
X134914285Y-112683855D02*
X134647619Y-112988617D01*
X134647619Y-112988617D02*
X134761904Y-112988617D01*
X134761904Y-112988617D02*
X134838095Y-113026712D01*
X134838095Y-113026712D02*
X134876190Y-113064807D01*
X134876190Y-113064807D02*
X134914285Y-113140998D01*
X134914285Y-113140998D02*
X134914285Y-113331474D01*
X134914285Y-113331474D02*
X134876190Y-113407664D01*
X134876190Y-113407664D02*
X134838095Y-113445760D01*
X134838095Y-113445760D02*
X134761904Y-113483855D01*
X134761904Y-113483855D02*
X134533333Y-113483855D01*
X134533333Y-113483855D02*
X134457142Y-113445760D01*
X134457142Y-113445760D02*
X134419047Y-113407664D01*
X134390476Y-32913855D02*
X134390476Y-33561474D01*
X134390476Y-33561474D02*
X134428571Y-33637664D01*
X134428571Y-33637664D02*
X134466666Y-33675760D01*
X134466666Y-33675760D02*
X134542857Y-33713855D01*
X134542857Y-33713855D02*
X134695238Y-33713855D01*
X134695238Y-33713855D02*
X134771428Y-33675760D01*
X134771428Y-33675760D02*
X134809523Y-33637664D01*
X134809523Y-33637664D02*
X134847619Y-33561474D01*
X134847619Y-33561474D02*
X134847619Y-32913855D01*
X135571428Y-32913855D02*
X135419047Y-32913855D01*
X135419047Y-32913855D02*
X135342856Y-32951950D01*
X135342856Y-32951950D02*
X135304761Y-32990045D01*
X135304761Y-32990045D02*
X135228571Y-33104331D01*
X135228571Y-33104331D02*
X135190475Y-33256712D01*
X135190475Y-33256712D02*
X135190475Y-33561474D01*
X135190475Y-33561474D02*
X135228571Y-33637664D01*
X135228571Y-33637664D02*
X135266666Y-33675760D01*
X135266666Y-33675760D02*
X135342856Y-33713855D01*
X135342856Y-33713855D02*
X135495237Y-33713855D01*
X135495237Y-33713855D02*
X135571428Y-33675760D01*
X135571428Y-33675760D02*
X135609523Y-33637664D01*
X135609523Y-33637664D02*
X135647618Y-33561474D01*
X135647618Y-33561474D02*
X135647618Y-33370998D01*
X135647618Y-33370998D02*
X135609523Y-33294807D01*
X135609523Y-33294807D02*
X135571428Y-33256712D01*
X135571428Y-33256712D02*
X135495237Y-33218617D01*
X135495237Y-33218617D02*
X135342856Y-33218617D01*
X135342856Y-33218617D02*
X135266666Y-33256712D01*
X135266666Y-33256712D02*
X135228571Y-33294807D01*
X135228571Y-33294807D02*
X135190475Y-33370998D01*
X70990476Y-79915855D02*
X71447619Y-79915855D01*
X71219047Y-80715855D02*
X71219047Y-79915855D01*
X71714286Y-80715855D02*
X71714286Y-79915855D01*
X71714286Y-79915855D02*
X72019048Y-79915855D01*
X72019048Y-79915855D02*
X72095238Y-79953950D01*
X72095238Y-79953950D02*
X72133333Y-79992045D01*
X72133333Y-79992045D02*
X72171429Y-80068236D01*
X72171429Y-80068236D02*
X72171429Y-80182521D01*
X72171429Y-80182521D02*
X72133333Y-80258712D01*
X72133333Y-80258712D02*
X72095238Y-80296807D01*
X72095238Y-80296807D02*
X72019048Y-80334902D01*
X72019048Y-80334902D02*
X71714286Y-80334902D01*
X72438095Y-79915855D02*
X72933333Y-79915855D01*
X72933333Y-79915855D02*
X72666667Y-80220617D01*
X72666667Y-80220617D02*
X72780952Y-80220617D01*
X72780952Y-80220617D02*
X72857143Y-80258712D01*
X72857143Y-80258712D02*
X72895238Y-80296807D01*
X72895238Y-80296807D02*
X72933333Y-80372998D01*
X72933333Y-80372998D02*
X72933333Y-80563474D01*
X72933333Y-80563474D02*
X72895238Y-80639664D01*
X72895238Y-80639664D02*
X72857143Y-80677760D01*
X72857143Y-80677760D02*
X72780952Y-80715855D01*
X72780952Y-80715855D02*
X72552381Y-80715855D01*
X72552381Y-80715855D02*
X72476190Y-80677760D01*
X72476190Y-80677760D02*
X72438095Y-80639664D01*
X150990476Y-85915855D02*
X151447619Y-85915855D01*
X151219047Y-86715855D02*
X151219047Y-85915855D01*
X151714286Y-86715855D02*
X151714286Y-85915855D01*
X151714286Y-85915855D02*
X152019048Y-85915855D01*
X152019048Y-85915855D02*
X152095238Y-85953950D01*
X152095238Y-85953950D02*
X152133333Y-85992045D01*
X152133333Y-85992045D02*
X152171429Y-86068236D01*
X152171429Y-86068236D02*
X152171429Y-86182521D01*
X152171429Y-86182521D02*
X152133333Y-86258712D01*
X152133333Y-86258712D02*
X152095238Y-86296807D01*
X152095238Y-86296807D02*
X152019048Y-86334902D01*
X152019048Y-86334902D02*
X151714286Y-86334902D01*
X152438095Y-85915855D02*
X152971429Y-85915855D01*
X152971429Y-85915855D02*
X152628571Y-86715855D01*
X117733333Y-69563855D02*
X117733333Y-70135283D01*
X117733333Y-70135283D02*
X117695238Y-70249569D01*
X117695238Y-70249569D02*
X117619047Y-70325760D01*
X117619047Y-70325760D02*
X117504762Y-70363855D01*
X117504762Y-70363855D02*
X117428571Y-70363855D01*
X118076190Y-69640045D02*
X118114286Y-69601950D01*
X118114286Y-69601950D02*
X118190476Y-69563855D01*
X118190476Y-69563855D02*
X118380952Y-69563855D01*
X118380952Y-69563855D02*
X118457143Y-69601950D01*
X118457143Y-69601950D02*
X118495238Y-69640045D01*
X118495238Y-69640045D02*
X118533333Y-69716236D01*
X118533333Y-69716236D02*
X118533333Y-69792426D01*
X118533333Y-69792426D02*
X118495238Y-69906712D01*
X118495238Y-69906712D02*
X118038095Y-70363855D01*
X118038095Y-70363855D02*
X118533333Y-70363855D01*
X52390476Y-84463855D02*
X52390476Y-85111474D01*
X52390476Y-85111474D02*
X52428571Y-85187664D01*
X52428571Y-85187664D02*
X52466666Y-85225760D01*
X52466666Y-85225760D02*
X52542857Y-85263855D01*
X52542857Y-85263855D02*
X52695238Y-85263855D01*
X52695238Y-85263855D02*
X52771428Y-85225760D01*
X52771428Y-85225760D02*
X52809523Y-85187664D01*
X52809523Y-85187664D02*
X52847619Y-85111474D01*
X52847619Y-85111474D02*
X52847619Y-84463855D01*
X53342856Y-84806712D02*
X53266666Y-84768617D01*
X53266666Y-84768617D02*
X53228571Y-84730521D01*
X53228571Y-84730521D02*
X53190475Y-84654331D01*
X53190475Y-84654331D02*
X53190475Y-84616236D01*
X53190475Y-84616236D02*
X53228571Y-84540045D01*
X53228571Y-84540045D02*
X53266666Y-84501950D01*
X53266666Y-84501950D02*
X53342856Y-84463855D01*
X53342856Y-84463855D02*
X53495237Y-84463855D01*
X53495237Y-84463855D02*
X53571428Y-84501950D01*
X53571428Y-84501950D02*
X53609523Y-84540045D01*
X53609523Y-84540045D02*
X53647618Y-84616236D01*
X53647618Y-84616236D02*
X53647618Y-84654331D01*
X53647618Y-84654331D02*
X53609523Y-84730521D01*
X53609523Y-84730521D02*
X53571428Y-84768617D01*
X53571428Y-84768617D02*
X53495237Y-84806712D01*
X53495237Y-84806712D02*
X53342856Y-84806712D01*
X53342856Y-84806712D02*
X53266666Y-84844807D01*
X53266666Y-84844807D02*
X53228571Y-84882902D01*
X53228571Y-84882902D02*
X53190475Y-84959093D01*
X53190475Y-84959093D02*
X53190475Y-85111474D01*
X53190475Y-85111474D02*
X53228571Y-85187664D01*
X53228571Y-85187664D02*
X53266666Y-85225760D01*
X53266666Y-85225760D02*
X53342856Y-85263855D01*
X53342856Y-85263855D02*
X53495237Y-85263855D01*
X53495237Y-85263855D02*
X53571428Y-85225760D01*
X53571428Y-85225760D02*
X53609523Y-85187664D01*
X53609523Y-85187664D02*
X53647618Y-85111474D01*
X53647618Y-85111474D02*
X53647618Y-84959093D01*
X53647618Y-84959093D02*
X53609523Y-84882902D01*
X53609523Y-84882902D02*
X53571428Y-84844807D01*
X53571428Y-84844807D02*
X53495237Y-84806712D01*
X92990476Y-79915855D02*
X93447619Y-79915855D01*
X93219047Y-80715855D02*
X93219047Y-79915855D01*
X93714286Y-80715855D02*
X93714286Y-79915855D01*
X93714286Y-79915855D02*
X94019048Y-79915855D01*
X94019048Y-79915855D02*
X94095238Y-79953950D01*
X94095238Y-79953950D02*
X94133333Y-79992045D01*
X94133333Y-79992045D02*
X94171429Y-80068236D01*
X94171429Y-80068236D02*
X94171429Y-80182521D01*
X94171429Y-80182521D02*
X94133333Y-80258712D01*
X94133333Y-80258712D02*
X94095238Y-80296807D01*
X94095238Y-80296807D02*
X94019048Y-80334902D01*
X94019048Y-80334902D02*
X93714286Y-80334902D01*
X94895238Y-79915855D02*
X94514286Y-79915855D01*
X94514286Y-79915855D02*
X94476190Y-80296807D01*
X94476190Y-80296807D02*
X94514286Y-80258712D01*
X94514286Y-80258712D02*
X94590476Y-80220617D01*
X94590476Y-80220617D02*
X94780952Y-80220617D01*
X94780952Y-80220617D02*
X94857143Y-80258712D01*
X94857143Y-80258712D02*
X94895238Y-80296807D01*
X94895238Y-80296807D02*
X94933333Y-80372998D01*
X94933333Y-80372998D02*
X94933333Y-80563474D01*
X94933333Y-80563474D02*
X94895238Y-80639664D01*
X94895238Y-80639664D02*
X94857143Y-80677760D01*
X94857143Y-80677760D02*
X94780952Y-80715855D01*
X94780952Y-80715855D02*
X94590476Y-80715855D01*
X94590476Y-80715855D02*
X94514286Y-80677760D01*
X94514286Y-80677760D02*
X94476190Y-80639664D01*
X83003333Y-94183855D02*
X83003333Y-94755283D01*
X83003333Y-94755283D02*
X82965238Y-94869569D01*
X82965238Y-94869569D02*
X82889047Y-94945760D01*
X82889047Y-94945760D02*
X82774762Y-94983855D01*
X82774762Y-94983855D02*
X82698571Y-94983855D01*
X83727143Y-94450521D02*
X83727143Y-94983855D01*
X83536667Y-94145760D02*
X83346190Y-94717188D01*
X83346190Y-94717188D02*
X83841429Y-94717188D01*
X86990476Y-79915855D02*
X87447619Y-79915855D01*
X87219047Y-80715855D02*
X87219047Y-79915855D01*
X87714286Y-80715855D02*
X87714286Y-79915855D01*
X87714286Y-79915855D02*
X88019048Y-79915855D01*
X88019048Y-79915855D02*
X88095238Y-79953950D01*
X88095238Y-79953950D02*
X88133333Y-79992045D01*
X88133333Y-79992045D02*
X88171429Y-80068236D01*
X88171429Y-80068236D02*
X88171429Y-80182521D01*
X88171429Y-80182521D02*
X88133333Y-80258712D01*
X88133333Y-80258712D02*
X88095238Y-80296807D01*
X88095238Y-80296807D02*
X88019048Y-80334902D01*
X88019048Y-80334902D02*
X87714286Y-80334902D01*
X88857143Y-80182521D02*
X88857143Y-80715855D01*
X88666667Y-79877760D02*
X88476190Y-80449188D01*
X88476190Y-80449188D02*
X88971429Y-80449188D01*
X62038333Y-84269807D02*
X61771667Y-84269807D01*
X61771667Y-84688855D02*
X61771667Y-83888855D01*
X61771667Y-83888855D02*
X62152619Y-83888855D01*
X62419285Y-83965045D02*
X62457381Y-83926950D01*
X62457381Y-83926950D02*
X62533571Y-83888855D01*
X62533571Y-83888855D02*
X62724047Y-83888855D01*
X62724047Y-83888855D02*
X62800238Y-83926950D01*
X62800238Y-83926950D02*
X62838333Y-83965045D01*
X62838333Y-83965045D02*
X62876428Y-84041236D01*
X62876428Y-84041236D02*
X62876428Y-84117426D01*
X62876428Y-84117426D02*
X62838333Y-84231712D01*
X62838333Y-84231712D02*
X62381190Y-84688855D01*
X62381190Y-84688855D02*
X62876428Y-84688855D01*
X70352380Y-100563855D02*
X70352380Y-101135283D01*
X70352380Y-101135283D02*
X70314285Y-101249569D01*
X70314285Y-101249569D02*
X70238094Y-101325760D01*
X70238094Y-101325760D02*
X70123809Y-101363855D01*
X70123809Y-101363855D02*
X70047618Y-101363855D01*
X71152380Y-101363855D02*
X70695237Y-101363855D01*
X70923809Y-101363855D02*
X70923809Y-100563855D01*
X70923809Y-100563855D02*
X70847618Y-100678140D01*
X70847618Y-100678140D02*
X70771428Y-100754331D01*
X70771428Y-100754331D02*
X70695237Y-100792426D01*
X71457142Y-100640045D02*
X71495238Y-100601950D01*
X71495238Y-100601950D02*
X71571428Y-100563855D01*
X71571428Y-100563855D02*
X71761904Y-100563855D01*
X71761904Y-100563855D02*
X71838095Y-100601950D01*
X71838095Y-100601950D02*
X71876190Y-100640045D01*
X71876190Y-100640045D02*
X71914285Y-100716236D01*
X71914285Y-100716236D02*
X71914285Y-100792426D01*
X71914285Y-100792426D02*
X71876190Y-100906712D01*
X71876190Y-100906712D02*
X71419047Y-101363855D01*
X71419047Y-101363855D02*
X71914285Y-101363855D01*
X139250476Y-19843855D02*
X139250476Y-20491474D01*
X139250476Y-20491474D02*
X139288571Y-20567664D01*
X139288571Y-20567664D02*
X139326666Y-20605760D01*
X139326666Y-20605760D02*
X139402857Y-20643855D01*
X139402857Y-20643855D02*
X139555238Y-20643855D01*
X139555238Y-20643855D02*
X139631428Y-20605760D01*
X139631428Y-20605760D02*
X139669523Y-20567664D01*
X139669523Y-20567664D02*
X139707619Y-20491474D01*
X139707619Y-20491474D02*
X139707619Y-19843855D01*
X140012380Y-19843855D02*
X140545714Y-19843855D01*
X140545714Y-19843855D02*
X140202856Y-20643855D01*
X29923809Y-17540045D02*
X29847619Y-17501950D01*
X29847619Y-17501950D02*
X29771428Y-17425760D01*
X29771428Y-17425760D02*
X29657142Y-17311474D01*
X29657142Y-17311474D02*
X29580952Y-17273379D01*
X29580952Y-17273379D02*
X29504761Y-17273379D01*
X29542857Y-17463855D02*
X29466666Y-17425760D01*
X29466666Y-17425760D02*
X29390476Y-17349569D01*
X29390476Y-17349569D02*
X29352380Y-17197188D01*
X29352380Y-17197188D02*
X29352380Y-16930521D01*
X29352380Y-16930521D02*
X29390476Y-16778140D01*
X29390476Y-16778140D02*
X29466666Y-16701950D01*
X29466666Y-16701950D02*
X29542857Y-16663855D01*
X29542857Y-16663855D02*
X29695238Y-16663855D01*
X29695238Y-16663855D02*
X29771428Y-16701950D01*
X29771428Y-16701950D02*
X29847619Y-16778140D01*
X29847619Y-16778140D02*
X29885714Y-16930521D01*
X29885714Y-16930521D02*
X29885714Y-17197188D01*
X29885714Y-17197188D02*
X29847619Y-17349569D01*
X29847619Y-17349569D02*
X29771428Y-17425760D01*
X29771428Y-17425760D02*
X29695238Y-17463855D01*
X29695238Y-17463855D02*
X29542857Y-17463855D01*
X30190475Y-16740045D02*
X30228571Y-16701950D01*
X30228571Y-16701950D02*
X30304761Y-16663855D01*
X30304761Y-16663855D02*
X30495237Y-16663855D01*
X30495237Y-16663855D02*
X30571428Y-16701950D01*
X30571428Y-16701950D02*
X30609523Y-16740045D01*
X30609523Y-16740045D02*
X30647618Y-16816236D01*
X30647618Y-16816236D02*
X30647618Y-16892426D01*
X30647618Y-16892426D02*
X30609523Y-17006712D01*
X30609523Y-17006712D02*
X30152380Y-17463855D01*
X30152380Y-17463855D02*
X30647618Y-17463855D01*
X21733333Y-9844807D02*
X21466667Y-9844807D01*
X21466667Y-10263855D02*
X21466667Y-9463855D01*
X21466667Y-9463855D02*
X21847619Y-9463855D01*
X22571428Y-10263855D02*
X22114285Y-10263855D01*
X22342857Y-10263855D02*
X22342857Y-9463855D01*
X22342857Y-9463855D02*
X22266666Y-9578140D01*
X22266666Y-9578140D02*
X22190476Y-9654331D01*
X22190476Y-9654331D02*
X22114285Y-9692426D01*
X149233333Y-69563855D02*
X149233333Y-70135283D01*
X149233333Y-70135283D02*
X149195238Y-70249569D01*
X149195238Y-70249569D02*
X149119047Y-70325760D01*
X149119047Y-70325760D02*
X149004762Y-70363855D01*
X149004762Y-70363855D02*
X148928571Y-70363855D01*
X149957143Y-69563855D02*
X149804762Y-69563855D01*
X149804762Y-69563855D02*
X149728571Y-69601950D01*
X149728571Y-69601950D02*
X149690476Y-69640045D01*
X149690476Y-69640045D02*
X149614286Y-69754331D01*
X149614286Y-69754331D02*
X149576190Y-69906712D01*
X149576190Y-69906712D02*
X149576190Y-70211474D01*
X149576190Y-70211474D02*
X149614286Y-70287664D01*
X149614286Y-70287664D02*
X149652381Y-70325760D01*
X149652381Y-70325760D02*
X149728571Y-70363855D01*
X149728571Y-70363855D02*
X149880952Y-70363855D01*
X149880952Y-70363855D02*
X149957143Y-70325760D01*
X149957143Y-70325760D02*
X149995238Y-70287664D01*
X149995238Y-70287664D02*
X150033333Y-70211474D01*
X150033333Y-70211474D02*
X150033333Y-70020998D01*
X150033333Y-70020998D02*
X149995238Y-69944807D01*
X149995238Y-69944807D02*
X149957143Y-69906712D01*
X149957143Y-69906712D02*
X149880952Y-69868617D01*
X149880952Y-69868617D02*
X149728571Y-69868617D01*
X149728571Y-69868617D02*
X149652381Y-69906712D01*
X149652381Y-69906712D02*
X149614286Y-69944807D01*
X149614286Y-69944807D02*
X149576190Y-70020998D01*
X105390476Y-93133855D02*
X105390476Y-93781474D01*
X105390476Y-93781474D02*
X105428571Y-93857664D01*
X105428571Y-93857664D02*
X105466666Y-93895760D01*
X105466666Y-93895760D02*
X105542857Y-93933855D01*
X105542857Y-93933855D02*
X105695238Y-93933855D01*
X105695238Y-93933855D02*
X105771428Y-93895760D01*
X105771428Y-93895760D02*
X105809523Y-93857664D01*
X105809523Y-93857664D02*
X105847619Y-93781474D01*
X105847619Y-93781474D02*
X105847619Y-93133855D01*
X106609523Y-93133855D02*
X106228571Y-93133855D01*
X106228571Y-93133855D02*
X106190475Y-93514807D01*
X106190475Y-93514807D02*
X106228571Y-93476712D01*
X106228571Y-93476712D02*
X106304761Y-93438617D01*
X106304761Y-93438617D02*
X106495237Y-93438617D01*
X106495237Y-93438617D02*
X106571428Y-93476712D01*
X106571428Y-93476712D02*
X106609523Y-93514807D01*
X106609523Y-93514807D02*
X106647618Y-93590998D01*
X106647618Y-93590998D02*
X106647618Y-93781474D01*
X106647618Y-93781474D02*
X106609523Y-93857664D01*
X106609523Y-93857664D02*
X106571428Y-93895760D01*
X106571428Y-93895760D02*
X106495237Y-93933855D01*
X106495237Y-93933855D02*
X106304761Y-93933855D01*
X106304761Y-93933855D02*
X106228571Y-93895760D01*
X106228571Y-93895760D02*
X106190475Y-93857664D01*
X102990476Y-79915855D02*
X103447619Y-79915855D01*
X103219047Y-80715855D02*
X103219047Y-79915855D01*
X103714286Y-80715855D02*
X103714286Y-79915855D01*
X103714286Y-79915855D02*
X104019048Y-79915855D01*
X104019048Y-79915855D02*
X104095238Y-79953950D01*
X104095238Y-79953950D02*
X104133333Y-79992045D01*
X104133333Y-79992045D02*
X104171429Y-80068236D01*
X104171429Y-80068236D02*
X104171429Y-80182521D01*
X104171429Y-80182521D02*
X104133333Y-80258712D01*
X104133333Y-80258712D02*
X104095238Y-80296807D01*
X104095238Y-80296807D02*
X104019048Y-80334902D01*
X104019048Y-80334902D02*
X103714286Y-80334902D01*
X104628571Y-80258712D02*
X104552381Y-80220617D01*
X104552381Y-80220617D02*
X104514286Y-80182521D01*
X104514286Y-80182521D02*
X104476190Y-80106331D01*
X104476190Y-80106331D02*
X104476190Y-80068236D01*
X104476190Y-80068236D02*
X104514286Y-79992045D01*
X104514286Y-79992045D02*
X104552381Y-79953950D01*
X104552381Y-79953950D02*
X104628571Y-79915855D01*
X104628571Y-79915855D02*
X104780952Y-79915855D01*
X104780952Y-79915855D02*
X104857143Y-79953950D01*
X104857143Y-79953950D02*
X104895238Y-79992045D01*
X104895238Y-79992045D02*
X104933333Y-80068236D01*
X104933333Y-80068236D02*
X104933333Y-80106331D01*
X104933333Y-80106331D02*
X104895238Y-80182521D01*
X104895238Y-80182521D02*
X104857143Y-80220617D01*
X104857143Y-80220617D02*
X104780952Y-80258712D01*
X104780952Y-80258712D02*
X104628571Y-80258712D01*
X104628571Y-80258712D02*
X104552381Y-80296807D01*
X104552381Y-80296807D02*
X104514286Y-80334902D01*
X104514286Y-80334902D02*
X104476190Y-80411093D01*
X104476190Y-80411093D02*
X104476190Y-80563474D01*
X104476190Y-80563474D02*
X104514286Y-80639664D01*
X104514286Y-80639664D02*
X104552381Y-80677760D01*
X104552381Y-80677760D02*
X104628571Y-80715855D01*
X104628571Y-80715855D02*
X104780952Y-80715855D01*
X104780952Y-80715855D02*
X104857143Y-80677760D01*
X104857143Y-80677760D02*
X104895238Y-80639664D01*
X104895238Y-80639664D02*
X104933333Y-80563474D01*
X104933333Y-80563474D02*
X104933333Y-80411093D01*
X104933333Y-80411093D02*
X104895238Y-80334902D01*
X104895238Y-80334902D02*
X104857143Y-80296807D01*
X104857143Y-80296807D02*
X104780952Y-80258712D01*
X111215476Y-7888855D02*
X111215476Y-8536474D01*
X111215476Y-8536474D02*
X111253571Y-8612664D01*
X111253571Y-8612664D02*
X111291666Y-8650760D01*
X111291666Y-8650760D02*
X111367857Y-8688855D01*
X111367857Y-8688855D02*
X111520238Y-8688855D01*
X111520238Y-8688855D02*
X111596428Y-8650760D01*
X111596428Y-8650760D02*
X111634523Y-8612664D01*
X111634523Y-8612664D02*
X111672619Y-8536474D01*
X111672619Y-8536474D02*
X111672619Y-7888855D01*
X111977380Y-7888855D02*
X112472618Y-7888855D01*
X112472618Y-7888855D02*
X112205952Y-8193617D01*
X112205952Y-8193617D02*
X112320237Y-8193617D01*
X112320237Y-8193617D02*
X112396428Y-8231712D01*
X112396428Y-8231712D02*
X112434523Y-8269807D01*
X112434523Y-8269807D02*
X112472618Y-8345998D01*
X112472618Y-8345998D02*
X112472618Y-8536474D01*
X112472618Y-8536474D02*
X112434523Y-8612664D01*
X112434523Y-8612664D02*
X112396428Y-8650760D01*
X112396428Y-8650760D02*
X112320237Y-8688855D01*
X112320237Y-8688855D02*
X112091666Y-8688855D01*
X112091666Y-8688855D02*
X112015475Y-8650760D01*
X112015475Y-8650760D02*
X111977380Y-8612664D01*
X88215476Y-44888855D02*
X88215476Y-45536474D01*
X88215476Y-45536474D02*
X88253571Y-45612664D01*
X88253571Y-45612664D02*
X88291666Y-45650760D01*
X88291666Y-45650760D02*
X88367857Y-45688855D01*
X88367857Y-45688855D02*
X88520238Y-45688855D01*
X88520238Y-45688855D02*
X88596428Y-45650760D01*
X88596428Y-45650760D02*
X88634523Y-45612664D01*
X88634523Y-45612664D02*
X88672619Y-45536474D01*
X88672619Y-45536474D02*
X88672619Y-44888855D01*
X89396428Y-45155521D02*
X89396428Y-45688855D01*
X89205952Y-44850760D02*
X89015475Y-45422188D01*
X89015475Y-45422188D02*
X89510714Y-45422188D01*
X10733333Y-8063855D02*
X10733333Y-8635283D01*
X10733333Y-8635283D02*
X10695238Y-8749569D01*
X10695238Y-8749569D02*
X10619047Y-8825760D01*
X10619047Y-8825760D02*
X10504762Y-8863855D01*
X10504762Y-8863855D02*
X10428571Y-8863855D01*
X11533333Y-8863855D02*
X11076190Y-8863855D01*
X11304762Y-8863855D02*
X11304762Y-8063855D01*
X11304762Y-8063855D02*
X11228571Y-8178140D01*
X11228571Y-8178140D02*
X11152381Y-8254331D01*
X11152381Y-8254331D02*
X11076190Y-8292426D01*
X28409524Y-104863855D02*
X28409524Y-104063855D01*
X28866667Y-104863855D02*
X28523809Y-104406712D01*
X28866667Y-104063855D02*
X28409524Y-104520998D01*
X29171428Y-104140045D02*
X29209524Y-104101950D01*
X29209524Y-104101950D02*
X29285714Y-104063855D01*
X29285714Y-104063855D02*
X29476190Y-104063855D01*
X29476190Y-104063855D02*
X29552381Y-104101950D01*
X29552381Y-104101950D02*
X29590476Y-104140045D01*
X29590476Y-104140045D02*
X29628571Y-104216236D01*
X29628571Y-104216236D02*
X29628571Y-104292426D01*
X29628571Y-104292426D02*
X29590476Y-104406712D01*
X29590476Y-104406712D02*
X29133333Y-104863855D01*
X29133333Y-104863855D02*
X29628571Y-104863855D01*
%TO.C,D3*%
X17640000Y-81500000D02*
X17640000Y-83500000D01*
X17640000Y-81500000D02*
X21650000Y-81500000D01*
X17640000Y-83500000D02*
X21650000Y-83500000D01*
%TO.C,R42*%
X119762742Y-122477500D02*
X120237258Y-122477500D01*
X119762742Y-123522500D02*
X120237258Y-123522500D01*
%TO.C,R40*%
X111762742Y-122477500D02*
X112237258Y-122477500D01*
X111762742Y-123522500D02*
X112237258Y-123522500D01*
%TO.C,R35*%
X119762742Y-117477500D02*
X120237258Y-117477500D01*
X119762742Y-118522500D02*
X120237258Y-118522500D01*
%TO.C,J5*%
D12*
X144450000Y-58950000D02*
X144450000Y-59400000D01*
X144450000Y-58950000D02*
X144900000Y-58950000D01*
X145000000Y-59500000D02*
X145000000Y-68500000D01*
X145000000Y-59500000D02*
X154000000Y-59500000D01*
X145000000Y-68500000D02*
X154000000Y-68500000D01*
X148800000Y-59500000D02*
X149500000Y-60100000D01*
X149500000Y-60100000D02*
X150200000Y-59500000D01*
X154000000Y-59500000D02*
X154000000Y-68500000D01*
%TO.C,C15*%
D10*
X115490000Y-97390580D02*
X115490000Y-97109420D01*
X116510000Y-97390580D02*
X116510000Y-97109420D01*
%TO.C,J3*%
D12*
X97340000Y-5725000D02*
X97340000Y-6175000D01*
X97340000Y-5725000D02*
X97790000Y-5725000D01*
X97890000Y-6275000D02*
X97890000Y-15275000D01*
X97890000Y-6275000D02*
X106890000Y-6275000D01*
X97890000Y-15275000D02*
X106890000Y-15275000D01*
X101690000Y-6275000D02*
X102390000Y-6875000D01*
X102390000Y-6875000D02*
X103090000Y-6275000D01*
X106890000Y-6275000D02*
X106890000Y-15275000D01*
%TO.C,RSH1*%
D10*
X35762742Y-33477500D02*
X36237258Y-33477500D01*
X35762742Y-34522500D02*
X36237258Y-34522500D01*
%TO.C,Y1*%
X89940000Y-101290000D02*
X89940000Y-104710000D01*
X89940000Y-104710000D02*
X94060000Y-104710000D01*
%TO.C,R38*%
X103762742Y-122477500D02*
X104237258Y-122477500D01*
X103762742Y-123522500D02*
X104237258Y-123522500D01*
%TO.C,Q1*%
X18995000Y-18360000D02*
X24995000Y-18360000D01*
X18995000Y-23685000D02*
X24995000Y-23685000D01*
X25681827Y-22910000D02*
X26011827Y-22670000D01*
X26011827Y-23150000D01*
X25681827Y-22910000D01*
G36*
X26011827Y-23150000D02*
G01*
X25681827Y-22910000D01*
X26011827Y-22670000D01*
X26011827Y-23150000D01*
G37*
%TO.C,JP1*%
X146620000Y-82620000D02*
X148000000Y-82620000D01*
X146620000Y-84000000D02*
X146620000Y-82620000D01*
X146620000Y-85270000D02*
X146620000Y-87920000D01*
X146620000Y-85270000D02*
X149380000Y-85270000D01*
X146620000Y-87920000D02*
X149380000Y-87920000D01*
X149380000Y-85270000D02*
X149380000Y-87920000D01*
%TO.C,C9*%
X94990000Y-99159420D02*
X94990000Y-99440580D01*
X96010000Y-99159420D02*
X96010000Y-99440580D01*
%TO.C,RPG2*%
X111762742Y-21477500D02*
X112237258Y-21477500D01*
X111762742Y-22522500D02*
X112237258Y-22522500D01*
%TO.C,R60*%
X111762742Y-25477500D02*
X112237258Y-25477500D01*
X111762742Y-26522500D02*
X112237258Y-26522500D01*
%TO.C,R41*%
X115762742Y-122477500D02*
X116237258Y-122477500D01*
X115762742Y-123522500D02*
X116237258Y-123522500D01*
%TO.C,R51*%
X114767742Y-6232500D02*
X115242258Y-6232500D01*
X114767742Y-7277500D02*
X115242258Y-7277500D01*
%TO.C,C18*%
X111859420Y-17490000D02*
X112140580Y-17490000D01*
X111859420Y-18510000D02*
X112140580Y-18510000D01*
%TO.C,TP6*%
X141950000Y-88000000D02*
G75*
G02*
X140050000Y-88000000I-950000J0D01*
G01*
X140050000Y-88000000D02*
G75*
G02*
X141950000Y-88000000I950000J0D01*
G01*
%TO.C,K1*%
D12*
X12450000Y-84450000D02*
X12450000Y-84900000D01*
X12450000Y-84450000D02*
X12900000Y-84450000D01*
X13000000Y-85000000D02*
X13000000Y-101000000D01*
X13000000Y-85000000D02*
X45000000Y-85000000D01*
X13000000Y-101000000D02*
X45000000Y-101000000D01*
X45000000Y-85000000D02*
X45000000Y-101000000D01*
%TO.C,R48*%
D10*
X107762742Y-17477500D02*
X108237258Y-17477500D01*
X107762742Y-18522500D02*
X108237258Y-18522500D01*
%TO.C,TP1*%
X8950000Y-82000000D02*
G75*
G02*
X7050000Y-82000000I-950000J0D01*
G01*
X7050000Y-82000000D02*
G75*
G02*
X8950000Y-82000000I950000J0D01*
G01*
%TO.C,R58*%
X142272936Y-83090000D02*
X143727064Y-83090000D01*
X142272936Y-84910000D02*
X143727064Y-84910000D01*
%TO.C,TP2*%
X62950000Y-82000000D02*
G75*
G02*
X61050000Y-82000000I-950000J0D01*
G01*
X61050000Y-82000000D02*
G75*
G02*
X62950000Y-82000000I950000J0D01*
G01*
%TO.C,L1*%
D12*
X141200000Y-45850000D02*
X141200000Y-46300000D01*
X141200000Y-45850000D02*
X141650001Y-45850000D01*
X141750000Y-47750000D02*
X141750000Y-48250000D01*
X142850000Y-46400000D02*
X145150000Y-46400000D01*
X142850000Y-49600000D02*
X145150000Y-49600000D01*
X146250000Y-47750000D02*
X146250000Y-48250000D01*
%TO.C,U1*%
D10*
X32890000Y-26090000D02*
X36110000Y-26090000D01*
X32890000Y-26265000D02*
X32890000Y-26090000D01*
X32890000Y-29310000D02*
X32890000Y-29135000D01*
X36110000Y-26090000D02*
X36110000Y-26265000D01*
X36110000Y-29135000D02*
X36110000Y-29310000D01*
X36110000Y-29310000D02*
X32890000Y-29310000D01*
X32340000Y-26260000D02*
X32100000Y-25930000D01*
X32580000Y-25930000D01*
X32340000Y-26260000D01*
G36*
X32340000Y-26260000D02*
G01*
X32100000Y-25930000D01*
X32580000Y-25930000D01*
X32340000Y-26260000D01*
G37*
%TO.C,CG1*%
X25359420Y-25990000D02*
X25640580Y-25990000D01*
X25359420Y-27010000D02*
X25640580Y-27010000D01*
%TO.C,CY1*%
X87990000Y-102640580D02*
X87990000Y-102359420D01*
X89010000Y-102640580D02*
X89010000Y-102359420D01*
%TO.C,C14*%
X111890580Y-112490000D02*
X111609420Y-112490000D01*
X111890580Y-113510000D02*
X111609420Y-113510000D01*
%TO.C,U2*%
D12*
X46450000Y-13950000D02*
X46450000Y-14400000D01*
X46450000Y-13950000D02*
X46900000Y-13950000D01*
X47000000Y-14500000D02*
X47000000Y-39500000D01*
X47000000Y-14500000D02*
X85000000Y-14500000D01*
X47000000Y-39500000D02*
X85000000Y-39500000D01*
X65700000Y-15150000D02*
X66300000Y-15150000D01*
X66000000Y-14850000D02*
X66000000Y-15450001D01*
X85000000Y-14500000D02*
X85000000Y-39500000D01*
%TO.C,J10*%
X65950000Y-85950000D02*
X65950000Y-86400000D01*
X65950000Y-85950000D02*
X66400000Y-85950000D01*
X66500000Y-86500000D02*
X66500000Y-95500000D01*
X66500000Y-86500000D02*
X75500000Y-86500000D01*
X66500000Y-95500000D02*
X75500000Y-95500000D01*
X70300000Y-86500000D02*
X71000000Y-87100000D01*
X71000000Y-87100000D02*
X71700000Y-86500000D01*
X75500000Y-86500000D02*
X75500000Y-95500000D01*
%TO.C,J13*%
D10*
X132620000Y-114120000D02*
X134000000Y-114120000D01*
X132620000Y-115500000D02*
X132620000Y-114120000D01*
X132620000Y-116770000D02*
X132620000Y-124500000D01*
X132620000Y-116770000D02*
X135380000Y-116770000D01*
X132620000Y-124500000D02*
X135380000Y-124500000D01*
X135380000Y-116770000D02*
X135380000Y-124500000D01*
%TO.C,R45*%
X61267742Y-93732500D02*
X61742258Y-93732500D01*
X61267742Y-94777500D02*
X61742258Y-94777500D01*
%TO.C,U6*%
D12*
X130700000Y-34300000D02*
X130700000Y-34750000D01*
X130700000Y-34300000D02*
X131150001Y-34300000D01*
X131250000Y-34850000D02*
X131250000Y-45150000D01*
X131250000Y-34850000D02*
X138750000Y-34850000D01*
X131250000Y-45150000D02*
X138750000Y-45150000D01*
X138750000Y-34850000D02*
X138750000Y-45150000D01*
%TO.C,TP3*%
D10*
X72950000Y-82000000D02*
G75*
G02*
X71050000Y-82000000I-950000J0D01*
G01*
X71050000Y-82000000D02*
G75*
G02*
X72950000Y-82000000I950000J0D01*
G01*
%TO.C,R32*%
X107762742Y-117477500D02*
X108237258Y-117477500D01*
X107762742Y-118522500D02*
X108237258Y-118522500D01*
%TO.C,TP7*%
X152950000Y-88000000D02*
G75*
G02*
X151050000Y-88000000I-950000J0D01*
G01*
X151050000Y-88000000D02*
G75*
G02*
X152950000Y-88000000I950000J0D01*
G01*
%TO.C,C4*%
X110238748Y-5765000D02*
X110761252Y-5765000D01*
X110238748Y-7235000D02*
X110761252Y-7235000D01*
%TO.C,J2*%
D12*
X112950000Y-70950000D02*
X112950000Y-71400000D01*
X112950000Y-70950000D02*
X113400000Y-70950000D01*
X113500000Y-71500000D02*
X113500000Y-80500000D01*
X113500000Y-71500000D02*
X122500000Y-71500000D01*
X113500000Y-80500000D02*
X122500000Y-80500000D01*
X117300000Y-71500000D02*
X118000000Y-72100000D01*
X118000000Y-72100000D02*
X118700000Y-71500000D01*
X122500000Y-71500000D02*
X122500000Y-80500000D01*
%TO.C,R57*%
D10*
X61267742Y-88732500D02*
X61742258Y-88732500D01*
X61267742Y-89777500D02*
X61742258Y-89777500D01*
%TO.C,R50*%
X56267742Y-97732500D02*
X56742258Y-97732500D01*
X56267742Y-98777500D02*
X56742258Y-98777500D01*
%TO.C,RUV1*%
X9272936Y-25590000D02*
X10727064Y-25590000D01*
X9272936Y-27410000D02*
X10727064Y-27410000D01*
%TO.C,D1*%
X27090000Y-7250000D02*
X35600000Y-7250000D01*
X27090000Y-13750000D02*
X27090000Y-7250000D01*
X27090000Y-13750000D02*
X35600000Y-13750000D01*
%TO.C,C8*%
X92288748Y-55140000D02*
X93711252Y-55140000D01*
X92288748Y-57860000D02*
X93711252Y-57860000D01*
%TO.C,U8*%
X49140000Y-85740000D02*
X56860000Y-85740000D01*
X49140000Y-85995000D02*
X49140000Y-85740000D01*
X49140000Y-96260000D02*
X49140000Y-96005000D01*
X56860000Y-85740000D02*
X56860000Y-85995000D01*
X56860000Y-96005000D02*
X56860000Y-96260000D01*
X56860000Y-96260000D02*
X49140000Y-96260000D01*
X48350000Y-85990000D02*
X48010000Y-85520000D01*
X48690000Y-85520000D01*
X48350000Y-85990000D01*
G36*
X48350000Y-85990000D02*
G01*
X48010000Y-85520000D01*
X48690000Y-85520000D01*
X48350000Y-85990000D01*
G37*
%TO.C,R52*%
X61267742Y-96232500D02*
X61742258Y-96232500D01*
X61267742Y-97277500D02*
X61742258Y-97277500D01*
%TO.C,RPG3*%
X87267742Y-6232500D02*
X87742258Y-6232500D01*
X87267742Y-7277500D02*
X87742258Y-7277500D01*
%TO.C,TP5*%
X94950000Y-82000000D02*
G75*
G02*
X93050000Y-82000000I-950000J0D01*
G01*
X93050000Y-82000000D02*
G75*
G02*
X94950000Y-82000000I950000J0D01*
G01*
%TO.C,RS1*%
D12*
X34200000Y-16950000D02*
X34200000Y-17400001D01*
X34200000Y-16950000D02*
X34650000Y-16950000D01*
X34750000Y-17500000D02*
X34750000Y-18250000D01*
X34750000Y-17500000D02*
X44250000Y-17500000D01*
X34750000Y-23750000D02*
X34750000Y-24500000D01*
X34750000Y-24500000D02*
X44250000Y-24500000D01*
X44250000Y-17500000D02*
X44250000Y-18250000D01*
X44250000Y-23750000D02*
X44250000Y-24500000D01*
%TO.C,J4*%
D10*
X80620000Y-95620000D02*
X82000000Y-95620000D01*
X80620000Y-97000000D02*
X80620000Y-95620000D01*
X80620000Y-98270000D02*
X80620000Y-121240000D01*
X80620000Y-98270000D02*
X83270000Y-98270000D01*
X80620000Y-121240000D02*
X85920000Y-121240000D01*
X83270000Y-95620000D02*
X85920000Y-95620000D01*
X83270000Y-98270000D02*
X83270000Y-95620000D01*
X85920000Y-95620000D02*
X85920000Y-121240000D01*
%TO.C,TP4*%
X88950000Y-82000000D02*
G75*
G02*
X87050000Y-82000000I-950000J0D01*
G01*
X87050000Y-82000000D02*
G75*
G02*
X88950000Y-82000000I950000J0D01*
G01*
%TO.C,C10*%
X94990000Y-102359420D02*
X94990000Y-102640580D01*
X96010000Y-102359420D02*
X96010000Y-102640580D01*
%TO.C,R39*%
X107762742Y-122477500D02*
X108237258Y-122477500D01*
X107762742Y-123522500D02*
X108237258Y-123522500D01*
%TO.C,C11*%
X94990000Y-105559420D02*
X94990000Y-105840580D01*
X96010000Y-105559420D02*
X96010000Y-105840580D01*
%TO.C,R59*%
X107762742Y-25477500D02*
X108237258Y-25477500D01*
X107762742Y-26522500D02*
X108237258Y-26522500D01*
%TO.C,C20*%
X109864420Y-46245000D02*
X110145580Y-46245000D01*
X109864420Y-47265000D02*
X110145580Y-47265000D01*
%TO.C,RUV2*%
X13762742Y-25977500D02*
X14237258Y-25977500D01*
X13762742Y-27022500D02*
X14237258Y-27022500D01*
%TO.C,C44*%
X141740000Y-42690580D02*
X141740000Y-42409420D01*
X142760000Y-42690580D02*
X142760000Y-42409420D01*
%TO.C,R47*%
X91267742Y-6232500D02*
X91742258Y-6232500D01*
X91267742Y-7277500D02*
X91742258Y-7277500D01*
%TO.C,C42*%
X132988748Y-17265000D02*
X133511252Y-17265000D01*
X132988748Y-18735000D02*
X133511252Y-18735000D01*
%TO.C,RPG1*%
X107762742Y-21477500D02*
X108237258Y-21477500D01*
X107762742Y-22522500D02*
X108237258Y-22522500D01*
%TO.C,C13*%
X100890580Y-112490000D02*
X100609420Y-112490000D01*
X100890580Y-113510000D02*
X100609420Y-113510000D01*
%TO.C,F2*%
X61702936Y-85245000D02*
X62907064Y-85245000D01*
X61702936Y-87065000D02*
X62907064Y-87065000D01*
%TO.C,RFB2*%
X97767742Y-46232500D02*
X98242258Y-46232500D01*
X97767742Y-47277500D02*
X98242258Y-47277500D01*
%TO.C,RG1*%
X21762742Y-25977500D02*
X22237258Y-25977500D01*
X21762742Y-27022500D02*
X22237258Y-27022500D01*
%TO.C,R43*%
X117762742Y-114477500D02*
X118237258Y-114477500D01*
X117762742Y-115522500D02*
X118237258Y-115522500D01*
%TO.C,R53*%
X48267742Y-97732500D02*
X48742258Y-97732500D01*
X48267742Y-98777500D02*
X48742258Y-98777500D01*
%TO.C,J12*%
D12*
X65950000Y-101950000D02*
X65950000Y-102400000D01*
X65950000Y-101950000D02*
X66400000Y-101950000D01*
X66500000Y-102500000D02*
X66500000Y-111500000D01*
X66500000Y-102500000D02*
X75500000Y-102500000D01*
X66500000Y-111500000D02*
X75500000Y-111500000D01*
X70300000Y-102500000D02*
X71000000Y-103100000D01*
X71000000Y-103100000D02*
X71700000Y-102500000D01*
X75500000Y-102500000D02*
X75500000Y-111500000D01*
%TO.C,C7*%
D10*
X86788748Y-55140000D02*
X88211252Y-55140000D01*
X86788748Y-57860000D02*
X88211252Y-57860000D01*
%TO.C,C41*%
X141740000Y-36340580D02*
X141740000Y-36059420D01*
X142760000Y-36340580D02*
X142760000Y-36059420D01*
%TO.C,U7*%
X129570000Y-21030000D02*
X129570000Y-22260000D01*
X129570000Y-21030000D02*
X131600000Y-21030000D01*
X129770000Y-21230000D02*
X129770000Y-31230000D01*
X129770000Y-31230000D02*
X149470000Y-31230000D01*
X149470000Y-21230000D02*
X129770000Y-21230000D01*
X149470000Y-31230000D02*
X149470000Y-21230000D01*
%TO.C,D2*%
D12*
X147950001Y-50950001D02*
X147950001Y-51400001D01*
X147950001Y-50950001D02*
X148400001Y-50950001D01*
X148500000Y-51500000D02*
X151500000Y-51500000D01*
X148500000Y-52800000D02*
X148500000Y-53200000D01*
X148500000Y-54500000D02*
X151500000Y-54500000D01*
X149700000Y-52150000D02*
X150300000Y-52150000D01*
X150000000Y-51850000D02*
X150000000Y-52450000D01*
X151500000Y-52800000D02*
X151500000Y-53200000D01*
%TO.C,Q2*%
D10*
X33005000Y-18315000D02*
X27005000Y-18315000D01*
X33005000Y-23640000D02*
X27005000Y-23640000D01*
X26318173Y-19090000D02*
X25988173Y-19330000D01*
X25988173Y-18850000D01*
X26318173Y-19090000D01*
G36*
X26318173Y-19090000D02*
G01*
X25988173Y-19330000D01*
X25988173Y-18850000D01*
X26318173Y-19090000D01*
G37*
%TO.C,R56*%
X127762742Y-113477500D02*
X128237258Y-113477500D01*
X127762742Y-114522500D02*
X128237258Y-114522500D01*
%TO.C,F1*%
D12*
X18200000Y-10850000D02*
X18200000Y-11300000D01*
X18200000Y-10850000D02*
X18650001Y-10850000D01*
X20650001Y-11400000D02*
X23349999Y-11400000D01*
X20650001Y-14600000D02*
X23349999Y-14600000D01*
%TO.C,RUV3*%
D10*
X17762742Y-29977500D02*
X18237258Y-29977500D01*
X17762742Y-31022500D02*
X18237258Y-31022500D01*
%TO.C,R44*%
X61267742Y-91232500D02*
X61742258Y-91232500D01*
X61267742Y-92277500D02*
X61742258Y-92277500D01*
%TO.C,R33*%
X111762742Y-117477500D02*
X112237258Y-117477500D01*
X111762742Y-118522500D02*
X112237258Y-118522500D01*
%TO.C,J6*%
D12*
X144450000Y-70950000D02*
X144450000Y-71400000D01*
X144450000Y-70950000D02*
X144900000Y-70950000D01*
X145000000Y-71500000D02*
X145000000Y-80500000D01*
X145000000Y-71500000D02*
X154000000Y-71500000D01*
X145000000Y-80500000D02*
X154000000Y-80500000D01*
X148800000Y-71500000D02*
X149500000Y-72100000D01*
X149500000Y-72100000D02*
X150200000Y-71500000D01*
X154000000Y-71500000D02*
X154000000Y-80500000D01*
%TO.C,R37*%
D10*
X99762742Y-122477500D02*
X100237258Y-122477500D01*
X99762742Y-123522500D02*
X100237258Y-123522500D01*
%TO.C,U5*%
X98890000Y-95890000D02*
X99590000Y-95890000D01*
X98890000Y-96590000D02*
X98890000Y-95890000D01*
X98890000Y-110110000D02*
X98890000Y-109410000D01*
X99590000Y-110110000D02*
X98890000Y-110110000D01*
X112410000Y-95890000D02*
X113110000Y-95890000D01*
X113110000Y-95890000D02*
X113110000Y-96590000D01*
X113110000Y-109410000D02*
X113110000Y-110110000D01*
X113110000Y-110110000D02*
X112410000Y-110110000D01*
X98250000Y-96590000D02*
X97910000Y-96120000D01*
X98590000Y-96120000D01*
X98250000Y-96590000D01*
G36*
X98250000Y-96590000D02*
G01*
X97910000Y-96120000D01*
X98590000Y-96120000D01*
X98250000Y-96590000D01*
G37*
%TO.C,R54*%
X117762742Y-110477500D02*
X118237258Y-110477500D01*
X117762742Y-111522500D02*
X118237258Y-111522500D01*
%TO.C,R31*%
X103762742Y-117477500D02*
X104237258Y-117477500D01*
X103762742Y-118522500D02*
X104237258Y-118522500D01*
%TO.C,C16*%
X100109420Y-92490000D02*
X100390580Y-92490000D01*
X100109420Y-93510000D02*
X100390580Y-93510000D01*
%TO.C,CSS4*%
X105864420Y-46245000D02*
X106145580Y-46245000D01*
X105864420Y-47265000D02*
X106145580Y-47265000D01*
%TO.C,C1*%
X30288748Y-34640000D02*
X31711252Y-34640000D01*
X30288748Y-37360000D02*
X31711252Y-37360000D01*
%TO.C,C40*%
X127240000Y-36340580D02*
X127240000Y-36059420D01*
X128260000Y-36340580D02*
X128260000Y-36059420D01*
%TO.C,CY2*%
X91859420Y-105990000D02*
X92140580Y-105990000D01*
X91859420Y-107010000D02*
X92140580Y-107010000D01*
%TO.C,TP8*%
X104950000Y-82000000D02*
G75*
G02*
X103050000Y-82000000I-950000J0D01*
G01*
X103050000Y-82000000D02*
G75*
G02*
X104950000Y-82000000I950000J0D01*
G01*
%TO.C,U3*%
D12*
X109275000Y-9275000D02*
X109275000Y-9725001D01*
X109275000Y-9275000D02*
X109725001Y-9275000D01*
X109825000Y-9825000D02*
X109825000Y-10200000D01*
X109825000Y-9825000D02*
X110200000Y-9825000D01*
X109825000Y-13450000D02*
X109825000Y-13825000D01*
X109825000Y-13825000D02*
X110200000Y-13825000D01*
X113450000Y-9825000D02*
X113825000Y-9825000D01*
X113450000Y-13825000D02*
X113825000Y-13825000D01*
X113825000Y-9825000D02*
X113825000Y-10200000D01*
X113825000Y-13450000D02*
X113825000Y-13825000D01*
%TO.C,C3*%
D10*
X86670000Y-24460000D02*
X99330000Y-24460000D01*
X86670000Y-24500000D02*
X99330000Y-24500000D01*
X86671000Y-24380000D02*
X99329000Y-24380000D01*
X86671000Y-24420000D02*
X99329000Y-24420000D01*
X86672000Y-24340000D02*
X99328000Y-24340000D01*
X86673000Y-24300000D02*
X99327000Y-24300000D01*
X86675000Y-24260000D02*
X99325000Y-24260000D01*
X86676000Y-24220000D02*
X99324000Y-24220000D01*
X86678000Y-24180000D02*
X99322000Y-24180000D01*
X86680000Y-24140000D02*
X99320000Y-24140000D01*
X86683000Y-24100000D02*
X99317000Y-24100000D01*
X86685000Y-24060000D02*
X99315000Y-24060000D01*
X86688000Y-24020000D02*
X99312000Y-24020000D01*
X86691000Y-23980000D02*
X99309000Y-23980000D01*
X86695000Y-23940000D02*
X99305000Y-23940000D01*
X86698000Y-23900000D02*
X99302000Y-23900000D01*
X86702000Y-23860000D02*
X99298000Y-23860000D01*
X86706000Y-23820000D02*
X99294000Y-23820000D01*
X86711000Y-23780000D02*
X99289000Y-23780000D01*
X86716000Y-23740000D02*
X99284000Y-23740000D01*
X86720000Y-23700000D02*
X99280000Y-23700000D01*
X86726000Y-23660000D02*
X99274000Y-23660000D01*
X86731000Y-23620000D02*
X99269000Y-23620000D01*
X86737000Y-23580000D02*
X99263000Y-23580000D01*
X86743000Y-23540000D02*
X99257000Y-23540000D01*
X86749000Y-23500000D02*
X99251000Y-23500000D01*
X86755000Y-23460000D02*
X99245000Y-23460000D01*
X86762000Y-23420000D02*
X91560000Y-23420000D01*
X86769000Y-23380000D02*
X91560000Y-23380000D01*
X86777000Y-23340000D02*
X91560000Y-23340000D01*
X86784000Y-23300000D02*
X91560000Y-23300000D01*
X86792000Y-23260000D02*
X91560000Y-23260000D01*
X86800000Y-23220000D02*
X91560000Y-23220000D01*
X86808000Y-23180000D02*
X91560000Y-23180000D01*
X86817000Y-23140000D02*
X91560000Y-23140000D01*
X86826000Y-23100000D02*
X91560000Y-23100000D01*
X86835000Y-23060000D02*
X91560000Y-23060000D01*
X86844000Y-23020000D02*
X91560000Y-23020000D01*
X86854000Y-22980000D02*
X91560000Y-22980000D01*
X86864000Y-22940000D02*
X91560000Y-22940000D01*
X86874000Y-22900000D02*
X91560000Y-22900000D01*
X86885000Y-22860000D02*
X91560000Y-22860000D01*
X86896000Y-22820000D02*
X91560000Y-22820000D01*
X86907000Y-22780000D02*
X91560000Y-22780000D01*
X86918000Y-22740000D02*
X91560000Y-22740000D01*
X86930000Y-22700000D02*
X91560000Y-22700000D01*
X86942000Y-22660000D02*
X91560000Y-22660000D01*
X86954000Y-22620000D02*
X91560000Y-22620000D01*
X86966000Y-22580000D02*
X91560000Y-22580000D01*
X86979000Y-22540000D02*
X91560000Y-22540000D01*
X86992000Y-22500000D02*
X91560000Y-22500000D01*
X87005000Y-22460000D02*
X91560000Y-22460000D01*
X87019000Y-22420000D02*
X91560000Y-22420000D01*
X87033000Y-22380000D02*
X91560000Y-22380000D01*
X87047000Y-22340000D02*
X91560000Y-22340000D01*
X87062000Y-22300000D02*
X91560000Y-22300000D01*
X87077000Y-22260000D02*
X91560000Y-22260000D01*
X87092000Y-22220000D02*
X91560000Y-22220000D01*
X87108000Y-22180000D02*
X91560000Y-22180000D01*
X87123000Y-22140000D02*
X91560000Y-22140000D01*
X87139000Y-22100000D02*
X91560000Y-22100000D01*
X87156000Y-22060000D02*
X91560000Y-22060000D01*
X87173000Y-22020000D02*
X91560000Y-22020000D01*
X87190000Y-21980000D02*
X91560000Y-21980000D01*
X87207000Y-21940000D02*
X91560000Y-21940000D01*
X87225000Y-21900000D02*
X91560000Y-21900000D01*
X87243000Y-21860000D02*
X91560000Y-21860000D01*
X87261000Y-21820000D02*
X91560000Y-21820000D01*
X87280000Y-21780000D02*
X91560000Y-21780000D01*
X87299000Y-21740000D02*
X91560000Y-21740000D01*
X87318000Y-21700000D02*
X91560000Y-21700000D01*
X87338000Y-21660000D02*
X91560000Y-21660000D01*
X87358000Y-21620000D02*
X91560000Y-21620000D01*
X87379000Y-21580000D02*
X91560000Y-21580000D01*
X87399000Y-21540000D02*
X91560000Y-21540000D01*
X87421000Y-21500000D02*
X91560000Y-21500000D01*
X87442000Y-21460000D02*
X91560000Y-21460000D01*
X87464000Y-21420000D02*
X91560000Y-21420000D01*
X87486000Y-21380000D02*
X91560000Y-21380000D01*
X87509000Y-21340000D02*
X91560000Y-21340000D01*
X87532000Y-21300000D02*
X91560000Y-21300000D01*
X87556000Y-21260000D02*
X91560000Y-21260000D01*
X87579000Y-21220000D02*
X91560000Y-21220000D01*
X87604000Y-21180000D02*
X91560000Y-21180000D01*
X87628000Y-21140000D02*
X91560000Y-21140000D01*
X87653000Y-21100000D02*
X91560000Y-21100000D01*
X87679000Y-21060000D02*
X91560000Y-21060000D01*
X87705000Y-21020000D02*
X91560000Y-21020000D01*
X87731000Y-20980000D02*
X91560000Y-20980000D01*
X87758000Y-20940000D02*
X91560000Y-20940000D01*
X87785000Y-20900000D02*
X91560000Y-20900000D01*
X87812000Y-20860000D02*
X91560000Y-20860000D01*
X87841000Y-20820000D02*
X91560000Y-20820000D01*
X87869000Y-20780000D02*
X91560000Y-20780000D01*
X87898000Y-20740000D02*
X91560000Y-20740000D01*
X87928000Y-20700000D02*
X91560000Y-20700000D01*
X87958000Y-20660000D02*
X91560000Y-20660000D01*
X87988000Y-20620000D02*
X91560000Y-20620000D01*
X88019000Y-20580000D02*
X91560000Y-20580000D01*
X88050000Y-20540000D02*
X97950000Y-20540000D01*
X88082000Y-20500000D02*
X97918000Y-20500000D01*
X88115000Y-20460000D02*
X97885000Y-20460000D01*
X88148000Y-20420000D02*
X97852000Y-20420000D01*
X88182000Y-20380000D02*
X97818000Y-20380000D01*
X88216000Y-20340000D02*
X97784000Y-20340000D01*
X88251000Y-20300000D02*
X97749000Y-20300000D01*
X88286000Y-20260000D02*
X97714000Y-20260000D01*
X88322000Y-20220000D02*
X97678000Y-20220000D01*
X88359000Y-20180000D02*
X97641000Y-20180000D01*
X88396000Y-20140000D02*
X97604000Y-20140000D01*
X88434000Y-20100000D02*
X97566000Y-20100000D01*
X88472000Y-20060000D02*
X97528000Y-20060000D01*
X88512000Y-20020000D02*
X97488000Y-20020000D01*
X88552000Y-19980000D02*
X97448000Y-19980000D01*
X88592000Y-19940000D02*
X97408000Y-19940000D01*
X88634000Y-19900000D02*
X97366000Y-19900000D01*
X88676000Y-19860000D02*
X97324000Y-19860000D01*
X88719000Y-19820000D02*
X97281000Y-19820000D01*
X88762000Y-19780000D02*
X97238000Y-19780000D01*
X88800000Y-30692082D02*
X90050000Y-30692082D01*
X88807000Y-19740000D02*
X97193000Y-19740000D01*
X88852000Y-19700000D02*
X97148000Y-19700000D01*
X88899000Y-19660000D02*
X97101000Y-19660000D01*
X88946000Y-19620000D02*
X97054000Y-19620000D01*
X88994000Y-19580000D02*
X97006000Y-19580000D01*
X89043000Y-19540000D02*
X96957000Y-19540000D01*
X89093000Y-19500000D02*
X96907000Y-19500000D01*
X89144000Y-19460000D02*
X96856000Y-19460000D01*
X89197000Y-19420000D02*
X96803000Y-19420000D01*
X89250000Y-19380000D02*
X96750000Y-19380000D01*
X89305000Y-19340000D02*
X96695000Y-19340000D01*
X89361000Y-19300000D02*
X96639000Y-19300000D01*
X89418000Y-19260000D02*
X96582000Y-19260000D01*
X89425000Y-31317082D02*
X89425000Y-30067082D01*
X89477000Y-19220000D02*
X96523000Y-19220000D01*
X89537000Y-19180000D02*
X96463000Y-19180000D01*
X89598000Y-19140000D02*
X96402000Y-19140000D01*
X89661000Y-19100000D02*
X96339000Y-19100000D01*
X89726000Y-19060000D02*
X96274000Y-19060000D01*
X89792000Y-19020000D02*
X96208000Y-19020000D01*
X89861000Y-18980000D02*
X96139000Y-18980000D01*
X89931000Y-18940000D02*
X96069000Y-18940000D01*
X90004000Y-18900000D02*
X95996000Y-18900000D01*
X90079000Y-18860000D02*
X95921000Y-18860000D01*
X90157000Y-18820000D02*
X95843000Y-18820000D01*
X90237000Y-18780000D02*
X95763000Y-18780000D01*
X90320000Y-18740000D02*
X95680000Y-18740000D01*
X90406000Y-18700000D02*
X95594000Y-18700000D01*
X90496000Y-18660000D02*
X95504000Y-18660000D01*
X90590000Y-18620000D02*
X95410000Y-18620000D01*
X90688000Y-18580000D02*
X95312000Y-18580000D01*
X90792000Y-18540000D02*
X95208000Y-18540000D01*
X90901000Y-18500000D02*
X95099000Y-18500000D01*
X91016000Y-18460000D02*
X94984000Y-18460000D01*
X91140000Y-18420000D02*
X94860000Y-18420000D01*
X91273000Y-18380000D02*
X94727000Y-18380000D01*
X91418000Y-18340000D02*
X94582000Y-18340000D01*
X91578000Y-18300000D02*
X94422000Y-18300000D01*
X91760000Y-18260000D02*
X94240000Y-18260000D01*
X91973000Y-18220000D02*
X94027000Y-18220000D01*
X92243000Y-18180000D02*
X93757000Y-18180000D01*
X92683000Y-18140000D02*
X93317000Y-18140000D01*
X94440000Y-20580000D02*
X97981000Y-20580000D01*
X94440000Y-20620000D02*
X98012000Y-20620000D01*
X94440000Y-20660000D02*
X98042000Y-20660000D01*
X94440000Y-20700000D02*
X98072000Y-20700000D01*
X94440000Y-20740000D02*
X98102000Y-20740000D01*
X94440000Y-20780000D02*
X98131000Y-20780000D01*
X94440000Y-20820000D02*
X98159000Y-20820000D01*
X94440000Y-20860000D02*
X98188000Y-20860000D01*
X94440000Y-20900000D02*
X98215000Y-20900000D01*
X94440000Y-20940000D02*
X98242000Y-20940000D01*
X94440000Y-20980000D02*
X98269000Y-20980000D01*
X94440000Y-21020000D02*
X98295000Y-21020000D01*
X94440000Y-21060000D02*
X98321000Y-21060000D01*
X94440000Y-21100000D02*
X98347000Y-21100000D01*
X94440000Y-21140000D02*
X98372000Y-21140000D01*
X94440000Y-21180000D02*
X98396000Y-21180000D01*
X94440000Y-21220000D02*
X98421000Y-21220000D01*
X94440000Y-21260000D02*
X98444000Y-21260000D01*
X94440000Y-21300000D02*
X98468000Y-21300000D01*
X94440000Y-21340000D02*
X98491000Y-21340000D01*
X94440000Y-21380000D02*
X98514000Y-21380000D01*
X94440000Y-21420000D02*
X98536000Y-21420000D01*
X94440000Y-21460000D02*
X98558000Y-21460000D01*
X94440000Y-21500000D02*
X98579000Y-21500000D01*
X94440000Y-21540000D02*
X98601000Y-21540000D01*
X94440000Y-21580000D02*
X98621000Y-21580000D01*
X94440000Y-21620000D02*
X98642000Y-21620000D01*
X94440000Y-21660000D02*
X98662000Y-21660000D01*
X94440000Y-21700000D02*
X98682000Y-21700000D01*
X94440000Y-21740000D02*
X98701000Y-21740000D01*
X94440000Y-21780000D02*
X98720000Y-21780000D01*
X94440000Y-21820000D02*
X98739000Y-21820000D01*
X94440000Y-21860000D02*
X98757000Y-21860000D01*
X94440000Y-21900000D02*
X98775000Y-21900000D01*
X94440000Y-21940000D02*
X98793000Y-21940000D01*
X94440000Y-21980000D02*
X98810000Y-21980000D01*
X94440000Y-22020000D02*
X98827000Y-22020000D01*
X94440000Y-22060000D02*
X98844000Y-22060000D01*
X94440000Y-22100000D02*
X98861000Y-22100000D01*
X94440000Y-22140000D02*
X98877000Y-22140000D01*
X94440000Y-22180000D02*
X98892000Y-22180000D01*
X94440000Y-22220000D02*
X98908000Y-22220000D01*
X94440000Y-22260000D02*
X98923000Y-22260000D01*
X94440000Y-22300000D02*
X98938000Y-22300000D01*
X94440000Y-22340000D02*
X98953000Y-22340000D01*
X94440000Y-22380000D02*
X98967000Y-22380000D01*
X94440000Y-22420000D02*
X98981000Y-22420000D01*
X94440000Y-22460000D02*
X98995000Y-22460000D01*
X94440000Y-22500000D02*
X99008000Y-22500000D01*
X94440000Y-22540000D02*
X99021000Y-22540000D01*
X94440000Y-22580000D02*
X99034000Y-22580000D01*
X94440000Y-22620000D02*
X99046000Y-22620000D01*
X94440000Y-22660000D02*
X99058000Y-22660000D01*
X94440000Y-22700000D02*
X99070000Y-22700000D01*
X94440000Y-22740000D02*
X99082000Y-22740000D01*
X94440000Y-22780000D02*
X99093000Y-22780000D01*
X94440000Y-22820000D02*
X99104000Y-22820000D01*
X94440000Y-22860000D02*
X99115000Y-22860000D01*
X94440000Y-22900000D02*
X99126000Y-22900000D01*
X94440000Y-22940000D02*
X99136000Y-22940000D01*
X94440000Y-22980000D02*
X99146000Y-22980000D01*
X94440000Y-23020000D02*
X99156000Y-23020000D01*
X94440000Y-23060000D02*
X99165000Y-23060000D01*
X94440000Y-23100000D02*
X99174000Y-23100000D01*
X94440000Y-23140000D02*
X99183000Y-23140000D01*
X94440000Y-23180000D02*
X99192000Y-23180000D01*
X94440000Y-23220000D02*
X99200000Y-23220000D01*
X94440000Y-23260000D02*
X99208000Y-23260000D01*
X94440000Y-23300000D02*
X99216000Y-23300000D01*
X94440000Y-23340000D02*
X99223000Y-23340000D01*
X94440000Y-23380000D02*
X99231000Y-23380000D01*
X94440000Y-23420000D02*
X99238000Y-23420000D01*
X99370000Y-24500000D02*
G75*
G02*
X86630000Y-24500000I-6370000J0D01*
G01*
X86630000Y-24500000D02*
G75*
G02*
X99370000Y-24500000I6370000J0D01*
G01*
%TO.C,U4*%
D12*
X86275000Y-46275000D02*
X86275000Y-46725001D01*
X86275000Y-46275000D02*
X86725001Y-46275000D01*
X86825000Y-46825000D02*
X87375002Y-46825000D01*
X86825000Y-52825000D02*
X87375000Y-52825000D01*
X90274998Y-52825000D02*
X90825000Y-52825000D01*
X90275000Y-46825000D02*
X90825000Y-46825000D01*
%TO.C,RFB1*%
D10*
X93767742Y-46232500D02*
X94242258Y-46232500D01*
X93767742Y-47277500D02*
X94242258Y-47277500D01*
%TO.C,C5*%
X116020354Y-17625000D02*
X117020354Y-17625000D01*
X116520354Y-17125000D02*
X116520354Y-18125000D01*
X121500000Y-15420000D02*
X121500000Y-25580000D01*
X121540000Y-15420000D02*
X121540000Y-25580000D01*
X121580000Y-15421000D02*
X121580000Y-25579000D01*
X121620000Y-15421000D02*
X121620000Y-25579000D01*
X121660000Y-15423000D02*
X121660000Y-25577000D01*
X121700000Y-15424000D02*
X121700000Y-25576000D01*
X121740000Y-15426000D02*
X121740000Y-25574000D01*
X121780000Y-15428000D02*
X121780000Y-25572000D01*
X121820000Y-15430000D02*
X121820000Y-25570000D01*
X121860000Y-15433000D02*
X121860000Y-25567000D01*
X121900000Y-15436000D02*
X121900000Y-25564000D01*
X121940000Y-15439000D02*
X121940000Y-25561000D01*
X121980000Y-15443000D02*
X121980000Y-25557000D01*
X122020000Y-15446000D02*
X122020000Y-25554000D01*
X122060000Y-15451000D02*
X122060000Y-25549000D01*
X122100000Y-15455000D02*
X122100000Y-25545000D01*
X122140000Y-15460000D02*
X122140000Y-25540000D01*
X122180000Y-15465000D02*
X122180000Y-25535000D01*
X122220000Y-15471000D02*
X122220000Y-25529000D01*
X122260000Y-15477000D02*
X122260000Y-25523000D01*
X122300000Y-15483000D02*
X122300000Y-25517000D01*
X122340000Y-15489000D02*
X122340000Y-25511000D01*
X122380000Y-15496000D02*
X122380000Y-25504000D01*
X122420000Y-15503000D02*
X122420000Y-25497000D01*
X122460000Y-15511000D02*
X122460000Y-25489000D01*
X122500000Y-15519000D02*
X122500000Y-25481000D01*
X122540000Y-15527000D02*
X122540000Y-25473000D01*
X122580000Y-15535000D02*
X122580000Y-25465000D01*
X122620000Y-15544000D02*
X122620000Y-25456000D01*
X122660000Y-15553000D02*
X122660000Y-25447000D01*
X122700000Y-15563000D02*
X122700000Y-25437000D01*
X122740000Y-15572000D02*
X122740000Y-25428000D01*
X122780000Y-15583000D02*
X122780000Y-19260000D01*
X122780000Y-21740000D02*
X122780000Y-25417000D01*
X122820000Y-15593000D02*
X122820000Y-19260000D01*
X122820000Y-21740000D02*
X122820000Y-25407000D01*
X122860000Y-15604000D02*
X122860000Y-19260000D01*
X122860000Y-21740000D02*
X122860000Y-25396000D01*
X122900000Y-15615000D02*
X122900000Y-19260000D01*
X122900000Y-21740000D02*
X122900000Y-25385000D01*
X122940000Y-15627000D02*
X122940000Y-19260000D01*
X122940000Y-21740000D02*
X122940000Y-25373000D01*
X122980000Y-15639000D02*
X122980000Y-19260000D01*
X122980000Y-21740000D02*
X122980000Y-25361000D01*
X123020000Y-15651000D02*
X123020000Y-19260000D01*
X123020000Y-21740000D02*
X123020000Y-25349000D01*
X123060000Y-15663000D02*
X123060000Y-19260000D01*
X123060000Y-21740000D02*
X123060000Y-25337000D01*
X123100000Y-15676000D02*
X123100000Y-19260000D01*
X123100000Y-21740000D02*
X123100000Y-25324000D01*
X123140000Y-15690000D02*
X123140000Y-19260000D01*
X123140000Y-21740000D02*
X123140000Y-25310000D01*
X123180000Y-15703000D02*
X123180000Y-19260000D01*
X123180000Y-21740000D02*
X123180000Y-25297000D01*
X123220000Y-15718000D02*
X123220000Y-19260000D01*
X123220000Y-21740000D02*
X123220000Y-25282000D01*
X123260000Y-15732000D02*
X123260000Y-19260000D01*
X123260000Y-21740000D02*
X123260000Y-25268000D01*
X123300000Y-15747000D02*
X123300000Y-19260000D01*
X123300000Y-21740000D02*
X123300000Y-25253000D01*
X123340000Y-15762000D02*
X123340000Y-19260000D01*
X123340000Y-21740000D02*
X123340000Y-25238000D01*
X123380000Y-15778000D02*
X123380000Y-19260000D01*
X123380000Y-21740000D02*
X123380000Y-25222000D01*
X123420000Y-15794000D02*
X123420000Y-19260000D01*
X123420000Y-21740000D02*
X123420000Y-25206000D01*
X123460000Y-15810000D02*
X123460000Y-19260000D01*
X123460000Y-21740000D02*
X123460000Y-25190000D01*
X123500000Y-15827000D02*
X123500000Y-19260000D01*
X123500000Y-21740000D02*
X123500000Y-25173000D01*
X123540000Y-15844000D02*
X123540000Y-19260000D01*
X123540000Y-21740000D02*
X123540000Y-25156000D01*
X123580000Y-15862000D02*
X123580000Y-19260000D01*
X123580000Y-21740000D02*
X123580000Y-25138000D01*
X123620000Y-15880000D02*
X123620000Y-19260000D01*
X123620000Y-21740000D02*
X123620000Y-25120000D01*
X123660000Y-15898000D02*
X123660000Y-19260000D01*
X123660000Y-21740000D02*
X123660000Y-25102000D01*
X123700000Y-15917000D02*
X123700000Y-19260000D01*
X123700000Y-21740000D02*
X123700000Y-25083000D01*
X123740000Y-15936000D02*
X123740000Y-19260000D01*
X123740000Y-21740000D02*
X123740000Y-25064000D01*
X123780000Y-15956000D02*
X123780000Y-19260000D01*
X123780000Y-21740000D02*
X123780000Y-25044000D01*
X123820000Y-15976000D02*
X123820000Y-19260000D01*
X123820000Y-21740000D02*
X123820000Y-25024000D01*
X123860000Y-15996000D02*
X123860000Y-19260000D01*
X123860000Y-21740000D02*
X123860000Y-25004000D01*
X123900000Y-16017000D02*
X123900000Y-19260000D01*
X123900000Y-21740000D02*
X123900000Y-24983000D01*
X123940000Y-16039000D02*
X123940000Y-19260000D01*
X123940000Y-21740000D02*
X123940000Y-24961000D01*
X123980000Y-16061000D02*
X123980000Y-19260000D01*
X123980000Y-21740000D02*
X123980000Y-24939000D01*
X124020000Y-16083000D02*
X124020000Y-19260000D01*
X124020000Y-21740000D02*
X124020000Y-24917000D01*
X124060000Y-16106000D02*
X124060000Y-19260000D01*
X124060000Y-21740000D02*
X124060000Y-24894000D01*
X124100000Y-16129000D02*
X124100000Y-19260000D01*
X124100000Y-21740000D02*
X124100000Y-24871000D01*
X124140000Y-16153000D02*
X124140000Y-19260000D01*
X124140000Y-21740000D02*
X124140000Y-24847000D01*
X124180000Y-16177000D02*
X124180000Y-19260000D01*
X124180000Y-21740000D02*
X124180000Y-24823000D01*
X124220000Y-16202000D02*
X124220000Y-19260000D01*
X124220000Y-21740000D02*
X124220000Y-24798000D01*
X124260000Y-16228000D02*
X124260000Y-19260000D01*
X124260000Y-21740000D02*
X124260000Y-24772000D01*
X124300000Y-16253000D02*
X124300000Y-19260000D01*
X124300000Y-21740000D02*
X124300000Y-24747000D01*
X124340000Y-16280000D02*
X124340000Y-19260000D01*
X124340000Y-21740000D02*
X124340000Y-24720000D01*
X124380000Y-16307000D02*
X124380000Y-19260000D01*
X124380000Y-21740000D02*
X124380000Y-24693000D01*
X124420000Y-16334000D02*
X124420000Y-19260000D01*
X124420000Y-21740000D02*
X124420000Y-24666000D01*
X124460000Y-16362000D02*
X124460000Y-19260000D01*
X124460000Y-21740000D02*
X124460000Y-24638000D01*
X124500000Y-16391000D02*
X124500000Y-19260000D01*
X124500000Y-21740000D02*
X124500000Y-24609000D01*
X124540000Y-16420000D02*
X124540000Y-19260000D01*
X124540000Y-21740000D02*
X124540000Y-24580000D01*
X124580000Y-16450000D02*
X124580000Y-19260000D01*
X124580000Y-21740000D02*
X124580000Y-24550000D01*
X124620000Y-16480000D02*
X124620000Y-19260000D01*
X124620000Y-21740000D02*
X124620000Y-24520000D01*
X124660000Y-16512000D02*
X124660000Y-19260000D01*
X124660000Y-21740000D02*
X124660000Y-24488000D01*
X124700000Y-16543000D02*
X124700000Y-19260000D01*
X124700000Y-21740000D02*
X124700000Y-24457000D01*
X124740000Y-16576000D02*
X124740000Y-19260000D01*
X124740000Y-21740000D02*
X124740000Y-24424000D01*
X124780000Y-16609000D02*
X124780000Y-19260000D01*
X124780000Y-21740000D02*
X124780000Y-24391000D01*
X124820000Y-16642000D02*
X124820000Y-19260000D01*
X124820000Y-21740000D02*
X124820000Y-24358000D01*
X124860000Y-16677000D02*
X124860000Y-19260000D01*
X124860000Y-21740000D02*
X124860000Y-24323000D01*
X124900000Y-16712000D02*
X124900000Y-19260000D01*
X124900000Y-21740000D02*
X124900000Y-24288000D01*
X124940000Y-16748000D02*
X124940000Y-19260000D01*
X124940000Y-21740000D02*
X124940000Y-24252000D01*
X124980000Y-16784000D02*
X124980000Y-19260000D01*
X124980000Y-21740000D02*
X124980000Y-24216000D01*
X125020000Y-16822000D02*
X125020000Y-19260000D01*
X125020000Y-21740000D02*
X125020000Y-24178000D01*
X125060000Y-16860000D02*
X125060000Y-19260000D01*
X125060000Y-21740000D02*
X125060000Y-24140000D01*
X125100000Y-16899000D02*
X125100000Y-19260000D01*
X125100000Y-21740000D02*
X125100000Y-24101000D01*
X125140000Y-16939000D02*
X125140000Y-19260000D01*
X125140000Y-21740000D02*
X125140000Y-24061000D01*
X125180000Y-16980000D02*
X125180000Y-19260000D01*
X125180000Y-21740000D02*
X125180000Y-24020000D01*
X125220000Y-17022000D02*
X125220000Y-19260000D01*
X125220000Y-21740000D02*
X125220000Y-23978000D01*
X125260000Y-17065000D02*
X125260000Y-23935000D01*
X125300000Y-17109000D02*
X125300000Y-23891000D01*
X125340000Y-17153000D02*
X125340000Y-23847000D01*
X125380000Y-17199000D02*
X125380000Y-23801000D01*
X125420000Y-17246000D02*
X125420000Y-23754000D01*
X125460000Y-17295000D02*
X125460000Y-23705000D01*
X125500000Y-17344000D02*
X125500000Y-23656000D01*
X125540000Y-17395000D02*
X125540000Y-23605000D01*
X125580000Y-17447000D02*
X125580000Y-23553000D01*
X125620000Y-17500000D02*
X125620000Y-23500000D01*
X125660000Y-17555000D02*
X125660000Y-23445000D01*
X125700000Y-17612000D02*
X125700000Y-23388000D01*
X125740000Y-17670000D02*
X125740000Y-23330000D01*
X125780000Y-17730000D02*
X125780000Y-23270000D01*
X125820000Y-17792000D02*
X125820000Y-23208000D01*
X125860000Y-17856000D02*
X125860000Y-23144000D01*
X125900000Y-17922000D02*
X125900000Y-23078000D01*
X125940000Y-17990000D02*
X125940000Y-23010000D01*
X125980000Y-18061000D02*
X125980000Y-22939000D01*
X126020000Y-18135000D02*
X126020000Y-22865000D01*
X126060000Y-18212000D02*
X126060000Y-22788000D01*
X126100000Y-18292000D02*
X126100000Y-22708000D01*
X126140000Y-18376000D02*
X126140000Y-22624000D01*
X126180000Y-18463000D02*
X126180000Y-22537000D01*
X126220000Y-18556000D02*
X126220000Y-22444000D01*
X126260000Y-18654000D02*
X126260000Y-22346000D01*
X126300000Y-18758000D02*
X126300000Y-22242000D01*
X126340000Y-18870000D02*
X126340000Y-22130000D01*
X126380000Y-18991000D02*
X126380000Y-22009000D01*
X126420000Y-19123000D02*
X126420000Y-21877000D01*
X126460000Y-19270000D02*
X126460000Y-21730000D01*
X126500000Y-19438000D02*
X126500000Y-21562000D01*
X126540000Y-19638000D02*
X126540000Y-21362000D01*
X126580000Y-19901000D02*
X126580000Y-21099000D01*
X126620000Y-20500000D02*
G75*
G02*
X116380000Y-20500000I-5120000J0D01*
G01*
X116380000Y-20500000D02*
G75*
G02*
X126620000Y-20500000I5120000J0D01*
G01*
%TO.C,C6*%
X91288748Y-42140000D02*
X92711252Y-42140000D01*
X91288748Y-44860000D02*
X92711252Y-44860000D01*
%TO.C,J1*%
D12*
X5950000Y-9450000D02*
X5950000Y-9900000D01*
X5950000Y-9450000D02*
X6400000Y-9450000D01*
X6500000Y-10000000D02*
X6500000Y-19000000D01*
X6500000Y-10000000D02*
X15500000Y-10000000D01*
X6500000Y-19000000D02*
X15500000Y-19000000D01*
X10300000Y-10000000D02*
X11000000Y-10600000D01*
X11000000Y-10600000D02*
X11700000Y-10000000D01*
X15500000Y-10000000D02*
X15500000Y-19000000D01*
%TO.C,R34*%
D10*
X115762742Y-117477500D02*
X116237258Y-117477500D01*
X115762742Y-118522500D02*
X116237258Y-118522500D01*
%TO.C,R36*%
X123762742Y-117477500D02*
X124237258Y-117477500D01*
X123762742Y-118522500D02*
X124237258Y-118522500D01*
%TO.C,R55*%
X123762742Y-113477500D02*
X124237258Y-113477500D01*
X123762742Y-114522500D02*
X124237258Y-114522500D01*
%TO.C,J11*%
D12*
X47950000Y-101950000D02*
X47950000Y-102400000D01*
X47950000Y-101950000D02*
X48400000Y-101950000D01*
X48500000Y-102500000D02*
X48500000Y-111500000D01*
X48500000Y-102500000D02*
X57500000Y-102500000D01*
X48500000Y-111500000D02*
X57500000Y-111500000D01*
X52300000Y-102500000D02*
X53000000Y-103100000D01*
X53000000Y-103100000D02*
X53700000Y-102500000D01*
X57500000Y-102500000D02*
X57500000Y-111500000D01*
%TO.C,K2*%
X12450000Y-105450000D02*
X12450000Y-105900000D01*
X12450000Y-105450000D02*
X12900000Y-105450000D01*
X13000000Y-106000000D02*
X13000000Y-122000000D01*
X13000000Y-106000000D02*
X45000000Y-106000000D01*
X13000000Y-122000000D02*
X45000000Y-122000000D01*
X45000000Y-106000000D02*
X45000000Y-122000000D01*
%TO.C,C19*%
D10*
X121859420Y-110490000D02*
X122140580Y-110490000D01*
X121859420Y-111510000D02*
X122140580Y-111510000D01*
%TO.C,C2*%
X39390000Y-30084252D02*
X39390000Y-32915748D01*
X44610000Y-30084252D02*
X44610000Y-32915748D01*
%TO.C,R46*%
X101767742Y-46232500D02*
X102242258Y-46232500D01*
X101767742Y-47277500D02*
X102242258Y-47277500D01*
%TO.C,R49*%
X52267742Y-97732500D02*
X52742258Y-97732500D01*
X52267742Y-98777500D02*
X52742258Y-98777500D01*
%TO.C,C12*%
X94990000Y-108759420D02*
X94990000Y-109040580D01*
X96010000Y-108759420D02*
X96010000Y-109040580D01*
%TO.C,D4*%
X17640000Y-102500000D02*
X17640000Y-104500000D01*
X17640000Y-102500000D02*
X21650000Y-102500000D01*
X17640000Y-104500000D02*
X21650000Y-104500000D01*
%TO.C,R30*%
X99762742Y-117477500D02*
X100237258Y-117477500D01*
X99762742Y-118522500D02*
X100237258Y-118522500D01*
%TO.C,C17*%
X107738748Y-90765000D02*
X108261252Y-90765000D01*
X107738748Y-92235000D02*
X108261252Y-92235000D01*
%TO.C,C43*%
X144438748Y-17265000D02*
X144961252Y-17265000D01*
X144438748Y-18735000D02*
X144961252Y-18735000D01*
%TD*%
M02*
