%TF.GenerationSoftware,KiCad,Pcbnew,10.0.5*%
%TF.CreationDate,2026-08-07T15:50:59+08:00*%
%TF.ProjectId,controller,636f6e74-726f-46c6-9c65-722e6b696361,rev?*%
%TF.SameCoordinates,Original*%
%TF.FileFunction,Copper,L6,Bot*%
%TF.FilePolarity,Positive*%
%FSLAX46Y46*%
G04 Gerber Fmt 4.6, Leading zero omitted, Abs format (unit mm)*
G04 Created by KiCad (PCBNEW 10.0.5) date 2026-08-07 15:50:59*
%MOMM*%
%LPD*%
G01*
G04 APERTURE LIST*
%TA.AperFunction,ComponentPad*%
%ADD10C,2.400000*%
%TD*%
%TA.AperFunction,Conductor*%
%ADD11C,1.500000*%
%TD*%
G04 APERTURE END LIST*
D10*
%TO.P,J10,1*%
%TO.N,N/C*%
X145500000Y-110000000D03*
%TO.P,J10,2*%
X148500000Y-110000000D03*
%TO.P,J10,3*%
X151500000Y-110000000D03*
%TO.P,J10,4*%
X154500000Y-110000000D03*
%TD*%
%TO.P,U3,1*%
%TO.N,12V_ISO*%
X107500000Y-42000000D03*
%TO.P,U3,2*%
%TO.N,GND*%
X110500000Y-42000000D03*
%TO.P,U3,3*%
%TO.N,5V_JETSON*%
X113500000Y-42000000D03*
%TO.P,U3,4*%
%TO.N,GND*%
X116500000Y-42000000D03*
%TD*%
%TO.P,J6,1*%
%TO.N,CANH*%
X163500000Y-96000000D03*
%TO.P,J6,2*%
%TO.N,CANL*%
X166500000Y-96000000D03*
%TO.P,J6,3*%
%TO.N,GND*%
X169500000Y-96000000D03*
%TO.P,J6,4*%
%TO.N,N/C*%
X172500000Y-96000000D03*
%TD*%
%TO.P,U5,1*%
%TO.N,3V3_LOGIC*%
X134500000Y-64000000D03*
%TO.P,U5,2*%
X137500000Y-64000000D03*
%TO.P,U5,3*%
X140500000Y-64000000D03*
%TO.P,U5,4*%
X143500000Y-64000000D03*
%TO.P,U5,5*%
%TO.N,GND*%
X146500000Y-64000000D03*
%TO.P,U5,6*%
X149500000Y-64000000D03*
%TO.P,U5,7*%
X152500000Y-64000000D03*
%TO.P,U5,8*%
X155500000Y-64000000D03*
%TD*%
%TO.P,J2,1*%
%TO.N,12V_ISO*%
X67500000Y-82000000D03*
%TO.P,J2,2*%
X70500000Y-82000000D03*
%TO.P,J2,3*%
%TO.N,GND*%
X73500000Y-82000000D03*
%TO.P,J2,4*%
X76500000Y-82000000D03*
%TD*%
%TO.P,J3,1*%
%TO.N,5V_JETSON*%
X143500000Y-42000000D03*
%TO.P,J3,2*%
X146500000Y-42000000D03*
%TO.P,J3,3*%
%TO.N,GND*%
X149500000Y-42000000D03*
%TO.P,J3,4*%
X152500000Y-42000000D03*
%TD*%
%TO.P,U4,1*%
%TO.N,12V_ISO*%
X107500000Y-64000000D03*
%TO.P,U4,2*%
%TO.N,GND*%
X110500000Y-64000000D03*
%TO.P,U4,3*%
%TO.N,3V3_LOGIC*%
X113500000Y-64000000D03*
%TO.P,U4,4*%
%TO.N,GND*%
X116500000Y-64000000D03*
%TD*%
%TO.P,U6,1*%
%TO.N,3V3_LOGIC*%
X101500000Y-96000000D03*
%TO.P,U6,2*%
%TO.N,GND*%
X104500000Y-96000000D03*
%TO.P,U6,3*%
%TO.N,N/C*%
X107500000Y-96000000D03*
%TO.P,U6,4*%
X110500000Y-96000000D03*
%TO.P,U6,5*%
%TO.N,CANH*%
X113500000Y-96000000D03*
%TO.P,U6,6*%
%TO.N,CANL*%
X116500000Y-96000000D03*
%TO.P,U6,7*%
%TO.N,GND*%
X119500000Y-96000000D03*
%TO.P,U6,8*%
%TO.N,3V3_LOGIC*%
X122500000Y-96000000D03*
%TD*%
%TO.P,J5,1*%
%TO.N,CANH*%
X145500000Y-96000000D03*
%TO.P,J5,2*%
%TO.N,CANL*%
X148500000Y-96000000D03*
%TO.P,J5,3*%
%TO.N,GND*%
X151500000Y-96000000D03*
%TO.P,J5,4*%
%TO.N,N/C*%
X154500000Y-96000000D03*
%TD*%
%TO.P,U2,1*%
%TO.N,VBAT_FUSED*%
X80000000Y-35000000D03*
%TO.P,U2,2*%
%TO.N,GND_PWR*%
X83000000Y-35000000D03*
%TO.P,U2,3*%
%TO.N,12V_ISO*%
X93000000Y-35000000D03*
%TO.P,U2,4*%
%TO.N,GND*%
X96000000Y-35000000D03*
%TD*%
%TO.P,J1,1*%
%TO.N,VBAT_FUSED*%
X25500000Y-35000000D03*
%TO.P,J1,2*%
X28500000Y-35000000D03*
%TO.P,J1,3*%
%TO.N,GND_PWR*%
X31500000Y-35000000D03*
%TO.P,J1,4*%
X34500000Y-35000000D03*
%TD*%
%TO.P,U1,1*%
%TO.N,VBAT_FUSED*%
X63500000Y-35000000D03*
%TO.P,U1,2*%
%TO.N,GND_PWR*%
X66500000Y-35000000D03*
%TO.P,U1,3*%
%TO.N,VBAT_FUSED*%
X69500000Y-35000000D03*
%TO.P,U1,4*%
%TO.N,GND_PWR*%
X72500000Y-35000000D03*
%TD*%
%TO.P,F1,1*%
%TO.N,VBAT_FUSED*%
X46500000Y-35000000D03*
%TO.P,F1,2*%
X49500000Y-35000000D03*
%TD*%
%TO.N,GND*%
D11*
X151500000Y-96000000D02*
X151500000Y-72000000D01*
X110500000Y-42000000D02*
X110500000Y-72000000D01*
X110500000Y-64000000D02*
X110500000Y-72000000D01*
X149500000Y-64000000D02*
X149500000Y-72000000D01*
X155500000Y-72000000D02*
X155500000Y-64000000D01*
X104500000Y-72000000D02*
X104500000Y-96000000D01*
X116500000Y-72000000D02*
X119500000Y-72000000D01*
X110500000Y-72000000D02*
X110500000Y-42000000D01*
X152500000Y-42000000D02*
X152500000Y-72000000D01*
X146500000Y-64000000D02*
X146500000Y-72000000D01*
X110500000Y-72000000D02*
X110500000Y-64000000D01*
X119500000Y-72000000D02*
X119500000Y-96000000D01*
X149500000Y-72000000D02*
X149500000Y-64000000D01*
X119500000Y-72000000D02*
X146500000Y-72000000D01*
X149500000Y-72000000D02*
X151500000Y-72000000D01*
X116500000Y-64000000D02*
X116500000Y-72000000D01*
X155500000Y-72000000D02*
X169500000Y-72000000D01*
X152500000Y-72000000D02*
X152500000Y-64000000D01*
X104500000Y-72000000D02*
X110500000Y-72000000D01*
X116500000Y-72000000D02*
X116500000Y-42000000D01*
X169500000Y-72000000D02*
X169500000Y-96000000D01*
X73500000Y-72000000D02*
X76500000Y-72000000D01*
X76500000Y-82000000D02*
X76500000Y-72000000D01*
X146500000Y-72000000D02*
X149500000Y-72000000D01*
X76500000Y-72000000D02*
X96000000Y-72000000D01*
X155500000Y-64000000D02*
X155500000Y-72000000D01*
X149500000Y-72000000D02*
X149500000Y-42000000D01*
X116500000Y-72000000D02*
X116500000Y-64000000D01*
X149500000Y-42000000D02*
X149500000Y-72000000D01*
X96000000Y-72000000D02*
X96000000Y-35000000D01*
X116500000Y-42000000D02*
X116500000Y-72000000D01*
X151500000Y-72000000D02*
X151500000Y-96000000D01*
X152500000Y-64000000D02*
X152500000Y-72000000D01*
X96000000Y-72000000D02*
X104500000Y-72000000D01*
X146500000Y-72000000D02*
X146500000Y-64000000D01*
X76500000Y-72000000D02*
X76500000Y-82000000D01*
X104500000Y-96000000D02*
X104500000Y-72000000D01*
X119500000Y-96000000D02*
X119500000Y-72000000D01*
X96000000Y-35000000D02*
X96000000Y-72000000D01*
X152500000Y-72000000D02*
X152500000Y-42000000D01*
X110500000Y-72000000D02*
X116500000Y-72000000D01*
X151500000Y-72000000D02*
X152500000Y-72000000D01*
X152500000Y-72000000D02*
X155500000Y-72000000D01*
X73500000Y-82000000D02*
X73500000Y-72000000D01*
%TD*%
M02*
