%TF.GenerationSoftware,KiCad,Pcbnew,10.0.5*%
%TF.CreationDate,2026-08-07T16:25:31+08:00*%
%TF.ProjectId,controller,636f6e74-726f-46c6-9c65-722e6b696361,rev?*%
%TF.SameCoordinates,Original*%
%TF.FileFunction,Copper,L1,Top*%
%TF.FilePolarity,Positive*%
%FSLAX46Y46*%
G04 Gerber Fmt 4.6, Leading zero omitted, Abs format (unit mm)*
G04 Created by KiCad (PCBNEW 10.0.5) date 2026-08-07 16:25:31*
%MOMM*%
%LPD*%
G01*
G04 APERTURE LIST*
%TA.AperFunction,ComponentPad*%
%ADD10C,2.400000*%
%TD*%
%TA.AperFunction,Conductor*%
%ADD11C,2.000000*%
%TD*%
%TA.AperFunction,Conductor*%
%ADD12C,0.300000*%
%TD*%
%TA.AperFunction,Conductor*%
%ADD13C,0.250000*%
%TD*%
G04 APERTURE END LIST*
D10*
%TO.P,J2,1*%
%TO.N,12V_ISO*%
X101500000Y-82000000D03*
%TO.P,J2,2*%
X104500000Y-82000000D03*
%TO.P,J2,3*%
%TO.N,GND*%
X107500000Y-82000000D03*
%TO.P,J2,4*%
X110500000Y-82000000D03*
%TD*%
%TO.P,J6,1*%
%TO.N,CANH*%
X160500000Y-55000000D03*
%TO.P,J6,2*%
%TO.N,CANL*%
X163500000Y-55000000D03*
%TO.P,J6,3*%
%TO.N,GND_CAN_ISO*%
X166500000Y-55000000D03*
%TO.P,J6,4*%
%TO.N,N/C*%
X169500000Y-55000000D03*
%TD*%
%TO.P,U5,1*%
%TO.N,3V3_LOGIC*%
X116125000Y-110000000D03*
%TO.P,U5,2*%
%TO.N,GND*%
X118875000Y-110000000D03*
%TO.P,U5,3*%
%TO.N,3V3_LOGIC*%
X121625000Y-110000000D03*
%TO.P,U5,4*%
%TO.N,GND*%
X124375000Y-110000000D03*
%TO.P,U5,5*%
%TO.N,SPI_SCLK*%
X127125000Y-110000000D03*
%TO.P,U5,6*%
%TO.N,SPI_MOSI*%
X129875000Y-110000000D03*
%TO.P,U5,7*%
%TO.N,SPI_MISO*%
X132625000Y-110000000D03*
%TO.P,U5,8*%
%TO.N,MOTOR_ENABLE*%
X135375000Y-110000000D03*
%TO.P,U5,9*%
%TO.N,MOTOR_CS0*%
X138125000Y-110000000D03*
%TO.P,U5,10*%
%TO.N,MOTOR_CS1*%
X140875000Y-110000000D03*
%TO.P,U5,11*%
%TO.N,MOTOR_CS2*%
X143625000Y-110000000D03*
%TO.P,U5,12*%
%TO.N,MOTOR_CS3*%
X146375000Y-110000000D03*
%TO.P,U5,13*%
%TO.N,MOTOR_CS4*%
X149125000Y-110000000D03*
%TO.P,U5,14*%
%TO.N,MOTOR_CS5*%
X151875000Y-110000000D03*
%TO.P,U5,15*%
%TO.N,I2C_SDA*%
X154625000Y-110000000D03*
%TO.P,U5,16*%
%TO.N,I2C_SCL*%
X157375000Y-110000000D03*
%TO.P,U5,17*%
%TO.N,ESTOP_SENSE*%
X160125000Y-110000000D03*
%TO.P,U5,18*%
%TO.N,UART_TX*%
X162875000Y-110000000D03*
%TO.P,U5,19*%
%TO.N,UART_RX*%
X165625000Y-110000000D03*
%TO.P,U5,20*%
%TO.N,MCU_RESET*%
X168375000Y-110000000D03*
%TO.P,U5,21*%
%TO.N,CAN_TX*%
X171125000Y-110000000D03*
%TO.P,U5,22*%
%TO.N,CAN_RX*%
X173875000Y-110000000D03*
%TD*%
%TO.P,U2,1*%
%TO.N,VBAT_FUSED*%
X79000000Y-35000000D03*
%TO.P,U2,2*%
%TO.N,GND_PWR*%
X82000000Y-35000000D03*
%TO.P,U2,3*%
%TO.N,12V_ISO*%
X94000000Y-35000000D03*
%TO.P,U2,4*%
%TO.N,GND*%
X97000000Y-35000000D03*
%TD*%
%TO.P,J3,1*%
%TO.N,JETSON_12V*%
X120500000Y-42000000D03*
%TO.P,J3,2*%
X123500000Y-42000000D03*
%TO.P,J3,3*%
%TO.N,GND*%
X126500000Y-42000000D03*
%TO.P,J3,4*%
X129500000Y-42000000D03*
%TD*%
%TO.P,J1,1*%
%TO.N,VBAT_FUSED*%
X25500000Y-35000000D03*
%TO.P,J1,2*%
X28500000Y-35000000D03*
%TO.P,J1,3*%
%TO.N,GND_PWR*%
X31500000Y-35000000D03*
%TO.P,J1,4*%
X34500000Y-35000000D03*
%TD*%
%TO.P,U7,1*%
%TO.N,5V_CAN_ISO*%
X160500000Y-67000000D03*
%TO.P,U7,2*%
%TO.N,GND_CAN_ISO*%
X163500000Y-67000000D03*
%TO.P,U7,3*%
%TO.N,N/C*%
X166500000Y-67000000D03*
%TO.P,U7,4*%
X169500000Y-67000000D03*
%TO.P,U7,5*%
%TO.N,3V3_LOGIC*%
X160500000Y-87000000D03*
%TO.P,U7,6*%
%TO.N,GND*%
X163500000Y-87000000D03*
%TO.P,U7,7*%
%TO.N,N/C*%
X166500000Y-87000000D03*
%TO.P,U7,8*%
X169500000Y-87000000D03*
%TD*%
%TO.P,U4,1*%
%TO.N,12V_ISO*%
X107500000Y-64000000D03*
%TO.P,U4,2*%
%TO.N,GND*%
X110500000Y-64000000D03*
%TO.P,U4,3*%
%TO.N,3V3_LOGIC*%
X113500000Y-64000000D03*
%TO.P,U4,4*%
%TO.N,GND*%
X116500000Y-64000000D03*
%TD*%
%TO.P,J5,1*%
%TO.N,CANH*%
X140500000Y-55000000D03*
%TO.P,J5,2*%
%TO.N,CANL*%
X143500000Y-55000000D03*
%TO.P,J5,3*%
%TO.N,GND_CAN_ISO*%
X146500000Y-55000000D03*
%TO.P,J5,4*%
%TO.N,N/C*%
X149500000Y-55000000D03*
%TD*%
%TO.P,U1,1*%
%TO.N,VBAT_FUSED*%
X63500000Y-35000000D03*
%TO.P,U1,2*%
%TO.N,GND_PWR*%
X66500000Y-35000000D03*
%TO.P,U1,3*%
%TO.N,VBAT_FUSED*%
X69500000Y-35000000D03*
%TO.P,U1,4*%
%TO.N,GND_PWR*%
X72500000Y-35000000D03*
%TD*%
%TO.P,J4,1*%
%TO.N,3V3_LOGIC*%
X118875000Y-140000000D03*
%TO.P,J4,2*%
%TO.N,GND*%
X121625000Y-140000000D03*
%TO.P,J4,3*%
%TO.N,3V3_LOGIC*%
X124375000Y-140000000D03*
%TO.P,J4,4*%
%TO.N,GND*%
X127125000Y-140000000D03*
%TO.P,J4,5*%
%TO.N,SPI_SCLK*%
X129875000Y-140000000D03*
%TO.P,J4,6*%
%TO.N,SPI_MOSI*%
X132625000Y-140000000D03*
%TO.P,J4,7*%
%TO.N,SPI_MISO*%
X135375000Y-140000000D03*
%TO.P,J4,8*%
%TO.N,MOTOR_ENABLE*%
X138125000Y-140000000D03*
%TO.P,J4,9*%
%TO.N,MOTOR_CS0*%
X140875000Y-140000000D03*
%TO.P,J4,10*%
%TO.N,MOTOR_CS1*%
X143625000Y-140000000D03*
%TO.P,J4,11*%
%TO.N,MOTOR_CS2*%
X146375000Y-140000000D03*
%TO.P,J4,12*%
%TO.N,MOTOR_CS3*%
X149125000Y-140000000D03*
%TO.P,J4,13*%
%TO.N,MOTOR_CS4*%
X151875000Y-140000000D03*
%TO.P,J4,14*%
%TO.N,MOTOR_CS5*%
X154625000Y-140000000D03*
%TO.P,J4,15*%
%TO.N,I2C_SDA*%
X157375000Y-140000000D03*
%TO.P,J4,16*%
%TO.N,I2C_SCL*%
X160125000Y-140000000D03*
%TO.P,J4,17*%
%TO.N,ESTOP_SENSE*%
X162875000Y-140000000D03*
%TO.P,J4,18*%
%TO.N,UART_TX*%
X165625000Y-140000000D03*
%TO.P,J4,19*%
%TO.N,UART_RX*%
X168375000Y-140000000D03*
%TO.P,J4,20*%
%TO.N,MCU_RESET*%
X171125000Y-140000000D03*
%TD*%
%TO.P,U6,1*%
%TO.N,5V_CAN_ISO*%
X140500000Y-67000000D03*
%TO.P,U6,2*%
%TO.N,GND_CAN_ISO*%
X143500000Y-67000000D03*
%TO.P,U6,3*%
%TO.N,CANH*%
X146500000Y-67000000D03*
%TO.P,U6,4*%
%TO.N,CANL*%
X149500000Y-67000000D03*
%TO.P,U6,5*%
%TO.N,3V3_LOGIC*%
X140500000Y-87000000D03*
%TO.P,U6,6*%
%TO.N,GND*%
X143500000Y-87000000D03*
%TO.P,U6,7*%
%TO.N,CAN_TX*%
X146500000Y-87000000D03*
%TO.P,U6,8*%
%TO.N,CAN_RX*%
X149500000Y-87000000D03*
%TD*%
%TO.P,F1,1*%
%TO.N,VBAT_FUSED*%
X46500000Y-35000000D03*
%TO.P,F1,2*%
X49500000Y-35000000D03*
%TD*%
%TO.P,U3,1*%
%TO.N,12V_ISO*%
X107500000Y-42000000D03*
%TO.P,U3,2*%
%TO.N,GND*%
X110500000Y-42000000D03*
%TO.P,U3,3*%
%TO.N,JETSON_12V*%
X113500000Y-42000000D03*
%TO.P,U3,4*%
%TO.N,GND*%
X116500000Y-42000000D03*
%TD*%
%TO.P,J10,1*%
%TO.N,N/C*%
X65500000Y-140000000D03*
%TO.P,J10,2*%
X68500000Y-140000000D03*
%TO.P,J10,3*%
X71500000Y-140000000D03*
%TO.P,J10,4*%
X74500000Y-140000000D03*
%TD*%
%TO.N,VBAT_FUSED*%
D11*
X69500000Y-27000000D02*
X79000000Y-27000000D01*
X63500000Y-35000000D02*
X63500000Y-27000000D01*
X49500000Y-27000000D02*
X63500000Y-27000000D01*
X46500000Y-35000000D02*
X46500000Y-27000000D01*
X25500000Y-27000000D02*
X28500000Y-27000000D01*
X69500000Y-35000000D02*
X69500000Y-27000000D01*
X28500000Y-35000000D02*
X28500000Y-27000000D01*
X46500000Y-27000000D02*
X49500000Y-27000000D01*
X28500000Y-27000000D02*
X46500000Y-27000000D01*
X63500000Y-27000000D02*
X69500000Y-27000000D01*
X46500000Y-27000000D02*
X46500000Y-35000000D01*
X49500000Y-27000000D02*
X49500000Y-35000000D01*
X25500000Y-35000000D02*
X25500000Y-27000000D01*
X28500000Y-27000000D02*
X28500000Y-35000000D01*
X49500000Y-35000000D02*
X49500000Y-27000000D01*
X69500000Y-27000000D02*
X69500000Y-35000000D01*
X79000000Y-27000000D02*
X79000000Y-35000000D01*
X63500000Y-27000000D02*
X63500000Y-35000000D01*
%TO.N,CANH*%
D12*
X140500000Y-55000000D02*
X140500000Y-61000000D01*
X160500000Y-61000000D02*
X160500000Y-55000000D01*
X146500000Y-61000000D02*
X160500000Y-61000000D01*
X140500000Y-61000000D02*
X146500000Y-61000000D01*
X146500000Y-61000000D02*
X146500000Y-67000000D01*
X146500000Y-67000000D02*
X146500000Y-61000000D01*
%TO.N,CAN_TX*%
D13*
X171125000Y-94000000D02*
X171125000Y-110000000D01*
X146500000Y-94000000D02*
X171125000Y-94000000D01*
X146500000Y-87000000D02*
X146500000Y-94000000D01*
%TO.N,SPI_SCLK*%
X127125000Y-110000000D02*
X129875000Y-140000000D01*
%TO.N,SPI_MOSI*%
X129875000Y-110000000D02*
X132625000Y-140000000D01*
%TO.N,SPI_MISO*%
X132625000Y-110000000D02*
X135375000Y-140000000D01*
%TO.N,MOTOR_ENABLE*%
X135375000Y-110000000D02*
X138125000Y-140000000D01*
%TO.N,MOTOR_CS0*%
X138125000Y-110000000D02*
X140875000Y-140000000D01*
%TO.N,MOTOR_CS1*%
X140875000Y-110000000D02*
X143625000Y-140000000D01*
%TO.N,MOTOR_CS2*%
X143625000Y-110000000D02*
X146375000Y-140000000D01*
%TO.N,MOTOR_CS3*%
X146375000Y-110000000D02*
X149125000Y-140000000D01*
%TO.N,MOTOR_CS4*%
X149125000Y-110000000D02*
X151875000Y-140000000D01*
%TO.N,MOTOR_CS5*%
X151875000Y-110000000D02*
X154625000Y-140000000D01*
%TO.N,I2C_SDA*%
X154625000Y-110000000D02*
X157375000Y-140000000D01*
%TO.N,I2C_SCL*%
X157375000Y-110000000D02*
X160125000Y-140000000D01*
%TO.N,ESTOP_SENSE*%
X160125000Y-110000000D02*
X162875000Y-140000000D01*
%TO.N,UART_TX*%
X162875000Y-110000000D02*
X165625000Y-140000000D01*
%TO.N,UART_RX*%
X165625000Y-110000000D02*
X168375000Y-140000000D01*
%TO.N,MCU_RESET*%
X168375000Y-110000000D02*
X171125000Y-140000000D01*
%TD*%
M02*
