%TF.GenerationSoftware,KiCad,Pcbnew,10.0.5*%
%TF.CreationDate,2026-08-21T23:31:12+08:00*%
%TF.ProjectId,controller,636f6e74-726f-46c6-9c65-722e6b696361,EVT1*%
%TF.SameCoordinates,Original*%
%TF.FileFunction,Copper,L3,Inr*%
%TF.FilePolarity,Positive*%
%FSLAX46Y46*%
G04 Gerber Fmt 4.6, Leading zero omitted, Abs format (unit mm)*
G04 Created by KiCad (PCBNEW 10.0.5) date 2026-08-21 23:31:12*
%MOMM*%
%LPD*%
G01*
G04 APERTURE LIST*
G04 Aperture macros list*
%AMRoundRect*
0 Rectangle with rounded corners*
0 $1 Rounding radius*
0 $2 $3 $4 $5 $6 $7 $8 $9 X,Y pos of 4 corners*
0 Add a 4 corners polygon primitive as box body*
4,1,4,$2,$3,$4,$5,$6,$7,$8,$9,$2,$3,0*
0 Add four circle primitives for the rounded corners*
1,1,$1+$1,$2,$3*
1,1,$1+$1,$4,$5*
1,1,$1+$1,$6,$7*
1,1,$1+$1,$8,$9*
0 Add four rect primitives between the rounded corners*
20,1,$1+$1,$2,$3,$4,$5,0*
20,1,$1+$1,$4,$5,$6,$7,0*
20,1,$1+$1,$6,$7,$8,$9,0*
20,1,$1+$1,$8,$9,$2,$3,0*%
G04 Aperture macros list end*
%TA.AperFunction,ComponentPad*%
%ADD10C,2.400000*%
%TD*%
%TA.AperFunction,ComponentPad*%
%ADD11R,1.700000X1.700000*%
%TD*%
%TA.AperFunction,ComponentPad*%
%ADD12C,1.700000*%
%TD*%
%TA.AperFunction,ComponentPad*%
%ADD13C,2.000000*%
%TD*%
%TA.AperFunction,ComponentPad*%
%ADD14C,4.000000*%
%TD*%
%TA.AperFunction,ComponentPad*%
%ADD15C,3.000000*%
%TD*%
%TA.AperFunction,ComponentPad*%
%ADD16R,1.750000X1.750000*%
%TD*%
%TA.AperFunction,ComponentPad*%
%ADD17O,1.750000X1.750000*%
%TD*%
%TA.AperFunction,ComponentPad*%
%ADD18RoundRect,0.250001X0.949999X-0.949999X0.949999X0.949999X-0.949999X0.949999X-0.949999X-0.949999X0*%
%TD*%
%TA.AperFunction,ComponentPad*%
%ADD19RoundRect,0.250000X-0.750000X-0.750000X0.750000X-0.750000X0.750000X0.750000X-0.750000X0.750000X0*%
%TD*%
%TA.AperFunction,ViaPad*%
%ADD20C,0.800000*%
%TD*%
%TA.AperFunction,ViaPad*%
%ADD21C,0.600000*%
%TD*%
%TA.AperFunction,Conductor*%
%ADD22C,2.500000*%
%TD*%
%TA.AperFunction,Conductor*%
%ADD23C,2.399800*%
%TD*%
%TA.AperFunction,Conductor*%
%ADD24C,0.250000*%
%TD*%
G04 APERTURE END LIST*
D10*
%TO.N,CANH*%
%TO.C,J5*%
X148000000Y-62500000D03*
%TO.N,CANL*%
X151000000Y-62500000D03*
%TO.N,GND_CAN_ISO*%
X148000000Y-65500000D03*
%TO.N,N/C*%
X151000000Y-65500000D03*
%TD*%
%TO.N,JETSON_12V*%
%TO.C,J3*%
X100890000Y-9275000D03*
X103890000Y-9275000D03*
%TO.N,GND*%
X100890000Y-12275000D03*
X103890000Y-12275000D03*
%TD*%
D11*
%TO.N,CAN_TERM*%
%TO.C,JP1*%
X148000000Y-84000000D03*
D12*
%TO.N,CANL*%
X148000000Y-86540000D03*
%TD*%
D13*
%TO.N,RESET_CH_A_RETURN*%
%TO.C,K1*%
X17000000Y-87000000D03*
%TO.N,GND*%
X23000000Y-87000000D03*
%TO.N,MOTOR_ENABLE_REQ*%
X29000000Y-87000000D03*
%TO.N,SAFE_STAGE_A*%
X35000000Y-87000000D03*
%TO.N,3V3_LOGIC*%
X41000000Y-87000000D03*
%TO.N,SENSE_STAGE_A*%
X41000000Y-99000000D03*
%TO.N,ESTOP_CH_A_RETURN*%
X35000000Y-99000000D03*
%TO.N,RESET_CH_A_RETURN*%
X29000000Y-99000000D03*
%TO.N,3V3_LOGIC*%
X23000000Y-99000000D03*
%TO.N,RELAY_A_NC*%
X17000000Y-99000000D03*
%TD*%
D14*
%TO.N,VBAT_PROTECTED*%
%TO.C,U2*%
X51000000Y-21000000D03*
%TO.N,GND_PWR*%
X51000000Y-33000000D03*
%TO.N,N/C*%
X51000000Y-27000000D03*
%TO.N,12V_ISO*%
X81000000Y-21000000D03*
%TO.N,GND*%
X81000000Y-33000000D03*
%TO.N,N/C*%
X81000000Y-27000000D03*
D15*
X66000000Y-18000000D03*
X66000000Y-27000000D03*
X66000000Y-36000000D03*
%TD*%
D10*
%TO.N,ESTOP_12V*%
%TO.C,J10*%
X69500000Y-89500000D03*
%TO.N,ESTOP_CH_A_RETURN*%
X72500000Y-89500000D03*
%TO.N,ESTOP_12V*%
X69500000Y-92500000D03*
%TO.N,ESTOP_CH_B_RETURN*%
X72500000Y-92500000D03*
%TD*%
D11*
%TO.N,3V3_LOGIC*%
%TO.C,J13*%
X134000000Y-115500000D03*
D12*
%TO.N,SWDIO*%
X134000000Y-118040000D03*
%TO.N,SWCLK*%
X134000000Y-120580000D03*
%TO.N,GND*%
X134000000Y-123120000D03*
%TD*%
D10*
%TO.N,12V_ISO*%
%TO.C,J2*%
X116500000Y-74500000D03*
X119500000Y-74500000D03*
%TO.N,GND*%
X116500000Y-77500000D03*
X119500000Y-77500000D03*
%TD*%
D11*
%TO.N,3V3_LOGIC*%
%TO.C,J4*%
X82000000Y-97000000D03*
D12*
%TO.N,GND*%
X84540000Y-97000000D03*
%TO.N,3V3_LOGIC*%
X82000000Y-99540000D03*
%TO.N,GND*%
X84540000Y-99540000D03*
%TO.N,SPI_SCLK*%
X82000000Y-102080000D03*
%TO.N,SPI_MOSI*%
X84540000Y-102080000D03*
%TO.N,SPI_MISO*%
X82000000Y-104620000D03*
%TO.N,JETSON_ENABLE_REQ*%
X84540000Y-104620000D03*
%TO.N,MOTOR_CS0*%
X82000000Y-107160000D03*
%TO.N,MOTOR_CS1*%
X84540000Y-107160000D03*
%TO.N,MOTOR_CS2*%
X82000000Y-109700000D03*
%TO.N,MOTOR_CS3*%
X84540000Y-109700000D03*
%TO.N,MOTOR_CS4*%
X82000000Y-112240000D03*
%TO.N,MOTOR_CS5*%
X84540000Y-112240000D03*
%TO.N,I2C_SDA*%
X82000000Y-114780000D03*
%TO.N,I2C_SCL*%
X84540000Y-114780000D03*
%TO.N,ESTOP_SENSE*%
X82000000Y-117320000D03*
%TO.N,UART_TX*%
X84540000Y-117320000D03*
%TO.N,UART_RX*%
X82000000Y-119860000D03*
%TO.N,MCU_RESET*%
X84540000Y-119860000D03*
%TD*%
D10*
%TO.N,ESTOP_CH_A_RETURN*%
%TO.C,J12*%
X69500000Y-105500000D03*
%TO.N,RESET_CH_A_RETURN*%
X72500000Y-105500000D03*
%TO.N,ESTOP_CH_B_RETURN*%
X69500000Y-108500000D03*
%TO.N,RESET_CH_B_RETURN*%
X72500000Y-108500000D03*
%TD*%
D16*
%TO.N,3V3_LOGIC*%
%TO.C,U7*%
X132000000Y-24000000D03*
D17*
%TO.N,GND*%
X134540000Y-24000000D03*
%TO.N,GND_CAN_ISO*%
X142160000Y-24000000D03*
%TO.N,5V_CAN_ISO*%
X147240000Y-24000000D03*
%TD*%
D10*
%TO.N,CANH*%
%TO.C,J6*%
X148000000Y-74500000D03*
%TO.N,CANL*%
X151000000Y-74500000D03*
%TO.N,GND_CAN_ISO*%
X148000000Y-77500000D03*
%TO.N,N/C*%
X151000000Y-77500000D03*
%TD*%
D18*
%TO.N,12V_ISO*%
%TO.C,C3*%
X93000000Y-27000000D03*
D10*
%TO.N,GND*%
X93000000Y-22000000D03*
%TD*%
D19*
%TO.N,JETSON_12V*%
%TO.C,C5*%
X119000000Y-20500000D03*
D13*
%TO.N,GND*%
X124000000Y-20500000D03*
%TD*%
D10*
%TO.N,VBAT_RAW*%
%TO.C,J1*%
X9500000Y-13000000D03*
X12500000Y-13000000D03*
%TO.N,GND_PWR*%
X9500000Y-16000000D03*
X12500000Y-16000000D03*
%TD*%
%TO.N,MOTOR_ENABLE_SAFE*%
%TO.C,J11*%
X51500000Y-105500000D03*
%TO.N,ESTOP_SENSE*%
X54500000Y-105500000D03*
%TO.N,GND*%
X51500000Y-108500000D03*
%TO.N,3V3_LOGIC*%
X54500000Y-108500000D03*
%TD*%
D13*
%TO.N,RESET_CH_B_RETURN*%
%TO.C,K2*%
X17000000Y-108000000D03*
%TO.N,GND*%
X23000000Y-108000000D03*
%TO.N,SAFE_STAGE_A*%
X29000000Y-108000000D03*
%TO.N,MOTOR_ENABLE_SAFE*%
X35000000Y-108000000D03*
%TO.N,SENSE_STAGE_A*%
X41000000Y-108000000D03*
%TO.N,ESTOP_SENSE*%
X41000000Y-120000000D03*
%TO.N,ESTOP_CH_B_RETURN*%
X35000000Y-120000000D03*
%TO.N,RESET_CH_B_RETURN*%
X29000000Y-120000000D03*
%TO.N,3V3_LOGIC*%
X23000000Y-120000000D03*
%TO.N,RELAY_B_NC*%
X17000000Y-120000000D03*
%TD*%
D20*
%TO.N,12V_ISO*%
X79500000Y-21000000D03*
X82500000Y-21000000D03*
X81000000Y-19500000D03*
X79500000Y-22500000D03*
X79500000Y-19500000D03*
X82500000Y-19500000D03*
X81000000Y-22500000D03*
X62921100Y-81078900D03*
X82500000Y-22500000D03*
X83902900Y-22092800D03*
D21*
%TO.N,3V3_LOGIC*%
X91478600Y-7553600D03*
X87403800Y-83169100D03*
X96200000Y-101725000D03*
X96958900Y-105517300D03*
X99633100Y-99500000D03*
X109556700Y-113108500D03*
X86025000Y-58334500D03*
X112716100Y-111251400D03*
X114110900Y-16679200D03*
%TO.N,5V_CAN_ISO*%
X142571000Y-40705700D03*
%TO.N,BOOT0*%
X103000000Y-96579200D03*
X116440600Y-114265600D03*
%TO.N,CANH_RAW*%
X140700000Y-46950000D03*
X141950000Y-39365000D03*
%TO.N,CANL_RAW*%
X141000000Y-39999999D03*
X139700000Y-49050000D03*
%TO.N,CAN_RX*%
X109898600Y-94059300D03*
X128600000Y-39940800D03*
%TO.N,CAN_TX*%
X109000000Y-94056800D03*
X128600000Y-38789200D03*
%TO.N,ESTOP_A_MON*%
X111208900Y-106179600D03*
X53330000Y-97325500D03*
X56385400Y-87193000D03*
%TO.N,ESTOP_B_MON*%
X54784000Y-89787600D03*
X58059700Y-97525300D03*
X110928000Y-105425500D03*
%TO.N,ESTOP_CH_B_RETURN*%
X49653500Y-89789200D03*
%TO.N,ESTOP_SENSE*%
X114940000Y-107092300D03*
X60680000Y-90208500D03*
D20*
%TO.N,FET_COMMON*%
X30106400Y-25587600D03*
X28083700Y-16174600D03*
D21*
%TO.N,FET_GATE*%
X26065300Y-23035400D03*
X25600700Y-18319300D03*
%TO.N,GND*%
X95500000Y-102800000D03*
X50046900Y-97538100D03*
X83459300Y-33929200D03*
X133333900Y-17133900D03*
X107992400Y-46727000D03*
D20*
X79500000Y-34500000D03*
X81000000Y-31500000D03*
D21*
X109834600Y-90615400D03*
X120357300Y-113456300D03*
X94500000Y-100075000D03*
D20*
X82500000Y-33000000D03*
X81000000Y-34500000D03*
D21*
X111640200Y-112225100D03*
X93694400Y-54857100D03*
X88975000Y-58323000D03*
X89662900Y-48775000D03*
D20*
X82500000Y-31500000D03*
D21*
X88500000Y-100100000D03*
X92200000Y-107200000D03*
D20*
X79500000Y-31500000D03*
X79500000Y-33000000D03*
X82500000Y-34500000D03*
D21*
X128600000Y-37519200D03*
X101000000Y-101500000D03*
X94872600Y-82872600D03*
X112724300Y-96397200D03*
X127200000Y-44445000D03*
X96553500Y-45245100D03*
X95500000Y-106200000D03*
%TO.N,GND_CAN_ISO*%
X142997900Y-34677100D03*
X140600000Y-36825000D03*
X145650000Y-19181000D03*
X151200000Y-54631300D03*
D20*
%TO.N,GND_PWR*%
X18976000Y-29466600D03*
D21*
%TO.N,I2C_SCL*%
X109558800Y-122266200D03*
X124108600Y-113283600D03*
%TO.N,I2C_SCL_MCU*%
X103660700Y-94058700D03*
X106447400Y-122272400D03*
%TO.N,I2C_SDA*%
X112825000Y-122033000D03*
X128824999Y-114932900D03*
%TO.N,I2C_SDA_MCU*%
X103627900Y-97021500D03*
X110316500Y-123000000D03*
%TO.N,INPUT_SENSE*%
X33500000Y-23500000D03*
X38500000Y-24500000D03*
D20*
%TO.N,JETSON_12V*%
X113500000Y-8800000D03*
X79766200Y-82000000D03*
X113500000Y-8100000D03*
X114500000Y-8100000D03*
X114500000Y-8800000D03*
X107524000Y-20966600D03*
D21*
%TO.N,JETSON_ENABLE_REQ*%
X104500000Y-96584900D03*
%TO.N,JETSON_FAULT_N*%
X115327000Y-9643500D03*
X93043000Y-7468000D03*
%TO.N,JETSON_PGOOD*%
X114831100Y-11104100D03*
X89032200Y-7457200D03*
%TO.N,MCU_RESET*%
X97068700Y-103505800D03*
X118646100Y-109621100D03*
X104000000Y-83203500D03*
%TO.N,MOTOR_CS0*%
X112116100Y-117291100D03*
%TO.N,MOTOR_CS0_MCU*%
X104500000Y-111929000D03*
X110464900Y-117289900D03*
%TO.N,MOTOR_CS1*%
X116123900Y-117278100D03*
%TO.N,MOTOR_CS1_MCU*%
X114464900Y-117289900D03*
X105321000Y-111932800D03*
%TO.N,MOTOR_CS2*%
X120115700Y-117290700D03*
%TO.N,MOTOR_CS2_MCU*%
X118320000Y-118000000D03*
X110533000Y-111953000D03*
%TO.N,MOTOR_CS3*%
X124125400Y-117300400D03*
%TO.N,MOTOR_CS3_MCU*%
X122466900Y-118708100D03*
X116670300Y-109998100D03*
%TO.N,MOTOR_CS4*%
X100094800Y-122269800D03*
%TO.N,MOTOR_CS4_MCU*%
X113206800Y-109612000D03*
X98317300Y-122702200D03*
%TO.N,MOTOR_CS5*%
X104825000Y-122060700D03*
%TO.N,MOTOR_CS5_MCU*%
X105536400Y-108582400D03*
X103175000Y-122063400D03*
%TO.N,MOTOR_ENABLE_REQ*%
X114931600Y-108000000D03*
%TO.N,OV_SET*%
X17175000Y-29380900D03*
X31148300Y-27694900D03*
%TO.N,RELAY_A_NC*%
X60028600Y-92503700D03*
X112403400Y-107233900D03*
%TO.N,RELAY_B_NC*%
X111022600Y-107379400D03*
X60088700Y-95085000D03*
%TO.N,SPI_MISO*%
X108114900Y-117289900D03*
%TO.N,SPI_MISO_MCU*%
X102500000Y-109420400D03*
X106466900Y-118708100D03*
%TO.N,SPI_MOSI*%
X104825000Y-117033100D03*
%TO.N,SPI_MOSI_MCU*%
X103000000Y-111937600D03*
X103173400Y-117071300D03*
%TO.N,SPI_SCLK*%
X100207600Y-117172200D03*
%TO.N,SPI_SCLK_MCU*%
X102000000Y-111931200D03*
X99175000Y-117060900D03*
%TO.N,SWCLK*%
X112613900Y-95394000D03*
%TO.N,SWDIO*%
X114927200Y-98574500D03*
%TO.N,U1_GATE*%
X35972300Y-26072300D03*
X21909400Y-25765600D03*
%TO.N,U3_ILIM*%
X112409700Y-14850700D03*
X107914000Y-17261000D03*
%TO.N,U3_PGTH*%
X111895000Y-21280000D03*
X115232900Y-10404600D03*
%TO.N,U3_UVLO*%
X111008600Y-25069200D03*
X109675000Y-13678400D03*
%TO.N,U4_CTRL*%
X101447400Y-48137600D03*
X91705300Y-50076700D03*
%TO.N,U4_SS*%
X104510700Y-47474300D03*
X91732800Y-48349600D03*
%TO.N,U4_VCC*%
X108511200Y-47473800D03*
X85946200Y-50600400D03*
%TO.N,U8_LED_A_K*%
X49602200Y-87193000D03*
X59826000Y-96485400D03*
%TO.N,UART_RX*%
X120825000Y-122049500D03*
%TO.N,UART_RX_MCU*%
X114937100Y-100074400D03*
X118449000Y-122274000D03*
%TO.N,UART_TX*%
X116317400Y-122086100D03*
%TO.N,UART_TX_MCU*%
X115175000Y-123952600D03*
X112405000Y-100320900D03*
%TO.N,UV_SET*%
X31168200Y-28493600D03*
X13175000Y-27455200D03*
%TO.N,VBAT_FUSED*%
X32400000Y-30000000D03*
D20*
X9551200Y-27928900D03*
X32865800Y-30582800D03*
%TO.N,VBAT_PROTECTED*%
X40498400Y-30451600D03*
D21*
X40500000Y-29500000D03*
D20*
X46351200Y-21000000D03*
X28083700Y-34558700D03*
X8000000Y-80540600D03*
%TO.N,VBAT_RAW*%
X17427700Y-13215500D03*
%TD*%
%TO.N,12V_ISO*%
D22*
X83902900Y-22092800D02*
X88810100Y-27000000D01*
X84229200Y-74899800D02*
X78050100Y-81078900D01*
X88810100Y-33738400D02*
X88810100Y-27000000D01*
X119500000Y-74500000D02*
X116500000Y-74500000D01*
D23*
X114599700Y-74899800D02*
X116100200Y-74899800D01*
D22*
X84229200Y-74899800D02*
X84229200Y-38319300D01*
X84229200Y-74899800D02*
X114599700Y-74899800D01*
X88810100Y-27000000D02*
X93000000Y-27000000D01*
X84229200Y-38319300D02*
X88810100Y-33738400D01*
X78050100Y-81078900D02*
X62921100Y-81078900D01*
D23*
X116100200Y-74899800D02*
X116500000Y-74500000D01*
%TO.N,ESTOP_CH_B_RETURN*%
D24*
X50864300Y-91000000D02*
X71000000Y-91000000D01*
X49653500Y-89789200D02*
X50864300Y-91000000D01*
X71000000Y-91000000D02*
X72500000Y-92500000D01*
%TO.N,FET_COMMON*%
D22*
X28083700Y-16174600D02*
X30106400Y-18197300D01*
X30106400Y-18197300D02*
X30106400Y-25587600D01*
%TO.N,GND*%
D24*
X124000000Y-20500000D02*
X129967800Y-20500000D01*
X126178900Y-115298900D02*
X122199900Y-115298900D01*
X129967800Y-20500000D02*
X133333900Y-17133900D01*
X103890000Y-12275000D02*
X100890000Y-12275000D01*
X96553500Y-45245100D02*
X93192800Y-45245100D01*
X127200000Y-44445000D02*
X110968600Y-43750800D01*
X96553500Y-45245100D02*
X106510500Y-45245100D01*
X102091800Y-82872600D02*
X94872600Y-82872600D01*
X110968600Y-43750800D02*
X107992400Y-46727000D01*
X134000000Y-123120000D02*
X126178900Y-115298900D01*
X106510500Y-45245100D02*
X107992400Y-46727000D01*
X109834600Y-90615400D02*
X102091800Y-82872600D01*
X119500000Y-77500000D02*
X116500000Y-77500000D01*
X122199900Y-115298900D02*
X120357300Y-113456300D01*
X93192800Y-45245100D02*
X89662900Y-48775000D01*
%TO.N,GND_CAN_ISO*%
X140600000Y-36825000D02*
X141800000Y-35600000D01*
X141800000Y-35600000D02*
X142997900Y-34677100D01*
%TO.N,JETSON_ENABLE_REQ*%
X96869100Y-104620000D02*
X104500000Y-96989100D01*
X84540000Y-104620000D02*
X96869100Y-104620000D01*
X104500000Y-96989100D02*
X104500000Y-96584900D01*
%TO.N,JETSON_FAULT_N*%
X93043000Y-5000000D02*
X93043000Y-7468000D01*
X115327000Y-9643500D02*
X116800000Y-8170500D01*
X116800000Y-8170500D02*
X116800000Y-5000000D01*
X116800000Y-5000000D02*
X93043000Y-5000000D01*
%TO.N,JETSON_PGOOD*%
X92350000Y-10775000D02*
X89032200Y-7457200D01*
X114502000Y-10775000D02*
X92350000Y-10775000D01*
X114831100Y-11104100D02*
X114502000Y-10775000D01*
%TO.N,MOTOR_CS0*%
X84214700Y-110970000D02*
X99575400Y-110970000D01*
X82000000Y-107160000D02*
X83270000Y-108430000D01*
X104146500Y-115541100D02*
X110366100Y-115541100D01*
X99575400Y-110970000D02*
X104146500Y-115541100D01*
X83270000Y-108430000D02*
X83270000Y-110025300D01*
X110366100Y-115541100D02*
X112116100Y-117291100D01*
X83270000Y-110025300D02*
X84214700Y-110970000D01*
%TO.N,MOTOR_CS1_MCU*%
X114464900Y-117201100D02*
X109196600Y-111932800D01*
X109196600Y-111932800D02*
X105321000Y-111932800D01*
X114464900Y-117289900D02*
X114464900Y-117201100D01*
%TO.N,MOTOR_CS3*%
X114917400Y-110345100D02*
X121872700Y-117300400D01*
X121872700Y-117300400D02*
X124125400Y-117300400D01*
X85185100Y-110345100D02*
X114917400Y-110345100D01*
X84540000Y-109700000D02*
X85185100Y-110345100D01*
%TO.N,OV_SET*%
X18861000Y-27694900D02*
X17175000Y-29380900D01*
X31148300Y-27694900D02*
X18861000Y-27694900D01*
%TO.N,RELAY_A_NC*%
X17000000Y-99000000D02*
X23496300Y-92503700D01*
X23496300Y-92503700D02*
X60028600Y-92503700D01*
%TO.N,RELAY_B_NC*%
X79789000Y-105977900D02*
X93873600Y-105977900D01*
X26569600Y-110430400D02*
X41911100Y-110430400D01*
X41911100Y-110430400D02*
X57256500Y-95085000D01*
X57256500Y-95085000D02*
X60088700Y-95085000D01*
X95275100Y-107379400D02*
X111022600Y-107379400D01*
X68896100Y-95085000D02*
X79789000Y-105977900D01*
X60088700Y-95085000D02*
X68896100Y-95085000D01*
X17000000Y-120000000D02*
X26569600Y-110430400D01*
X93873600Y-105977900D02*
X95275100Y-107379400D01*
%TO.N,U1_GATE*%
X24165200Y-25765600D02*
X21909400Y-25765600D01*
X35972300Y-26072300D02*
X35972300Y-21826000D01*
X35972300Y-21826000D02*
X28794200Y-14647900D01*
X26557000Y-22654200D02*
X26700900Y-22798100D01*
X26557000Y-15542200D02*
X26557000Y-22654200D01*
X27451300Y-14647900D02*
X26557000Y-15542200D01*
X28794200Y-14647900D02*
X27451300Y-14647900D01*
X26700900Y-22798100D02*
X26700900Y-23229900D01*
X26700900Y-23229900D02*
X24165200Y-25765600D01*
%TO.N,U3_ILIM*%
X110324300Y-14850700D02*
X107914000Y-17261000D01*
X112409700Y-14850700D02*
X110324300Y-14850700D01*
%TO.N,U4_CTRL*%
X101447400Y-48137600D02*
X99508300Y-50076700D01*
X99508300Y-50076700D02*
X91705300Y-50076700D01*
%TO.N,U4_SS*%
X104510700Y-47474300D02*
X92608100Y-47474300D01*
X92608100Y-47474300D02*
X91732800Y-48349600D01*
%TO.N,U4_VCC*%
X85946200Y-50600400D02*
X86043400Y-50697600D01*
X86043400Y-50697600D02*
X105287400Y-50697600D01*
X105287400Y-50697600D02*
X108511200Y-47473800D01*
%TO.N,UART_RX*%
X82000000Y-119860000D02*
X83127300Y-120987300D01*
X119762800Y-120987300D02*
X120825000Y-122049500D01*
X83127300Y-120987300D02*
X119762800Y-120987300D01*
%TO.N,VBAT_FUSED*%
D22*
X32865800Y-30582800D02*
X32180200Y-31268400D01*
X12890700Y-31268400D02*
X9551200Y-27928900D01*
X32180200Y-31268400D02*
X12890700Y-31268400D01*
%TO.N,VBAT_PROTECTED*%
X40498400Y-30451600D02*
X36391300Y-34558700D01*
X36391300Y-34558700D02*
X28083700Y-34558700D01*
X46351200Y-21000000D02*
X40498400Y-26852800D01*
X28083700Y-34558700D02*
X28083700Y-60456900D01*
X40498400Y-26852800D02*
X40498400Y-30451600D01*
X28083700Y-60456900D02*
X8000000Y-80540600D01*
%TO.N,VBAT_RAW*%
X17427700Y-13215500D02*
X12715500Y-13215500D01*
X12715500Y-13215500D02*
X12500000Y-13000000D01*
X12500000Y-13000000D02*
X9500000Y-13000000D01*
%TD*%
%TA.AperFunction,Conductor*%
%TO.N,12V_ISO*%
G36*
X122959191Y-1518907D02*
G01*
X122995155Y-1568407D01*
X123000000Y-1599000D01*
X123000000Y-19801801D01*
X122981094Y-19859989D01*
X122973245Y-19870792D01*
X122973239Y-19870801D01*
X122887453Y-20039167D01*
X122829058Y-20218886D01*
X122799500Y-20405515D01*
X122799500Y-20594484D01*
X122829058Y-20781113D01*
X122887453Y-20960832D01*
X122973242Y-21129203D01*
X122981090Y-21140004D01*
X123000000Y-21198194D01*
X123000000Y-43836246D01*
X122981093Y-43894437D01*
X122931593Y-43930401D01*
X122896770Y-43935156D01*
X111029143Y-43427591D01*
X111017923Y-43425869D01*
X111017887Y-43426147D01*
X111011454Y-43425300D01*
X111011453Y-43425300D01*
X111011451Y-43425300D01*
X110977687Y-43425300D01*
X110973458Y-43425210D01*
X110939695Y-43423766D01*
X110939694Y-43423766D01*
X110939690Y-43423766D01*
X110933233Y-43424337D01*
X110933208Y-43424058D01*
X110932145Y-43424175D01*
X110932182Y-43424453D01*
X110925743Y-43425300D01*
X110893124Y-43434040D01*
X110889022Y-43435046D01*
X110856041Y-43442390D01*
X110856037Y-43442391D01*
X110856034Y-43442392D01*
X110849944Y-43444615D01*
X110849848Y-43444354D01*
X110848844Y-43444745D01*
X110848951Y-43445002D01*
X110842958Y-43447484D01*
X110813704Y-43464373D01*
X110809999Y-43466408D01*
X110780045Y-43482034D01*
X110774740Y-43485757D01*
X110774581Y-43485530D01*
X110773716Y-43486165D01*
X110773885Y-43486385D01*
X110768738Y-43490333D01*
X110744845Y-43514226D01*
X110741795Y-43517149D01*
X110716909Y-43539994D01*
X110712749Y-43544962D01*
X110712535Y-43544783D01*
X110705433Y-43553638D01*
X108062403Y-46196669D01*
X108007886Y-46224446D01*
X107947454Y-46214875D01*
X107922398Y-46196671D01*
X106710362Y-44984635D01*
X106710359Y-44984633D01*
X106710357Y-44984631D01*
X106636142Y-44941783D01*
X106636144Y-44941783D01*
X106604021Y-44933176D01*
X106553353Y-44919600D01*
X106553351Y-44919600D01*
X96976822Y-44919600D01*
X96918631Y-44900693D01*
X96906819Y-44890604D01*
X96860815Y-44844600D01*
X96860809Y-44844596D01*
X96746689Y-44778709D01*
X96746691Y-44778709D01*
X96697299Y-44765475D01*
X96619392Y-44744600D01*
X96487608Y-44744600D01*
X96409700Y-44765475D01*
X96360309Y-44778709D01*
X96246190Y-44844596D01*
X96246184Y-44844600D01*
X96200181Y-44890604D01*
X96145664Y-44918381D01*
X96130178Y-44919600D01*
X93149947Y-44919600D01*
X93067162Y-44941782D01*
X92992938Y-44984635D01*
X89732069Y-48245504D01*
X89677552Y-48273281D01*
X89662065Y-48274500D01*
X89597008Y-48274500D01*
X89530786Y-48292244D01*
X89469709Y-48308609D01*
X89355590Y-48374496D01*
X89262396Y-48467690D01*
X89196509Y-48581809D01*
X89196508Y-48581814D01*
X89162400Y-48709108D01*
X89162400Y-48840892D01*
X89192479Y-48953151D01*
X89196509Y-48968190D01*
X89262396Y-49082309D01*
X89262398Y-49082311D01*
X89262400Y-49082314D01*
X89355586Y-49175500D01*
X89355588Y-49175501D01*
X89355590Y-49175503D01*
X89469710Y-49241390D01*
X89469708Y-49241390D01*
X89469712Y-49241391D01*
X89469714Y-49241392D01*
X89597008Y-49275500D01*
X89597010Y-49275500D01*
X89728790Y-49275500D01*
X89728792Y-49275500D01*
X89856086Y-49241392D01*
X89856088Y-49241390D01*
X89856090Y-49241390D01*
X89970209Y-49175503D01*
X89970209Y-49175502D01*
X89970214Y-49175500D01*
X90063400Y-49082314D01*
X90129292Y-48968186D01*
X90163400Y-48840892D01*
X90163400Y-48775835D01*
X90182307Y-48717644D01*
X90192396Y-48705831D01*
X93298631Y-45599596D01*
X93353148Y-45571819D01*
X93368635Y-45570600D01*
X96130178Y-45570600D01*
X96188369Y-45589507D01*
X96200181Y-45599596D01*
X96246184Y-45645599D01*
X96246190Y-45645603D01*
X96360310Y-45711490D01*
X96360308Y-45711490D01*
X96360312Y-45711491D01*
X96360314Y-45711492D01*
X96487608Y-45745600D01*
X96487610Y-45745600D01*
X96619390Y-45745600D01*
X96619392Y-45745600D01*
X96746686Y-45711492D01*
X96746688Y-45711490D01*
X96746690Y-45711490D01*
X96860809Y-45645603D01*
X96860810Y-45645602D01*
X96860814Y-45645600D01*
X96860815Y-45645599D01*
X96906819Y-45599596D01*
X96961336Y-45571819D01*
X96976822Y-45570600D01*
X106334665Y-45570600D01*
X106392856Y-45589507D01*
X106404669Y-45599596D01*
X107462904Y-46657831D01*
X107490681Y-46712348D01*
X107491900Y-46727834D01*
X107491900Y-46792892D01*
X107521910Y-46904893D01*
X107526009Y-46920190D01*
X107591896Y-47034309D01*
X107591898Y-47034311D01*
X107591900Y-47034314D01*
X107685086Y-47127500D01*
X107685088Y-47127501D01*
X107685090Y-47127503D01*
X107799210Y-47193390D01*
X107799208Y-47193390D01*
X107799212Y-47193391D01*
X107799214Y-47193392D01*
X107926508Y-47227500D01*
X107926510Y-47227500D01*
X107930021Y-47227500D01*
X107932413Y-47228277D01*
X107932942Y-47228347D01*
X107932929Y-47228444D01*
X107988212Y-47246407D01*
X108024176Y-47295907D01*
X108025647Y-47352120D01*
X108010700Y-47407908D01*
X108010700Y-47407909D01*
X108010700Y-47472965D01*
X107991793Y-47531156D01*
X107981704Y-47542969D01*
X105181569Y-50343104D01*
X105127052Y-50370881D01*
X105111565Y-50372100D01*
X99912234Y-50372100D01*
X99854043Y-50353193D01*
X99818079Y-50303693D01*
X99818079Y-50242507D01*
X99842228Y-50203098D01*
X101378230Y-48667095D01*
X101432747Y-48639319D01*
X101448234Y-48638100D01*
X101513290Y-48638100D01*
X101513292Y-48638100D01*
X101640586Y-48603992D01*
X101640588Y-48603990D01*
X101640590Y-48603990D01*
X101754709Y-48538103D01*
X101754709Y-48538102D01*
X101754714Y-48538100D01*
X101847900Y-48444914D01*
X101913792Y-48330786D01*
X101947900Y-48203492D01*
X101947900Y-48071708D01*
X101913792Y-47944414D01*
X101913791Y-47944412D01*
X101913790Y-47944408D01*
X101911308Y-47938416D01*
X101913725Y-47937414D01*
X101903312Y-47888471D01*
X101928188Y-47832570D01*
X101981170Y-47801967D01*
X102001772Y-47799800D01*
X104087378Y-47799800D01*
X104145569Y-47818707D01*
X104157381Y-47828796D01*
X104203384Y-47874799D01*
X104203390Y-47874803D01*
X104317510Y-47940690D01*
X104317508Y-47940690D01*
X104317512Y-47940691D01*
X104317514Y-47940692D01*
X104444808Y-47974800D01*
X104444810Y-47974800D01*
X104576590Y-47974800D01*
X104576592Y-47974800D01*
X104703886Y-47940692D01*
X104703888Y-47940690D01*
X104703890Y-47940690D01*
X104818009Y-47874803D01*
X104818009Y-47874802D01*
X104818014Y-47874800D01*
X104911200Y-47781614D01*
X104977092Y-47667486D01*
X105011200Y-47540192D01*
X105011200Y-47408408D01*
X104977092Y-47281114D01*
X104977090Y-47281111D01*
X104977090Y-47281109D01*
X104911203Y-47166990D01*
X104911201Y-47166988D01*
X104911200Y-47166986D01*
X104818014Y-47073800D01*
X104818011Y-47073798D01*
X104818009Y-47073796D01*
X104703889Y-47007909D01*
X104703891Y-47007909D01*
X104654499Y-46994675D01*
X104576592Y-46973800D01*
X104444808Y-46973800D01*
X104366900Y-46994675D01*
X104317509Y-47007909D01*
X104203390Y-47073796D01*
X104203384Y-47073800D01*
X104157381Y-47119804D01*
X104102864Y-47147581D01*
X104087378Y-47148800D01*
X92650953Y-47148800D01*
X92565247Y-47148800D01*
X92514578Y-47162376D01*
X92482456Y-47170983D01*
X92408242Y-47213831D01*
X91801969Y-47820104D01*
X91747452Y-47847881D01*
X91731965Y-47849100D01*
X91666908Y-47849100D01*
X91595599Y-47868207D01*
X91539609Y-47883209D01*
X91425490Y-47949096D01*
X91332296Y-48042290D01*
X91266409Y-48156409D01*
X91247339Y-48227578D01*
X91232300Y-48283708D01*
X91232300Y-48415492D01*
X91262379Y-48527751D01*
X91266409Y-48542790D01*
X91332296Y-48656909D01*
X91332298Y-48656911D01*
X91332300Y-48656914D01*
X91425486Y-48750100D01*
X91425488Y-48750101D01*
X91425490Y-48750103D01*
X91539610Y-48815990D01*
X91539608Y-48815990D01*
X91539612Y-48815991D01*
X91539614Y-48815992D01*
X91666908Y-48850100D01*
X91666910Y-48850100D01*
X91798690Y-48850100D01*
X91798692Y-48850100D01*
X91925986Y-48815992D01*
X91925988Y-48815990D01*
X91925990Y-48815990D01*
X92040109Y-48750103D01*
X92040109Y-48750102D01*
X92040114Y-48750100D01*
X92133300Y-48656914D01*
X92199192Y-48542786D01*
X92233300Y-48415492D01*
X92233300Y-48350435D01*
X92252207Y-48292244D01*
X92262296Y-48280431D01*
X92713931Y-47828796D01*
X92768448Y-47801019D01*
X92783935Y-47799800D01*
X100893028Y-47799800D01*
X100951219Y-47818707D01*
X100987183Y-47868207D01*
X100987183Y-47929393D01*
X100983215Y-47938301D01*
X100983492Y-47938416D01*
X100981009Y-47944408D01*
X100965231Y-48003296D01*
X100954783Y-48042290D01*
X100946900Y-48071709D01*
X100946900Y-48136765D01*
X100927993Y-48194956D01*
X100917904Y-48206769D01*
X99402469Y-49722204D01*
X99347952Y-49749981D01*
X99332465Y-49751200D01*
X92128622Y-49751200D01*
X92070431Y-49732293D01*
X92058619Y-49722204D01*
X92012615Y-49676200D01*
X92012609Y-49676196D01*
X91898489Y-49610309D01*
X91898491Y-49610309D01*
X91849099Y-49597075D01*
X91771192Y-49576200D01*
X91639408Y-49576200D01*
X91561500Y-49597075D01*
X91512109Y-49610309D01*
X91397990Y-49676196D01*
X91304796Y-49769390D01*
X91238909Y-49883509D01*
X91238908Y-49883514D01*
X91204800Y-50010808D01*
X91204800Y-50142592D01*
X91221012Y-50203096D01*
X91232904Y-50247477D01*
X91229701Y-50308579D01*
X91191196Y-50356129D01*
X91137277Y-50372100D01*
X86449476Y-50372100D01*
X86391285Y-50353193D01*
X86363739Y-50322599D01*
X86346701Y-50293088D01*
X86346700Y-50293086D01*
X86253514Y-50199900D01*
X86253511Y-50199898D01*
X86253509Y-50199896D01*
X86139389Y-50134009D01*
X86139391Y-50134009D01*
X86089999Y-50120775D01*
X86012092Y-50099900D01*
X85880308Y-50099900D01*
X85802400Y-50120775D01*
X85753009Y-50134009D01*
X85638890Y-50199896D01*
X85545696Y-50293090D01*
X85479809Y-50407209D01*
X85479808Y-50407214D01*
X85445700Y-50534508D01*
X85445700Y-50666292D01*
X85475779Y-50778551D01*
X85479809Y-50793590D01*
X85545696Y-50907709D01*
X85545698Y-50907711D01*
X85545700Y-50907714D01*
X85638886Y-51000900D01*
X85638888Y-51000901D01*
X85638890Y-51000903D01*
X85753010Y-51066790D01*
X85753008Y-51066790D01*
X85753012Y-51066791D01*
X85753014Y-51066792D01*
X85880308Y-51100900D01*
X85880310Y-51100900D01*
X86012090Y-51100900D01*
X86012092Y-51100900D01*
X86139386Y-51066792D01*
X86192091Y-51036362D01*
X86241590Y-51023100D01*
X105330251Y-51023100D01*
X105330253Y-51023100D01*
X105413039Y-51000918D01*
X105413041Y-51000916D01*
X105413043Y-51000916D01*
X105487257Y-50958068D01*
X105487257Y-50958067D01*
X105487262Y-50958065D01*
X108442030Y-48003295D01*
X108496547Y-47975519D01*
X108512034Y-47974300D01*
X108577090Y-47974300D01*
X108577092Y-47974300D01*
X108704386Y-47940192D01*
X108704388Y-47940190D01*
X108704390Y-47940190D01*
X108818509Y-47874303D01*
X108818509Y-47874302D01*
X108818514Y-47874300D01*
X108911700Y-47781114D01*
X108977301Y-47667490D01*
X108977590Y-47666990D01*
X108977590Y-47666988D01*
X108977592Y-47666986D01*
X109011700Y-47539692D01*
X109011700Y-47407908D01*
X108977592Y-47280614D01*
X108977590Y-47280611D01*
X108977590Y-47280609D01*
X108911703Y-47166490D01*
X108911701Y-47166488D01*
X108911700Y-47166486D01*
X108818514Y-47073300D01*
X108818511Y-47073298D01*
X108818509Y-47073296D01*
X108704389Y-47007409D01*
X108704391Y-47007409D01*
X108654999Y-46994175D01*
X108577092Y-46973300D01*
X108573579Y-46973300D01*
X108571186Y-46972522D01*
X108570658Y-46972453D01*
X108570670Y-46972355D01*
X108515388Y-46954393D01*
X108479424Y-46904893D01*
X108477952Y-46848679D01*
X108492900Y-46792892D01*
X108492900Y-46727834D01*
X108511807Y-46669643D01*
X108521890Y-46657836D01*
X111066847Y-44112878D01*
X111121362Y-44085103D01*
X111141078Y-44083974D01*
X122905232Y-44587114D01*
X122962560Y-44608491D01*
X122996376Y-44659482D01*
X123000000Y-44686024D01*
X123000000Y-82901000D01*
X122981093Y-82959191D01*
X122931593Y-82995155D01*
X122901000Y-83000000D01*
X104517595Y-83000000D01*
X104459404Y-82981093D01*
X104431859Y-82950501D01*
X104403279Y-82901000D01*
X104400500Y-82896186D01*
X104307314Y-82803000D01*
X104307311Y-82802998D01*
X104307309Y-82802996D01*
X104193189Y-82737109D01*
X104193191Y-82737109D01*
X104143799Y-82723875D01*
X104065892Y-82703000D01*
X103934108Y-82703000D01*
X103856200Y-82723875D01*
X103806809Y-82737109D01*
X103692690Y-82802996D01*
X103599499Y-82896187D01*
X103568141Y-82950501D01*
X103522671Y-82991441D01*
X103482405Y-83000000D01*
X102720535Y-83000000D01*
X102662344Y-82981093D01*
X102650532Y-82971004D01*
X102291662Y-82612135D01*
X102291657Y-82612131D01*
X102217442Y-82569283D01*
X102217444Y-82569283D01*
X102181215Y-82559576D01*
X102134653Y-82547100D01*
X102134651Y-82547100D01*
X95295922Y-82547100D01*
X95237731Y-82528193D01*
X95225919Y-82518104D01*
X95179915Y-82472100D01*
X95179909Y-82472096D01*
X95065789Y-82406209D01*
X95065791Y-82406209D01*
X95016399Y-82392975D01*
X94938492Y-82372100D01*
X94806708Y-82372100D01*
X94728800Y-82392975D01*
X94679409Y-82406209D01*
X94565290Y-82472096D01*
X94472096Y-82565290D01*
X94406209Y-82679409D01*
X94372100Y-82806709D01*
X94372100Y-82901000D01*
X94353193Y-82959191D01*
X94303693Y-82995155D01*
X94273100Y-83000000D01*
X87941256Y-83000000D01*
X87883065Y-82981093D01*
X87855520Y-82950500D01*
X87804303Y-82861790D01*
X87804301Y-82861788D01*
X87804300Y-82861786D01*
X87711114Y-82768600D01*
X87711111Y-82768598D01*
X87711109Y-82768596D01*
X87596989Y-82702709D01*
X87596991Y-82702709D01*
X87547599Y-82689475D01*
X87469692Y-82668600D01*
X87337908Y-82668600D01*
X87260000Y-82689475D01*
X87210609Y-82702709D01*
X87096490Y-82768596D01*
X87003296Y-82861790D01*
X86952080Y-82950500D01*
X86906611Y-82991441D01*
X86866344Y-83000000D01*
X56099000Y-83000000D01*
X56040809Y-82981093D01*
X56004845Y-82931593D01*
X56000000Y-82901000D01*
X56000000Y-81920943D01*
X79165700Y-81920943D01*
X79165700Y-82079057D01*
X79206623Y-82231784D01*
X79285680Y-82368716D01*
X79397484Y-82480520D01*
X79534416Y-82559577D01*
X79687143Y-82600500D01*
X79687145Y-82600500D01*
X79845255Y-82600500D01*
X79845257Y-82600500D01*
X79997984Y-82559577D01*
X80134916Y-82480520D01*
X80246720Y-82368716D01*
X80325777Y-82231784D01*
X80366700Y-82079057D01*
X80366700Y-81920943D01*
X80325777Y-81768216D01*
X80246720Y-81631284D01*
X80134916Y-81519480D01*
X79997984Y-81440423D01*
X79845257Y-81399500D01*
X79687143Y-81399500D01*
X79534416Y-81440423D01*
X79397484Y-81519480D01*
X79285680Y-81631284D01*
X79206623Y-81768216D01*
X79165700Y-81920943D01*
X56000000Y-81920943D01*
X56000000Y-77389774D01*
X115099500Y-77389774D01*
X115099500Y-77610225D01*
X115133984Y-77827948D01*
X115202102Y-78037599D01*
X115202104Y-78037602D01*
X115202105Y-78037606D01*
X115302185Y-78234022D01*
X115431758Y-78412365D01*
X115587635Y-78568242D01*
X115765978Y-78697815D01*
X115962394Y-78797895D01*
X116172049Y-78866015D01*
X116259140Y-78879809D01*
X116389775Y-78900500D01*
X116389778Y-78900500D01*
X116610225Y-78900500D01*
X116719086Y-78883257D01*
X116827951Y-78866015D01*
X117037606Y-78797895D01*
X117234022Y-78697815D01*
X117412365Y-78568242D01*
X117568242Y-78412365D01*
X117697815Y-78234022D01*
X117797895Y-78037606D01*
X117844585Y-77893906D01*
X117880548Y-77844408D01*
X117938738Y-77825500D01*
X118061261Y-77825500D01*
X118119452Y-77844407D01*
X118155414Y-77893904D01*
X118176517Y-77958853D01*
X118202102Y-78037599D01*
X118202104Y-78037602D01*
X118202105Y-78037606D01*
X118302185Y-78234022D01*
X118431758Y-78412365D01*
X118587635Y-78568242D01*
X118765978Y-78697815D01*
X118962394Y-78797895D01*
X119172049Y-78866015D01*
X119259140Y-78879809D01*
X119389775Y-78900500D01*
X119389778Y-78900500D01*
X119610225Y-78900500D01*
X119719086Y-78883257D01*
X119827951Y-78866015D01*
X120037606Y-78797895D01*
X120234022Y-78697815D01*
X120412365Y-78568242D01*
X120568242Y-78412365D01*
X120697815Y-78234022D01*
X120797895Y-78037606D01*
X120866015Y-77827951D01*
X120900500Y-77610222D01*
X120900500Y-77389778D01*
X120900500Y-77389774D01*
X120866015Y-77172051D01*
X120866015Y-77172049D01*
X120797895Y-76962394D01*
X120697815Y-76765978D01*
X120568242Y-76587635D01*
X120412365Y-76431758D01*
X120234022Y-76302185D01*
X120234021Y-76302184D01*
X120234019Y-76302183D01*
X120144825Y-76256736D01*
X120037606Y-76202105D01*
X120037602Y-76202104D01*
X120037599Y-76202102D01*
X119827948Y-76133984D01*
X119610225Y-76099500D01*
X119610222Y-76099500D01*
X119389778Y-76099500D01*
X119389775Y-76099500D01*
X119172051Y-76133984D01*
X118962400Y-76202102D01*
X118765980Y-76302183D01*
X118676806Y-76366971D01*
X118587635Y-76431758D01*
X118431758Y-76587635D01*
X118366971Y-76676806D01*
X118302183Y-76765980D01*
X118202102Y-76962400D01*
X118172359Y-77053943D01*
X118155414Y-77106093D01*
X118119452Y-77155592D01*
X118061262Y-77174500D01*
X117938739Y-77174500D01*
X117880548Y-77155593D01*
X117844585Y-77106095D01*
X117797895Y-76962394D01*
X117697815Y-76765978D01*
X117568242Y-76587635D01*
X117412365Y-76431758D01*
X117234022Y-76302185D01*
X117234021Y-76302184D01*
X117234019Y-76302183D01*
X117144825Y-76256736D01*
X117037606Y-76202105D01*
X117037602Y-76202104D01*
X117037599Y-76202102D01*
X116827948Y-76133984D01*
X116610225Y-76099500D01*
X116610222Y-76099500D01*
X116389778Y-76099500D01*
X116389775Y-76099500D01*
X116172051Y-76133984D01*
X115962400Y-76202102D01*
X115765980Y-76302183D01*
X115676806Y-76366971D01*
X115587635Y-76431758D01*
X115431758Y-76587635D01*
X115366971Y-76676806D01*
X115302183Y-76765980D01*
X115202102Y-76962400D01*
X115133984Y-77172051D01*
X115099500Y-77389774D01*
X56000000Y-77389774D01*
X56000000Y-58268608D01*
X85524500Y-58268608D01*
X85524500Y-58400392D01*
X85554579Y-58512651D01*
X85558609Y-58527690D01*
X85624496Y-58641809D01*
X85624498Y-58641811D01*
X85624500Y-58641814D01*
X85717686Y-58735000D01*
X85717688Y-58735001D01*
X85717690Y-58735003D01*
X85831810Y-58800890D01*
X85831808Y-58800890D01*
X85831812Y-58800891D01*
X85831814Y-58800892D01*
X85959108Y-58835000D01*
X85959110Y-58835000D01*
X86090890Y-58835000D01*
X86090892Y-58835000D01*
X86218186Y-58800892D01*
X86218188Y-58800890D01*
X86218190Y-58800890D01*
X86332309Y-58735003D01*
X86332309Y-58735002D01*
X86332314Y-58735000D01*
X86425500Y-58641814D01*
X86432140Y-58630314D01*
X86491390Y-58527690D01*
X86491390Y-58527688D01*
X86491392Y-58527686D01*
X86525500Y-58400392D01*
X86525500Y-58268608D01*
X86522419Y-58257108D01*
X88474500Y-58257108D01*
X88474500Y-58388892D01*
X88504579Y-58501151D01*
X88508609Y-58516190D01*
X88574496Y-58630309D01*
X88574498Y-58630311D01*
X88574500Y-58630314D01*
X88667686Y-58723500D01*
X88667688Y-58723501D01*
X88667690Y-58723503D01*
X88781810Y-58789390D01*
X88781808Y-58789390D01*
X88781812Y-58789391D01*
X88781814Y-58789392D01*
X88909108Y-58823500D01*
X88909110Y-58823500D01*
X89040890Y-58823500D01*
X89040892Y-58823500D01*
X89168186Y-58789392D01*
X89168188Y-58789390D01*
X89168190Y-58789390D01*
X89282309Y-58723503D01*
X89282309Y-58723502D01*
X89282314Y-58723500D01*
X89375500Y-58630314D01*
X89434750Y-58527690D01*
X89441390Y-58516190D01*
X89441390Y-58516188D01*
X89441392Y-58516186D01*
X89475500Y-58388892D01*
X89475500Y-58257108D01*
X89441392Y-58129814D01*
X89441390Y-58129811D01*
X89441390Y-58129809D01*
X89375503Y-58015690D01*
X89375501Y-58015688D01*
X89375500Y-58015686D01*
X89282314Y-57922500D01*
X89282311Y-57922498D01*
X89282309Y-57922496D01*
X89168189Y-57856609D01*
X89168191Y-57856609D01*
X89118799Y-57843375D01*
X89040892Y-57822500D01*
X88909108Y-57822500D01*
X88831200Y-57843375D01*
X88781809Y-57856609D01*
X88667690Y-57922496D01*
X88574496Y-58015690D01*
X88508609Y-58129809D01*
X88489539Y-58200978D01*
X88474500Y-58257108D01*
X86522419Y-58257108D01*
X86491392Y-58141314D01*
X86491390Y-58141311D01*
X86491390Y-58141309D01*
X86425503Y-58027190D01*
X86425501Y-58027188D01*
X86425500Y-58027186D01*
X86332314Y-57934000D01*
X86332311Y-57933998D01*
X86332309Y-57933996D01*
X86218189Y-57868109D01*
X86218191Y-57868109D01*
X86168799Y-57854875D01*
X86090892Y-57834000D01*
X85959108Y-57834000D01*
X85881200Y-57854875D01*
X85831809Y-57868109D01*
X85717690Y-57933996D01*
X85624496Y-58027190D01*
X85558609Y-58141309D01*
X85558608Y-58141314D01*
X85524500Y-58268608D01*
X56000000Y-58268608D01*
X56000000Y-54791208D01*
X93193900Y-54791208D01*
X93193900Y-54922992D01*
X93223979Y-55035251D01*
X93228009Y-55050290D01*
X93293896Y-55164409D01*
X93293898Y-55164411D01*
X93293900Y-55164414D01*
X93387086Y-55257600D01*
X93387088Y-55257601D01*
X93387090Y-55257603D01*
X93501210Y-55323490D01*
X93501208Y-55323490D01*
X93501212Y-55323491D01*
X93501214Y-55323492D01*
X93628508Y-55357600D01*
X93628510Y-55357600D01*
X93760290Y-55357600D01*
X93760292Y-55357600D01*
X93887586Y-55323492D01*
X93887588Y-55323490D01*
X93887590Y-55323490D01*
X94001709Y-55257603D01*
X94001709Y-55257602D01*
X94001714Y-55257600D01*
X94094900Y-55164414D01*
X94160792Y-55050286D01*
X94194900Y-54922992D01*
X94194900Y-54791208D01*
X94160792Y-54663914D01*
X94160790Y-54663911D01*
X94160790Y-54663909D01*
X94094903Y-54549790D01*
X94094901Y-54549788D01*
X94094900Y-54549786D01*
X94001714Y-54456600D01*
X94001711Y-54456598D01*
X94001709Y-54456596D01*
X93887589Y-54390709D01*
X93887591Y-54390709D01*
X93838199Y-54377475D01*
X93760292Y-54356600D01*
X93628508Y-54356600D01*
X93550600Y-54377475D01*
X93501209Y-54390709D01*
X93387090Y-54456596D01*
X93293896Y-54549790D01*
X93228009Y-54663909D01*
X93228008Y-54663914D01*
X93193900Y-54791208D01*
X56000000Y-54791208D01*
X56000000Y-35888542D01*
X64299500Y-35888542D01*
X64299500Y-36111457D01*
X64328595Y-36332455D01*
X64328595Y-36332460D01*
X64386290Y-36547782D01*
X64471592Y-36753722D01*
X64471595Y-36753727D01*
X64583050Y-36946771D01*
X64583052Y-36946774D01*
X64718753Y-37123624D01*
X64876376Y-37281247D01*
X65053226Y-37416948D01*
X65053228Y-37416949D01*
X65246272Y-37528404D01*
X65246277Y-37528407D01*
X65414179Y-37597953D01*
X65452219Y-37613710D01*
X65667537Y-37671404D01*
X65888543Y-37700500D01*
X65888544Y-37700500D01*
X66111456Y-37700500D01*
X66111457Y-37700500D01*
X66332463Y-37671404D01*
X66547781Y-37613710D01*
X66677647Y-37559917D01*
X66753722Y-37528407D01*
X66753723Y-37528405D01*
X66753726Y-37528405D01*
X66946774Y-37416948D01*
X67123624Y-37281247D01*
X67281247Y-37123624D01*
X67416948Y-36946774D01*
X67528405Y-36753726D01*
X67613710Y-36547781D01*
X67671404Y-36332463D01*
X67700500Y-36111457D01*
X67700500Y-35888543D01*
X67671404Y-35667537D01*
X67613710Y-35452219D01*
X67597953Y-35414179D01*
X67528407Y-35246277D01*
X67528404Y-35246272D01*
X67416949Y-35053228D01*
X67416948Y-35053226D01*
X67281247Y-34876376D01*
X67123624Y-34718753D01*
X66946774Y-34583052D01*
X66946771Y-34583050D01*
X66753727Y-34471595D01*
X66753722Y-34471592D01*
X66547782Y-34386290D01*
X66452839Y-34360850D01*
X66332463Y-34328596D01*
X66332460Y-34328595D01*
X66332458Y-34328595D01*
X66111457Y-34299500D01*
X65888543Y-34299500D01*
X65888542Y-34299500D01*
X65667544Y-34328595D01*
X65667539Y-34328595D01*
X65452217Y-34386290D01*
X65246277Y-34471592D01*
X65246272Y-34471595D01*
X65053228Y-34583050D01*
X64876379Y-34718750D01*
X64718750Y-34876379D01*
X64583050Y-35053228D01*
X64471595Y-35246272D01*
X64471592Y-35246277D01*
X64386290Y-35452217D01*
X64328595Y-35667539D01*
X64328595Y-35667544D01*
X64299500Y-35888542D01*
X56000000Y-35888542D01*
X56000000Y-32855770D01*
X78799500Y-32855770D01*
X78799500Y-33144229D01*
X78837150Y-33430209D01*
X78837150Y-33430214D01*
X78911809Y-33708846D01*
X79022192Y-33975337D01*
X79022194Y-33975341D01*
X79022196Y-33975345D01*
X79040297Y-34006697D01*
X79053018Y-34066545D01*
X79028131Y-34122440D01*
X79024567Y-34126196D01*
X79019482Y-34131280D01*
X79019480Y-34131284D01*
X78940423Y-34268216D01*
X78899500Y-34420943D01*
X78899500Y-34579057D01*
X78940423Y-34731784D01*
X79019480Y-34868716D01*
X79131284Y-34980520D01*
X79268216Y-35059577D01*
X79420943Y-35100500D01*
X79420945Y-35100500D01*
X79579055Y-35100500D01*
X79579057Y-35100500D01*
X79731784Y-35059577D01*
X79868716Y-34980520D01*
X79873797Y-34975439D01*
X79928312Y-34947659D01*
X79988744Y-34957227D01*
X79993260Y-34959678D01*
X80024655Y-34977804D01*
X80024658Y-34977805D01*
X80024663Y-34977808D01*
X80206741Y-35053226D01*
X80291155Y-35088191D01*
X80569783Y-35162849D01*
X80855772Y-35200500D01*
X80855773Y-35200500D01*
X81144227Y-35200500D01*
X81144228Y-35200500D01*
X81430217Y-35162849D01*
X81708845Y-35088191D01*
X81975345Y-34977804D01*
X82006695Y-34959703D01*
X82066541Y-34946981D01*
X82122438Y-34971866D01*
X82126180Y-34975416D01*
X82131284Y-34980520D01*
X82268216Y-35059577D01*
X82420943Y-35100500D01*
X82420945Y-35100500D01*
X82579055Y-35100500D01*
X82579057Y-35100500D01*
X82731784Y-35059577D01*
X82868716Y-34980520D01*
X82980520Y-34868716D01*
X83059577Y-34731784D01*
X83100500Y-34579057D01*
X83100500Y-34471448D01*
X83119407Y-34413257D01*
X83168907Y-34377293D01*
X83230093Y-34377293D01*
X83249000Y-34385712D01*
X83266110Y-34395590D01*
X83266108Y-34395590D01*
X83266112Y-34395591D01*
X83266114Y-34395592D01*
X83393408Y-34429700D01*
X83393410Y-34429700D01*
X83525190Y-34429700D01*
X83525192Y-34429700D01*
X83652486Y-34395592D01*
X83652488Y-34395590D01*
X83652490Y-34395590D01*
X83766609Y-34329703D01*
X83766609Y-34329702D01*
X83766614Y-34329700D01*
X83859800Y-34236514D01*
X83920557Y-34131280D01*
X83925690Y-34122390D01*
X83925690Y-34122388D01*
X83925692Y-34122386D01*
X83959800Y-33995092D01*
X83959800Y-33863308D01*
X83925692Y-33736014D01*
X83925690Y-33736011D01*
X83925690Y-33736009D01*
X83859803Y-33621890D01*
X83859801Y-33621888D01*
X83859800Y-33621886D01*
X83766614Y-33528700D01*
X83766611Y-33528698D01*
X83766609Y-33528696D01*
X83652489Y-33462809D01*
X83652491Y-33462809D01*
X83603099Y-33449575D01*
X83525192Y-33428700D01*
X83393408Y-33428700D01*
X83297740Y-33454334D01*
X83236638Y-33451131D01*
X83189088Y-33412626D01*
X83173253Y-33353525D01*
X83173962Y-33345800D01*
X83200500Y-33144228D01*
X83200500Y-32855772D01*
X83162849Y-32569783D01*
X83088191Y-32291155D01*
X83066113Y-32237855D01*
X82977808Y-32024663D01*
X82977805Y-32024658D01*
X82977804Y-32024655D01*
X82959702Y-31993301D01*
X82946981Y-31933458D01*
X82971866Y-31877561D01*
X82975439Y-31873797D01*
X82980517Y-31868719D01*
X82980517Y-31868718D01*
X82980520Y-31868716D01*
X83059577Y-31731784D01*
X83100500Y-31579057D01*
X83100500Y-31420943D01*
X83059577Y-31268216D01*
X82980520Y-31131284D01*
X82868716Y-31019480D01*
X82731784Y-30940423D01*
X82579057Y-30899500D01*
X82420943Y-30899500D01*
X82268216Y-30940423D01*
X82131280Y-31019482D01*
X82126196Y-31024567D01*
X82071678Y-31052342D01*
X82011246Y-31042767D01*
X82006712Y-31040305D01*
X81975345Y-31022196D01*
X81975341Y-31022194D01*
X81975337Y-31022192D01*
X81708846Y-30911809D01*
X81585988Y-30878889D01*
X81430217Y-30837151D01*
X81430214Y-30837150D01*
X81430212Y-30837150D01*
X81144229Y-30799500D01*
X81144228Y-30799500D01*
X80855772Y-30799500D01*
X80855770Y-30799500D01*
X80569790Y-30837150D01*
X80569785Y-30837150D01*
X80291153Y-30911809D01*
X80024658Y-31022194D01*
X79993302Y-31040297D01*
X79933453Y-31053018D01*
X79877558Y-31028130D01*
X79873818Y-31024582D01*
X79868716Y-31019480D01*
X79731784Y-30940423D01*
X79579057Y-30899500D01*
X79420943Y-30899500D01*
X79268216Y-30940423D01*
X79131284Y-31019480D01*
X79019480Y-31131284D01*
X78940423Y-31268216D01*
X78899500Y-31420943D01*
X78899500Y-31579057D01*
X78940423Y-31731784D01*
X79019480Y-31868716D01*
X79024565Y-31873801D01*
X79052341Y-31928316D01*
X79042770Y-31988748D01*
X79040297Y-31993302D01*
X79022194Y-32024658D01*
X78911809Y-32291153D01*
X78837150Y-32569785D01*
X78837150Y-32569790D01*
X78799500Y-32855770D01*
X56000000Y-32855770D01*
X56000000Y-26888542D01*
X64299500Y-26888542D01*
X64299500Y-27111457D01*
X64328595Y-27332455D01*
X64328595Y-27332460D01*
X64386290Y-27547782D01*
X64471592Y-27753722D01*
X64471595Y-27753727D01*
X64583050Y-27946771D01*
X64583052Y-27946774D01*
X64718753Y-28123624D01*
X64876376Y-28281247D01*
X65053226Y-28416948D01*
X65149750Y-28472676D01*
X65246272Y-28528404D01*
X65246277Y-28528407D01*
X65414179Y-28597953D01*
X65452219Y-28613710D01*
X65667537Y-28671404D01*
X65888543Y-28700500D01*
X65888544Y-28700500D01*
X66111456Y-28700500D01*
X66111457Y-28700500D01*
X66332463Y-28671404D01*
X66547781Y-28613710D01*
X66677647Y-28559917D01*
X66753722Y-28528407D01*
X66753723Y-28528405D01*
X66753726Y-28528405D01*
X66946774Y-28416948D01*
X67123624Y-28281247D01*
X67281247Y-28123624D01*
X67416948Y-27946774D01*
X67528405Y-27753726D01*
X67613710Y-27547781D01*
X67671404Y-27332463D01*
X67700500Y-27111457D01*
X67700500Y-26888543D01*
X67696185Y-26855770D01*
X78799500Y-26855770D01*
X78799500Y-27144229D01*
X78837150Y-27430209D01*
X78837150Y-27430214D01*
X78911809Y-27708846D01*
X79022194Y-27975341D01*
X79022196Y-27975346D01*
X79166423Y-28225153D01*
X79342020Y-28453997D01*
X79342022Y-28453999D01*
X79342026Y-28454004D01*
X79545996Y-28657974D01*
X79546000Y-28657977D01*
X79546002Y-28657979D01*
X79563498Y-28671404D01*
X79774844Y-28833575D01*
X80024655Y-28977804D01*
X80291155Y-29088191D01*
X80569783Y-29162849D01*
X80855772Y-29200500D01*
X80855773Y-29200500D01*
X81144227Y-29200500D01*
X81144228Y-29200500D01*
X81430217Y-29162849D01*
X81708845Y-29088191D01*
X81975345Y-28977804D01*
X82225156Y-28833575D01*
X82454004Y-28657974D01*
X82657974Y-28454004D01*
X82833575Y-28225156D01*
X82977804Y-27975345D01*
X83088191Y-27708845D01*
X83162849Y-27430217D01*
X83200500Y-27144228D01*
X83200500Y-26855772D01*
X83162849Y-26569783D01*
X83088191Y-26291155D01*
X82977804Y-26024655D01*
X82833575Y-25774844D01*
X82686408Y-25583052D01*
X82657979Y-25546002D01*
X82657977Y-25546000D01*
X82657974Y-25545996D01*
X82454004Y-25342026D01*
X82453999Y-25342022D01*
X82453997Y-25342020D01*
X82225159Y-25166427D01*
X82225156Y-25166425D01*
X82079889Y-25082554D01*
X82079888Y-25082553D01*
X81975346Y-25022196D01*
X81975341Y-25022194D01*
X81929746Y-25003308D01*
X110508100Y-25003308D01*
X110508100Y-25135092D01*
X110516495Y-25166423D01*
X110542209Y-25262390D01*
X110608096Y-25376509D01*
X110608098Y-25376511D01*
X110608100Y-25376514D01*
X110701286Y-25469700D01*
X110701288Y-25469701D01*
X110701290Y-25469703D01*
X110815410Y-25535590D01*
X110815408Y-25535590D01*
X110815412Y-25535591D01*
X110815414Y-25535592D01*
X110942708Y-25569700D01*
X110942710Y-25569700D01*
X111074490Y-25569700D01*
X111074492Y-25569700D01*
X111201786Y-25535592D01*
X111201788Y-25535590D01*
X111201790Y-25535590D01*
X111315909Y-25469703D01*
X111315909Y-25469702D01*
X111315914Y-25469700D01*
X111409100Y-25376514D01*
X111474992Y-25262386D01*
X111509100Y-25135092D01*
X111509100Y-25003308D01*
X111474992Y-24876014D01*
X111474990Y-24876011D01*
X111474990Y-24876009D01*
X111409103Y-24761890D01*
X111409101Y-24761888D01*
X111409100Y-24761886D01*
X111315914Y-24668700D01*
X111315911Y-24668698D01*
X111315909Y-24668696D01*
X111201789Y-24602809D01*
X111201791Y-24602809D01*
X111152399Y-24589575D01*
X111074492Y-24568700D01*
X110942708Y-24568700D01*
X110864800Y-24589575D01*
X110815409Y-24602809D01*
X110701290Y-24668696D01*
X110608096Y-24761890D01*
X110542209Y-24876009D01*
X110542208Y-24876014D01*
X110508100Y-25003308D01*
X81929746Y-25003308D01*
X81708846Y-24911809D01*
X81575237Y-24876009D01*
X81430217Y-24837151D01*
X81430214Y-24837150D01*
X81430212Y-24837150D01*
X81144229Y-24799500D01*
X81144228Y-24799500D01*
X80855772Y-24799500D01*
X80855770Y-24799500D01*
X80569790Y-24837150D01*
X80569785Y-24837150D01*
X80291153Y-24911809D01*
X80024658Y-25022194D01*
X80024653Y-25022196D01*
X79774846Y-25166423D01*
X79546002Y-25342020D01*
X79342020Y-25546002D01*
X79166423Y-25774846D01*
X79022196Y-26024653D01*
X79022194Y-26024658D01*
X78911809Y-26291153D01*
X78837150Y-26569785D01*
X78837150Y-26569790D01*
X78799500Y-26855770D01*
X67696185Y-26855770D01*
X67671404Y-26667537D01*
X67613710Y-26452219D01*
X67597953Y-26414179D01*
X67528407Y-26246277D01*
X67528404Y-26246272D01*
X67416949Y-26053228D01*
X67416948Y-26053226D01*
X67281247Y-25876376D01*
X67123624Y-25718753D01*
X66946774Y-25583052D01*
X66923648Y-25569700D01*
X66753727Y-25471595D01*
X66753722Y-25471592D01*
X66547782Y-25386290D01*
X66452839Y-25360850D01*
X66332463Y-25328596D01*
X66332460Y-25328595D01*
X66332458Y-25328595D01*
X66111457Y-25299500D01*
X65888543Y-25299500D01*
X65888542Y-25299500D01*
X65667544Y-25328595D01*
X65667539Y-25328595D01*
X65452217Y-25386290D01*
X65246277Y-25471592D01*
X65246272Y-25471595D01*
X65053228Y-25583050D01*
X64876379Y-25718750D01*
X64718750Y-25876379D01*
X64583050Y-26053228D01*
X64471595Y-26246272D01*
X64471592Y-26246277D01*
X64386290Y-26452217D01*
X64328595Y-26667539D01*
X64328595Y-26667544D01*
X64299500Y-26888542D01*
X56000000Y-26888542D01*
X56000000Y-21889774D01*
X91599500Y-21889774D01*
X91599500Y-22110225D01*
X91633984Y-22327948D01*
X91702102Y-22537599D01*
X91702104Y-22537602D01*
X91702105Y-22537606D01*
X91802185Y-22734022D01*
X91931758Y-22912365D01*
X92087635Y-23068242D01*
X92265978Y-23197815D01*
X92462394Y-23297895D01*
X92672049Y-23366015D01*
X92759140Y-23379809D01*
X92889775Y-23400500D01*
X92889778Y-23400500D01*
X93110225Y-23400500D01*
X93219086Y-23383257D01*
X93327951Y-23366015D01*
X93537606Y-23297895D01*
X93734022Y-23197815D01*
X93912365Y-23068242D01*
X94068242Y-22912365D01*
X94197815Y-22734022D01*
X94297895Y-22537606D01*
X94366015Y-22327951D01*
X94400500Y-22110222D01*
X94400500Y-21889778D01*
X94400500Y-21889774D01*
X94367354Y-21680503D01*
X94366015Y-21672049D01*
X94297895Y-21462394D01*
X94197815Y-21265978D01*
X94068242Y-21087635D01*
X93912365Y-20931758D01*
X93851508Y-20887543D01*
X106923500Y-20887543D01*
X106923500Y-21045657D01*
X106964423Y-21198384D01*
X107043480Y-21335316D01*
X107155284Y-21447120D01*
X107292216Y-21526177D01*
X107444943Y-21567100D01*
X107444945Y-21567100D01*
X107603055Y-21567100D01*
X107603057Y-21567100D01*
X107755784Y-21526177D01*
X107892716Y-21447120D01*
X108004520Y-21335316D01*
X108074499Y-21214108D01*
X111394500Y-21214108D01*
X111394500Y-21345892D01*
X111413202Y-21415690D01*
X111428609Y-21473190D01*
X111494496Y-21587309D01*
X111494498Y-21587311D01*
X111494500Y-21587314D01*
X111587686Y-21680500D01*
X111587688Y-21680501D01*
X111587690Y-21680503D01*
X111701810Y-21746390D01*
X111701808Y-21746390D01*
X111701812Y-21746391D01*
X111701814Y-21746392D01*
X111829108Y-21780500D01*
X111829110Y-21780500D01*
X111960890Y-21780500D01*
X111960892Y-21780500D01*
X112088186Y-21746392D01*
X112088188Y-21746390D01*
X112088190Y-21746390D01*
X112202309Y-21680503D01*
X112202309Y-21680502D01*
X112202314Y-21680500D01*
X112295500Y-21587314D01*
X112304255Y-21572150D01*
X112361390Y-21473190D01*
X112361390Y-21473188D01*
X112361392Y-21473186D01*
X112395500Y-21345892D01*
X112395500Y-21214108D01*
X112361392Y-21086814D01*
X112361390Y-21086811D01*
X112361390Y-21086809D01*
X112295503Y-20972690D01*
X112295501Y-20972688D01*
X112295500Y-20972686D01*
X112202314Y-20879500D01*
X112202311Y-20879498D01*
X112202309Y-20879496D01*
X112088189Y-20813609D01*
X112088191Y-20813609D01*
X112038799Y-20800375D01*
X111960892Y-20779500D01*
X111829108Y-20779500D01*
X111751200Y-20800375D01*
X111701809Y-20813609D01*
X111587690Y-20879496D01*
X111494496Y-20972690D01*
X111428609Y-21086809D01*
X111428388Y-21087635D01*
X111394500Y-21214108D01*
X108074499Y-21214108D01*
X108083577Y-21198384D01*
X108124500Y-21045657D01*
X108124500Y-20887543D01*
X108083577Y-20734816D01*
X108004520Y-20597884D01*
X107892716Y-20486080D01*
X107755784Y-20407023D01*
X107603057Y-20366100D01*
X107444943Y-20366100D01*
X107292216Y-20407023D01*
X107155284Y-20486080D01*
X107043480Y-20597884D01*
X106964423Y-20734816D01*
X106923500Y-20887543D01*
X93851508Y-20887543D01*
X93734022Y-20802185D01*
X93734021Y-20802184D01*
X93734019Y-20802183D01*
X93601804Y-20734816D01*
X93537606Y-20702105D01*
X93537602Y-20702104D01*
X93537599Y-20702102D01*
X93327948Y-20633984D01*
X93110225Y-20599500D01*
X93110222Y-20599500D01*
X92889778Y-20599500D01*
X92889775Y-20599500D01*
X92672051Y-20633984D01*
X92462400Y-20702102D01*
X92265980Y-20802183D01*
X92233887Y-20825500D01*
X92087635Y-20931758D01*
X91931758Y-21087635D01*
X91893710Y-21140004D01*
X91802183Y-21265980D01*
X91702102Y-21462400D01*
X91633984Y-21672051D01*
X91599500Y-21889774D01*
X56000000Y-21889774D01*
X56000000Y-17888542D01*
X64299500Y-17888542D01*
X64299500Y-18111457D01*
X64328595Y-18332455D01*
X64328595Y-18332460D01*
X64386290Y-18547782D01*
X64471592Y-18753722D01*
X64471595Y-18753727D01*
X64583050Y-18946771D01*
X64583052Y-18946774D01*
X64718753Y-19123624D01*
X64876376Y-19281247D01*
X65053226Y-19416948D01*
X65149750Y-19472676D01*
X65246272Y-19528404D01*
X65246277Y-19528407D01*
X65381241Y-19584310D01*
X65452219Y-19613710D01*
X65667537Y-19671404D01*
X65888543Y-19700500D01*
X65888544Y-19700500D01*
X66111456Y-19700500D01*
X66111457Y-19700500D01*
X66147727Y-19695725D01*
X117799500Y-19695725D01*
X117799500Y-21304274D01*
X117802353Y-21334694D01*
X117802355Y-21334703D01*
X117847207Y-21462883D01*
X117927845Y-21572144D01*
X117927847Y-21572146D01*
X117927850Y-21572150D01*
X117927853Y-21572152D01*
X117927855Y-21572154D01*
X118037116Y-21652792D01*
X118037117Y-21652792D01*
X118037118Y-21652793D01*
X118165301Y-21697646D01*
X118195725Y-21700499D01*
X118195727Y-21700500D01*
X118195734Y-21700500D01*
X119804273Y-21700500D01*
X119804273Y-21700499D01*
X119834699Y-21697646D01*
X119962882Y-21652793D01*
X120072150Y-21572150D01*
X120152793Y-21462882D01*
X120197646Y-21334699D01*
X120200499Y-21304273D01*
X120200500Y-21304273D01*
X120200500Y-19695727D01*
X120200499Y-19695725D01*
X120197646Y-19665305D01*
X120197646Y-19665301D01*
X120152793Y-19537118D01*
X120105649Y-19473240D01*
X120072154Y-19427855D01*
X120072152Y-19427853D01*
X120072150Y-19427850D01*
X120072146Y-19427847D01*
X120072144Y-19427845D01*
X119962883Y-19347207D01*
X119834703Y-19302355D01*
X119834694Y-19302353D01*
X119804274Y-19299500D01*
X119804266Y-19299500D01*
X118195734Y-19299500D01*
X118195725Y-19299500D01*
X118165305Y-19302353D01*
X118165296Y-19302355D01*
X118037116Y-19347207D01*
X117927855Y-19427845D01*
X117927845Y-19427855D01*
X117847207Y-19537116D01*
X117802355Y-19665296D01*
X117802353Y-19665305D01*
X117799500Y-19695725D01*
X66147727Y-19695725D01*
X66332463Y-19671404D01*
X66547781Y-19613710D01*
X66618759Y-19584310D01*
X66753722Y-19528407D01*
X66753723Y-19528405D01*
X66753726Y-19528405D01*
X66946774Y-19416948D01*
X67123624Y-19281247D01*
X67281247Y-19123624D01*
X67416948Y-18946774D01*
X67528405Y-18753726D01*
X67613710Y-18547781D01*
X67671404Y-18332463D01*
X67700500Y-18111457D01*
X67700500Y-17888543D01*
X67671404Y-17667537D01*
X67613710Y-17452219D01*
X67528405Y-17246274D01*
X67498864Y-17195108D01*
X107413500Y-17195108D01*
X107413500Y-17326892D01*
X107443579Y-17439151D01*
X107447609Y-17454190D01*
X107513496Y-17568309D01*
X107513498Y-17568311D01*
X107513500Y-17568314D01*
X107606686Y-17661500D01*
X107606688Y-17661501D01*
X107606690Y-17661503D01*
X107720810Y-17727390D01*
X107720808Y-17727390D01*
X107720812Y-17727391D01*
X107720814Y-17727392D01*
X107848108Y-17761500D01*
X107848110Y-17761500D01*
X107979890Y-17761500D01*
X107979892Y-17761500D01*
X108107186Y-17727392D01*
X108107188Y-17727390D01*
X108107190Y-17727390D01*
X108221309Y-17661503D01*
X108221309Y-17661502D01*
X108221314Y-17661500D01*
X108314500Y-17568314D01*
X108380392Y-17454186D01*
X108414500Y-17326892D01*
X108414500Y-17261835D01*
X108433407Y-17203644D01*
X108443496Y-17191831D01*
X109022019Y-16613308D01*
X113610400Y-16613308D01*
X113610400Y-16745092D01*
X113614202Y-16759281D01*
X113644509Y-16872390D01*
X113710396Y-16986509D01*
X113710398Y-16986511D01*
X113710400Y-16986514D01*
X113803586Y-17079700D01*
X113803588Y-17079701D01*
X113803590Y-17079703D01*
X113917710Y-17145590D01*
X113917708Y-17145590D01*
X113917712Y-17145591D01*
X113917714Y-17145592D01*
X114045008Y-17179700D01*
X114045010Y-17179700D01*
X114176790Y-17179700D01*
X114176792Y-17179700D01*
X114304086Y-17145592D01*
X114304088Y-17145590D01*
X114304090Y-17145590D01*
X114418209Y-17079703D01*
X114418209Y-17079702D01*
X114418214Y-17079700D01*
X114511400Y-16986514D01*
X114574987Y-16876379D01*
X114577290Y-16872390D01*
X114577290Y-16872388D01*
X114577292Y-16872386D01*
X114611400Y-16745092D01*
X114611400Y-16613308D01*
X114577292Y-16486014D01*
X114577290Y-16486011D01*
X114577290Y-16486009D01*
X114511403Y-16371890D01*
X114511401Y-16371888D01*
X114511400Y-16371886D01*
X114418214Y-16278700D01*
X114418211Y-16278698D01*
X114418209Y-16278696D01*
X114304089Y-16212809D01*
X114304091Y-16212809D01*
X114254699Y-16199575D01*
X114176792Y-16178700D01*
X114045008Y-16178700D01*
X113967100Y-16199575D01*
X113917709Y-16212809D01*
X113803590Y-16278696D01*
X113710396Y-16371890D01*
X113644509Y-16486009D01*
X113644508Y-16486014D01*
X113610400Y-16613308D01*
X109022019Y-16613308D01*
X110430131Y-15205196D01*
X110484648Y-15177419D01*
X110500135Y-15176200D01*
X111986378Y-15176200D01*
X112044569Y-15195107D01*
X112056381Y-15205196D01*
X112102384Y-15251199D01*
X112102390Y-15251203D01*
X112216510Y-15317090D01*
X112216508Y-15317090D01*
X112216512Y-15317091D01*
X112216514Y-15317092D01*
X112343808Y-15351200D01*
X112343810Y-15351200D01*
X112475590Y-15351200D01*
X112475592Y-15351200D01*
X112602886Y-15317092D01*
X112602888Y-15317090D01*
X112602890Y-15317090D01*
X112717009Y-15251203D01*
X112717009Y-15251202D01*
X112717014Y-15251200D01*
X112810200Y-15158014D01*
X112876092Y-15043886D01*
X112910200Y-14916592D01*
X112910200Y-14784808D01*
X112876092Y-14657514D01*
X112876090Y-14657511D01*
X112876090Y-14657509D01*
X112810203Y-14543390D01*
X112810201Y-14543388D01*
X112810200Y-14543386D01*
X112717014Y-14450200D01*
X112717011Y-14450198D01*
X112717009Y-14450196D01*
X112602889Y-14384309D01*
X112602891Y-14384309D01*
X112553499Y-14371075D01*
X112475592Y-14350200D01*
X112343808Y-14350200D01*
X112265900Y-14371075D01*
X112216509Y-14384309D01*
X112102390Y-14450196D01*
X112102384Y-14450200D01*
X112056381Y-14496204D01*
X112001864Y-14523981D01*
X111986378Y-14525200D01*
X110367153Y-14525200D01*
X110281447Y-14525200D01*
X110230778Y-14538776D01*
X110198656Y-14547383D01*
X110124442Y-14590231D01*
X107983169Y-16731504D01*
X107928652Y-16759281D01*
X107913165Y-16760500D01*
X107848108Y-16760500D01*
X107770200Y-16781375D01*
X107720809Y-16794609D01*
X107606690Y-16860496D01*
X107513496Y-16953690D01*
X107447609Y-17067809D01*
X107447608Y-17067814D01*
X107413500Y-17195108D01*
X67498864Y-17195108D01*
X67416948Y-17053226D01*
X67281247Y-16876376D01*
X67123624Y-16718753D01*
X66946774Y-16583052D01*
X66946771Y-16583050D01*
X66753727Y-16471595D01*
X66753722Y-16471592D01*
X66547782Y-16386290D01*
X66452839Y-16360850D01*
X66332463Y-16328596D01*
X66332460Y-16328595D01*
X66332458Y-16328595D01*
X66111457Y-16299500D01*
X65888543Y-16299500D01*
X65888542Y-16299500D01*
X65667544Y-16328595D01*
X65667539Y-16328595D01*
X65452217Y-16386290D01*
X65246277Y-16471592D01*
X65246272Y-16471595D01*
X65053228Y-16583050D01*
X64876379Y-16718750D01*
X64718750Y-16876379D01*
X64583050Y-17053228D01*
X64471595Y-17246272D01*
X64471592Y-17246277D01*
X64386290Y-17452217D01*
X64328595Y-17667539D01*
X64328595Y-17667544D01*
X64299500Y-17888542D01*
X56000000Y-17888542D01*
X56000000Y-7391308D01*
X88531700Y-7391308D01*
X88531700Y-7523092D01*
X88534594Y-7533892D01*
X88565809Y-7650390D01*
X88631696Y-7764509D01*
X88631698Y-7764511D01*
X88631700Y-7764514D01*
X88724886Y-7857700D01*
X88724888Y-7857701D01*
X88724890Y-7857703D01*
X88839010Y-7923590D01*
X88839008Y-7923590D01*
X88839012Y-7923591D01*
X88839014Y-7923592D01*
X88966308Y-7957700D01*
X89031365Y-7957700D01*
X89089556Y-7976607D01*
X89101369Y-7986696D01*
X92089533Y-10974859D01*
X92089535Y-10974862D01*
X92150138Y-11035465D01*
X92150140Y-11035466D01*
X92177689Y-11051371D01*
X92177691Y-11051373D01*
X92177692Y-11051373D01*
X92224361Y-11078318D01*
X92307144Y-11100500D01*
X92307146Y-11100501D01*
X92307147Y-11100501D01*
X92398916Y-11100501D01*
X92398932Y-11100500D01*
X99844886Y-11100500D01*
X99903077Y-11119407D01*
X99939041Y-11168907D01*
X99939041Y-11230093D01*
X99914891Y-11269501D01*
X99821758Y-11362635D01*
X99786322Y-11411409D01*
X99692183Y-11540980D01*
X99592102Y-11737400D01*
X99523984Y-11947051D01*
X99489500Y-12164774D01*
X99489500Y-12385225D01*
X99523984Y-12602948D01*
X99592102Y-12812599D01*
X99592104Y-12812602D01*
X99592105Y-12812606D01*
X99692185Y-13009022D01*
X99821758Y-13187365D01*
X99977635Y-13343242D01*
X100155978Y-13472815D01*
X100352394Y-13572895D01*
X100562049Y-13641015D01*
X100649140Y-13654809D01*
X100779775Y-13675500D01*
X100779778Y-13675500D01*
X101000225Y-13675500D01*
X101109086Y-13658257D01*
X101217951Y-13641015D01*
X101427606Y-13572895D01*
X101624022Y-13472815D01*
X101802365Y-13343242D01*
X101958242Y-13187365D01*
X102087815Y-13009022D01*
X102187895Y-12812606D01*
X102234585Y-12668906D01*
X102270548Y-12619408D01*
X102328738Y-12600500D01*
X102451261Y-12600500D01*
X102509452Y-12619407D01*
X102545414Y-12668904D01*
X102566517Y-12733853D01*
X102592102Y-12812599D01*
X102592104Y-12812602D01*
X102592105Y-12812606D01*
X102692185Y-13009022D01*
X102821758Y-13187365D01*
X102977635Y-13343242D01*
X103155978Y-13472815D01*
X103352394Y-13572895D01*
X103562049Y-13641015D01*
X103649140Y-13654809D01*
X103779775Y-13675500D01*
X103779778Y-13675500D01*
X104000225Y-13675500D01*
X104109086Y-13658257D01*
X104217951Y-13641015D01*
X104305688Y-13612508D01*
X109174500Y-13612508D01*
X109174500Y-13744292D01*
X109204579Y-13856551D01*
X109208609Y-13871590D01*
X109274496Y-13985709D01*
X109274498Y-13985711D01*
X109274500Y-13985714D01*
X109367686Y-14078900D01*
X109367688Y-14078901D01*
X109367690Y-14078903D01*
X109481810Y-14144790D01*
X109481808Y-14144790D01*
X109481812Y-14144791D01*
X109481814Y-14144792D01*
X109609108Y-14178900D01*
X109609110Y-14178900D01*
X109740890Y-14178900D01*
X109740892Y-14178900D01*
X109868186Y-14144792D01*
X109868188Y-14144790D01*
X109868190Y-14144790D01*
X109982309Y-14078903D01*
X109982309Y-14078902D01*
X109982314Y-14078900D01*
X110075500Y-13985714D01*
X110141392Y-13871586D01*
X110175500Y-13744292D01*
X110175500Y-13612508D01*
X110141392Y-13485214D01*
X110141390Y-13485211D01*
X110141390Y-13485209D01*
X110075503Y-13371090D01*
X110075501Y-13371088D01*
X110075500Y-13371086D01*
X109982314Y-13277900D01*
X109982311Y-13277898D01*
X109982309Y-13277896D01*
X109868189Y-13212009D01*
X109868191Y-13212009D01*
X109818799Y-13198775D01*
X109740892Y-13177900D01*
X109609108Y-13177900D01*
X109531200Y-13198775D01*
X109481809Y-13212009D01*
X109367690Y-13277896D01*
X109274496Y-13371090D01*
X109208609Y-13485209D01*
X109208608Y-13485214D01*
X109174500Y-13612508D01*
X104305688Y-13612508D01*
X104427606Y-13572895D01*
X104624022Y-13472815D01*
X104802365Y-13343242D01*
X104958242Y-13187365D01*
X105087815Y-13009022D01*
X105187895Y-12812606D01*
X105256015Y-12602951D01*
X105290500Y-12385222D01*
X105290500Y-12164778D01*
X105290500Y-12164774D01*
X105256015Y-11947051D01*
X105256015Y-11947049D01*
X105187895Y-11737394D01*
X105087815Y-11540978D01*
X104958242Y-11362635D01*
X104865108Y-11269501D01*
X104837333Y-11214987D01*
X104846904Y-11154555D01*
X104890169Y-11111290D01*
X104935114Y-11100500D01*
X114236014Y-11100500D01*
X114294205Y-11119407D01*
X114330169Y-11168907D01*
X114331641Y-11173877D01*
X114364709Y-11297290D01*
X114430596Y-11411409D01*
X114430598Y-11411411D01*
X114430600Y-11411414D01*
X114523786Y-11504600D01*
X114523788Y-11504601D01*
X114523790Y-11504603D01*
X114637910Y-11570490D01*
X114637908Y-11570490D01*
X114637912Y-11570491D01*
X114637914Y-11570492D01*
X114765208Y-11604600D01*
X114765210Y-11604600D01*
X114896990Y-11604600D01*
X114896992Y-11604600D01*
X115024286Y-11570492D01*
X115024288Y-11570490D01*
X115024290Y-11570490D01*
X115138409Y-11504603D01*
X115138409Y-11504602D01*
X115138414Y-11504600D01*
X115231600Y-11411414D01*
X115297492Y-11297286D01*
X115331600Y-11169992D01*
X115331600Y-11038208D01*
X115321748Y-11001439D01*
X115324951Y-10940339D01*
X115363456Y-10892789D01*
X115391750Y-10880192D01*
X115426086Y-10870992D01*
X115540214Y-10805100D01*
X115633400Y-10711914D01*
X115699292Y-10597786D01*
X115733400Y-10470492D01*
X115733400Y-10338708D01*
X115699292Y-10211414D01*
X115652212Y-10129870D01*
X115639491Y-10070024D01*
X115664377Y-10014128D01*
X115667927Y-10010386D01*
X115727500Y-9950814D01*
X115793392Y-9836686D01*
X115827500Y-9709392D01*
X115827500Y-9644333D01*
X115846407Y-9586142D01*
X115856490Y-9574335D01*
X116999859Y-8430966D01*
X116999862Y-8430965D01*
X117060465Y-8370362D01*
X117103318Y-8296138D01*
X117125501Y-8213352D01*
X117125501Y-8127647D01*
X117125501Y-8121585D01*
X117125500Y-8121567D01*
X117125500Y-4957148D01*
X117125500Y-4957147D01*
X117103318Y-4874362D01*
X117060465Y-4800138D01*
X116999862Y-4739535D01*
X116925638Y-4696682D01*
X116842853Y-4674500D01*
X93085853Y-4674500D01*
X93000147Y-4674500D01*
X92917362Y-4696682D01*
X92843138Y-4739535D01*
X92782535Y-4800138D01*
X92739682Y-4874362D01*
X92717500Y-4957148D01*
X92717500Y-7044678D01*
X92698593Y-7102869D01*
X92688504Y-7114681D01*
X92642500Y-7160684D01*
X92642496Y-7160690D01*
X92576609Y-7274809D01*
X92576608Y-7274814D01*
X92542500Y-7402108D01*
X92542500Y-7533892D01*
X92544250Y-7540423D01*
X92576609Y-7661190D01*
X92642496Y-7775309D01*
X92642498Y-7775311D01*
X92642500Y-7775314D01*
X92735686Y-7868500D01*
X92735688Y-7868501D01*
X92735690Y-7868503D01*
X92849810Y-7934390D01*
X92849808Y-7934390D01*
X92849812Y-7934391D01*
X92849814Y-7934392D01*
X92977108Y-7968500D01*
X92977110Y-7968500D01*
X93108890Y-7968500D01*
X93108892Y-7968500D01*
X93236186Y-7934392D01*
X93236188Y-7934390D01*
X93236190Y-7934390D01*
X93350309Y-7868503D01*
X93350309Y-7868502D01*
X93350314Y-7868500D01*
X93443500Y-7775314D01*
X93449441Y-7765024D01*
X93509390Y-7661190D01*
X93509390Y-7661188D01*
X93509392Y-7661186D01*
X93543500Y-7533892D01*
X93543500Y-7402108D01*
X93509392Y-7274814D01*
X93509390Y-7274811D01*
X93509390Y-7274809D01*
X93443503Y-7160690D01*
X93443499Y-7160684D01*
X93397496Y-7114681D01*
X93369719Y-7060164D01*
X93368500Y-7044678D01*
X93368500Y-5424500D01*
X93387407Y-5366309D01*
X93436907Y-5330345D01*
X93467500Y-5325500D01*
X116375500Y-5325500D01*
X116433691Y-5344407D01*
X116469655Y-5393907D01*
X116474500Y-5424500D01*
X116474500Y-7994665D01*
X116455593Y-8052856D01*
X116445504Y-8064669D01*
X115396169Y-9114004D01*
X115341652Y-9141781D01*
X115326165Y-9143000D01*
X115261108Y-9143000D01*
X115176509Y-9165667D01*
X115115408Y-9162465D01*
X115067858Y-9123960D01*
X115052023Y-9064859D01*
X115058078Y-9038100D01*
X115057897Y-9038052D01*
X115059134Y-9033435D01*
X115059424Y-9032154D01*
X115059575Y-9031789D01*
X115059575Y-9031786D01*
X115059577Y-9031784D01*
X115100500Y-8879057D01*
X115100500Y-8720943D01*
X115059577Y-8568216D01*
X115019903Y-8499499D01*
X115007182Y-8439652D01*
X115019904Y-8400499D01*
X115059577Y-8331784D01*
X115100500Y-8179057D01*
X115100500Y-8020943D01*
X115059577Y-7868216D01*
X114980520Y-7731284D01*
X114868716Y-7619480D01*
X114731784Y-7540423D01*
X114579057Y-7499500D01*
X114420943Y-7499500D01*
X114268216Y-7540423D01*
X114131284Y-7619480D01*
X114070001Y-7680762D01*
X114015487Y-7708538D01*
X113955055Y-7698967D01*
X113929999Y-7680763D01*
X113868716Y-7619480D01*
X113731784Y-7540423D01*
X113579057Y-7499500D01*
X113420943Y-7499500D01*
X113268216Y-7540423D01*
X113131284Y-7619480D01*
X113019480Y-7731284D01*
X112940423Y-7868216D01*
X112899500Y-8020943D01*
X112899500Y-8179057D01*
X112908690Y-8213354D01*
X112940423Y-8331785D01*
X112980096Y-8400501D01*
X112992817Y-8460349D01*
X112980096Y-8499499D01*
X112940423Y-8568214D01*
X112913141Y-8670034D01*
X112899500Y-8720943D01*
X112899500Y-8879057D01*
X112940423Y-9031784D01*
X113019480Y-9168716D01*
X113131284Y-9280520D01*
X113268216Y-9359577D01*
X113420943Y-9400500D01*
X113420945Y-9400500D01*
X113579055Y-9400500D01*
X113579057Y-9400500D01*
X113731784Y-9359577D01*
X113868716Y-9280520D01*
X113929998Y-9219237D01*
X113984513Y-9191462D01*
X114044945Y-9201033D01*
X114070000Y-9219236D01*
X114131284Y-9280520D01*
X114268216Y-9359577D01*
X114420943Y-9400500D01*
X114420945Y-9400500D01*
X114579055Y-9400500D01*
X114579057Y-9400500D01*
X114731137Y-9359750D01*
X114792237Y-9362953D01*
X114839787Y-9401458D01*
X114855623Y-9460558D01*
X114852386Y-9480998D01*
X114826500Y-9577608D01*
X114826500Y-9709392D01*
X114849238Y-9794254D01*
X114860608Y-9836687D01*
X114907686Y-9918228D01*
X114920407Y-9978077D01*
X114895520Y-10033972D01*
X114891954Y-10037730D01*
X114832401Y-10097284D01*
X114832396Y-10097290D01*
X114766509Y-10211409D01*
X114732400Y-10338709D01*
X114732400Y-10370733D01*
X114713493Y-10428924D01*
X114663993Y-10464888D01*
X114607778Y-10466360D01*
X114571402Y-10456613D01*
X114544853Y-10449500D01*
X114544852Y-10449500D01*
X104935114Y-10449500D01*
X104876923Y-10430593D01*
X104840959Y-10381093D01*
X104840959Y-10319907D01*
X104865108Y-10280498D01*
X104958242Y-10187365D01*
X105087815Y-10009022D01*
X105187895Y-9812606D01*
X105256015Y-9602951D01*
X105278568Y-9460558D01*
X105290500Y-9385225D01*
X105290500Y-9164774D01*
X105256015Y-8947051D01*
X105256015Y-8947049D01*
X105187895Y-8737394D01*
X105087815Y-8540978D01*
X104958242Y-8362635D01*
X104802365Y-8206758D01*
X104624022Y-8077185D01*
X104624021Y-8077184D01*
X104624019Y-8077183D01*
X104513642Y-8020943D01*
X104427606Y-7977105D01*
X104427602Y-7977104D01*
X104427599Y-7977102D01*
X104217948Y-7908984D01*
X104000225Y-7874500D01*
X104000222Y-7874500D01*
X103779778Y-7874500D01*
X103779775Y-7874500D01*
X103562051Y-7908984D01*
X103352400Y-7977102D01*
X103155980Y-8077183D01*
X103066806Y-8141971D01*
X102977635Y-8206758D01*
X102821758Y-8362635D01*
X102794247Y-8400501D01*
X102692183Y-8540980D01*
X102592102Y-8737400D01*
X102523984Y-8947051D01*
X102489500Y-9164774D01*
X102489500Y-9385225D01*
X102523984Y-9602948D01*
X102592102Y-9812599D01*
X102592104Y-9812602D01*
X102592105Y-9812606D01*
X102604375Y-9836686D01*
X102679568Y-9984261D01*
X102692185Y-10009022D01*
X102821758Y-10187365D01*
X102914891Y-10280498D01*
X102942667Y-10335013D01*
X102933096Y-10395445D01*
X102889831Y-10438710D01*
X102844886Y-10449500D01*
X101935114Y-10449500D01*
X101876923Y-10430593D01*
X101840959Y-10381093D01*
X101840959Y-10319907D01*
X101865108Y-10280498D01*
X101958242Y-10187365D01*
X102087815Y-10009022D01*
X102187895Y-9812606D01*
X102256015Y-9602951D01*
X102278568Y-9460558D01*
X102290500Y-9385225D01*
X102290500Y-9164774D01*
X102256015Y-8947051D01*
X102256015Y-8947049D01*
X102187895Y-8737394D01*
X102087815Y-8540978D01*
X101958242Y-8362635D01*
X101802365Y-8206758D01*
X101624022Y-8077185D01*
X101624021Y-8077184D01*
X101624019Y-8077183D01*
X101513642Y-8020943D01*
X101427606Y-7977105D01*
X101427602Y-7977104D01*
X101427599Y-7977102D01*
X101217948Y-7908984D01*
X101000225Y-7874500D01*
X101000222Y-7874500D01*
X100779778Y-7874500D01*
X100779775Y-7874500D01*
X100562051Y-7908984D01*
X100352400Y-7977102D01*
X100155980Y-8077183D01*
X100066806Y-8141971D01*
X99977635Y-8206758D01*
X99821758Y-8362635D01*
X99794247Y-8400501D01*
X99692183Y-8540980D01*
X99592102Y-8737400D01*
X99523984Y-8947051D01*
X99489500Y-9164774D01*
X99489500Y-9385225D01*
X99523984Y-9602948D01*
X99592102Y-9812599D01*
X99592104Y-9812602D01*
X99592105Y-9812606D01*
X99604375Y-9836686D01*
X99679568Y-9984261D01*
X99692185Y-10009022D01*
X99821758Y-10187365D01*
X99914891Y-10280498D01*
X99942667Y-10335013D01*
X99933096Y-10395445D01*
X99889831Y-10438710D01*
X99844886Y-10449500D01*
X92525834Y-10449500D01*
X92467643Y-10430593D01*
X92455830Y-10420504D01*
X89586550Y-7551223D01*
X89561696Y-7526369D01*
X89541998Y-7487708D01*
X90978100Y-7487708D01*
X90978100Y-7619492D01*
X90986378Y-7650386D01*
X91012209Y-7746790D01*
X91078096Y-7860909D01*
X91078098Y-7860911D01*
X91078100Y-7860914D01*
X91171286Y-7954100D01*
X91171288Y-7954101D01*
X91171290Y-7954103D01*
X91285410Y-8019990D01*
X91285408Y-8019990D01*
X91285412Y-8019991D01*
X91285414Y-8019992D01*
X91412708Y-8054100D01*
X91412710Y-8054100D01*
X91544490Y-8054100D01*
X91544492Y-8054100D01*
X91671786Y-8019992D01*
X91671788Y-8019990D01*
X91671790Y-8019990D01*
X91785909Y-7954103D01*
X91785909Y-7954102D01*
X91785914Y-7954100D01*
X91879100Y-7860914D01*
X91880956Y-7857700D01*
X91944990Y-7746790D01*
X91944990Y-7746788D01*
X91944992Y-7746786D01*
X91979100Y-7619492D01*
X91979100Y-7487708D01*
X91944992Y-7360414D01*
X91944990Y-7360411D01*
X91944990Y-7360409D01*
X91879103Y-7246290D01*
X91879101Y-7246288D01*
X91879100Y-7246286D01*
X91785914Y-7153100D01*
X91785911Y-7153098D01*
X91785909Y-7153096D01*
X91671789Y-7087209D01*
X91671791Y-7087209D01*
X91622399Y-7073975D01*
X91544492Y-7053100D01*
X91412708Y-7053100D01*
X91334800Y-7073975D01*
X91285409Y-7087209D01*
X91171290Y-7153096D01*
X91078096Y-7246290D01*
X91012209Y-7360409D01*
X91012208Y-7360414D01*
X90978100Y-7487708D01*
X89541998Y-7487708D01*
X89533919Y-7471852D01*
X89532700Y-7456365D01*
X89532700Y-7391309D01*
X89524422Y-7360414D01*
X89498592Y-7264014D01*
X89498590Y-7264011D01*
X89498590Y-7264009D01*
X89432703Y-7149890D01*
X89432701Y-7149888D01*
X89432700Y-7149886D01*
X89339514Y-7056700D01*
X89339511Y-7056698D01*
X89339509Y-7056696D01*
X89225389Y-6990809D01*
X89225391Y-6990809D01*
X89175999Y-6977575D01*
X89098092Y-6956700D01*
X88966308Y-6956700D01*
X88888400Y-6977575D01*
X88839009Y-6990809D01*
X88724890Y-7056696D01*
X88631696Y-7149890D01*
X88565809Y-7264009D01*
X88562914Y-7274814D01*
X88531700Y-7391308D01*
X56000000Y-7391308D01*
X56000000Y-1599000D01*
X56018907Y-1540809D01*
X56068407Y-1504845D01*
X56099000Y-1500000D01*
X122901000Y-1500000D01*
X122959191Y-1518907D01*
G37*
%TD.AperFunction*%
%TD*%
M02*
