M48
; DRILL file KiCad 10.0.5 date 2026-08-21T23:31:13
; FORMAT={-:-/ absolute / metric / decimal}
; #@! TF.CreationDate,2026-08-21T23:31:13+08:00
; #@! TF.GenerationSoftware,Kicad,Pcbnew,10.0.5
; #@! TF.FileFunction,Plated,1,8,PTH
FMAT,2
METRIC
; #@! TA.AperFunction,Plated,PTH,ViaDrill
T1C0.300
; #@! TA.AperFunction,Plated,PTH,ViaDrill
T2C0.400
; #@! TA.AperFunction,Plated,PTH,ComponentDrill
T3C1.000
; #@! TA.AperFunction,Plated,PTH,ComponentDrill
T4C1.075
; #@! TA.AperFunction,Plated,PTH,ComponentDrill
T5C1.100
; #@! TA.AperFunction,Plated,PTH,ComponentDrill
T6C1.200
%
G90
G05
T1
X13.175Y-27.455
X17.175Y-29.381
X21.909Y-25.766
X25.601Y-18.319
X26.065Y-23.035
X31.148Y-27.695
X31.168Y-28.494
X32.4Y-30.0
X33.5Y-23.5
X35.972Y-26.072
X38.5Y-24.5
X40.5Y-29.5
X49.602Y-87.193
X49.654Y-89.789
X50.047Y-97.538
X53.33Y-97.325
X54.784Y-89.788
X56.385Y-87.193
X58.06Y-97.525
X59.826Y-96.485
X60.029Y-92.504
X60.089Y-95.085
X60.68Y-90.209
X83.459Y-33.929
X85.946Y-50.6
X86.025Y-58.334
X87.404Y-83.169
X88.5Y-100.1
X88.975Y-58.323
X89.032Y-7.457
X89.663Y-48.775
X91.479Y-7.554
X91.705Y-50.077
X91.733Y-48.35
X92.2Y-107.2
X93.043Y-7.468
X93.694Y-54.857
X94.5Y-100.075
X94.873Y-82.873
X95.5Y-102.8
X95.5Y-106.2
X96.2Y-101.725
X96.553Y-45.245
X96.959Y-105.517
X97.069Y-103.506
X98.317Y-122.702
X99.175Y-117.061
X99.633Y-99.5
X100.095Y-122.27
X100.208Y-117.172
X101.0Y-101.5
X101.447Y-48.138
X102.0Y-111.931
X102.5Y-109.42
X103.0Y-96.579
X103.0Y-111.938
X103.173Y-117.071
X103.175Y-122.063
X103.628Y-97.021
X103.661Y-94.059
X104.0Y-83.203
X104.5Y-96.585
X104.5Y-111.929
X104.511Y-47.474
X104.825Y-117.033
X104.825Y-122.061
X105.321Y-111.933
X105.536Y-108.582
X106.447Y-122.272
X106.467Y-118.708
X107.914Y-17.261
X107.992Y-46.727
X108.115Y-117.29
X108.511Y-47.474
X109.0Y-94.057
X109.557Y-113.108
X109.559Y-122.266
X109.675Y-13.678
X109.835Y-90.615
X109.899Y-94.059
X110.316Y-123.0
X110.465Y-117.29
X110.533Y-111.953
X110.928Y-105.425
X111.009Y-25.069
X111.023Y-107.379
X111.209Y-106.18
X111.64Y-112.225
X111.895Y-21.28
X112.116Y-117.291
X112.403Y-107.234
X112.405Y-100.321
X112.41Y-14.851
X112.614Y-95.394
X112.716Y-111.251
X112.724Y-96.397
X112.825Y-122.033
X113.207Y-109.612
X114.111Y-16.679
X114.465Y-117.29
X114.831Y-11.104
X114.927Y-98.575
X114.932Y-108.0
X114.937Y-100.074
X114.94Y-107.092
X115.175Y-123.953
X115.233Y-10.405
X115.327Y-9.643
X116.124Y-117.278
X116.317Y-122.086
X116.441Y-114.266
X116.67Y-109.998
X118.32Y-118.0
X118.449Y-122.274
X118.646Y-109.621
X120.116Y-117.291
X120.357Y-113.456
X120.825Y-122.049
X122.467Y-118.708
X124.109Y-113.284
X124.125Y-117.3
X127.2Y-44.445
X128.6Y-37.519
X128.6Y-38.789
X128.6Y-39.941
X128.825Y-114.933
X133.334Y-17.134
X142.571Y-40.706
X142.998Y-34.677
X145.65Y-19.181
X151.2Y-54.631
T2
X8.0Y-80.541
X9.551Y-27.929
X17.428Y-13.215
X18.976Y-29.467
X28.084Y-16.175
X28.084Y-34.559
X30.106Y-25.588
X32.866Y-30.583
X40.498Y-30.452
X46.351Y-21.0
X62.921Y-81.079
X79.5Y-19.5
X79.5Y-21.0
X79.5Y-22.5
X79.5Y-31.5
X79.5Y-33.0
X79.5Y-34.5
X79.766Y-82.0
X81.0Y-19.5
X81.0Y-22.5
X81.0Y-31.5
X81.0Y-34.5
X82.5Y-19.5
X82.5Y-21.0
X82.5Y-22.5
X82.5Y-31.5
X82.5Y-33.0
X82.5Y-34.5
X83.903Y-22.093
X107.524Y-20.967
X113.5Y-8.1
X113.5Y-8.8
X114.5Y-8.1
X114.5Y-8.8
T3
X17.0Y-87.0
X17.0Y-99.0
X17.0Y-108.0
X17.0Y-120.0
X23.0Y-87.0
X23.0Y-99.0
X23.0Y-108.0
X23.0Y-120.0
X29.0Y-87.0
X29.0Y-99.0
X29.0Y-108.0
X29.0Y-120.0
X35.0Y-87.0
X35.0Y-99.0
X35.0Y-108.0
X35.0Y-120.0
X41.0Y-87.0
X41.0Y-99.0
X41.0Y-108.0
X41.0Y-120.0
X66.0Y-18.0
X66.0Y-27.0
X66.0Y-36.0
X82.0Y-97.0
X82.0Y-99.54
X82.0Y-102.08
X82.0Y-104.62
X82.0Y-107.16
X82.0Y-109.7
X82.0Y-112.24
X82.0Y-114.78
X82.0Y-117.32
X82.0Y-119.86
X84.54Y-97.0
X84.54Y-99.54
X84.54Y-102.08
X84.54Y-104.62
X84.54Y-107.16
X84.54Y-109.7
X84.54Y-112.24
X84.54Y-114.78
X84.54Y-117.32
X84.54Y-119.86
X119.0Y-20.5
X124.0Y-20.5
X134.0Y-115.5
X134.0Y-118.04
X134.0Y-120.58
X134.0Y-123.12
X148.0Y-84.0
X148.0Y-86.54
T4
X132.0Y-24.0
X134.54Y-24.0
X142.16Y-24.0
X147.24Y-24.0
T5
X9.5Y-13.0
X9.5Y-16.0
X12.5Y-13.0
X12.5Y-16.0
X51.0Y-21.0
X51.0Y-27.0
X51.0Y-33.0
X51.5Y-105.5
X51.5Y-108.5
X54.5Y-105.5
X54.5Y-108.5
X69.5Y-89.5
X69.5Y-92.5
X69.5Y-105.5
X69.5Y-108.5
X72.5Y-89.5
X72.5Y-92.5
X72.5Y-105.5
X72.5Y-108.5
X81.0Y-21.0
X81.0Y-27.0
X81.0Y-33.0
X100.89Y-9.275
X100.89Y-12.275
X103.89Y-9.275
X103.89Y-12.275
X116.5Y-74.5
X116.5Y-77.5
X119.5Y-74.5
X119.5Y-77.5
X148.0Y-62.5
X148.0Y-65.5
X148.0Y-74.5
X148.0Y-77.5
X151.0Y-62.5
X151.0Y-65.5
X151.0Y-74.5
X151.0Y-77.5
T6
X93.0Y-22.0
X93.0Y-27.0
M30
