%TF.GenerationSoftware,KiCad,Pcbnew,10.0.5*%
%TF.CreationDate,2026-08-07T16:25:31+08:00*%
%TF.ProjectId,controller,636f6e74-726f-46c6-9c65-722e6b696361,rev?*%
%TF.SameCoordinates,Original*%
%TF.FileFunction,Copper,L4,Inr*%
%TF.FilePolarity,Positive*%
%FSLAX46Y46*%
G04 Gerber Fmt 4.6, Leading zero omitted, Abs format (unit mm)*
G04 Created by KiCad (PCBNEW 10.0.5) date 2026-08-07 16:25:31*
%MOMM*%
%LPD*%
G01*
G04 APERTURE LIST*
%TA.AperFunction,ComponentPad*%
%ADD10C,2.400000*%
%TD*%
%TA.AperFunction,Conductor*%
%ADD11C,2.000000*%
%TD*%
%TA.AperFunction,Conductor*%
%ADD12C,0.500000*%
%TD*%
G04 APERTURE END LIST*
D10*
%TO.N,12V_ISO*%
%TO.C,J2*%
X101500000Y-82000000D03*
X104500000Y-82000000D03*
%TO.N,GND*%
X107500000Y-82000000D03*
X110500000Y-82000000D03*
%TD*%
%TO.N,CANH*%
%TO.C,J6*%
X160500000Y-55000000D03*
%TO.N,CANL*%
X163500000Y-55000000D03*
%TO.N,GND_CAN_ISO*%
X166500000Y-55000000D03*
%TO.N,N/C*%
X169500000Y-55000000D03*
%TD*%
%TO.N,3V3_LOGIC*%
%TO.C,U5*%
X116125000Y-110000000D03*
%TO.N,GND*%
X118875000Y-110000000D03*
%TO.N,3V3_LOGIC*%
X121625000Y-110000000D03*
%TO.N,GND*%
X124375000Y-110000000D03*
%TO.N,SPI_SCLK*%
X127125000Y-110000000D03*
%TO.N,SPI_MOSI*%
X129875000Y-110000000D03*
%TO.N,SPI_MISO*%
X132625000Y-110000000D03*
%TO.N,MOTOR_ENABLE*%
X135375000Y-110000000D03*
%TO.N,MOTOR_CS0*%
X138125000Y-110000000D03*
%TO.N,MOTOR_CS1*%
X140875000Y-110000000D03*
%TO.N,MOTOR_CS2*%
X143625000Y-110000000D03*
%TO.N,MOTOR_CS3*%
X146375000Y-110000000D03*
%TO.N,MOTOR_CS4*%
X149125000Y-110000000D03*
%TO.N,MOTOR_CS5*%
X151875000Y-110000000D03*
%TO.N,I2C_SDA*%
X154625000Y-110000000D03*
%TO.N,I2C_SCL*%
X157375000Y-110000000D03*
%TO.N,ESTOP_SENSE*%
X160125000Y-110000000D03*
%TO.N,UART_TX*%
X162875000Y-110000000D03*
%TO.N,UART_RX*%
X165625000Y-110000000D03*
%TO.N,MCU_RESET*%
X168375000Y-110000000D03*
%TO.N,CAN_TX*%
X171125000Y-110000000D03*
%TO.N,CAN_RX*%
X173875000Y-110000000D03*
%TD*%
%TO.N,VBAT_FUSED*%
%TO.C,U2*%
X79000000Y-35000000D03*
%TO.N,GND_PWR*%
X82000000Y-35000000D03*
%TO.N,12V_ISO*%
X94000000Y-35000000D03*
%TO.N,GND*%
X97000000Y-35000000D03*
%TD*%
%TO.N,JETSON_12V*%
%TO.C,J3*%
X120500000Y-42000000D03*
X123500000Y-42000000D03*
%TO.N,GND*%
X126500000Y-42000000D03*
X129500000Y-42000000D03*
%TD*%
%TO.N,VBAT_FUSED*%
%TO.C,J1*%
X25500000Y-35000000D03*
X28500000Y-35000000D03*
%TO.N,GND_PWR*%
X31500000Y-35000000D03*
X34500000Y-35000000D03*
%TD*%
%TO.N,5V_CAN_ISO*%
%TO.C,U7*%
X160500000Y-67000000D03*
%TO.N,GND_CAN_ISO*%
X163500000Y-67000000D03*
%TO.N,N/C*%
X166500000Y-67000000D03*
X169500000Y-67000000D03*
%TO.N,3V3_LOGIC*%
X160500000Y-87000000D03*
%TO.N,GND*%
X163500000Y-87000000D03*
%TO.N,N/C*%
X166500000Y-87000000D03*
X169500000Y-87000000D03*
%TD*%
%TO.N,12V_ISO*%
%TO.C,U4*%
X107500000Y-64000000D03*
%TO.N,GND*%
X110500000Y-64000000D03*
%TO.N,3V3_LOGIC*%
X113500000Y-64000000D03*
%TO.N,GND*%
X116500000Y-64000000D03*
%TD*%
%TO.N,CANH*%
%TO.C,J5*%
X140500000Y-55000000D03*
%TO.N,CANL*%
X143500000Y-55000000D03*
%TO.N,GND_CAN_ISO*%
X146500000Y-55000000D03*
%TO.N,N/C*%
X149500000Y-55000000D03*
%TD*%
%TO.N,VBAT_FUSED*%
%TO.C,U1*%
X63500000Y-35000000D03*
%TO.N,GND_PWR*%
X66500000Y-35000000D03*
%TO.N,VBAT_FUSED*%
X69500000Y-35000000D03*
%TO.N,GND_PWR*%
X72500000Y-35000000D03*
%TD*%
%TO.N,3V3_LOGIC*%
%TO.C,J4*%
X118875000Y-140000000D03*
%TO.N,GND*%
X121625000Y-140000000D03*
%TO.N,3V3_LOGIC*%
X124375000Y-140000000D03*
%TO.N,GND*%
X127125000Y-140000000D03*
%TO.N,SPI_SCLK*%
X129875000Y-140000000D03*
%TO.N,SPI_MOSI*%
X132625000Y-140000000D03*
%TO.N,SPI_MISO*%
X135375000Y-140000000D03*
%TO.N,MOTOR_ENABLE*%
X138125000Y-140000000D03*
%TO.N,MOTOR_CS0*%
X140875000Y-140000000D03*
%TO.N,MOTOR_CS1*%
X143625000Y-140000000D03*
%TO.N,MOTOR_CS2*%
X146375000Y-140000000D03*
%TO.N,MOTOR_CS3*%
X149125000Y-140000000D03*
%TO.N,MOTOR_CS4*%
X151875000Y-140000000D03*
%TO.N,MOTOR_CS5*%
X154625000Y-140000000D03*
%TO.N,I2C_SDA*%
X157375000Y-140000000D03*
%TO.N,I2C_SCL*%
X160125000Y-140000000D03*
%TO.N,ESTOP_SENSE*%
X162875000Y-140000000D03*
%TO.N,UART_TX*%
X165625000Y-140000000D03*
%TO.N,UART_RX*%
X168375000Y-140000000D03*
%TO.N,MCU_RESET*%
X171125000Y-140000000D03*
%TD*%
%TO.N,5V_CAN_ISO*%
%TO.C,U6*%
X140500000Y-67000000D03*
%TO.N,GND_CAN_ISO*%
X143500000Y-67000000D03*
%TO.N,CANH*%
X146500000Y-67000000D03*
%TO.N,CANL*%
X149500000Y-67000000D03*
%TO.N,3V3_LOGIC*%
X140500000Y-87000000D03*
%TO.N,GND*%
X143500000Y-87000000D03*
%TO.N,CAN_TX*%
X146500000Y-87000000D03*
%TO.N,CAN_RX*%
X149500000Y-87000000D03*
%TD*%
%TO.N,VBAT_FUSED*%
%TO.C,F1*%
X46500000Y-35000000D03*
X49500000Y-35000000D03*
%TD*%
%TO.N,12V_ISO*%
%TO.C,U3*%
X107500000Y-42000000D03*
%TO.N,GND*%
X110500000Y-42000000D03*
%TO.N,JETSON_12V*%
X113500000Y-42000000D03*
%TO.N,GND*%
X116500000Y-42000000D03*
%TD*%
%TO.N,N/C*%
%TO.C,J10*%
X65500000Y-140000000D03*
X68500000Y-140000000D03*
X71500000Y-140000000D03*
X74500000Y-140000000D03*
%TD*%
%TO.N,JETSON_12V*%
D11*
X123500000Y-37000000D02*
X123500000Y-42000000D01*
X120500000Y-42000000D02*
X120500000Y-37000000D01*
X120500000Y-37000000D02*
X120500000Y-42000000D01*
X113500000Y-37000000D02*
X120500000Y-37000000D01*
X113500000Y-42000000D02*
X113500000Y-37000000D01*
X120500000Y-37000000D02*
X123500000Y-37000000D01*
%TO.N,5V_CAN_ISO*%
D12*
X160500000Y-64000000D02*
X160500000Y-67000000D01*
X140500000Y-64000000D02*
X160500000Y-64000000D01*
X140500000Y-67000000D02*
X140500000Y-64000000D01*
%TD*%
M02*
