%TF.GenerationSoftware,KiCad,Pcbnew,10.0.5*%
%TF.CreationDate,2026-08-21T23:31:12+08:00*%
%TF.ProjectId,controller,636f6e74-726f-46c6-9c65-722e6b696361,EVT1*%
%TF.SameCoordinates,Original*%
%TF.FileFunction,Copper,L8,Bot*%
%TF.FilePolarity,Positive*%
%FSLAX46Y46*%
G04 Gerber Fmt 4.6, Leading zero omitted, Abs format (unit mm)*
G04 Created by KiCad (PCBNEW 10.0.5) date 2026-08-21 23:31:12*
%MOMM*%
%LPD*%
G01*
G04 APERTURE LIST*
G04 Aperture macros list*
%AMRoundRect*
0 Rectangle with rounded corners*
0 $1 Rounding radius*
0 $2 $3 $4 $5 $6 $7 $8 $9 X,Y pos of 4 corners*
0 Add a 4 corners polygon primitive as box body*
4,1,4,$2,$3,$4,$5,$6,$7,$8,$9,$2,$3,0*
0 Add four circle primitives for the rounded corners*
1,1,$1+$1,$2,$3*
1,1,$1+$1,$4,$5*
1,1,$1+$1,$6,$7*
1,1,$1+$1,$8,$9*
0 Add four rect primitives between the rounded corners*
20,1,$1+$1,$2,$3,$4,$5,0*
20,1,$1+$1,$4,$5,$6,$7,0*
20,1,$1+$1,$6,$7,$8,$9,0*
20,1,$1+$1,$8,$9,$2,$3,0*%
G04 Aperture macros list end*
%TA.AperFunction,ComponentPad*%
%ADD10C,2.400000*%
%TD*%
%TA.AperFunction,ComponentPad*%
%ADD11R,1.700000X1.700000*%
%TD*%
%TA.AperFunction,ComponentPad*%
%ADD12C,1.700000*%
%TD*%
%TA.AperFunction,ComponentPad*%
%ADD13C,2.000000*%
%TD*%
%TA.AperFunction,ComponentPad*%
%ADD14C,4.000000*%
%TD*%
%TA.AperFunction,ComponentPad*%
%ADD15C,3.000000*%
%TD*%
%TA.AperFunction,ComponentPad*%
%ADD16R,1.750000X1.750000*%
%TD*%
%TA.AperFunction,ComponentPad*%
%ADD17O,1.750000X1.750000*%
%TD*%
%TA.AperFunction,ComponentPad*%
%ADD18RoundRect,0.250001X0.949999X-0.949999X0.949999X0.949999X-0.949999X0.949999X-0.949999X-0.949999X0*%
%TD*%
%TA.AperFunction,ComponentPad*%
%ADD19RoundRect,0.250000X-0.750000X-0.750000X0.750000X-0.750000X0.750000X0.750000X-0.750000X0.750000X0*%
%TD*%
%TA.AperFunction,ViaPad*%
%ADD20C,0.800000*%
%TD*%
%TA.AperFunction,ViaPad*%
%ADD21C,0.600000*%
%TD*%
G04 APERTURE END LIST*
D10*
%TO.P,J5,1*%
%TO.N,CANH*%
X148000000Y-62500000D03*
%TO.P,J5,2*%
%TO.N,CANL*%
X151000000Y-62500000D03*
%TO.P,J5,3*%
%TO.N,GND_CAN_ISO*%
X148000000Y-65500000D03*
%TO.P,J5,4*%
%TO.N,N/C*%
X151000000Y-65500000D03*
%TD*%
%TO.P,J3,1*%
%TO.N,JETSON_12V*%
X100890000Y-9275000D03*
%TO.P,J3,2*%
X103890000Y-9275000D03*
%TO.P,J3,3*%
%TO.N,GND*%
X100890000Y-12275000D03*
%TO.P,J3,4*%
X103890000Y-12275000D03*
%TD*%
D11*
%TO.P,JP1,1*%
%TO.N,CAN_TERM*%
X148000000Y-84000000D03*
D12*
%TO.P,JP1,2*%
%TO.N,CANL*%
X148000000Y-86540000D03*
%TD*%
D13*
%TO.P,K1,1*%
%TO.N,RESET_CH_A_RETURN*%
X17000000Y-87000000D03*
%TO.P,K1,2*%
%TO.N,GND*%
X23000000Y-87000000D03*
%TO.P,K1,3*%
%TO.N,MOTOR_ENABLE_REQ*%
X29000000Y-87000000D03*
%TO.P,K1,4*%
%TO.N,SAFE_STAGE_A*%
X35000000Y-87000000D03*
%TO.P,K1,5*%
%TO.N,3V3_LOGIC*%
X41000000Y-87000000D03*
%TO.P,K1,6*%
%TO.N,SENSE_STAGE_A*%
X41000000Y-99000000D03*
%TO.P,K1,7*%
%TO.N,ESTOP_CH_A_RETURN*%
X35000000Y-99000000D03*
%TO.P,K1,8*%
%TO.N,RESET_CH_A_RETURN*%
X29000000Y-99000000D03*
%TO.P,K1,9*%
%TO.N,3V3_LOGIC*%
X23000000Y-99000000D03*
%TO.P,K1,10*%
%TO.N,RELAY_A_NC*%
X17000000Y-99000000D03*
%TD*%
D14*
%TO.P,U2,1*%
%TO.N,VBAT_PROTECTED*%
X51000000Y-21000000D03*
%TO.P,U2,2*%
%TO.N,GND_PWR*%
X51000000Y-33000000D03*
%TO.P,U2,3*%
%TO.N,N/C*%
X51000000Y-27000000D03*
%TO.P,U2,4*%
%TO.N,12V_ISO*%
X81000000Y-21000000D03*
%TO.P,U2,5*%
%TO.N,GND*%
X81000000Y-33000000D03*
%TO.P,U2,6*%
%TO.N,N/C*%
X81000000Y-27000000D03*
D15*
%TO.P,U2,7*%
X66000000Y-18000000D03*
%TO.P,U2,8*%
X66000000Y-27000000D03*
%TO.P,U2,9*%
X66000000Y-36000000D03*
%TD*%
D10*
%TO.P,J10,1*%
%TO.N,ESTOP_12V*%
X69500000Y-89500000D03*
%TO.P,J10,2*%
%TO.N,ESTOP_CH_A_RETURN*%
X72500000Y-89500000D03*
%TO.P,J10,3*%
%TO.N,ESTOP_12V*%
X69500000Y-92500000D03*
%TO.P,J10,4*%
%TO.N,ESTOP_CH_B_RETURN*%
X72500000Y-92500000D03*
%TD*%
D11*
%TO.P,J13,1*%
%TO.N,3V3_LOGIC*%
X134000000Y-115500000D03*
D12*
%TO.P,J13,2*%
%TO.N,SWDIO*%
X134000000Y-118040000D03*
%TO.P,J13,3*%
%TO.N,SWCLK*%
X134000000Y-120580000D03*
%TO.P,J13,4*%
%TO.N,GND*%
X134000000Y-123120000D03*
%TD*%
D10*
%TO.P,J2,1*%
%TO.N,12V_ISO*%
X116500000Y-74500000D03*
%TO.P,J2,2*%
X119500000Y-74500000D03*
%TO.P,J2,3*%
%TO.N,GND*%
X116500000Y-77500000D03*
%TO.P,J2,4*%
X119500000Y-77500000D03*
%TD*%
D11*
%TO.P,J4,1*%
%TO.N,3V3_LOGIC*%
X82000000Y-97000000D03*
D12*
%TO.P,J4,2*%
%TO.N,GND*%
X84540000Y-97000000D03*
%TO.P,J4,3*%
%TO.N,3V3_LOGIC*%
X82000000Y-99540000D03*
%TO.P,J4,4*%
%TO.N,GND*%
X84540000Y-99540000D03*
%TO.P,J4,5*%
%TO.N,SPI_SCLK*%
X82000000Y-102080000D03*
%TO.P,J4,6*%
%TO.N,SPI_MOSI*%
X84540000Y-102080000D03*
%TO.P,J4,7*%
%TO.N,SPI_MISO*%
X82000000Y-104620000D03*
%TO.P,J4,8*%
%TO.N,JETSON_ENABLE_REQ*%
X84540000Y-104620000D03*
%TO.P,J4,9*%
%TO.N,MOTOR_CS0*%
X82000000Y-107160000D03*
%TO.P,J4,10*%
%TO.N,MOTOR_CS1*%
X84540000Y-107160000D03*
%TO.P,J4,11*%
%TO.N,MOTOR_CS2*%
X82000000Y-109700000D03*
%TO.P,J4,12*%
%TO.N,MOTOR_CS3*%
X84540000Y-109700000D03*
%TO.P,J4,13*%
%TO.N,MOTOR_CS4*%
X82000000Y-112240000D03*
%TO.P,J4,14*%
%TO.N,MOTOR_CS5*%
X84540000Y-112240000D03*
%TO.P,J4,15*%
%TO.N,I2C_SDA*%
X82000000Y-114780000D03*
%TO.P,J4,16*%
%TO.N,I2C_SCL*%
X84540000Y-114780000D03*
%TO.P,J4,17*%
%TO.N,ESTOP_SENSE*%
X82000000Y-117320000D03*
%TO.P,J4,18*%
%TO.N,UART_TX*%
X84540000Y-117320000D03*
%TO.P,J4,19*%
%TO.N,UART_RX*%
X82000000Y-119860000D03*
%TO.P,J4,20*%
%TO.N,MCU_RESET*%
X84540000Y-119860000D03*
%TD*%
D10*
%TO.P,J12,1*%
%TO.N,ESTOP_CH_A_RETURN*%
X69500000Y-105500000D03*
%TO.P,J12,2*%
%TO.N,RESET_CH_A_RETURN*%
X72500000Y-105500000D03*
%TO.P,J12,3*%
%TO.N,ESTOP_CH_B_RETURN*%
X69500000Y-108500000D03*
%TO.P,J12,4*%
%TO.N,RESET_CH_B_RETURN*%
X72500000Y-108500000D03*
%TD*%
D16*
%TO.P,U7,1*%
%TO.N,3V3_LOGIC*%
X132000000Y-24000000D03*
D17*
%TO.P,U7,2*%
%TO.N,GND*%
X134540000Y-24000000D03*
%TO.P,U7,5*%
%TO.N,GND_CAN_ISO*%
X142160000Y-24000000D03*
%TO.P,U7,7*%
%TO.N,5V_CAN_ISO*%
X147240000Y-24000000D03*
%TD*%
D10*
%TO.P,J6,1*%
%TO.N,CANH*%
X148000000Y-74500000D03*
%TO.P,J6,2*%
%TO.N,CANL*%
X151000000Y-74500000D03*
%TO.P,J6,3*%
%TO.N,GND_CAN_ISO*%
X148000000Y-77500000D03*
%TO.P,J6,4*%
%TO.N,N/C*%
X151000000Y-77500000D03*
%TD*%
D18*
%TO.P,C3,1*%
%TO.N,12V_ISO*%
X93000000Y-27000000D03*
D10*
%TO.P,C3,2*%
%TO.N,GND*%
X93000000Y-22000000D03*
%TD*%
D19*
%TO.P,C5,1*%
%TO.N,JETSON_12V*%
X119000000Y-20500000D03*
D13*
%TO.P,C5,2*%
%TO.N,GND*%
X124000000Y-20500000D03*
%TD*%
D10*
%TO.P,J1,1*%
%TO.N,VBAT_RAW*%
X9500000Y-13000000D03*
%TO.P,J1,2*%
X12500000Y-13000000D03*
%TO.P,J1,3*%
%TO.N,GND_PWR*%
X9500000Y-16000000D03*
%TO.P,J1,4*%
X12500000Y-16000000D03*
%TD*%
%TO.P,J11,1*%
%TO.N,MOTOR_ENABLE_SAFE*%
X51500000Y-105500000D03*
%TO.P,J11,2*%
%TO.N,ESTOP_SENSE*%
X54500000Y-105500000D03*
%TO.P,J11,3*%
%TO.N,GND*%
X51500000Y-108500000D03*
%TO.P,J11,4*%
%TO.N,3V3_LOGIC*%
X54500000Y-108500000D03*
%TD*%
D13*
%TO.P,K2,1*%
%TO.N,RESET_CH_B_RETURN*%
X17000000Y-108000000D03*
%TO.P,K2,2*%
%TO.N,GND*%
X23000000Y-108000000D03*
%TO.P,K2,3*%
%TO.N,SAFE_STAGE_A*%
X29000000Y-108000000D03*
%TO.P,K2,4*%
%TO.N,MOTOR_ENABLE_SAFE*%
X35000000Y-108000000D03*
%TO.P,K2,5*%
%TO.N,SENSE_STAGE_A*%
X41000000Y-108000000D03*
%TO.P,K2,6*%
%TO.N,ESTOP_SENSE*%
X41000000Y-120000000D03*
%TO.P,K2,7*%
%TO.N,ESTOP_CH_B_RETURN*%
X35000000Y-120000000D03*
%TO.P,K2,8*%
%TO.N,RESET_CH_B_RETURN*%
X29000000Y-120000000D03*
%TO.P,K2,9*%
%TO.N,3V3_LOGIC*%
X23000000Y-120000000D03*
%TO.P,K2,10*%
%TO.N,RELAY_B_NC*%
X17000000Y-120000000D03*
%TD*%
D20*
%TO.N,12V_ISO*%
X79500000Y-21000000D03*
X82500000Y-21000000D03*
X81000000Y-19500000D03*
X79500000Y-22500000D03*
X79500000Y-19500000D03*
X82500000Y-19500000D03*
X81000000Y-22500000D03*
X62921100Y-81078900D03*
X82500000Y-22500000D03*
X83902900Y-22092800D03*
D21*
%TO.N,3V3_LOGIC*%
X91478600Y-7553600D03*
X87403800Y-83169100D03*
X96200000Y-101725000D03*
X96958900Y-105517300D03*
X99633100Y-99500000D03*
X109556700Y-113108500D03*
X86025000Y-58334500D03*
X112716100Y-111251400D03*
X114110900Y-16679200D03*
%TO.N,5V_CAN_ISO*%
X142571000Y-40705700D03*
%TO.N,BOOT0*%
X103000000Y-96579200D03*
X116440600Y-114265600D03*
%TO.N,CAN_RX*%
X109898600Y-94059300D03*
X128600000Y-39940800D03*
%TO.N,CAN_TX*%
X109000000Y-94056800D03*
X128600000Y-38789200D03*
%TO.N,ESTOP_A_MON*%
X111208900Y-106179600D03*
X53330000Y-97325500D03*
X56385400Y-87193000D03*
%TO.N,ESTOP_B_MON*%
X54784000Y-89787600D03*
X58059700Y-97525300D03*
X110928000Y-105425500D03*
%TO.N,ESTOP_CH_B_RETURN*%
X49653500Y-89789200D03*
%TO.N,ESTOP_SENSE*%
X114940000Y-107092300D03*
X60680000Y-90208500D03*
D20*
%TO.N,FET_COMMON*%
X30106400Y-25587600D03*
X28083700Y-16174600D03*
D21*
%TO.N,FET_GATE*%
X26065300Y-23035400D03*
X25600700Y-18319300D03*
%TO.N,GND*%
X95500000Y-102800000D03*
X50046900Y-97538100D03*
X83459300Y-33929200D03*
X133333900Y-17133900D03*
X107992400Y-46727000D03*
D20*
X79500000Y-34500000D03*
X81000000Y-31500000D03*
D21*
X109834600Y-90615400D03*
X120357300Y-113456300D03*
X94500000Y-100075000D03*
D20*
X82500000Y-33000000D03*
X81000000Y-34500000D03*
D21*
X111640200Y-112225100D03*
X93694400Y-54857100D03*
X88975000Y-58323000D03*
X89662900Y-48775000D03*
D20*
X82500000Y-31500000D03*
D21*
X88500000Y-100100000D03*
X92200000Y-107200000D03*
D20*
X79500000Y-31500000D03*
X79500000Y-33000000D03*
X82500000Y-34500000D03*
D21*
X128600000Y-37519200D03*
X101000000Y-101500000D03*
X94872600Y-82872600D03*
X112724300Y-96397200D03*
X127200000Y-44445000D03*
X96553500Y-45245100D03*
X95500000Y-106200000D03*
%TO.N,GND_CAN_ISO*%
X142997900Y-34677100D03*
X145650000Y-19181000D03*
X151200000Y-54631300D03*
D20*
%TO.N,GND_PWR*%
X18976000Y-29466600D03*
D21*
%TO.N,I2C_SCL*%
X109558800Y-122266200D03*
X124108600Y-113283600D03*
%TO.N,I2C_SCL_MCU*%
X103660700Y-94058700D03*
X106447400Y-122272400D03*
%TO.N,I2C_SDA*%
X112825000Y-122033000D03*
X128824999Y-114932900D03*
%TO.N,I2C_SDA_MCU*%
X103627900Y-97021500D03*
X110316500Y-123000000D03*
%TO.N,INPUT_SENSE*%
X33500000Y-23500000D03*
X38500000Y-24500000D03*
D20*
%TO.N,JETSON_12V*%
X113500000Y-8800000D03*
X79766200Y-82000000D03*
X113500000Y-8100000D03*
X114500000Y-8100000D03*
X114500000Y-8800000D03*
X107524000Y-20966600D03*
D21*
%TO.N,JETSON_ENABLE_REQ*%
X104500000Y-96584900D03*
%TO.N,JETSON_FAULT_N*%
X115327000Y-9643500D03*
X93043000Y-7468000D03*
%TO.N,JETSON_PGOOD*%
X114831100Y-11104100D03*
X89032200Y-7457200D03*
%TO.N,MCU_RESET*%
X97068700Y-103505800D03*
X118646100Y-109621100D03*
X104000000Y-83203500D03*
%TO.N,MOTOR_CS0*%
X112116100Y-117291100D03*
%TO.N,MOTOR_CS0_MCU*%
X104500000Y-111929000D03*
X110464900Y-117289900D03*
%TO.N,MOTOR_CS1*%
X116123900Y-117278100D03*
%TO.N,MOTOR_CS1_MCU*%
X114464900Y-117289900D03*
X105321000Y-111932800D03*
%TO.N,MOTOR_CS2*%
X120115700Y-117290700D03*
%TO.N,MOTOR_CS2_MCU*%
X118320000Y-118000000D03*
X110533000Y-111953000D03*
%TO.N,MOTOR_CS3*%
X124125400Y-117300400D03*
%TO.N,MOTOR_CS3_MCU*%
X122466900Y-118708100D03*
X116670300Y-109998100D03*
%TO.N,MOTOR_CS4*%
X100094800Y-122269800D03*
%TO.N,MOTOR_CS4_MCU*%
X113206800Y-109612000D03*
X98317300Y-122702200D03*
%TO.N,MOTOR_CS5*%
X104825000Y-122060700D03*
%TO.N,MOTOR_CS5_MCU*%
X105536400Y-108582400D03*
X103175000Y-122063400D03*
%TO.N,MOTOR_ENABLE_REQ*%
X114931600Y-108000000D03*
%TO.N,OV_SET*%
X17175000Y-29380900D03*
X31148300Y-27694900D03*
%TO.N,RELAY_A_NC*%
X60028600Y-92503700D03*
X112403400Y-107233900D03*
%TO.N,RELAY_B_NC*%
X111022600Y-107379400D03*
X60088700Y-95085000D03*
%TO.N,SPI_MISO*%
X108114900Y-117289900D03*
%TO.N,SPI_MISO_MCU*%
X102500000Y-109420400D03*
X106466900Y-118708100D03*
%TO.N,SPI_MOSI*%
X104825000Y-117033100D03*
%TO.N,SPI_MOSI_MCU*%
X103000000Y-111937600D03*
X103173400Y-117071300D03*
%TO.N,SPI_SCLK*%
X100207600Y-117172200D03*
%TO.N,SPI_SCLK_MCU*%
X102000000Y-111931200D03*
X99175000Y-117060900D03*
%TO.N,SWCLK*%
X112613900Y-95394000D03*
%TO.N,SWDIO*%
X114927200Y-98574500D03*
%TO.N,U1_GATE*%
X35972300Y-26072300D03*
X21909400Y-25765600D03*
%TO.N,U3_ILIM*%
X112409700Y-14850700D03*
X107914000Y-17261000D03*
%TO.N,U3_PGTH*%
X111895000Y-21280000D03*
X115232900Y-10404600D03*
%TO.N,U3_UVLO*%
X111008600Y-25069200D03*
X109675000Y-13678400D03*
%TO.N,U4_CTRL*%
X101447400Y-48137600D03*
X91705300Y-50076700D03*
%TO.N,U4_SS*%
X104510700Y-47474300D03*
X91732800Y-48349600D03*
%TO.N,U4_VCC*%
X108511200Y-47473800D03*
X85946200Y-50600400D03*
%TO.N,U8_LED_A_K*%
X49602200Y-87193000D03*
X59826000Y-96485400D03*
%TO.N,UART_RX*%
X120825000Y-122049500D03*
%TO.N,UART_RX_MCU*%
X114937100Y-100074400D03*
X118449000Y-122274000D03*
%TO.N,UART_TX*%
X116317400Y-122086100D03*
%TO.N,UART_TX_MCU*%
X115175000Y-123952600D03*
X112405000Y-100320900D03*
%TO.N,UV_SET*%
X31168200Y-28493600D03*
X13175000Y-27455200D03*
%TO.N,VBAT_FUSED*%
X32400000Y-30000000D03*
D20*
X9551200Y-27928900D03*
X32865800Y-30582800D03*
%TO.N,VBAT_PROTECTED*%
X40498400Y-30451600D03*
D21*
X40500000Y-29500000D03*
D20*
X46351200Y-21000000D03*
X28083700Y-34558700D03*
X8000000Y-80540600D03*
%TO.N,VBAT_RAW*%
X17427700Y-13215500D03*
%TD*%
%TA.AperFunction,Conductor*%
%TO.N,GND_PWR*%
G36*
X45959191Y-1518907D02*
G01*
X45995155Y-1568407D01*
X46000000Y-1599000D01*
X46000000Y-20460957D01*
X45981093Y-20519148D01*
X45971009Y-20530954D01*
X45870680Y-20631284D01*
X45791623Y-20768216D01*
X45750700Y-20920943D01*
X45750700Y-21079057D01*
X45791623Y-21231784D01*
X45870680Y-21368716D01*
X45971005Y-21469041D01*
X45998781Y-21523556D01*
X46000000Y-21539043D01*
X46000000Y-81901000D01*
X45981093Y-81959191D01*
X45931593Y-81995155D01*
X45901000Y-82000000D01*
X1599000Y-82000000D01*
X1540809Y-81981093D01*
X1504845Y-81931593D01*
X1500000Y-81901000D01*
X1500000Y-80461543D01*
X7399500Y-80461543D01*
X7399500Y-80619657D01*
X7440423Y-80772384D01*
X7519480Y-80909316D01*
X7631284Y-81021120D01*
X7768216Y-81100177D01*
X7920943Y-81141100D01*
X7920945Y-81141100D01*
X8079055Y-81141100D01*
X8079057Y-81141100D01*
X8231784Y-81100177D01*
X8368716Y-81021120D01*
X8480520Y-80909316D01*
X8559577Y-80772384D01*
X8600500Y-80619657D01*
X8600500Y-80461543D01*
X8559577Y-80308816D01*
X8480520Y-80171884D01*
X8368716Y-80060080D01*
X8231784Y-79981023D01*
X8079057Y-79940100D01*
X7920943Y-79940100D01*
X7768216Y-79981023D01*
X7631284Y-80060080D01*
X7519480Y-80171884D01*
X7440423Y-80308816D01*
X7399500Y-80461543D01*
X1500000Y-80461543D01*
X1500000Y-34479643D01*
X27483200Y-34479643D01*
X27483200Y-34637757D01*
X27524123Y-34790484D01*
X27603180Y-34927416D01*
X27714984Y-35039220D01*
X27851916Y-35118277D01*
X28004643Y-35159200D01*
X28004645Y-35159200D01*
X28162755Y-35159200D01*
X28162757Y-35159200D01*
X28315484Y-35118277D01*
X28452416Y-35039220D01*
X28564220Y-34927416D01*
X28643277Y-34790484D01*
X28684200Y-34637757D01*
X28684200Y-34479643D01*
X28643277Y-34326916D01*
X28564220Y-34189984D01*
X28452416Y-34078180D01*
X28315484Y-33999123D01*
X28162757Y-33958200D01*
X28004643Y-33958200D01*
X27851916Y-33999123D01*
X27714984Y-34078180D01*
X27603180Y-34189984D01*
X27524123Y-34326916D01*
X27483200Y-34479643D01*
X1500000Y-34479643D01*
X1500000Y-29934108D01*
X31899500Y-29934108D01*
X31899500Y-30065892D01*
X31904053Y-30082884D01*
X31933609Y-30193190D01*
X31999496Y-30307309D01*
X31999498Y-30307311D01*
X31999500Y-30307314D01*
X32092686Y-30400500D01*
X32092688Y-30400501D01*
X32092690Y-30400503D01*
X32212433Y-30469637D01*
X32211383Y-30471455D01*
X32250703Y-30505026D01*
X32265300Y-30556767D01*
X32265300Y-30661857D01*
X32306223Y-30814584D01*
X32385280Y-30951516D01*
X32497084Y-31063320D01*
X32634016Y-31142377D01*
X32786743Y-31183300D01*
X32786745Y-31183300D01*
X32944855Y-31183300D01*
X32944857Y-31183300D01*
X33097584Y-31142377D01*
X33234516Y-31063320D01*
X33346320Y-30951516D01*
X33425377Y-30814584D01*
X33466300Y-30661857D01*
X33466300Y-30503743D01*
X33436272Y-30391676D01*
X33436272Y-30391674D01*
X33431146Y-30372543D01*
X39897900Y-30372543D01*
X39897900Y-30530657D01*
X39938823Y-30683384D01*
X40017880Y-30820316D01*
X40129684Y-30932120D01*
X40266616Y-31011177D01*
X40419343Y-31052100D01*
X40419345Y-31052100D01*
X40577455Y-31052100D01*
X40577457Y-31052100D01*
X40730184Y-31011177D01*
X40867116Y-30932120D01*
X40978920Y-30820316D01*
X41057977Y-30683384D01*
X41098900Y-30530657D01*
X41098900Y-30372543D01*
X41057977Y-30219816D01*
X40978920Y-30082884D01*
X40871926Y-29975890D01*
X40844151Y-29921376D01*
X40853722Y-29860944D01*
X40871925Y-29835888D01*
X40900500Y-29807314D01*
X40915460Y-29781403D01*
X40966390Y-29693190D01*
X40966390Y-29693188D01*
X40966392Y-29693186D01*
X41000500Y-29565892D01*
X41000500Y-29434108D01*
X40966392Y-29306814D01*
X40966390Y-29306811D01*
X40966390Y-29306809D01*
X40900503Y-29192690D01*
X40900501Y-29192688D01*
X40900500Y-29192686D01*
X40807314Y-29099500D01*
X40807311Y-29099498D01*
X40807309Y-29099496D01*
X40693189Y-29033609D01*
X40693191Y-29033609D01*
X40643799Y-29020375D01*
X40565892Y-28999500D01*
X40434108Y-28999500D01*
X40356200Y-29020375D01*
X40306809Y-29033609D01*
X40192690Y-29099496D01*
X40099496Y-29192690D01*
X40033609Y-29306809D01*
X40033608Y-29306814D01*
X39999500Y-29434108D01*
X39999500Y-29565892D01*
X40029579Y-29678151D01*
X40033609Y-29693190D01*
X40099496Y-29807309D01*
X40099498Y-29807311D01*
X40099500Y-29807314D01*
X40126473Y-29834287D01*
X40154249Y-29888802D01*
X40144678Y-29949234D01*
X40126474Y-29974289D01*
X40017880Y-30082884D01*
X39938823Y-30219816D01*
X39897900Y-30372543D01*
X33431146Y-30372543D01*
X33425378Y-30351019D01*
X33425378Y-30351018D01*
X33425377Y-30351016D01*
X33346320Y-30214084D01*
X33234516Y-30102280D01*
X33097584Y-30023223D01*
X33013237Y-30000622D01*
X32966190Y-29988016D01*
X32914875Y-29954691D01*
X32896187Y-29918014D01*
X32866392Y-29806814D01*
X32851721Y-29781403D01*
X32800503Y-29692690D01*
X32800501Y-29692688D01*
X32800500Y-29692686D01*
X32707314Y-29599500D01*
X32707311Y-29599498D01*
X32707309Y-29599496D01*
X32593189Y-29533609D01*
X32593191Y-29533609D01*
X32543799Y-29520375D01*
X32465892Y-29499500D01*
X32334108Y-29499500D01*
X32256200Y-29520375D01*
X32206809Y-29533609D01*
X32092690Y-29599496D01*
X31999496Y-29692690D01*
X31933609Y-29806809D01*
X31922762Y-29847292D01*
X31899500Y-29934108D01*
X1500000Y-29934108D01*
X1500000Y-29315008D01*
X16674500Y-29315008D01*
X16674500Y-29446792D01*
X16688623Y-29499500D01*
X16708609Y-29574090D01*
X16774496Y-29688209D01*
X16774498Y-29688211D01*
X16774500Y-29688214D01*
X16867686Y-29781400D01*
X16867688Y-29781401D01*
X16867690Y-29781403D01*
X16981810Y-29847290D01*
X16981808Y-29847290D01*
X16981812Y-29847291D01*
X16981814Y-29847292D01*
X17109108Y-29881400D01*
X17109110Y-29881400D01*
X17240890Y-29881400D01*
X17240892Y-29881400D01*
X17368186Y-29847292D01*
X17368188Y-29847290D01*
X17368190Y-29847290D01*
X17377556Y-29841883D01*
X17482309Y-29781403D01*
X17482309Y-29781402D01*
X17482314Y-29781400D01*
X17575500Y-29688214D01*
X17626719Y-29599500D01*
X17641390Y-29574090D01*
X17641390Y-29574088D01*
X17641392Y-29574086D01*
X17675500Y-29446792D01*
X17675500Y-29315008D01*
X17641392Y-29187714D01*
X17641390Y-29187711D01*
X17641390Y-29187709D01*
X17575503Y-29073590D01*
X17575501Y-29073588D01*
X17575500Y-29073586D01*
X17482314Y-28980400D01*
X17482311Y-28980398D01*
X17482309Y-28980396D01*
X17368189Y-28914509D01*
X17368191Y-28914509D01*
X17318799Y-28901275D01*
X17240892Y-28880400D01*
X17109108Y-28880400D01*
X17031200Y-28901275D01*
X16981809Y-28914509D01*
X16867690Y-28980396D01*
X16774496Y-29073590D01*
X16708609Y-29187709D01*
X16689539Y-29258878D01*
X16674500Y-29315008D01*
X1500000Y-29315008D01*
X1500000Y-27849843D01*
X8950700Y-27849843D01*
X8950700Y-28007957D01*
X8991623Y-28160684D01*
X9070680Y-28297616D01*
X9182484Y-28409420D01*
X9319416Y-28488477D01*
X9472143Y-28529400D01*
X9472145Y-28529400D01*
X9630255Y-28529400D01*
X9630257Y-28529400D01*
X9782984Y-28488477D01*
X9919916Y-28409420D01*
X10031720Y-28297616D01*
X10110777Y-28160684D01*
X10151700Y-28007957D01*
X10151700Y-27849843D01*
X10110777Y-27697116D01*
X10031720Y-27560184D01*
X9919916Y-27448380D01*
X9817599Y-27389308D01*
X12674500Y-27389308D01*
X12674500Y-27521092D01*
X12703416Y-27629008D01*
X12708609Y-27648390D01*
X12774496Y-27762509D01*
X12774498Y-27762511D01*
X12774500Y-27762514D01*
X12867686Y-27855700D01*
X12867688Y-27855701D01*
X12867690Y-27855703D01*
X12981810Y-27921590D01*
X12981808Y-27921590D01*
X12981812Y-27921591D01*
X12981814Y-27921592D01*
X13109108Y-27955700D01*
X13109110Y-27955700D01*
X13240890Y-27955700D01*
X13240892Y-27955700D01*
X13368186Y-27921592D01*
X13368188Y-27921590D01*
X13368190Y-27921590D01*
X13482309Y-27855703D01*
X13482309Y-27855702D01*
X13482314Y-27855700D01*
X13575500Y-27762514D01*
X13641392Y-27648386D01*
X13646584Y-27629008D01*
X30647800Y-27629008D01*
X30647800Y-27760792D01*
X30671661Y-27849843D01*
X30681909Y-27888090D01*
X30747796Y-28002209D01*
X30747798Y-28002211D01*
X30747800Y-28002214D01*
X30779783Y-28034197D01*
X30807559Y-28088712D01*
X30797988Y-28149144D01*
X30779786Y-28174198D01*
X30767700Y-28186285D01*
X30701809Y-28300409D01*
X30701808Y-28300414D01*
X30667700Y-28427708D01*
X30667700Y-28559492D01*
X30697779Y-28671751D01*
X30701809Y-28686790D01*
X30767696Y-28800909D01*
X30767698Y-28800911D01*
X30767700Y-28800914D01*
X30860886Y-28894100D01*
X30860888Y-28894101D01*
X30860890Y-28894103D01*
X30975010Y-28959990D01*
X30975008Y-28959990D01*
X30975012Y-28959991D01*
X30975014Y-28959992D01*
X31102308Y-28994100D01*
X31102310Y-28994100D01*
X31234090Y-28994100D01*
X31234092Y-28994100D01*
X31361386Y-28959992D01*
X31361388Y-28959990D01*
X31361390Y-28959990D01*
X31475509Y-28894103D01*
X31475509Y-28894102D01*
X31475514Y-28894100D01*
X31568700Y-28800914D01*
X31634592Y-28686786D01*
X31668700Y-28559492D01*
X31668700Y-28427708D01*
X31634592Y-28300414D01*
X31634590Y-28300411D01*
X31634590Y-28300409D01*
X31568703Y-28186290D01*
X31568701Y-28186288D01*
X31568700Y-28186286D01*
X31536715Y-28154301D01*
X31508940Y-28099787D01*
X31518511Y-28039355D01*
X31536720Y-28014294D01*
X31548800Y-28002214D01*
X31614690Y-27888090D01*
X31614690Y-27888088D01*
X31614692Y-27888086D01*
X31648800Y-27760792D01*
X31648800Y-27629008D01*
X31614692Y-27501714D01*
X31614690Y-27501711D01*
X31614690Y-27501709D01*
X31548803Y-27387590D01*
X31548801Y-27387588D01*
X31548800Y-27387586D01*
X31455614Y-27294400D01*
X31455611Y-27294398D01*
X31455609Y-27294396D01*
X31341489Y-27228509D01*
X31341491Y-27228509D01*
X31292099Y-27215275D01*
X31214192Y-27194400D01*
X31082408Y-27194400D01*
X31004500Y-27215275D01*
X30955109Y-27228509D01*
X30840990Y-27294396D01*
X30747796Y-27387590D01*
X30681909Y-27501709D01*
X30666241Y-27560184D01*
X30647800Y-27629008D01*
X13646584Y-27629008D01*
X13675500Y-27521092D01*
X13675500Y-27389308D01*
X13641392Y-27262014D01*
X13641390Y-27262011D01*
X13641390Y-27262009D01*
X13575503Y-27147890D01*
X13575501Y-27147888D01*
X13575500Y-27147886D01*
X13482314Y-27054700D01*
X13482311Y-27054698D01*
X13482309Y-27054696D01*
X13368189Y-26988809D01*
X13368191Y-26988809D01*
X13318799Y-26975575D01*
X13240892Y-26954700D01*
X13109108Y-26954700D01*
X13031200Y-26975575D01*
X12981809Y-26988809D01*
X12867690Y-27054696D01*
X12774496Y-27147890D01*
X12708609Y-27262009D01*
X12708608Y-27262014D01*
X12674500Y-27389308D01*
X9817599Y-27389308D01*
X9782984Y-27369323D01*
X9630257Y-27328400D01*
X9472143Y-27328400D01*
X9319416Y-27369323D01*
X9182484Y-27448380D01*
X9070680Y-27560184D01*
X8991623Y-27697116D01*
X8950700Y-27849843D01*
X1500000Y-27849843D01*
X1500000Y-25699708D01*
X21408900Y-25699708D01*
X21408900Y-25831492D01*
X21421659Y-25879109D01*
X21443009Y-25958790D01*
X21508896Y-26072909D01*
X21508898Y-26072911D01*
X21508900Y-26072914D01*
X21602086Y-26166100D01*
X21602088Y-26166101D01*
X21602090Y-26166103D01*
X21716210Y-26231990D01*
X21716208Y-26231990D01*
X21716212Y-26231991D01*
X21716214Y-26231992D01*
X21843508Y-26266100D01*
X21843510Y-26266100D01*
X21975290Y-26266100D01*
X21975292Y-26266100D01*
X22102586Y-26231992D01*
X22102588Y-26231990D01*
X22102590Y-26231990D01*
X22216709Y-26166103D01*
X22216709Y-26166102D01*
X22216714Y-26166100D01*
X22309900Y-26072914D01*
X22312668Y-26068120D01*
X22375790Y-25958790D01*
X22375790Y-25958788D01*
X22375792Y-25958786D01*
X22409900Y-25831492D01*
X22409900Y-25699708D01*
X22375792Y-25572414D01*
X22338916Y-25508543D01*
X29505900Y-25508543D01*
X29505900Y-25666657D01*
X29546823Y-25819384D01*
X29625880Y-25956316D01*
X29737684Y-26068120D01*
X29874616Y-26147177D01*
X30027343Y-26188100D01*
X30027345Y-26188100D01*
X30185455Y-26188100D01*
X30185457Y-26188100D01*
X30338184Y-26147177D01*
X30475116Y-26068120D01*
X30536828Y-26006408D01*
X35471800Y-26006408D01*
X35471800Y-26138192D01*
X35474208Y-26147177D01*
X35505909Y-26265490D01*
X35571796Y-26379609D01*
X35571798Y-26379611D01*
X35571800Y-26379614D01*
X35664986Y-26472800D01*
X35664988Y-26472801D01*
X35664990Y-26472803D01*
X35779110Y-26538690D01*
X35779108Y-26538690D01*
X35779112Y-26538691D01*
X35779114Y-26538692D01*
X35906408Y-26572800D01*
X35906410Y-26572800D01*
X36038190Y-26572800D01*
X36038192Y-26572800D01*
X36165486Y-26538692D01*
X36165488Y-26538690D01*
X36165490Y-26538690D01*
X36279609Y-26472803D01*
X36279609Y-26472802D01*
X36279614Y-26472800D01*
X36372800Y-26379614D01*
X36438692Y-26265486D01*
X36472800Y-26138192D01*
X36472800Y-26006408D01*
X36438692Y-25879114D01*
X36438690Y-25879111D01*
X36438690Y-25879109D01*
X36372803Y-25764990D01*
X36372801Y-25764988D01*
X36372800Y-25764986D01*
X36279614Y-25671800D01*
X36279611Y-25671798D01*
X36279609Y-25671796D01*
X36165489Y-25605909D01*
X36165491Y-25605909D01*
X36116099Y-25592675D01*
X36038192Y-25571800D01*
X35906408Y-25571800D01*
X35828500Y-25592675D01*
X35779109Y-25605909D01*
X35664990Y-25671796D01*
X35571796Y-25764990D01*
X35505909Y-25879109D01*
X35505908Y-25879114D01*
X35471800Y-26006408D01*
X30536828Y-26006408D01*
X30586920Y-25956316D01*
X30665977Y-25819384D01*
X30706900Y-25666657D01*
X30706900Y-25508543D01*
X30665977Y-25355816D01*
X30586920Y-25218884D01*
X30475116Y-25107080D01*
X30338184Y-25028023D01*
X30185457Y-24987100D01*
X30027343Y-24987100D01*
X29874616Y-25028023D01*
X29737684Y-25107080D01*
X29625880Y-25218884D01*
X29546823Y-25355816D01*
X29505900Y-25508543D01*
X22338916Y-25508543D01*
X22309900Y-25458286D01*
X22216714Y-25365100D01*
X22216711Y-25365098D01*
X22216709Y-25365096D01*
X22102589Y-25299209D01*
X22102591Y-25299209D01*
X22053199Y-25285975D01*
X21975292Y-25265100D01*
X21843508Y-25265100D01*
X21765600Y-25285975D01*
X21716209Y-25299209D01*
X21602090Y-25365096D01*
X21508896Y-25458290D01*
X21443009Y-25572409D01*
X21443008Y-25572414D01*
X21408900Y-25699708D01*
X1500000Y-25699708D01*
X1500000Y-24434108D01*
X37999500Y-24434108D01*
X37999500Y-24565892D01*
X38029579Y-24678151D01*
X38033609Y-24693190D01*
X38099496Y-24807309D01*
X38099498Y-24807311D01*
X38099500Y-24807314D01*
X38192686Y-24900500D01*
X38192688Y-24900501D01*
X38192690Y-24900503D01*
X38306810Y-24966390D01*
X38306808Y-24966390D01*
X38306812Y-24966391D01*
X38306814Y-24966392D01*
X38434108Y-25000500D01*
X38434110Y-25000500D01*
X38565890Y-25000500D01*
X38565892Y-25000500D01*
X38693186Y-24966392D01*
X38693188Y-24966390D01*
X38693190Y-24966390D01*
X38807309Y-24900503D01*
X38807309Y-24900502D01*
X38807314Y-24900500D01*
X38900500Y-24807314D01*
X38966392Y-24693186D01*
X39000500Y-24565892D01*
X39000500Y-24434108D01*
X38966392Y-24306814D01*
X38966390Y-24306811D01*
X38966390Y-24306809D01*
X38900503Y-24192690D01*
X38900501Y-24192688D01*
X38900500Y-24192686D01*
X38807314Y-24099500D01*
X38807311Y-24099498D01*
X38807309Y-24099496D01*
X38693189Y-24033609D01*
X38693191Y-24033609D01*
X38643799Y-24020375D01*
X38565892Y-23999500D01*
X38434108Y-23999500D01*
X38356200Y-24020375D01*
X38306809Y-24033609D01*
X38192690Y-24099496D01*
X38099496Y-24192690D01*
X38033609Y-24306809D01*
X38033608Y-24306814D01*
X37999500Y-24434108D01*
X1500000Y-24434108D01*
X1500000Y-22969508D01*
X25564800Y-22969508D01*
X25564800Y-23101292D01*
X25589289Y-23192686D01*
X25598909Y-23228590D01*
X25664796Y-23342709D01*
X25664798Y-23342711D01*
X25664800Y-23342714D01*
X25757986Y-23435900D01*
X25757988Y-23435901D01*
X25757990Y-23435903D01*
X25872110Y-23501790D01*
X25872108Y-23501790D01*
X25872112Y-23501791D01*
X25872114Y-23501792D01*
X25999408Y-23535900D01*
X25999410Y-23535900D01*
X26131190Y-23535900D01*
X26131192Y-23535900D01*
X26258486Y-23501792D01*
X26258488Y-23501790D01*
X26258490Y-23501790D01*
X26372609Y-23435903D01*
X26372609Y-23435902D01*
X26372614Y-23435900D01*
X26374406Y-23434108D01*
X32999500Y-23434108D01*
X32999500Y-23565892D01*
X33029579Y-23678151D01*
X33033609Y-23693190D01*
X33099496Y-23807309D01*
X33099498Y-23807311D01*
X33099500Y-23807314D01*
X33192686Y-23900500D01*
X33192688Y-23900501D01*
X33192690Y-23900503D01*
X33306810Y-23966390D01*
X33306808Y-23966390D01*
X33306812Y-23966391D01*
X33306814Y-23966392D01*
X33434108Y-24000500D01*
X33434110Y-24000500D01*
X33565890Y-24000500D01*
X33565892Y-24000500D01*
X33693186Y-23966392D01*
X33693188Y-23966390D01*
X33693190Y-23966390D01*
X33807309Y-23900503D01*
X33807309Y-23900502D01*
X33807314Y-23900500D01*
X33900500Y-23807314D01*
X33966392Y-23693186D01*
X34000500Y-23565892D01*
X34000500Y-23434108D01*
X33966392Y-23306814D01*
X33966390Y-23306811D01*
X33966390Y-23306809D01*
X33900503Y-23192690D01*
X33900501Y-23192688D01*
X33900500Y-23192686D01*
X33807314Y-23099500D01*
X33807311Y-23099498D01*
X33807309Y-23099496D01*
X33693189Y-23033609D01*
X33693191Y-23033609D01*
X33643799Y-23020375D01*
X33565892Y-22999500D01*
X33434108Y-22999500D01*
X33356200Y-23020375D01*
X33306809Y-23033609D01*
X33192690Y-23099496D01*
X33099496Y-23192690D01*
X33033609Y-23306809D01*
X33033608Y-23306814D01*
X32999500Y-23434108D01*
X26374406Y-23434108D01*
X26465800Y-23342714D01*
X26531692Y-23228586D01*
X26565800Y-23101292D01*
X26565800Y-22969508D01*
X26531692Y-22842214D01*
X26531690Y-22842211D01*
X26531690Y-22842209D01*
X26465803Y-22728090D01*
X26465801Y-22728088D01*
X26465800Y-22728086D01*
X26372614Y-22634900D01*
X26372611Y-22634898D01*
X26372609Y-22634896D01*
X26258489Y-22569009D01*
X26258491Y-22569009D01*
X26209099Y-22555775D01*
X26131192Y-22534900D01*
X25999408Y-22534900D01*
X25921500Y-22555775D01*
X25872109Y-22569009D01*
X25757990Y-22634896D01*
X25664796Y-22728090D01*
X25598909Y-22842209D01*
X25598908Y-22842214D01*
X25564800Y-22969508D01*
X1500000Y-22969508D01*
X1500000Y-18253408D01*
X25100200Y-18253408D01*
X25100200Y-18385192D01*
X25130279Y-18497451D01*
X25134309Y-18512490D01*
X25200196Y-18626609D01*
X25200198Y-18626611D01*
X25200200Y-18626614D01*
X25293386Y-18719800D01*
X25293388Y-18719801D01*
X25293390Y-18719803D01*
X25407510Y-18785690D01*
X25407508Y-18785690D01*
X25407512Y-18785691D01*
X25407514Y-18785692D01*
X25534808Y-18819800D01*
X25534810Y-18819800D01*
X25666590Y-18819800D01*
X25666592Y-18819800D01*
X25793886Y-18785692D01*
X25793888Y-18785690D01*
X25793890Y-18785690D01*
X25908009Y-18719803D01*
X25908009Y-18719802D01*
X25908014Y-18719800D01*
X26001200Y-18626614D01*
X26067092Y-18512486D01*
X26101200Y-18385192D01*
X26101200Y-18253408D01*
X26067092Y-18126114D01*
X26067090Y-18126111D01*
X26067090Y-18126109D01*
X26001203Y-18011990D01*
X26001201Y-18011988D01*
X26001200Y-18011986D01*
X25908014Y-17918800D01*
X25908011Y-17918798D01*
X25908009Y-17918796D01*
X25793889Y-17852909D01*
X25793891Y-17852909D01*
X25744499Y-17839675D01*
X25666592Y-17818800D01*
X25534808Y-17818800D01*
X25456900Y-17839675D01*
X25407509Y-17852909D01*
X25293390Y-17918796D01*
X25200196Y-18011990D01*
X25134309Y-18126109D01*
X25134308Y-18126114D01*
X25100200Y-18253408D01*
X1500000Y-18253408D01*
X1500000Y-16095543D01*
X27483200Y-16095543D01*
X27483200Y-16253657D01*
X27524123Y-16406384D01*
X27603180Y-16543316D01*
X27714984Y-16655120D01*
X27851916Y-16734177D01*
X28004643Y-16775100D01*
X28004645Y-16775100D01*
X28162755Y-16775100D01*
X28162757Y-16775100D01*
X28315484Y-16734177D01*
X28452416Y-16655120D01*
X28564220Y-16543316D01*
X28643277Y-16406384D01*
X28684200Y-16253657D01*
X28684200Y-16095543D01*
X28643277Y-15942816D01*
X28564220Y-15805884D01*
X28452416Y-15694080D01*
X28315484Y-15615023D01*
X28162757Y-15574100D01*
X28004643Y-15574100D01*
X27851916Y-15615023D01*
X27714984Y-15694080D01*
X27603180Y-15805884D01*
X27524123Y-15942816D01*
X27483200Y-16095543D01*
X1500000Y-16095543D01*
X1500000Y-12889774D01*
X8099500Y-12889774D01*
X8099500Y-13110225D01*
X8133984Y-13327948D01*
X8202102Y-13537599D01*
X8202104Y-13537602D01*
X8202105Y-13537606D01*
X8302185Y-13734022D01*
X8431758Y-13912365D01*
X8587635Y-14068242D01*
X8765978Y-14197815D01*
X8962394Y-14297895D01*
X9172049Y-14366015D01*
X9259140Y-14379809D01*
X9389775Y-14400500D01*
X9389778Y-14400500D01*
X9610225Y-14400500D01*
X9719086Y-14383257D01*
X9827951Y-14366015D01*
X10037606Y-14297895D01*
X10234022Y-14197815D01*
X10412365Y-14068242D01*
X10568242Y-13912365D01*
X10697815Y-13734022D01*
X10797895Y-13537606D01*
X10866015Y-13327951D01*
X10900500Y-13110222D01*
X10900500Y-12889778D01*
X10900500Y-12889774D01*
X11099500Y-12889774D01*
X11099500Y-13110225D01*
X11133984Y-13327948D01*
X11202102Y-13537599D01*
X11202104Y-13537602D01*
X11202105Y-13537606D01*
X11302185Y-13734022D01*
X11431758Y-13912365D01*
X11587635Y-14068242D01*
X11765978Y-14197815D01*
X11962394Y-14297895D01*
X12172049Y-14366015D01*
X12259140Y-14379809D01*
X12389775Y-14400500D01*
X12389778Y-14400500D01*
X12610225Y-14400500D01*
X12719086Y-14383257D01*
X12827951Y-14366015D01*
X13037606Y-14297895D01*
X13234022Y-14197815D01*
X13412365Y-14068242D01*
X13568242Y-13912365D01*
X13697815Y-13734022D01*
X13797895Y-13537606D01*
X13866015Y-13327951D01*
X13896347Y-13136443D01*
X16827200Y-13136443D01*
X16827200Y-13294557D01*
X16868123Y-13447284D01*
X16947180Y-13584216D01*
X17058984Y-13696020D01*
X17195916Y-13775077D01*
X17348643Y-13816000D01*
X17348645Y-13816000D01*
X17506755Y-13816000D01*
X17506757Y-13816000D01*
X17659484Y-13775077D01*
X17796416Y-13696020D01*
X17908220Y-13584216D01*
X17987277Y-13447284D01*
X18028200Y-13294557D01*
X18028200Y-13136443D01*
X17987277Y-12983716D01*
X17908220Y-12846784D01*
X17796416Y-12734980D01*
X17659484Y-12655923D01*
X17506757Y-12615000D01*
X17348643Y-12615000D01*
X17195916Y-12655923D01*
X17058984Y-12734980D01*
X16947180Y-12846784D01*
X16868123Y-12983716D01*
X16827200Y-13136443D01*
X13896347Y-13136443D01*
X13900500Y-13110222D01*
X13900500Y-12889778D01*
X13900500Y-12889774D01*
X13866015Y-12672051D01*
X13866015Y-12672049D01*
X13797895Y-12462394D01*
X13697815Y-12265978D01*
X13568242Y-12087635D01*
X13412365Y-11931758D01*
X13234022Y-11802185D01*
X13234021Y-11802184D01*
X13234019Y-11802183D01*
X13144825Y-11756736D01*
X13037606Y-11702105D01*
X13037602Y-11702104D01*
X13037599Y-11702102D01*
X12827948Y-11633984D01*
X12610225Y-11599500D01*
X12610222Y-11599500D01*
X12389778Y-11599500D01*
X12389775Y-11599500D01*
X12172051Y-11633984D01*
X11962400Y-11702102D01*
X11765980Y-11802183D01*
X11676806Y-11866971D01*
X11587635Y-11931758D01*
X11431758Y-12087635D01*
X11366971Y-12176806D01*
X11302183Y-12265980D01*
X11202102Y-12462400D01*
X11133984Y-12672051D01*
X11099500Y-12889774D01*
X10900500Y-12889774D01*
X10866015Y-12672051D01*
X10866015Y-12672049D01*
X10797895Y-12462394D01*
X10697815Y-12265978D01*
X10568242Y-12087635D01*
X10412365Y-11931758D01*
X10234022Y-11802185D01*
X10234021Y-11802184D01*
X10234019Y-11802183D01*
X10144825Y-11756736D01*
X10037606Y-11702105D01*
X10037602Y-11702104D01*
X10037599Y-11702102D01*
X9827948Y-11633984D01*
X9610225Y-11599500D01*
X9610222Y-11599500D01*
X9389778Y-11599500D01*
X9389775Y-11599500D01*
X9172051Y-11633984D01*
X8962400Y-11702102D01*
X8765980Y-11802183D01*
X8676806Y-11866971D01*
X8587635Y-11931758D01*
X8431758Y-12087635D01*
X8366971Y-12176806D01*
X8302183Y-12265980D01*
X8202102Y-12462400D01*
X8133984Y-12672051D01*
X8099500Y-12889774D01*
X1500000Y-12889774D01*
X1500000Y-7307277D01*
X1518907Y-7249086D01*
X1568407Y-7213122D01*
X1629593Y-7213122D01*
X1661801Y-7230746D01*
X1777719Y-7325878D01*
X1777723Y-7325880D01*
X1777730Y-7325885D01*
X2469260Y-7695515D01*
X2469266Y-7695518D01*
X2992014Y-7854091D01*
X3219637Y-7923141D01*
X3219642Y-7923142D01*
X3999997Y-8000000D01*
X4000000Y-8000000D01*
X4000003Y-8000000D01*
X4780356Y-7923142D01*
X4780361Y-7923141D01*
X5530733Y-7695518D01*
X5778669Y-7562993D01*
X6222268Y-7325885D01*
X6222271Y-7325882D01*
X6222280Y-7325878D01*
X6828427Y-6828427D01*
X7325878Y-6222280D01*
X7325882Y-6222271D01*
X7325885Y-6222268D01*
X7695515Y-5530738D01*
X7695518Y-5530733D01*
X7923141Y-4780361D01*
X7923142Y-4780356D01*
X8000000Y-4000003D01*
X8000000Y-3999996D01*
X7923142Y-3219642D01*
X7923141Y-3219637D01*
X7854091Y-2992014D01*
X7695518Y-2469266D01*
X7695515Y-2469260D01*
X7325885Y-1777730D01*
X7325880Y-1777723D01*
X7325878Y-1777719D01*
X7230748Y-1661802D01*
X7208449Y-1604828D01*
X7223897Y-1545625D01*
X7271194Y-1506810D01*
X7307277Y-1500000D01*
X45901000Y-1500000D01*
X45959191Y-1518907D01*
G37*
%TD.AperFunction*%
%TD*%
%TA.AperFunction,Conductor*%
%TO.N,GND_CAN_ISO*%
G36*
X152750913Y-1518907D02*
G01*
X152786877Y-1568407D01*
X152786877Y-1629593D01*
X152769252Y-1661801D01*
X152688256Y-1760494D01*
X152674120Y-1777720D01*
X152674113Y-1777730D01*
X152304483Y-2469260D01*
X152304481Y-2469265D01*
X152076857Y-3219637D01*
X152076856Y-3219642D01*
X152000000Y-3999997D01*
X152000000Y-4000003D01*
X152076856Y-4780356D01*
X152076857Y-4780361D01*
X152304481Y-5530733D01*
X152304483Y-5530738D01*
X152674113Y-6222268D01*
X152674119Y-6222277D01*
X152674121Y-6222280D01*
X153171572Y-6828427D01*
X153777719Y-7325878D01*
X153777723Y-7325880D01*
X153777730Y-7325885D01*
X154469260Y-7695515D01*
X154469266Y-7695518D01*
X154992014Y-7854091D01*
X155219637Y-7923141D01*
X155219642Y-7923142D01*
X155999997Y-8000000D01*
X156000000Y-8000000D01*
X156000003Y-8000000D01*
X156780356Y-7923142D01*
X156780361Y-7923141D01*
X157530733Y-7695518D01*
X157778669Y-7562993D01*
X158222268Y-7325885D01*
X158222271Y-7325882D01*
X158222280Y-7325878D01*
X158338197Y-7230746D01*
X158395172Y-7208448D01*
X158454375Y-7223896D01*
X158493190Y-7271193D01*
X158500000Y-7307276D01*
X158500000Y-81901000D01*
X158481093Y-81959191D01*
X158431593Y-81995155D01*
X158401000Y-82000000D01*
X140099000Y-82000000D01*
X140040809Y-81981093D01*
X140004845Y-81931593D01*
X140000000Y-81901000D01*
X140000000Y-77389774D01*
X149599500Y-77389774D01*
X149599500Y-77610225D01*
X149633984Y-77827948D01*
X149702102Y-78037599D01*
X149702104Y-78037602D01*
X149702105Y-78037606D01*
X149802185Y-78234022D01*
X149931758Y-78412365D01*
X150087635Y-78568242D01*
X150265978Y-78697815D01*
X150462394Y-78797895D01*
X150672049Y-78866015D01*
X150759140Y-78879809D01*
X150889775Y-78900500D01*
X150889778Y-78900500D01*
X151110225Y-78900500D01*
X151219086Y-78883257D01*
X151327951Y-78866015D01*
X151537606Y-78797895D01*
X151734022Y-78697815D01*
X151912365Y-78568242D01*
X152068242Y-78412365D01*
X152197815Y-78234022D01*
X152297895Y-78037606D01*
X152366015Y-77827951D01*
X152400500Y-77610222D01*
X152400500Y-77389778D01*
X152400500Y-77389774D01*
X152366015Y-77172051D01*
X152366015Y-77172049D01*
X152297895Y-76962394D01*
X152197815Y-76765978D01*
X152068242Y-76587635D01*
X151912365Y-76431758D01*
X151734022Y-76302185D01*
X151734021Y-76302184D01*
X151734019Y-76302183D01*
X151644825Y-76256736D01*
X151537606Y-76202105D01*
X151537602Y-76202104D01*
X151537599Y-76202102D01*
X151327948Y-76133984D01*
X151110225Y-76099500D01*
X151110222Y-76099500D01*
X150889778Y-76099500D01*
X150889775Y-76099500D01*
X150672051Y-76133984D01*
X150462400Y-76202102D01*
X150265980Y-76302183D01*
X150176806Y-76366971D01*
X150087635Y-76431758D01*
X149931758Y-76587635D01*
X149866971Y-76676806D01*
X149802183Y-76765980D01*
X149702102Y-76962400D01*
X149633984Y-77172051D01*
X149599500Y-77389774D01*
X140000000Y-77389774D01*
X140000000Y-74389774D01*
X146599500Y-74389774D01*
X146599500Y-74610225D01*
X146633984Y-74827948D01*
X146702102Y-75037599D01*
X146702104Y-75037602D01*
X146702105Y-75037606D01*
X146802185Y-75234022D01*
X146931758Y-75412365D01*
X147087635Y-75568242D01*
X147265978Y-75697815D01*
X147462394Y-75797895D01*
X147672049Y-75866015D01*
X147759140Y-75879809D01*
X147889775Y-75900500D01*
X147889778Y-75900500D01*
X148110225Y-75900500D01*
X148219086Y-75883257D01*
X148327951Y-75866015D01*
X148537606Y-75797895D01*
X148734022Y-75697815D01*
X148912365Y-75568242D01*
X149068242Y-75412365D01*
X149197815Y-75234022D01*
X149297895Y-75037606D01*
X149366015Y-74827951D01*
X149400500Y-74610222D01*
X149400500Y-74389778D01*
X149400500Y-74389774D01*
X149599500Y-74389774D01*
X149599500Y-74610225D01*
X149633984Y-74827948D01*
X149702102Y-75037599D01*
X149702104Y-75037602D01*
X149702105Y-75037606D01*
X149802185Y-75234022D01*
X149931758Y-75412365D01*
X150087635Y-75568242D01*
X150265978Y-75697815D01*
X150462394Y-75797895D01*
X150672049Y-75866015D01*
X150759140Y-75879809D01*
X150889775Y-75900500D01*
X150889778Y-75900500D01*
X151110225Y-75900500D01*
X151219086Y-75883257D01*
X151327951Y-75866015D01*
X151537606Y-75797895D01*
X151734022Y-75697815D01*
X151912365Y-75568242D01*
X152068242Y-75412365D01*
X152197815Y-75234022D01*
X152297895Y-75037606D01*
X152366015Y-74827951D01*
X152400500Y-74610222D01*
X152400500Y-74389778D01*
X152400500Y-74389774D01*
X152366015Y-74172051D01*
X152366015Y-74172049D01*
X152297895Y-73962394D01*
X152197815Y-73765978D01*
X152068242Y-73587635D01*
X151912365Y-73431758D01*
X151734022Y-73302185D01*
X151734021Y-73302184D01*
X151734019Y-73302183D01*
X151644825Y-73256736D01*
X151537606Y-73202105D01*
X151537602Y-73202104D01*
X151537599Y-73202102D01*
X151327948Y-73133984D01*
X151110225Y-73099500D01*
X151110222Y-73099500D01*
X150889778Y-73099500D01*
X150889775Y-73099500D01*
X150672051Y-73133984D01*
X150462400Y-73202102D01*
X150265980Y-73302183D01*
X150176806Y-73366971D01*
X150087635Y-73431758D01*
X149931758Y-73587635D01*
X149866971Y-73676806D01*
X149802183Y-73765980D01*
X149702102Y-73962400D01*
X149633984Y-74172051D01*
X149599500Y-74389774D01*
X149400500Y-74389774D01*
X149366015Y-74172051D01*
X149366015Y-74172049D01*
X149297895Y-73962394D01*
X149197815Y-73765978D01*
X149068242Y-73587635D01*
X148912365Y-73431758D01*
X148734022Y-73302185D01*
X148734021Y-73302184D01*
X148734019Y-73302183D01*
X148644825Y-73256736D01*
X148537606Y-73202105D01*
X148537602Y-73202104D01*
X148537599Y-73202102D01*
X148327948Y-73133984D01*
X148110225Y-73099500D01*
X148110222Y-73099500D01*
X147889778Y-73099500D01*
X147889775Y-73099500D01*
X147672051Y-73133984D01*
X147462400Y-73202102D01*
X147265980Y-73302183D01*
X147176806Y-73366971D01*
X147087635Y-73431758D01*
X146931758Y-73587635D01*
X146866971Y-73676806D01*
X146802183Y-73765980D01*
X146702102Y-73962400D01*
X146633984Y-74172051D01*
X146599500Y-74389774D01*
X140000000Y-74389774D01*
X140000000Y-65389774D01*
X149599500Y-65389774D01*
X149599500Y-65610225D01*
X149633984Y-65827948D01*
X149702102Y-66037599D01*
X149702104Y-66037602D01*
X149702105Y-66037606D01*
X149802185Y-66234022D01*
X149931758Y-66412365D01*
X150087635Y-66568242D01*
X150265978Y-66697815D01*
X150462394Y-66797895D01*
X150672049Y-66866015D01*
X150759140Y-66879809D01*
X150889775Y-66900500D01*
X150889778Y-66900500D01*
X151110225Y-66900500D01*
X151219086Y-66883257D01*
X151327951Y-66866015D01*
X151537606Y-66797895D01*
X151734022Y-66697815D01*
X151912365Y-66568242D01*
X152068242Y-66412365D01*
X152197815Y-66234022D01*
X152297895Y-66037606D01*
X152366015Y-65827951D01*
X152400500Y-65610222D01*
X152400500Y-65389778D01*
X152400500Y-65389774D01*
X152366015Y-65172051D01*
X152366015Y-65172049D01*
X152297895Y-64962394D01*
X152197815Y-64765978D01*
X152068242Y-64587635D01*
X151912365Y-64431758D01*
X151734022Y-64302185D01*
X151734021Y-64302184D01*
X151734019Y-64302183D01*
X151644825Y-64256736D01*
X151537606Y-64202105D01*
X151537602Y-64202104D01*
X151537599Y-64202102D01*
X151327948Y-64133984D01*
X151110225Y-64099500D01*
X151110222Y-64099500D01*
X150889778Y-64099500D01*
X150889775Y-64099500D01*
X150672051Y-64133984D01*
X150462400Y-64202102D01*
X150265980Y-64302183D01*
X150176806Y-64366971D01*
X150087635Y-64431758D01*
X149931758Y-64587635D01*
X149866971Y-64676806D01*
X149802183Y-64765980D01*
X149702102Y-64962400D01*
X149633984Y-65172051D01*
X149599500Y-65389774D01*
X140000000Y-65389774D01*
X140000000Y-62389774D01*
X146599500Y-62389774D01*
X146599500Y-62610225D01*
X146633984Y-62827948D01*
X146702102Y-63037599D01*
X146702104Y-63037602D01*
X146702105Y-63037606D01*
X146802185Y-63234022D01*
X146931758Y-63412365D01*
X147087635Y-63568242D01*
X147265978Y-63697815D01*
X147462394Y-63797895D01*
X147672049Y-63866015D01*
X147759140Y-63879809D01*
X147889775Y-63900500D01*
X147889778Y-63900500D01*
X148110225Y-63900500D01*
X148219086Y-63883257D01*
X148327951Y-63866015D01*
X148537606Y-63797895D01*
X148734022Y-63697815D01*
X148912365Y-63568242D01*
X149068242Y-63412365D01*
X149197815Y-63234022D01*
X149297895Y-63037606D01*
X149366015Y-62827951D01*
X149400500Y-62610222D01*
X149400500Y-62389778D01*
X149400500Y-62389774D01*
X149599500Y-62389774D01*
X149599500Y-62610225D01*
X149633984Y-62827948D01*
X149702102Y-63037599D01*
X149702104Y-63037602D01*
X149702105Y-63037606D01*
X149802185Y-63234022D01*
X149931758Y-63412365D01*
X150087635Y-63568242D01*
X150265978Y-63697815D01*
X150462394Y-63797895D01*
X150672049Y-63866015D01*
X150759140Y-63879809D01*
X150889775Y-63900500D01*
X150889778Y-63900500D01*
X151110225Y-63900500D01*
X151219086Y-63883257D01*
X151327951Y-63866015D01*
X151537606Y-63797895D01*
X151734022Y-63697815D01*
X151912365Y-63568242D01*
X152068242Y-63412365D01*
X152197815Y-63234022D01*
X152297895Y-63037606D01*
X152366015Y-62827951D01*
X152400500Y-62610222D01*
X152400500Y-62389778D01*
X152400500Y-62389774D01*
X152366015Y-62172051D01*
X152366015Y-62172049D01*
X152297895Y-61962394D01*
X152197815Y-61765978D01*
X152068242Y-61587635D01*
X151912365Y-61431758D01*
X151734022Y-61302185D01*
X151734021Y-61302184D01*
X151734019Y-61302183D01*
X151644825Y-61256736D01*
X151537606Y-61202105D01*
X151537602Y-61202104D01*
X151537599Y-61202102D01*
X151327948Y-61133984D01*
X151110225Y-61099500D01*
X151110222Y-61099500D01*
X150889778Y-61099500D01*
X150889775Y-61099500D01*
X150672051Y-61133984D01*
X150462400Y-61202102D01*
X150265980Y-61302183D01*
X150176806Y-61366971D01*
X150087635Y-61431758D01*
X149931758Y-61587635D01*
X149866971Y-61676806D01*
X149802183Y-61765980D01*
X149702102Y-61962400D01*
X149633984Y-62172051D01*
X149599500Y-62389774D01*
X149400500Y-62389774D01*
X149366015Y-62172051D01*
X149366015Y-62172049D01*
X149297895Y-61962394D01*
X149197815Y-61765978D01*
X149068242Y-61587635D01*
X148912365Y-61431758D01*
X148734022Y-61302185D01*
X148734021Y-61302184D01*
X148734019Y-61302183D01*
X148644825Y-61256736D01*
X148537606Y-61202105D01*
X148537602Y-61202104D01*
X148537599Y-61202102D01*
X148327948Y-61133984D01*
X148110225Y-61099500D01*
X148110222Y-61099500D01*
X147889778Y-61099500D01*
X147889775Y-61099500D01*
X147672051Y-61133984D01*
X147462400Y-61202102D01*
X147265980Y-61302183D01*
X147176806Y-61366971D01*
X147087635Y-61431758D01*
X146931758Y-61587635D01*
X146866971Y-61676806D01*
X146802183Y-61765980D01*
X146702102Y-61962400D01*
X146633984Y-62172051D01*
X146599500Y-62389774D01*
X140000000Y-62389774D01*
X140000000Y-40639808D01*
X142070500Y-40639808D01*
X142070500Y-40771592D01*
X142100579Y-40883851D01*
X142104609Y-40898890D01*
X142170496Y-41013009D01*
X142170498Y-41013011D01*
X142170500Y-41013014D01*
X142263686Y-41106200D01*
X142263688Y-41106201D01*
X142263690Y-41106203D01*
X142377810Y-41172090D01*
X142377808Y-41172090D01*
X142377812Y-41172091D01*
X142377814Y-41172092D01*
X142505108Y-41206200D01*
X142505110Y-41206200D01*
X142636890Y-41206200D01*
X142636892Y-41206200D01*
X142764186Y-41172092D01*
X142764188Y-41172090D01*
X142764190Y-41172090D01*
X142878309Y-41106203D01*
X142878309Y-41106202D01*
X142878314Y-41106200D01*
X142971500Y-41013014D01*
X143037392Y-40898886D01*
X143071500Y-40771592D01*
X143071500Y-40639808D01*
X143037392Y-40512514D01*
X143037390Y-40512511D01*
X143037390Y-40512509D01*
X142971503Y-40398390D01*
X142971501Y-40398388D01*
X142971500Y-40398386D01*
X142878314Y-40305200D01*
X142878311Y-40305198D01*
X142878309Y-40305196D01*
X142764189Y-40239309D01*
X142764191Y-40239309D01*
X142714799Y-40226075D01*
X142636892Y-40205200D01*
X142505108Y-40205200D01*
X142427200Y-40226075D01*
X142377809Y-40239309D01*
X142263690Y-40305196D01*
X142170496Y-40398390D01*
X142104609Y-40512509D01*
X142104608Y-40512514D01*
X142070500Y-40639808D01*
X140000000Y-40639808D01*
X140000000Y-24974000D01*
X140018907Y-24915809D01*
X140068407Y-24879845D01*
X140099000Y-24875000D01*
X141284999Y-24875000D01*
X141285000Y-24875000D01*
X141285000Y-23915352D01*
X146164500Y-23915352D01*
X146164500Y-24084647D01*
X146190980Y-24251842D01*
X146190982Y-24251847D01*
X146243295Y-24412849D01*
X146320150Y-24563685D01*
X146419654Y-24700641D01*
X146539359Y-24820346D01*
X146676315Y-24919850D01*
X146827151Y-24996705D01*
X146988153Y-25049018D01*
X146988154Y-25049018D01*
X146988157Y-25049019D01*
X147155353Y-25075500D01*
X147155356Y-25075500D01*
X147324647Y-25075500D01*
X147491842Y-25049019D01*
X147491843Y-25049018D01*
X147491847Y-25049018D01*
X147652849Y-24996705D01*
X147803685Y-24919850D01*
X147940641Y-24820346D01*
X148060346Y-24700641D01*
X148159850Y-24563685D01*
X148236705Y-24412849D01*
X148289018Y-24251847D01*
X148315500Y-24084644D01*
X148315500Y-23915356D01*
X148315500Y-23915352D01*
X148289019Y-23748157D01*
X148236706Y-23587155D01*
X148236705Y-23587151D01*
X148159850Y-23436315D01*
X148060346Y-23299359D01*
X147940641Y-23179654D01*
X147803685Y-23080150D01*
X147803684Y-23080149D01*
X147803682Y-23080148D01*
X147733903Y-23044594D01*
X147652849Y-23003295D01*
X147652846Y-23003294D01*
X147652844Y-23003293D01*
X147491842Y-22950980D01*
X147324647Y-22924500D01*
X147324644Y-22924500D01*
X147155356Y-22924500D01*
X147155353Y-22924500D01*
X146988157Y-22950980D01*
X146827155Y-23003293D01*
X146676317Y-23080148D01*
X146640607Y-23106093D01*
X146539359Y-23179654D01*
X146419654Y-23299359D01*
X146369902Y-23367837D01*
X146320148Y-23436317D01*
X146243293Y-23587155D01*
X146190980Y-23748157D01*
X146164500Y-23915352D01*
X141285000Y-23915352D01*
X141285000Y-23125000D01*
X140099000Y-23125000D01*
X140040809Y-23106093D01*
X140004845Y-23056593D01*
X140000000Y-23026000D01*
X140000000Y-1599000D01*
X140018907Y-1540809D01*
X140068407Y-1504845D01*
X140099000Y-1500000D01*
X152692722Y-1500000D01*
X152750913Y-1518907D01*
G37*
%TD.AperFunction*%
%TD*%
%TA.AperFunction,Conductor*%
%TO.N,JETSON_12V*%
G36*
X122959191Y-1518907D02*
G01*
X122995155Y-1568407D01*
X123000000Y-1599000D01*
X123000000Y-19801801D01*
X122981094Y-19859989D01*
X122973245Y-19870792D01*
X122973239Y-19870801D01*
X122887453Y-20039167D01*
X122829058Y-20218886D01*
X122799500Y-20405515D01*
X122799500Y-20594484D01*
X122829058Y-20781113D01*
X122887453Y-20960832D01*
X122973242Y-21129203D01*
X122981090Y-21140004D01*
X123000000Y-21198194D01*
X123000000Y-43901000D01*
X122981093Y-43959191D01*
X122931593Y-43995155D01*
X122901000Y-44000000D01*
X86099000Y-44000000D01*
X86040809Y-43981093D01*
X86004845Y-43931593D01*
X86000000Y-43901000D01*
X86000000Y-25995726D01*
X91599500Y-25995726D01*
X91599500Y-28004265D01*
X91602353Y-28034694D01*
X91647208Y-28162885D01*
X91727845Y-28272144D01*
X91727847Y-28272146D01*
X91727850Y-28272150D01*
X91727853Y-28272152D01*
X91727855Y-28272154D01*
X91837114Y-28352791D01*
X91837116Y-28352791D01*
X91837118Y-28352793D01*
X91965302Y-28397646D01*
X91995735Y-28400500D01*
X94004264Y-28400499D01*
X94004265Y-28400499D01*
X94010350Y-28399928D01*
X94034698Y-28397646D01*
X94162882Y-28352793D01*
X94272150Y-28272150D01*
X94352793Y-28162882D01*
X94397646Y-28034698D01*
X94400500Y-28004265D01*
X94400499Y-25995736D01*
X94397646Y-25965302D01*
X94352793Y-25837118D01*
X94352791Y-25837116D01*
X94352791Y-25837114D01*
X94272154Y-25727855D01*
X94272152Y-25727853D01*
X94272150Y-25727850D01*
X94272146Y-25727847D01*
X94272144Y-25727845D01*
X94162885Y-25647208D01*
X94148697Y-25642243D01*
X94034698Y-25602354D01*
X94034696Y-25602353D01*
X94034694Y-25602353D01*
X94004272Y-25599500D01*
X91995734Y-25599500D01*
X91965305Y-25602353D01*
X91837114Y-25647208D01*
X91727855Y-25727845D01*
X91727845Y-25727855D01*
X91647208Y-25837114D01*
X91602353Y-25965305D01*
X91599500Y-25995726D01*
X86000000Y-25995726D01*
X86000000Y-25003308D01*
X110508100Y-25003308D01*
X110508100Y-25135092D01*
X110538179Y-25247351D01*
X110542209Y-25262390D01*
X110608096Y-25376509D01*
X110608098Y-25376511D01*
X110608100Y-25376514D01*
X110701286Y-25469700D01*
X110701288Y-25469701D01*
X110701290Y-25469703D01*
X110815410Y-25535590D01*
X110815408Y-25535590D01*
X110815412Y-25535591D01*
X110815414Y-25535592D01*
X110942708Y-25569700D01*
X110942710Y-25569700D01*
X111074490Y-25569700D01*
X111074492Y-25569700D01*
X111201786Y-25535592D01*
X111201788Y-25535590D01*
X111201790Y-25535590D01*
X111315909Y-25469703D01*
X111315909Y-25469702D01*
X111315914Y-25469700D01*
X111409100Y-25376514D01*
X111474992Y-25262386D01*
X111509100Y-25135092D01*
X111509100Y-25003308D01*
X111474992Y-24876014D01*
X111474990Y-24876011D01*
X111474990Y-24876009D01*
X111409103Y-24761890D01*
X111409101Y-24761888D01*
X111409100Y-24761886D01*
X111315914Y-24668700D01*
X111315911Y-24668698D01*
X111315909Y-24668696D01*
X111201789Y-24602809D01*
X111201791Y-24602809D01*
X111152399Y-24589575D01*
X111074492Y-24568700D01*
X110942708Y-24568700D01*
X110864800Y-24589575D01*
X110815409Y-24602809D01*
X110701290Y-24668696D01*
X110608096Y-24761890D01*
X110542209Y-24876009D01*
X110542208Y-24876014D01*
X110508100Y-25003308D01*
X86000000Y-25003308D01*
X86000000Y-21889774D01*
X91599500Y-21889774D01*
X91599500Y-22110225D01*
X91633984Y-22327948D01*
X91702102Y-22537599D01*
X91702104Y-22537602D01*
X91702105Y-22537606D01*
X91802185Y-22734022D01*
X91931758Y-22912365D01*
X92087635Y-23068242D01*
X92265978Y-23197815D01*
X92462394Y-23297895D01*
X92672049Y-23366015D01*
X92759140Y-23379809D01*
X92889775Y-23400500D01*
X92889778Y-23400500D01*
X93110225Y-23400500D01*
X93219086Y-23383257D01*
X93327951Y-23366015D01*
X93537606Y-23297895D01*
X93734022Y-23197815D01*
X93912365Y-23068242D01*
X94068242Y-22912365D01*
X94197815Y-22734022D01*
X94297895Y-22537606D01*
X94366015Y-22327951D01*
X94400500Y-22110222D01*
X94400500Y-21889778D01*
X94400500Y-21889774D01*
X94367354Y-21680503D01*
X94366015Y-21672049D01*
X94297895Y-21462394D01*
X94197815Y-21265978D01*
X94197810Y-21265970D01*
X94197695Y-21265812D01*
X94197693Y-21265810D01*
X94160129Y-21214108D01*
X111394500Y-21214108D01*
X111394500Y-21345892D01*
X111413202Y-21415690D01*
X111428609Y-21473190D01*
X111494496Y-21587309D01*
X111494498Y-21587311D01*
X111494500Y-21587314D01*
X111587686Y-21680500D01*
X111587688Y-21680501D01*
X111587690Y-21680503D01*
X111701810Y-21746390D01*
X111701808Y-21746390D01*
X111701812Y-21746391D01*
X111701814Y-21746392D01*
X111829108Y-21780500D01*
X111829110Y-21780500D01*
X111960890Y-21780500D01*
X111960892Y-21780500D01*
X112088186Y-21746392D01*
X112088188Y-21746390D01*
X112088190Y-21746390D01*
X112202309Y-21680503D01*
X112202309Y-21680502D01*
X112202314Y-21680500D01*
X112295500Y-21587314D01*
X112361392Y-21473186D01*
X112395500Y-21345892D01*
X112395500Y-21214108D01*
X112361392Y-21086814D01*
X112361390Y-21086811D01*
X112361390Y-21086809D01*
X112295503Y-20972690D01*
X112295501Y-20972688D01*
X112295500Y-20972686D01*
X112202314Y-20879500D01*
X112202311Y-20879498D01*
X112202309Y-20879496D01*
X112088189Y-20813609D01*
X112088191Y-20813609D01*
X112038799Y-20800375D01*
X111960892Y-20779500D01*
X111829108Y-20779500D01*
X111751200Y-20800375D01*
X111701809Y-20813609D01*
X111587690Y-20879496D01*
X111494496Y-20972690D01*
X111428609Y-21086809D01*
X111428388Y-21087635D01*
X111394500Y-21214108D01*
X94160129Y-21214108D01*
X94148567Y-21198194D01*
X94068242Y-21087635D01*
X93912365Y-20931758D01*
X93734022Y-20802185D01*
X93734021Y-20802184D01*
X93734019Y-20802183D01*
X93644825Y-20756736D01*
X93537606Y-20702105D01*
X93537602Y-20702104D01*
X93537599Y-20702102D01*
X93327948Y-20633984D01*
X93110225Y-20599500D01*
X93110222Y-20599500D01*
X92889778Y-20599500D01*
X92889775Y-20599500D01*
X92672051Y-20633984D01*
X92462400Y-20702102D01*
X92265980Y-20802183D01*
X92176806Y-20866971D01*
X92087635Y-20931758D01*
X91931758Y-21087635D01*
X91893710Y-21140004D01*
X91802183Y-21265980D01*
X91702102Y-21462400D01*
X91633984Y-21672051D01*
X91599500Y-21889774D01*
X86000000Y-21889774D01*
X86000000Y-17195108D01*
X107413500Y-17195108D01*
X107413500Y-17326892D01*
X107443579Y-17439151D01*
X107447609Y-17454190D01*
X107513496Y-17568309D01*
X107513498Y-17568311D01*
X107513500Y-17568314D01*
X107606686Y-17661500D01*
X107606688Y-17661501D01*
X107606690Y-17661503D01*
X107720810Y-17727390D01*
X107720808Y-17727390D01*
X107720812Y-17727391D01*
X107720814Y-17727392D01*
X107848108Y-17761500D01*
X107848110Y-17761500D01*
X107979890Y-17761500D01*
X107979892Y-17761500D01*
X108107186Y-17727392D01*
X108107188Y-17727390D01*
X108107190Y-17727390D01*
X108221309Y-17661503D01*
X108221309Y-17661502D01*
X108221314Y-17661500D01*
X108314500Y-17568314D01*
X108380392Y-17454186D01*
X108414500Y-17326892D01*
X108414500Y-17195108D01*
X108380392Y-17067814D01*
X108380390Y-17067811D01*
X108380390Y-17067809D01*
X108314503Y-16953690D01*
X108314501Y-16953688D01*
X108314500Y-16953686D01*
X108221314Y-16860500D01*
X108221311Y-16860498D01*
X108221309Y-16860496D01*
X108107189Y-16794609D01*
X108107191Y-16794609D01*
X108057799Y-16781375D01*
X107979892Y-16760500D01*
X107848108Y-16760500D01*
X107770200Y-16781375D01*
X107720809Y-16794609D01*
X107606690Y-16860496D01*
X107513496Y-16953690D01*
X107447609Y-17067809D01*
X107447608Y-17067814D01*
X107413500Y-17195108D01*
X86000000Y-17195108D01*
X86000000Y-16613308D01*
X113610400Y-16613308D01*
X113610400Y-16745092D01*
X113614529Y-16760500D01*
X113644509Y-16872390D01*
X113710396Y-16986509D01*
X113710398Y-16986511D01*
X113710400Y-16986514D01*
X113803586Y-17079700D01*
X113803588Y-17079701D01*
X113803590Y-17079703D01*
X113917710Y-17145590D01*
X113917708Y-17145590D01*
X113917712Y-17145591D01*
X113917714Y-17145592D01*
X114045008Y-17179700D01*
X114045010Y-17179700D01*
X114176790Y-17179700D01*
X114176792Y-17179700D01*
X114304086Y-17145592D01*
X114304088Y-17145590D01*
X114304090Y-17145590D01*
X114418209Y-17079703D01*
X114418209Y-17079702D01*
X114418214Y-17079700D01*
X114511400Y-16986514D01*
X114577292Y-16872386D01*
X114611400Y-16745092D01*
X114611400Y-16613308D01*
X114577292Y-16486014D01*
X114577290Y-16486011D01*
X114577290Y-16486009D01*
X114511403Y-16371890D01*
X114511401Y-16371888D01*
X114511400Y-16371886D01*
X114418214Y-16278700D01*
X114418211Y-16278698D01*
X114418209Y-16278696D01*
X114304089Y-16212809D01*
X114304091Y-16212809D01*
X114254699Y-16199575D01*
X114176792Y-16178700D01*
X114045008Y-16178700D01*
X113967100Y-16199575D01*
X113917709Y-16212809D01*
X113803590Y-16278696D01*
X113710396Y-16371890D01*
X113644509Y-16486009D01*
X113644508Y-16486014D01*
X113610400Y-16613308D01*
X86000000Y-16613308D01*
X86000000Y-14784808D01*
X111909200Y-14784808D01*
X111909200Y-14916592D01*
X111939279Y-15028851D01*
X111943309Y-15043890D01*
X112009196Y-15158009D01*
X112009198Y-15158011D01*
X112009200Y-15158014D01*
X112102386Y-15251200D01*
X112102388Y-15251201D01*
X112102390Y-15251203D01*
X112216510Y-15317090D01*
X112216508Y-15317090D01*
X112216512Y-15317091D01*
X112216514Y-15317092D01*
X112343808Y-15351200D01*
X112343810Y-15351200D01*
X112475590Y-15351200D01*
X112475592Y-15351200D01*
X112602886Y-15317092D01*
X112602888Y-15317090D01*
X112602890Y-15317090D01*
X112717009Y-15251203D01*
X112717009Y-15251202D01*
X112717014Y-15251200D01*
X112810200Y-15158014D01*
X112876092Y-15043886D01*
X112910200Y-14916592D01*
X112910200Y-14784808D01*
X112876092Y-14657514D01*
X112876090Y-14657511D01*
X112876090Y-14657509D01*
X112810203Y-14543390D01*
X112810201Y-14543388D01*
X112810200Y-14543386D01*
X112717014Y-14450200D01*
X112717011Y-14450198D01*
X112717009Y-14450196D01*
X112602889Y-14384309D01*
X112602891Y-14384309D01*
X112553499Y-14371075D01*
X112475592Y-14350200D01*
X112343808Y-14350200D01*
X112265900Y-14371075D01*
X112216509Y-14384309D01*
X112102390Y-14450196D01*
X112009196Y-14543390D01*
X111943309Y-14657509D01*
X111943308Y-14657514D01*
X111909200Y-14784808D01*
X86000000Y-14784808D01*
X86000000Y-12164774D01*
X99489500Y-12164774D01*
X99489500Y-12385225D01*
X99523984Y-12602948D01*
X99592102Y-12812599D01*
X99592104Y-12812602D01*
X99592105Y-12812606D01*
X99692185Y-13009022D01*
X99821758Y-13187365D01*
X99977635Y-13343242D01*
X100155978Y-13472815D01*
X100352394Y-13572895D01*
X100562049Y-13641015D01*
X100649140Y-13654809D01*
X100779775Y-13675500D01*
X100779778Y-13675500D01*
X101000225Y-13675500D01*
X101109086Y-13658257D01*
X101217951Y-13641015D01*
X101427606Y-13572895D01*
X101624022Y-13472815D01*
X101802365Y-13343242D01*
X101958242Y-13187365D01*
X102087815Y-13009022D01*
X102187895Y-12812606D01*
X102256015Y-12602951D01*
X102290500Y-12385222D01*
X102290500Y-12164778D01*
X102290500Y-12164774D01*
X102489500Y-12164774D01*
X102489500Y-12385225D01*
X102523984Y-12602948D01*
X102592102Y-12812599D01*
X102592104Y-12812602D01*
X102592105Y-12812606D01*
X102692185Y-13009022D01*
X102821758Y-13187365D01*
X102977635Y-13343242D01*
X103155978Y-13472815D01*
X103352394Y-13572895D01*
X103562049Y-13641015D01*
X103649140Y-13654809D01*
X103779775Y-13675500D01*
X103779778Y-13675500D01*
X104000225Y-13675500D01*
X104109086Y-13658257D01*
X104217951Y-13641015D01*
X104305688Y-13612508D01*
X109174500Y-13612508D01*
X109174500Y-13744292D01*
X109204579Y-13856551D01*
X109208609Y-13871590D01*
X109274496Y-13985709D01*
X109274498Y-13985711D01*
X109274500Y-13985714D01*
X109367686Y-14078900D01*
X109367688Y-14078901D01*
X109367690Y-14078903D01*
X109481810Y-14144790D01*
X109481808Y-14144790D01*
X109481812Y-14144791D01*
X109481814Y-14144792D01*
X109609108Y-14178900D01*
X109609110Y-14178900D01*
X109740890Y-14178900D01*
X109740892Y-14178900D01*
X109868186Y-14144792D01*
X109868188Y-14144790D01*
X109868190Y-14144790D01*
X109982309Y-14078903D01*
X109982309Y-14078902D01*
X109982314Y-14078900D01*
X110075500Y-13985714D01*
X110141392Y-13871586D01*
X110175500Y-13744292D01*
X110175500Y-13612508D01*
X110141392Y-13485214D01*
X110141390Y-13485211D01*
X110141390Y-13485209D01*
X110075503Y-13371090D01*
X110075501Y-13371088D01*
X110075500Y-13371086D01*
X109982314Y-13277900D01*
X109982311Y-13277898D01*
X109982309Y-13277896D01*
X109868189Y-13212009D01*
X109868191Y-13212009D01*
X109818799Y-13198775D01*
X109740892Y-13177900D01*
X109609108Y-13177900D01*
X109531200Y-13198775D01*
X109481809Y-13212009D01*
X109367690Y-13277896D01*
X109274496Y-13371090D01*
X109208609Y-13485209D01*
X109208608Y-13485214D01*
X109174500Y-13612508D01*
X104305688Y-13612508D01*
X104427606Y-13572895D01*
X104624022Y-13472815D01*
X104802365Y-13343242D01*
X104958242Y-13187365D01*
X105087815Y-13009022D01*
X105187895Y-12812606D01*
X105256015Y-12602951D01*
X105290500Y-12385222D01*
X105290500Y-12164778D01*
X105290500Y-12164774D01*
X105256015Y-11947051D01*
X105256015Y-11947049D01*
X105187895Y-11737394D01*
X105087815Y-11540978D01*
X104958242Y-11362635D01*
X104802365Y-11206758D01*
X104671679Y-11111810D01*
X104671679Y-11111809D01*
X104624027Y-11077188D01*
X104624021Y-11077184D01*
X104547526Y-11038208D01*
X114330600Y-11038208D01*
X114330600Y-11169992D01*
X114340452Y-11206760D01*
X114364709Y-11297290D01*
X114430596Y-11411409D01*
X114430598Y-11411411D01*
X114430600Y-11411414D01*
X114523786Y-11504600D01*
X114523788Y-11504601D01*
X114523790Y-11504603D01*
X114637910Y-11570490D01*
X114637908Y-11570490D01*
X114637912Y-11570491D01*
X114637914Y-11570492D01*
X114765208Y-11604600D01*
X114765210Y-11604600D01*
X114896990Y-11604600D01*
X114896992Y-11604600D01*
X115024286Y-11570492D01*
X115024288Y-11570490D01*
X115024290Y-11570490D01*
X115138409Y-11504603D01*
X115138409Y-11504602D01*
X115138414Y-11504600D01*
X115231600Y-11411414D01*
X115297492Y-11297286D01*
X115331600Y-11169992D01*
X115331600Y-11038208D01*
X115321748Y-11001439D01*
X115324951Y-10940339D01*
X115363456Y-10892789D01*
X115391750Y-10880192D01*
X115426086Y-10870992D01*
X115540214Y-10805100D01*
X115633400Y-10711914D01*
X115638200Y-10703600D01*
X115699290Y-10597790D01*
X115699290Y-10597788D01*
X115699292Y-10597786D01*
X115733400Y-10470492D01*
X115733400Y-10338708D01*
X115699292Y-10211414D01*
X115652212Y-10129870D01*
X115639491Y-10070024D01*
X115664377Y-10014128D01*
X115667927Y-10010386D01*
X115727500Y-9950814D01*
X115793392Y-9836686D01*
X115827500Y-9709392D01*
X115827500Y-9577608D01*
X115793392Y-9450314D01*
X115793390Y-9450311D01*
X115793390Y-9450309D01*
X115727503Y-9336190D01*
X115727501Y-9336188D01*
X115727500Y-9336186D01*
X115634314Y-9243000D01*
X115634311Y-9242998D01*
X115634309Y-9242996D01*
X115520189Y-9177109D01*
X115520191Y-9177109D01*
X115470799Y-9163875D01*
X115392892Y-9143000D01*
X115261108Y-9143000D01*
X115183200Y-9163875D01*
X115133809Y-9177109D01*
X115019690Y-9242996D01*
X114926496Y-9336190D01*
X114860609Y-9450309D01*
X114860608Y-9450314D01*
X114826500Y-9577608D01*
X114826500Y-9709392D01*
X114849238Y-9794254D01*
X114860608Y-9836687D01*
X114907686Y-9918228D01*
X114920407Y-9978077D01*
X114895520Y-10033972D01*
X114891954Y-10037730D01*
X114832401Y-10097284D01*
X114832396Y-10097290D01*
X114766509Y-10211409D01*
X114732400Y-10338709D01*
X114732400Y-10470494D01*
X114742251Y-10507260D01*
X114739048Y-10568361D01*
X114700542Y-10615910D01*
X114672249Y-10628507D01*
X114637913Y-10637708D01*
X114637910Y-10637709D01*
X114523790Y-10703596D01*
X114430596Y-10796790D01*
X114364709Y-10910909D01*
X114346973Y-10977102D01*
X114330600Y-11038208D01*
X104547526Y-11038208D01*
X104532893Y-11030752D01*
X104427606Y-10977105D01*
X104427602Y-10977104D01*
X104427599Y-10977102D01*
X104217948Y-10908984D01*
X104000225Y-10874500D01*
X104000222Y-10874500D01*
X103779778Y-10874500D01*
X103779775Y-10874500D01*
X103562051Y-10908984D01*
X103352400Y-10977102D01*
X103155980Y-11077183D01*
X103066806Y-11141971D01*
X102977635Y-11206758D01*
X102821758Y-11362635D01*
X102786322Y-11411409D01*
X102692183Y-11540980D01*
X102592102Y-11737400D01*
X102523984Y-11947051D01*
X102489500Y-12164774D01*
X102290500Y-12164774D01*
X102256015Y-11947051D01*
X102256015Y-11947049D01*
X102187895Y-11737394D01*
X102087815Y-11540978D01*
X101958242Y-11362635D01*
X101802365Y-11206758D01*
X101624022Y-11077185D01*
X101624021Y-11077184D01*
X101624019Y-11077183D01*
X101534825Y-11031736D01*
X101427606Y-10977105D01*
X101427602Y-10977104D01*
X101427599Y-10977102D01*
X101217948Y-10908984D01*
X101000225Y-10874500D01*
X101000222Y-10874500D01*
X100779778Y-10874500D01*
X100779775Y-10874500D01*
X100562051Y-10908984D01*
X100352400Y-10977102D01*
X100155980Y-11077183D01*
X100066806Y-11141971D01*
X99977635Y-11206758D01*
X99821758Y-11362635D01*
X99786322Y-11411409D01*
X99692183Y-11540980D01*
X99592102Y-11737400D01*
X99523984Y-11947051D01*
X99489500Y-12164774D01*
X86000000Y-12164774D01*
X86000000Y-7391308D01*
X88531700Y-7391308D01*
X88531700Y-7523092D01*
X88534594Y-7533892D01*
X88565809Y-7650390D01*
X88631696Y-7764509D01*
X88631698Y-7764511D01*
X88631700Y-7764514D01*
X88724886Y-7857700D01*
X88724888Y-7857701D01*
X88724890Y-7857703D01*
X88839010Y-7923590D01*
X88839008Y-7923590D01*
X88839012Y-7923591D01*
X88839014Y-7923592D01*
X88966308Y-7957700D01*
X88966310Y-7957700D01*
X89098090Y-7957700D01*
X89098092Y-7957700D01*
X89225386Y-7923592D01*
X89225388Y-7923590D01*
X89225390Y-7923590D01*
X89339509Y-7857703D01*
X89339509Y-7857702D01*
X89339514Y-7857700D01*
X89432700Y-7764514D01*
X89442935Y-7746786D01*
X89498590Y-7650390D01*
X89498590Y-7650388D01*
X89498592Y-7650386D01*
X89532700Y-7523092D01*
X89532700Y-7487708D01*
X90978100Y-7487708D01*
X90978100Y-7619492D01*
X90986378Y-7650386D01*
X91012209Y-7746790D01*
X91078096Y-7860909D01*
X91078098Y-7860911D01*
X91078100Y-7860914D01*
X91171286Y-7954100D01*
X91171288Y-7954101D01*
X91171290Y-7954103D01*
X91285410Y-8019990D01*
X91285408Y-8019990D01*
X91285412Y-8019991D01*
X91285414Y-8019992D01*
X91412708Y-8054100D01*
X91412710Y-8054100D01*
X91544490Y-8054100D01*
X91544492Y-8054100D01*
X91671786Y-8019992D01*
X91671788Y-8019990D01*
X91671790Y-8019990D01*
X91785909Y-7954103D01*
X91785909Y-7954102D01*
X91785914Y-7954100D01*
X91879100Y-7860914D01*
X91880956Y-7857700D01*
X91944990Y-7746790D01*
X91944990Y-7746788D01*
X91944992Y-7746786D01*
X91979100Y-7619492D01*
X91979100Y-7487708D01*
X91956164Y-7402108D01*
X92542500Y-7402108D01*
X92542500Y-7533892D01*
X92565436Y-7619490D01*
X92576609Y-7661190D01*
X92642496Y-7775309D01*
X92642498Y-7775311D01*
X92642500Y-7775314D01*
X92735686Y-7868500D01*
X92735688Y-7868501D01*
X92735690Y-7868503D01*
X92849810Y-7934390D01*
X92849808Y-7934390D01*
X92849812Y-7934391D01*
X92849814Y-7934392D01*
X92977108Y-7968500D01*
X92977110Y-7968500D01*
X93108890Y-7968500D01*
X93108892Y-7968500D01*
X93236186Y-7934392D01*
X93236188Y-7934390D01*
X93236190Y-7934390D01*
X93350309Y-7868503D01*
X93350309Y-7868502D01*
X93350314Y-7868500D01*
X93443500Y-7775314D01*
X93443503Y-7775309D01*
X93509390Y-7661190D01*
X93509390Y-7661188D01*
X93509392Y-7661186D01*
X93543500Y-7533892D01*
X93543500Y-7402108D01*
X93509392Y-7274814D01*
X93509390Y-7274811D01*
X93509390Y-7274809D01*
X93443503Y-7160690D01*
X93443501Y-7160688D01*
X93443500Y-7160686D01*
X93350314Y-7067500D01*
X93350311Y-7067498D01*
X93350309Y-7067496D01*
X93236189Y-7001609D01*
X93236191Y-7001609D01*
X93186799Y-6988375D01*
X93108892Y-6967500D01*
X92977108Y-6967500D01*
X92899200Y-6988375D01*
X92849809Y-7001609D01*
X92735690Y-7067496D01*
X92642496Y-7160690D01*
X92576609Y-7274809D01*
X92576608Y-7274814D01*
X92542500Y-7402108D01*
X91956164Y-7402108D01*
X91944992Y-7360414D01*
X91944990Y-7360411D01*
X91944990Y-7360409D01*
X91879103Y-7246290D01*
X91879101Y-7246288D01*
X91879100Y-7246286D01*
X91785914Y-7153100D01*
X91785911Y-7153098D01*
X91785909Y-7153096D01*
X91671789Y-7087209D01*
X91671791Y-7087209D01*
X91622399Y-7073975D01*
X91544492Y-7053100D01*
X91412708Y-7053100D01*
X91334800Y-7073975D01*
X91285409Y-7087209D01*
X91171290Y-7153096D01*
X91078096Y-7246290D01*
X91012209Y-7360409D01*
X91012208Y-7360414D01*
X90978100Y-7487708D01*
X89532700Y-7487708D01*
X89532700Y-7391308D01*
X89498592Y-7264014D01*
X89498590Y-7264011D01*
X89498590Y-7264009D01*
X89432703Y-7149890D01*
X89432701Y-7149888D01*
X89432700Y-7149886D01*
X89339514Y-7056700D01*
X89339511Y-7056698D01*
X89339509Y-7056696D01*
X89225389Y-6990809D01*
X89225391Y-6990809D01*
X89175999Y-6977575D01*
X89098092Y-6956700D01*
X88966308Y-6956700D01*
X88888400Y-6977575D01*
X88839009Y-6990809D01*
X88724890Y-7056696D01*
X88631696Y-7149890D01*
X88565809Y-7264009D01*
X88562914Y-7274814D01*
X88531700Y-7391308D01*
X86000000Y-7391308D01*
X86000000Y-1599000D01*
X86018907Y-1540809D01*
X86068407Y-1504845D01*
X86099000Y-1500000D01*
X122901000Y-1500000D01*
X122959191Y-1518907D01*
G37*
%TD.AperFunction*%
%TD*%
M02*
