M48
; DRILL file KiCad 10.0.5 date 2026-08-07T15:51:00
; FORMAT={-:-/ absolute / metric / decimal}
; #@! TF.CreationDate,2026-08-07T15:51:00+08:00
; #@! TF.GenerationSoftware,Kicad,Pcbnew,10.0.5
; #@! TF.FileFunction,Plated,1,6,PTH
FMAT,2
METRIC
; #@! TA.AperFunction,Plated,PTH,ComponentDrill
T1C1.100
%
G90
G05
T1
X25.5Y-35.0
X28.5Y-35.0
X31.5Y-35.0
X34.5Y-35.0
X46.5Y-35.0
X49.5Y-35.0
X63.5Y-35.0
X66.5Y-35.0
X67.5Y-82.0
X69.5Y-35.0
X70.5Y-82.0
X72.5Y-35.0
X73.5Y-82.0
X76.5Y-82.0
X80.0Y-35.0
X83.0Y-35.0
X93.0Y-35.0
X96.0Y-35.0
X101.5Y-96.0
X104.5Y-96.0
X107.5Y-42.0
X107.5Y-64.0
X107.5Y-96.0
X110.5Y-42.0
X110.5Y-64.0
X110.5Y-96.0
X113.5Y-42.0
X113.5Y-64.0
X113.5Y-96.0
X116.5Y-42.0
X116.5Y-64.0
X116.5Y-96.0
X119.5Y-96.0
X122.5Y-96.0
X134.5Y-64.0
X137.5Y-64.0
X140.5Y-64.0
X143.5Y-42.0
X143.5Y-64.0
X145.5Y-96.0
X145.5Y-110.0
X146.5Y-42.0
X146.5Y-64.0
X148.5Y-96.0
X148.5Y-110.0
X149.5Y-42.0
X149.5Y-64.0
X151.5Y-96.0
X151.5Y-110.0
X152.5Y-42.0
X152.5Y-64.0
X154.5Y-96.0
X154.5Y-110.0
X155.5Y-64.0
X163.5Y-96.0
X166.5Y-96.0
X169.5Y-96.0
X172.5Y-96.0
M30
