<svg xmlns="http://www.w3.org/2000/svg" viewBox="0 0 1600 900" role="img" aria-labelledby="title desc">
  <title id="title">Workbench Desk Robot</title>
  <desc id="desc">A tabletop robot visual with a verification-first event timeline and three-valued task status.</desc>
  <rect width="1600" height="900" fill="#11191d"/>
  <rect x="64" y="64" width="1472" height="772" rx="24" fill="#182328" stroke="#33464d" stroke-width="2"/>
  <path d="M64 610h1472v226H64z" fill="#202d31"/>
  <path d="M140 682h1010v46H140z" fill="#9a6748"/>
  <path d="M140 728h1010v24H140z" fill="#6d4937"/>
  <path d="M1210 154h232v470h-232z" fill="#10181b" stroke="#3a5157" stroke-width="2"/>
  <text x="140" y="170" fill="#8fe0cc" font-family="Arial, sans-serif" font-size="22" font-weight="700" letter-spacing="4">WORKBENCH 1</text>
  <text x="140" y="230" fill="#f4f7f5" font-family="Arial, sans-serif" font-size="56" font-weight="700">Verify before you say done.</text>
  <text x="140" y="276" fill="#a8bac0" font-family="Arial, sans-serif" font-size="24">A tabletop robot runtime built around evidence, replay, and fail-closed decisions.</text>
  <circle cx="370" cy="514" r="80" fill="#27383d" stroke="#8fe0cc" stroke-width="8"/>
  <circle cx="370" cy="514" r="20" fill="#8fe0cc"/>
  <path d="M370 434V340M370 594v44M290 514h-74M450 514h74" stroke="#d6e7e5" stroke-width="18" stroke-linecap="round"/>
  <path d="M370 340l142-88 120 74-120 88z" fill="#d5e1df" stroke="#8fe0cc" stroke-width="7"/>
  <path d="M512 252l102-64 106 62-108 64z" fill="#b9cbc9" stroke="#8fe0cc" stroke-width="7"/>
  <path d="M720 250l86 42-30 104-80-42z" fill="#d5e1df" stroke="#8fe0cc" stroke-width="7"/>
  <path d="M776 396l74 42-18 98-68-38z" fill="#d5e1df" stroke="#8fe0cc" stroke-width="7"/>
  <path d="M814 534l54 31-8 78-52-28z" fill="#d5e1df" stroke="#8fe0cc" stroke-width="7"/>
  <path d="M846 643l-20 45M878 645l26 42" stroke="#f28b6b" stroke-width="10" stroke-linecap="round"/>
  <rect x="250" y="635" width="240" height="16" rx="8" fill="#d5e1df"/>
  <rect x="816" y="576" width="170" height="106" rx="8" fill="#556a6d" stroke="#8fe0cc" stroke-width="5"/>
  <rect x="846" y="600" width="110" height="62" rx="4" fill="#dce9e3"/>
  <rect x="870" y="620" width="60" height="20" rx="10" fill="#f28b6b"/>
  <text x="1250" y="206" fill="#8fa7ad" font-family="Arial, sans-serif" font-size="16" letter-spacing="2">EVIDENCE STATUS</text>
  <text x="1250" y="264" fill="#f4f7f5" font-family="Arial, sans-serif" font-size="34" font-weight="700">Three states.</text>
  <text x="1250" y="306" fill="#a8bac0" font-family="Arial, sans-serif" font-size="18">No silent success.</text>
  <circle cx="1268" cy="378" r="10" fill="#8fe0cc"/><text x="1300" y="386" fill="#dce9e3" font-family="Arial, sans-serif" font-size="22">CONFIRMED</text>
  <circle cx="1268" cy="440" r="10" fill="#f28b6b"/><text x="1300" y="448" fill="#dce9e3" font-family="Arial, sans-serif" font-size="22">REFUTED</text>
  <circle cx="1268" cy="502" r="10" fill="#f0c36b"/><text x="1300" y="510" fill="#dce9e3" font-family="Arial, sans-serif" font-size="22">INSUFFICIENT EVIDENCE</text>
  <path d="M1250 574h148" stroke="#33464d" stroke-width="2"/>
  <text x="1250" y="624" fill="#8fa7ad" font-family="Arial, sans-serif" font-size="16" letter-spacing="2">REPLAYABLE EVENT LOG</text>
  <path d="M1252 662h152M1252 694h118M1252 726h138" stroke="#8fe0cc" stroke-width="5" stroke-linecap="round"/>
  <text x="140" y="790" fill="#8fa7ad" font-family="Arial, sans-serif" font-size="16" letter-spacing="2">EVIDENCE-FIRST EMBODIED AGENT FOUNDATION</text>
</svg>
